<svg width="228" height="219" viewBox="0 0 228 219" fill="none" xmlns="http://www.w3.org/2000/svg">
<g filter="url(#filter0_f_821653_534)">
<path fill-rule="evenodd" clip-rule="evenodd" d="M20.5695 156.52L111.454 203.383L202.339 156.52L202.339 62.7945L111.454 15.9316L20.5695 62.7945L20.5695 156.52ZM40.6047 146.358L111.322 182.876L182.039 146.358L182.039 73.3202L111.322 36.8015L40.6047 73.3202L40.6047 146.358Z" fill="#E9B743"/>
</g>
<g filter="url(#filter1_f_821653_534)">
<path d="M169.462 139.588L112.449 169.755L55.7571 140.74L56.0783 81.5561L113.092 51.3885L169.784 80.4044L169.462 139.588Z" fill="#E9B743"/>
<path d="M169.462 139.588L112.449 169.755L55.7571 140.74L56.0783 81.5561L113.092 51.3885L169.784 80.4044L169.462 139.588Z" stroke="#E9B743" stroke-miterlimit="10"/>
</g>
<g filter="url(#filter2_di_821653_534)">
<path d="M110.996 196.512L28.1022 153.856L28.1022 68.5424L110.996 25.8857L193.89 68.5424L193.89 153.856L110.996 196.512Z" fill="url(#paint0_linear_821653_534)"/>
</g>
<path d="M186.448 149.814L114.298 187.211L41.8019 150.106L41.4552 75.6045L113.605 38.2073L186.101 75.312L186.448 149.814Z" fill="url(#paint1_diamond_821653_534)" fill-opacity="0.8" stroke="url(#paint2_linear_821653_534)" stroke-width="5" stroke-miterlimit="10"/>
<defs>
<filter id="filter0_f_821653_534" x="5.56934" y="0.931641" width="211.77" height="217.451" filterUnits="userSpaceOnUse" color-interpolation-filters="sRGB">
<feFlood flood-opacity="0" result="BackgroundImageFix"/>
<feBlend mode="normal" in="SourceGraphic" in2="BackgroundImageFix" result="shape"/>
<feGaussianBlur stdDeviation="7.5" result="effect1_foregroundBlur_821653_534"/>
</filter>
<filter id="filter1_f_821653_534" x="40.2354" y="35.8389" width="145.07" height="149.467" filterUnits="userSpaceOnUse" color-interpolation-filters="sRGB">
<feFlood flood-opacity="0" result="BackgroundImageFix"/>
<feBlend mode="normal" in="SourceGraphic" in2="BackgroundImageFix" result="shape"/>
<feGaussianBlur stdDeviation="7.5" result="effect1_foregroundBlur_821653_534"/>
</filter>
<filter id="filter2_di_821653_534" x="24.1025" y="25.8857" width="173.787" height="178.627" filterUnits="userSpaceOnUse" color-interpolation-filters="sRGB">
<feFlood flood-opacity="0" result="BackgroundImageFix"/>
<feColorMatrix in="SourceAlpha" type="matrix" values="0 0 0 0 0 0 0 0 0 0 0 0 0 0 0 0 0 0 127 0" result="hardAlpha"/>
<feOffset dy="4"/>
<feGaussianBlur stdDeviation="2"/>
<feComposite in2="hardAlpha" operator="out"/>
<feColorMatrix type="matrix" values="0 0 0 0 0 0 0 0 0 0 0 0 0 0 0 0 0 0 0.25 0"/>
<feBlend mode="normal" in2="BackgroundImageFix" result="effect1_dropShadow_821653_534"/>
<feBlend mode="normal" in="SourceGraphic" in2="effect1_dropShadow_821653_534" result="shape"/>
<feColorMatrix in="SourceAlpha" type="matrix" values="0 0 0 0 0 0 0 0 0 0 0 0 0 0 0 0 0 0 127 0" result="hardAlpha"/>
<feOffset dx="4" dy="4"/>
<feGaussianBlur stdDeviation="14"/>
<feComposite in2="hardAlpha" operator="arithmetic" k2="-1" k3="1"/>
<feColorMatrix type="matrix" values="0 0 0 0 0 0 0 0 0 0 0 0 0 0 0 0 0 0 0.05 0"/>
<feBlend mode="normal" in2="shape" result="effect2_innerShadow_821653_534"/>
</filter>
<linearGradient id="paint0_linear_821653_534" x1="28.1142" y1="111.199" x2="193.89" y2="111.199" gradientUnits="userSpaceOnUse">
<stop offset="0.065" stop-color="#68341B"/>
<stop offset="0.77" stop-color="#E9B743"/>
<stop offset="0.98" stop-color="#E9B743"/>
</linearGradient>
<radialGradient id="paint1_diamond_821653_534" cx="0" cy="0" r="1" gradientUnits="userSpaceOnUse" gradientTransform="translate(114.518 113) rotate(-108.742) scale(101.343 1662.11)">
<stop offset="0.135" stop-color="#202946"/>
<stop offset="0.51" stop-color="#121727"/>
<stop offset="0.795" stop-color="#242E4E"/>
</radialGradient>
<linearGradient id="paint2_linear_821653_534" x1="32.5713" y1="72.1938" x2="177.475" y2="163.979" gradientUnits="userSpaceOnUse">
<stop stop-color="#E9B743"/>
<stop offset="0.0001" stop-color="#68341B"/>
<stop offset="0.28547" stop-color="#E1AE40"/>
<stop offset="0.351474" stop-color="#E9B743"/>
<stop offset="0.668359" stop-color="#7A4620"/>
<stop offset="0.995774" stop-color="#D7A43D"/>
</linearGradient>
</defs>
</svg>
