<svg width="105" height="35" viewBox="0 0 105 35" fill="none" xmlns="http://www.w3.org/2000/svg">
<path id="Vector" d="M101.265 34.4997H3.73442C2.78536 34.4997 2.12734 34.4985 1.64542 34.4304C1.17414 34.3638 0.977079 34.2461 0.85985 34.097C0.722504 33.9223 0.613474 33.6052 0.556453 32.9526C0.500461 32.3117 0.5 31.4473 0.5 30.2504V4.74936C0.5 3.55238 0.500461 2.68804 0.556453 2.04715C0.613473 1.3945 0.722503 1.0774 0.85985 0.902723C0.977078 0.753634 1.17414 0.635886 1.64542 0.56929C2.12734 0.501191 2.78536 0.5 3.73442 0.5H101.265C102.214 0.5 102.872 0.501191 103.354 0.56929C103.825 0.635886 104.022 0.753635 104.14 0.902724C104.277 1.0774 104.386 1.3945 104.443 2.04715C104.499 2.68804 104.499 3.55238 104.499 4.74936V30.2504C104.499 31.4473 104.499 32.3117 104.443 32.9526C104.386 33.6053 104.277 33.9224 104.14 34.0971C104.022 34.2462 103.825 34.364 103.354 34.4305C102.872 34.4986 102.214 34.4998 101.265 34.4997Z" fill="url(#paint0_linear_822408_2141)" stroke="#9A321A" stroke-miterlimit="10"/>
<defs>
<linearGradient id="paint0_linear_822408_2141" x1="52.4997" y1="34.9972" x2="52.4997" y2="0" gradientUnits="userSpaceOnUse">
<stop stop-color="#68341B"/>
<stop offset="0.62" stop-color="#E9B743"/>
<stop offset="0.955" stop-color="#E9B743"/>
<stop offset="1" stop-color="#F1B322"/>
</linearGradient>
</defs>
</svg>
