<svg width="105" height="35" viewBox="0 0 105 35" fill="none" xmlns="http://www.w3.org/2000/svg">
<g id="PrimaryButtonDisabled">
<g id="Vector">
<g filter="url(#filter0_ii_822992_2040)">
<path d="M101.266 35H52.5H3.73444C0 35 0 35 0 30.2506V4.7494C0 0 0 0 3.73444 0H101.266C105 0 105 0 105 4.7494V30.2506C105 35 105 35 101.266 35Z" fill="url(#paint0_radial_822992_2040)"/>
</g>
<path d="M3.73444 34C2.76993 34 2.15408 33.9976 1.71539 33.9356C1.30801 33.8781 1.25629 33.7937 1.25306 33.7885C1.25298 33.7883 1.25293 33.7882 1.2529 33.7882C1.21161 33.7357 1.11025 33.5468 1.05456 32.9093C1.00092 32.2954 1 31.4572 1 30.2506V4.7494C1 3.54277 1.00092 2.70459 1.05456 2.09069C1.11025 1.45325 1.21161 1.2643 1.2529 1.21178C1.25293 1.21175 1.25298 1.21167 1.25306 1.21154C1.25629 1.20626 1.30803 1.12193 1.71539 1.06437C2.15408 1.00238 2.76993 1 3.73444 1H101.266C102.23 1 102.846 1.00238 103.284 1.06437C103.692 1.12191 103.744 1.20621 103.747 1.21162L103.747 1.21187C103.788 1.2644 103.89 1.45334 103.946 2.09071C103.999 2.70455 104 3.54272 104 4.7493V30.2506C104 31.4572 103.999 32.2954 103.945 32.9093C103.89 33.5468 103.788 33.7357 103.747 33.7882C103.746 33.7896 103.702 33.8766 103.285 33.9356C102.846 33.9976 102.23 34 101.266 34H52.5H3.73444Z" stroke="#C6A864" stroke-width="2"/>
</g>
</g>
<defs>
<filter id="filter0_ii_822992_2040" x="-2" y="-2" width="109" height="39" filterUnits="userSpaceOnUse" color-interpolation-filters="sRGB">
<feFlood flood-opacity="0" result="BackgroundImageFix"/>
<feBlend mode="normal" in="SourceGraphic" in2="BackgroundImageFix" result="shape"/>
<feColorMatrix in="SourceAlpha" type="matrix" values="0 0 0 0 0 0 0 0 0 0 0 0 0 0 0 0 0 0 127 0" result="hardAlpha"/>
<feOffset dx="-2" dy="-2"/>
<feGaussianBlur stdDeviation="10"/>
<feComposite in2="hardAlpha" operator="arithmetic" k2="-1" k3="1"/>
<feColorMatrix type="matrix" values="0 0 0 0 0 0 0 0 0 0 0 0 0 0 0 0 0 0 0.25 0"/>
<feBlend mode="normal" in2="shape" result="effect1_innerShadow_822992_2040"/>
<feColorMatrix in="SourceAlpha" type="matrix" values="0 0 0 0 0 0 0 0 0 0 0 0 0 0 0 0 0 0 127 0" result="hardAlpha"/>
<feOffset dx="2" dy="2"/>
<feGaussianBlur stdDeviation="10"/>
<feComposite in2="hardAlpha" operator="arithmetic" k2="-1" k3="1"/>
<feColorMatrix type="matrix" values="0 0 0 0 0 0 0 0 0 0 0 0 0 0 0 0 0 0 0.25 0"/>
<feBlend mode="normal" in2="effect1_innerShadow_822992_2040" result="effect2_innerShadow_822992_2040"/>
</filter>
<radialGradient id="paint0_radial_822992_2040" cx="0" cy="0" r="1" gradientUnits="userSpaceOnUse" gradientTransform="translate(52.5 17.4987) scale(82.1268 84.2698)">
<stop stop-color="#D0AC57"/>
<stop offset="0.0001" stop-color="#A98E51"/>
<stop offset="0.37" stop-color="#A5863D"/>
<stop offset="1" stop-color="#74553F"/>
</radialGradient>
</defs>
</svg>
