<svg width="105" height="33" viewBox="0 0 105 33" fill="none" xmlns="http://www.w3.org/2000/svg">
<g filter="url(#filter0_ii_821658_451)">
<path d="M101.266 33H52.5H3.73444C3.73444 30.5275 2.06197 28.522 0 28.522V4.478C2.06197 4.478 3.73444 2.47253 3.73444 0H101.266C101.266 2.47253 102.938 4.478 105 4.478V28.522C102.938 28.522 101.266 30.5275 101.266 33Z" fill="url(#paint0_radial_821658_451)"/>
</g>
<path d="M100.346 32H52.5H4.6537C4.31447 29.9108 2.93221 28.1092 1 27.6405V5.35955C2.93221 4.89083 4.31447 3.08923 4.6537 1H100.346C100.686 3.08923 102.068 4.89083 104 5.35955V27.6405C102.068 28.1092 100.686 29.9108 100.346 32Z" stroke="url(#paint1_linear_821658_451)" stroke-width="2"/>
<defs>
<filter id="filter0_ii_821658_451" x="-2" y="-2" width="109" height="37" filterUnits="userSpaceOnUse" color-interpolation-filters="sRGB">
<feFlood flood-opacity="0" result="BackgroundImageFix"/>
<feBlend mode="normal" in="SourceGraphic" in2="BackgroundImageFix" result="shape"/>
<feColorMatrix in="SourceAlpha" type="matrix" values="0 0 0 0 0 0 0 0 0 0 0 0 0 0 0 0 0 0 127 0" result="hardAlpha"/>
<feOffset dx="2" dy="2"/>
<feGaussianBlur stdDeviation="2"/>
<feComposite in2="hardAlpha" operator="arithmetic" k2="-1" k3="1"/>
<feColorMatrix type="matrix" values="0 0 0 0 0 0 0 0 0 0 0 0 0 0 0 0 0 0 0.25 0"/>
<feBlend mode="normal" in2="shape" result="effect1_innerShadow_821658_451"/>
<feColorMatrix in="SourceAlpha" type="matrix" values="0 0 0 0 0 0 0 0 0 0 0 0 0 0 0 0 0 0 127 0" result="hardAlpha"/>
<feOffset dx="-2" dy="-2"/>
<feGaussianBlur stdDeviation="11"/>
<feComposite in2="hardAlpha" operator="arithmetic" k2="-1" k3="1"/>
<feColorMatrix type="matrix" values="0 0 0 0 0 0 0 0 0 0 0 0 0 0 0 0 0 0 0.25 0"/>
<feBlend mode="normal" in2="effect1_innerShadow_821658_451" result="effect2_innerShadow_821658_451"/>
</filter>
<radialGradient id="paint0_radial_821658_451" cx="0" cy="0" r="1" gradientUnits="userSpaceOnUse" gradientTransform="translate(52.5 16.4988) scale(82.1268 79.4544)">
<stop offset="0.048649" stop-color="#E9B743"/>
<stop offset="0.36111" stop-color="#E9B743"/>
<stop offset="0.735" stop-color="#E9B743"/>
<stop offset="1" stop-color="#7A4621"/>
</radialGradient>
<linearGradient id="paint1_linear_821658_451" x1="52.5" y1="32.9976" x2="52.5" y2="0" gradientUnits="userSpaceOnUse">
<stop offset="0.065" stop-color="#68341B"/>
<stop offset="0.77" stop-color="#E9B743"/>
<stop offset="0.98" stop-color="#E9B743"/>
</linearGradient>
</defs>
</svg>
