<svg width="359" height="94" viewBox="0 0 359 94" fill="none" xmlns="http://www.w3.org/2000/svg">
<path d="M62.1885 78.1123H66.5238" stroke="url(#paint0_linear_821662_804)" stroke-width="2.98" stroke-miterlimit="10"/>
<path d="M179.471 15.8882H299.053L304.882 10.0529L307.047 7.88824L311.941 3L324.824 15.8882H343.053V34.1118L355.941 47L343.053 59.8882V78.1118H324.824L311.941 91L307.047 86.1118L304.882 83.9471L299.053 78.1118H179.471H59.8882L54.0529 83.9471L51.8882 86.1118L47 91L34.1118 78.1118H15.8882V59.8882L3 47L15.8882 34.1118V15.8882H34.1118L47 3L51.8882 7.88824L54.0529 10.0529L59.8882 15.8882H179.471Z" fill="url(#paint1_linear_821662_804)" fill-opacity="0.85" stroke="url(#paint2_linear_821662_804)" stroke-width="4" stroke-miterlimit="10"/>
<path d="M304.883 10.0537L341.83 47.0008L304.883 83.9478" stroke="url(#paint3_linear_821662_804)" stroke-width="2" stroke-miterlimit="10"/>
<path d="M54.0535 10.0537L17.1064 47.0008L54.0535 83.9478" stroke="url(#paint4_linear_821662_804)" stroke-width="2" stroke-miterlimit="10"/>
<defs>
<linearGradient id="paint0_linear_821662_804" x1="-nan" y1="-nan" x2="-nan" y2="-nan" gradientUnits="userSpaceOnUse">
<stop offset="0.03" stop-color="#947553"/>
<stop offset="0.24" stop-color="#473017"/>
<stop offset="0.77" stop-color="#CCAC68"/>
<stop offset="0.98" stop-color="#FFDE99"/>
</linearGradient>
<linearGradient id="paint1_linear_821662_804" x1="179.471" y1="-2.5" x2="179.471" y2="95.8125" gradientUnits="userSpaceOnUse">
<stop offset="0.275" stop-color="#242E4E"/>
<stop offset="0.575" stop-color="#121727"/>
<stop offset="0.765" stop-color="#202946"/>
</linearGradient>
<linearGradient id="paint2_linear_821662_804" x1="179.471" y1="90.9937" x2="179.471" y2="3" gradientUnits="userSpaceOnUse">
<stop offset="0.065" stop-color="#68341B"/>
<stop offset="0.77" stop-color="#E9B743"/>
<stop offset="0.98" stop-color="#E9B743"/>
</linearGradient>
<linearGradient id="paint3_linear_821662_804" x1="323.356" y1="83.9425" x2="323.356" y2="10.0537" gradientUnits="userSpaceOnUse">
<stop offset="0.065" stop-color="#68341B"/>
<stop offset="0.77" stop-color="#E9B743"/>
<stop offset="0.98" stop-color="#E9B743"/>
</linearGradient>
<linearGradient id="paint4_linear_821662_804" x1="35.58" y1="83.9425" x2="35.58" y2="10.0537" gradientUnits="userSpaceOnUse">
<stop offset="0.065" stop-color="#68341B"/>
<stop offset="0.77" stop-color="#E9B743"/>
<stop offset="0.98" stop-color="#E9B743"/>
</linearGradient>
</defs>
</svg>
