<svg width="458" height="91" viewBox="0 0 458 91" fill="none" xmlns="http://www.w3.org/2000/svg">
<path d="M79.4863 75.4082H85.0154" stroke="url(#paint0_linear_821701_274)" stroke-width="2.98" stroke-miterlimit="10"/>
<path d="M229.101 15.4489H381.638L389.074 9.8125L391.835 7.72159L398.078 3L414.51 15.4489H437.763V33.0511L454.203 45.5L437.763 57.9489V75.5511H414.51L398.078 88L391.835 83.2784L389.074 81.1875L381.638 75.5511H229.101H76.5652L69.1218 81.1875L66.3606 83.2784L60.1253 88L43.6854 75.5511H20.4399V57.9489L4 45.5L20.4399 33.0511V15.4489H43.6854L60.1253 3L66.3606 7.72159L69.1218 9.8125L76.5652 15.4489H229.101Z" fill="url(#paint1_linear_821701_274)" fill-opacity="0.85" stroke="url(#paint2_linear_821701_274)" stroke-width="4" stroke-miterlimit="10"/>
<path d="M389.01 8.91504L436.131 45.0127L389.01 81.1105" stroke="url(#paint3_linear_821701_274)" stroke-width="2" stroke-miterlimit="10"/>
<path d="M69.1121 8.91504L21.9912 45.0127L69.1121 81.1104" stroke="url(#paint4_linear_821701_274)" stroke-width="2" stroke-miterlimit="10"/>
<defs>
<linearGradient id="paint0_linear_821701_274" x1="-nan" y1="-nan" x2="-nan" y2="-nan" gradientUnits="userSpaceOnUse">
<stop offset="0.03" stop-color="#947553"/>
<stop offset="0.24" stop-color="#473017"/>
<stop offset="0.77" stop-color="#CCAC68"/>
<stop offset="0.98" stop-color="#FFDE99"/>
</linearGradient>
<linearGradient id="paint1_linear_821701_274" x1="229.101" y1="-2.3125" x2="229.101" y2="92.6484" gradientUnits="userSpaceOnUse">
<stop offset="0.275" stop-color="#242E4E"/>
<stop offset="0.575" stop-color="#121727"/>
<stop offset="0.765" stop-color="#202946"/>
</linearGradient>
<linearGradient id="paint2_linear_821701_274" x1="229.101" y1="87.9939" x2="229.101" y2="3" gradientUnits="userSpaceOnUse">
<stop offset="0.065" stop-color="#68341B"/>
<stop offset="0.77" stop-color="#E9B743"/>
<stop offset="0.98" stop-color="#E9B743"/>
</linearGradient>
<linearGradient id="paint3_linear_821701_274" x1="412.57" y1="81.1052" x2="412.57" y2="8.91504" gradientUnits="userSpaceOnUse">
<stop offset="0.065" stop-color="#68341B"/>
<stop offset="0.77" stop-color="#E9B743"/>
<stop offset="0.98" stop-color="#E9B743"/>
</linearGradient>
<linearGradient id="paint4_linear_821701_274" x1="45.5517" y1="81.1052" x2="45.5517" y2="8.91504" gradientUnits="userSpaceOnUse">
<stop offset="0.065" stop-color="#68341B"/>
<stop offset="0.77" stop-color="#E9B743"/>
<stop offset="0.98" stop-color="#E9B743"/>
</linearGradient>
</defs>
</svg>
