<svg 
    xmlns="http://www.w3.org/2000/svg" 
    width="35" 
    height="35" 
    viewBox="0 0 36 36"
>
  <path 
    d="M16.976 0h1.049c2.871.101 5.506.82 7.905 2.157 2.007 1.118 3.71 2.536 5.109 4.254 2.485 3.049 3.806 6.578 3.961 10.586v1.028c-.094 2.609-.697 5.02-1.809 7.236-1.006 2.003-2.305 3.725-3.898 5.168-3.172 2.87-6.935 4.394-11.288 4.57h-1.017c-2.758-.097-5.298-.763-7.621-1.999-1.852-.986-3.451-2.222-4.797-3.709C1.704 26.125.181 22.369 0 18.022v-1.069c.189-4.269 1.673-7.973 4.451-11.11.309-.349.634-.684.974-1.005 3.206-3.024 7.056-4.636 11.551-4.636zm-2.379 9.187c-.182-.412-.39-.833-.626-1.262-.023-.041-.07-.064-.117-.056-1.799.314-3.503.845-5.112 1.594-.025.011-.046.029-.061.052-1.549 2.292-2.741 4.892-3.33 7.572-.48 2.191-.612 4.449-.393 6.775.003.038.024.074.055.097 1.922 1.407 4.015 2.463 6.278 3.169.041.013.086-.002.111-.037.483-.659.904-1.343 1.264-2.051.04-.078.019-.132-.063-.164-.696-.273-1.337-.579-1.921-.92-.074-.043-.078-.092-.01-.145l.348-.274c.048-.038.101-.045.157-.02 4.1 1.852 8.545 1.864 12.64-.003.05-.023.096-.017.139.016l.347.271c.079.061.075.116-.012.166-.645.369-1.291.676-1.939.92-.024.009-.043.028-.052.052-.01.024-.008.051.004.073.369.712.795 1.404 1.276 2.077.026.037.072.053.115.039 2.259-.699 4.348-1.751 6.266-3.155.049-.036.076-.085.081-.146.225-2.463.07-4.812-.464-7.047-.612-2.557-1.732-4.996-3.231-7.209-.047-.069-.108-.121-.183-.155-1.645-.741-3.323-1.257-5.033-1.549-.052-.008-.104.018-.126.065l-.604 1.251c-.013.028-.035.039-.066.035-1.883-.271-3.754-.283-5.685.017-.025.004-.043-.006-.054-.03z"
    fill="rgba(0, 121, 145, 1)"
  />
  <path 
    d="M13.308 15.91c1.257 0 2.275 1.141 2.275 2.55 0 1.409-1.018 2.55-2.275 2.55-1.256 0-2.275-1.141-2.275-2.55 0-1.409 1.019-2.55 2.275-2.55zm8.401 0c1.256-.002 2.277 1.138 2.279 2.546.003 1.409-.998 2.552-2.254 2.554-1.257.003-2.277-1.137-2.279-2.546-.002-1.408 1.014-2.552 2.271-2.554z"
    fill="rgba(0, 121, 145, 1)"
  />
</svg>
