<svg 
    width="35" 
    height="35" 
    viewBox="0 0 50 50" 
    xml:space="preserve" 
    xmlns="http://www.w3.org/2000/svg"
>
  <path 
    d="M25.097.173a24.535 24.535 0 0 0-2.444.12 24.441 24.441 0 0 0-2.42.36 25.086 25.086 0 0 0-5.797 1.917 24.14 24.14 0 0 0-2.159 1.153 25.1 25.1 0 0 0-3.926 2.913 24.731 24.731 0 0 0-1.73 1.732 25.625 25.625 0 0 0-1.553 1.893A24.95 24.95 0 0 0 .191 26.348a24.62 24.62 0 0 0 .24 2.437 24.908 24.908 0 0 0 4.637 11.203 25.024 25.024 0 0 0 3.283 3.624 25.1 25.1 0 0 0 4.991 3.517 24.14 24.14 0 0 0 2.212 1.047 25.107 25.107 0 0 0 3.484 1.151 25.241 25.241 0 0 0 2.4.478 24.432 24.432 0 0 0 2.436.24 24.608 24.608 0 0 0 3.667-.09 24.457 24.457 0 0 0 2.42-.36 25.248 25.248 0 0 0 3.537-.979 25.114 25.114 0 0 0 3.353-1.487 24.678 24.678 0 0 0 3.1-1.964 24.527 24.527 0 0 0 1.892-1.553 24.723 24.723 0 0 0 1.73-1.732 25.11 25.11 0 0 0 2.912-3.929 24.691 24.691 0 0 0 1.65-3.278 25.142 25.142 0 0 0 1.15-3.486 25.312 25.312 0 0 0 .478-2.402 24.448 24.448 0 0 0 .24-2.437 24.663 24.663 0 0 0-.09-3.67 24.468 24.468 0 0 0-.36-2.421 25.282 25.282 0 0 0-.978-3.539 25.144 25.144 0 0 0-1.487-3.356 24.692 24.692 0 0 0-1.963-3.101 24.527 24.527 0 0 0-1.552-1.893 24.72 24.72 0 0 0-1.73-1.732 25.624 25.624 0 0 0-1.892-1.553A24.921 24.921 0 0 0 25.097.173Zm2.522 10.466c.56-.013 1.122.143 1.794.492.86.447 1.728.878 2.602 1.295a1153.38 1153.38 0 0 0 10.733 5.039c.172.08.337.192.493.336.447.41.315 1.052-.215 1.327a6014.533 6014.533 0 0 0-19.008 9.904c-.646.34-1.55.8-2.276.48a22.333 22.333 0 0 1-1.231-.595c-3.743-1.949-7.697-4.02-11.864-6.213-.46-.243-1.076-.209-1.38.298-.716 1.194-.523 2.875.04 4.112.56 1.23 1.488 1.688 2.586 2.256a820.89 820.89 0 0 1 9.56 5.014c.073.04.133.024.18-.045.19-.284.357-.577.603-.818 1.59-1.56 4.11-1.466 5.501.293a.29.29 0 0 0 .373.078c4.071-2.2 7.906-4.252 11.505-6.153.592-.312.052-.966.113-1.467.125-1.032.505-1.854 1.141-2.466 1.255-1.205 3.007-1.376 4.507-.48.994.593 1.547 1.74 1.696 2.885v.513c-.233 1.644-1.071 2.72-2.514 3.23-.918.322-1.932.207-3.043-.347-.168-.085-.429-.22-.606-.124-3.949 2.13-7.896 4.26-11.842 6.391-.278.15-.603.291-.635.645-.106 1.161-.62 2.045-1.545 2.65-.87.57-2.06.748-3.014.451-1.35-.421-2.197-1.356-2.538-2.805a.222.222 0 0 0-.088-.133 6.527 6.527 0 0 0-.83-.515 4043.212 4043.212 0 0 0-10.538-5.438c-.506-.26-1.121-.66-1.428-1.054-1.017-1.295-1.604-2.78-1.76-4.452v-1.142c.148-1.055.495-1.92 1.042-2.595a2.66 2.66 0 0 1 .888-.699c6.558-3.284 12.966-6.49 19.222-9.62.66-.33 1.217-.514 1.776-.528z"
    fill="rgba(0, 121, 145, 0.4)"
  />
</svg>
