<?xml version="1.0" encoding="UTF-8" standalone="no"?>
<svg
   width="35"
   height="35"
   viewBox="0 0 50 375"
   xml:space="preserve"
   version="1.1"
   id="svg1"
   sodipodi:docname="medium.svg"
   inkscape:version="1.3.2 (091e20e, 2023-11-25)"
   xmlns:inkscape="http://www.inkscape.org/namespaces/inkscape"
   xmlns:sodipodi="http://sodipodi.sourceforge.net/DTD/sodipodi-0.dtd"
   xmlns="http://www.w3.org/2000/svg"
   xmlns:svg="http://www.w3.org/2000/svg"><defs
   id="defs1" /><sodipodi:namedview
   id="namedview1"
   pagecolor="#505050"
   bordercolor="#eeeeee"
   borderopacity="1"
   inkscape:showpageshadow="0"
   inkscape:pageopacity="0"
   inkscape:pagecheckerboard="0"
   inkscape:deskcolor="#505050"
   inkscape:zoom="9.0285714"
   inkscape:cx="17.5"
   inkscape:cy="17.44462"
   inkscape:window-width="1392"
   inkscape:window-height="1212"
   inkscape:window-x="967"
   inkscape:window-y="0"
   inkscape:window-maximized="0"
   inkscape:current-layer="svg1" />
  <path
   d="m 24.436177,0 c -3.062,0 -6.12,0.075 -9.175,0.226 a 184.334,184.334 0 0 0 -18.2639998,1.8 c -3.027,0.448 -6.042,0.97 -9.0420002,1.567 -3.003,0.6 -5.988,1.27 -8.957,2.01 a 188.176,188.176 0 0 0 -17.562,5.33 188.426,188.426 0 0 0 -8.565,3.303 183.044,183.044 0 0 0 -8.391,3.72 181.035,181.035 0 0 0 -8.196,4.127 184.583,184.583 0 0 0 -7.988,4.523 186.91,186.91 0 0 0 -29.445997,21.836 185.377,185.377 0 0 0 -6.646,6.331 185.334,185.334 0 0 0 -6.33,6.646 192.094,192.094 0 0 0 -5.996,6.95 187.58,187.58 0 0 0 -10.932,14.743 188.299,188.299 0 0 0 -4.91,7.753 185.062,185.062 0 0 0 -4.522,7.986 180.45,180.45 0 0 0 -4.126,8.198 183.054,183.054 0 0 0 -3.721,8.391 186.89,186.89 0 0 0 -6.183,17.28 189.395,189.395 0 0 0 -4.46,17.803 c -0.597,3 -1.119,6.017 -1.567,9.044 a 184.391,184.391 0 0 0 -1.8,18.264 184.64,184.64 0 0 0 -0.226,9.175 c 0,3.062 0.074,6.12 0.226,9.175 a 184.392,184.392 0 0 0 1.8,18.264 c 0.448,3.027 0.97,6.043 1.567,9.043 a 189.386,189.386 0 0 0 4.46,17.803 186.89,186.89 0 0 0 14.03,33.869 c 1.441,2.7 2.949,5.36 4.523,7.985 a 186.998,186.998 0 0 0 21.837,29.445 185.326,185.326 0 0 0 6.33,6.646 185.363,185.363 0 0 0 6.646,6.332 188.216,188.216 0 0 0 6.951997,5.992 183.92,183.92 0 0 0 7.234,5.65 186.905,186.905 0 0 0 23.248,14.717 c 2.7,1.446 5.43,2.82 8.196,4.126 a 183.048,183.048 0 0 0 8.391,3.721 186.828,186.828 0 0 0 44.1260002,12.21 184.336,184.336 0 0 0 18.2639998,1.8 185.784,185.784 0 0 0 18.35,-10e-4 184.394,184.394 0 0 0 18.265,-1.8 186.51,186.51 0 0 0 9.042,-1.566 189.63,189.63 0 0 0 8.957,-2.013 186.827,186.827 0 0 0 34.517003,-12.351 181.09,181.09 0 0 0 8.198,-4.126 c 2.7,-1.441 5.361,-2.949 7.987,-4.523 a 188.25,188.25 0 0 0 15.26,-10.195 183.915,183.915 0 0 0 7.235,-5.65 185.406,185.406 0 0 0 13.597,-12.323 185.314,185.314 0 0 0 12.322,-13.595 183.912,183.912 0 0 0 5.65,-7.235 186.992,186.992 0 0 0 31.194,-65.963 189.41,189.41 0 0 0 2.015,-8.956 c 0.596,-3 1.118,-6.016 1.566,-9.043 0.452,-3.028 0.825,-6.062 1.125,-9.108 0.3,-3.047 0.527,-6.098 0.675,-9.156 0.152,-3.055 0.225,-6.113 0.225,-9.175 0,-3.062 -0.073,-6.12 -0.225,-9.175 a 184.3,184.3 0 0 0 -0.675,-9.156 c -0.3,-3.047 -0.673,-6.08 -1.125,-9.108 -0.448,-3.027 -0.97,-6.043 -1.566,-9.043 a 189.42,189.42 0 0 0 -4.462,-17.804 186.86,186.86 0 0 0 -6.183,-17.279 183.023,183.023 0 0 0 -3.72,-8.391 181.08,181.08 0 0 0 -4.125,-8.198 188.299,188.299 0 0 0 -9.432,-15.74 186.988,186.988 0 0 0 -5.288,-7.507 183.913,183.913 0 0 0 -5.65,-7.235 185.323,185.323 0 0 0 -12.322,-13.596 185.42,185.42 0 0 0 -13.596,-12.327 187.571,187.571 0 0 0 -14.743,-10.931 188.251,188.251 0 0 0 -7.752,-4.91 185.11,185.11 0 0 0 -7.987,-4.522 180.45,180.45 0 0 0 -8.198,-4.126 184.963,184.963 0 0 0 -8.392003,-3.721 186.838,186.838 0 0 0 -44.124,-12.21 184.392,184.392 0 0 0 -18.265,-1.8 184.64,184.64 0 0 0 -9.175,-0.226 z m -63.64,105.047 v 0.001 c 47.0700002,-0.02 85.176,38.107 85.188,85.255 0.008,46.849 -38.1289998,84.944 -85.102,84.987 v 0.01 c -46.891,0.05 -85.052997,-38.033 -85.126997,-84.967 -0.074,-47.028 38.043997,-85.251 85.039997,-85.286 z m 134.879,4.136 c 5.295003,-0.129 10.257003,1.556 14.935003,4.618 6.424,4.2 11.06,10.025 14.91,16.55 5.578,9.479 9.008,19.773 11.263,30.49 2.03,9.694 2.98,19.504 2.958,29.407 l 0.011,-0.02 c -0.117,17.235 -2.649,34.035 -9.35,50.051 -3.109,7.43 -7.096,14.33 -12.643,20.25 -4.029,4.298 -8.653,7.75 -14.337,9.512 -7.558003,2.341 -14.640003,1.025 -21.267003,-3.132 -6.199,-3.9 -10.773,-9.359 -14.587,-15.515 -6.089,-9.852 -9.724,-20.644 -12.097,-31.907 -2.435,-11.552 -3.311,-23.244 -2.84,-35.021 0.663,-16.402 3.623,-32.324 10.557,-47.339 3.11,-6.74 6.998,-12.982 12.277,-18.272 4.2,-4.188 8.965,-7.47 14.801,-8.922 a 24.588,24.588 0 0 1 5.409,-0.75 z m 64.860003,8.164 c 0.959,0.001 1.905,0.419 2.717,1.274 1.367,1.442 2.595,3.109 3.495,4.874 2.594,5.053 3.92,10.557 5.077,16.09 1.87,8.956 2.906,18.019 3.588,27.131 0.95,12.611 1.09,25.243 0.556,37.873 -0.448,10.632 -1.39,21.233 -3.28,31.717 -1.207,6.708 -2.61,13.39 -5.493,19.63 -0.822,1.773 -1.858,3.527 -3.12,5.012 -2.3,2.735 -4.79,2.68 -7.205,0.054 -2.158,-2.342 -3.343,-5.236 -4.422,-8.177 -2.244,-6.113 -3.665,-12.449 -4.561,-18.873 -0.997,-7.04 -1.862,-14.115 -2.396,-21.197 -0.565,-7.531 -0.676,-15.105 -1.037,-23.83 0.428,-7.97 0.73,-17.112 1.434,-26.213 0.854,-11.05 2.361,-22.024 5.727,-32.637 0.908,-2.84 2.201,-5.586 3.526,-8.27 0.6,-1.216 1.593,-2.3 2.594,-3.238 0.867,-0.807 1.84,-1.221 2.8,-1.22 z"
   fill="rgba(0, 121, 145, 1)"
   id="path1" />
</svg>
