<?xml version="1.0" encoding="UTF-8" standalone="no"?>
<svg
   width="500"
   zoomAndPan="magnify"
   viewBox="0 0 375 374.999991"
   height="500"
   preserveAspectRatio="xMidYMid meet"
   version="1.0"
   id="svg3"
   sodipodi:docname="substack.svg"
   inkscape:version="1.3.2 (091e20e, 2023-11-25)"
   xmlns:inkscape="http://www.inkscape.org/namespaces/inkscape"
   xmlns:sodipodi="http://sodipodi.sourceforge.net/DTD/sodipodi-0.dtd"
   xmlns="http://www.w3.org/2000/svg"
   xmlns:svg="http://www.w3.org/2000/svg">
  <sodipodi:namedview
     id="namedview3"
     pagecolor="#505050"
     bordercolor="#eeeeee"
     borderopacity="1"
     inkscape:showpageshadow="0"
     inkscape:pageopacity="0"
     inkscape:pagecheckerboard="0"
     inkscape:deskcolor="#505050"
     inkscape:zoom="0.472a"
     inkscape:cx="250"
     inkscape:cy="248.94068"
     inkscape:window-width="2560"
     inkscape:window-height="1412"
     inkscape:window-x="0"
     inkscape:window-y="28"
     inkscape:window-maximized="0"
     inkscape:current-layer="layer4" />
  <defs
     id="defs1">
    <clipPath
       clipPathUnits="userSpaceOnUse"
       id="clipPath4">
      <g
         id="g5">
        <path
           d="m 647.67796,-15.216101 h 209 V 222.60421 h -209 z m 0,0"
           clip-rule="nonzero"
           id="path4" />
      </g>
    </clipPath>
  </defs>
  <g
     inkscape:groupmode="layer"
     id="layer3"
     inkscape:label="Layer 1">
    <g
       inkscape:groupmode="layer"
       id="layer4"
       inkscape:label="Layer 2">
      <path
         id="path2"
         d="M 187.5 0 C 184.42969 -2.7755548e-17 181.36328 0.074707731 178.30078 0.22705078 C 175.23438 0.37548863 172.17529 0.60156204 169.1206 0.90234374 C 166.06592 1.2031244 163.02392 1.5786137 159.98877 2.0317383 C 156.95361 2.4809568 153.92919 3.0043953 150.92138 3.6020507 C 147.90967 4.2036131 144.91845 4.8754885 141.94189 5.6176757 C 138.96533 6.363768 136.0083 7.1835945 133.0708 8.0742187 C 130.13721 8.9648428 127.22216 9.9262697 124.33154 10.961426 C 121.44483 11.996581 118.58203 13.097657 115.74609 14.273437 C 112.91016 15.44531 110.10547 16.691896 107.33203 18.004394 C 104.5586 19.312987 101.81982 20.691895 99.112792 22.141113 C 96.405763 23.586425 93.738765 25.098146 91.105956 26.676269 C 88.473146 28.254393 85.882809 29.895021 83.33203 31.598144 C 80.777346 33.305174 78.269039 35.069825 75.804198 36.897949 C 73.339357 38.726071 70.921384 40.612794 68.550292 42.558105 C 66.179202 44.507321 63.855466 46.511233 61.582031 48.569824 C 59.308596 50.632322 57.086423 52.746584 54.918456 54.918456 C 52.746584 57.086423 50.632322 59.308596 48.569824 61.582031 C 46.511233 63.855466 44.507321 66.179202 42.558105 68.550292 C 40.612794 70.921384 38.726071 73.339357 36.897949 75.804198 C 35.069825 78.269039 33.305174 80.777346 31.598144 83.33203 C 29.895021 85.882809 28.254393 88.473146 26.676269 91.105956 C 25.098146 93.738765 23.586425 96.405763 22.141113 99.112792 C 20.691895 101.81982 19.312987 104.5586 18.004394 107.33203 C 16.691896 110.10547 15.44531 112.91016 14.273437 115.74609 C 13.097657 118.58203 11.996581 121.44483 10.961426 124.33154 C 9.9262697 127.22216 8.9648428 130.13721 8.0742187 133.0708 C 7.1835945 136.0083 6.363768 138.96533 5.6176757 141.94189 C 4.8754885 144.91845 4.2036131 147.90967 3.6020507 150.92138 C 3.0043953 153.92919 2.4809568 156.95361 2.0317383 159.98877 C 1.5786137 163.02392 1.2031244 166.06592 0.90234374 169.1206 C 0.60156204 172.17529 0.37548863 175.23438 0.22705078 178.30078 C 0.074707731 181.36328 0 184.42969 0 187.5 C -2.7755548e-17 190.57031 0.074707731 193.63672 0.22705078 196.69922 C 0.37548863 199.76562 0.60156204 202.82471 0.90234374 205.87939 C 1.2031244 208.93408 1.5786137 211.97607 2.0317383 215.01123 C 2.4809568 218.04638 3.0043953 221.0708 3.6020507 224.07861 C 4.2036131 227.09033 4.8754885 230.08154 5.6176757 233.0581 C 6.363768 236.03466 7.1835945 238.9917 8.0742187 241.9292 C 8.9648428 244.86279 9.9262697 247.77783 10.961426 250.66845 C 11.996581 253.55517 13.097657 256.41797 14.273437 259.2539 C 15.44531 262.08984 16.691896 264.89062 18.004394 267.66797 C 19.312987 270.4414 20.691895 273.18018 22.141113 275.8872 C 23.586425 278.59423 25.098146 281.26123 26.676269 283.89404 C 28.254393 286.52685 29.895021 289.11719 31.598144 291.66797 C 33.305174 294.22265 35.069825 296.73096 36.897949 299.1958 C 38.726071 301.66064 40.612794 304.07861 42.558105 306.4497 C 44.507321 308.82079 46.511233 311.14453 48.569824 313.41796 C 50.632322 315.6914 52.746584 317.91357 54.918456 320.08154 C 57.086423 322.25341 59.308596 324.36767 61.582031 326.43017 C 63.855466 328.48876 66.179202 330.49219 68.550292 332.4375 C 70.921384 334.38671 73.339357 336.27392 75.804198 338.10205 C 78.269039 339.93017 80.777346 341.69482 83.33203 343.40185 C 85.882809 345.10497 88.473146 346.7456 91.105956 348.32373 C 93.738765 349.90185 96.405763 351.41357 99.112792 352.85888 C 101.81982 354.3081 104.5586 355.68701 107.33203 356.9956 C 110.10547 358.3081 112.91016 359.55469 115.74609 360.72656 C 118.58203 361.90234 121.44483 363.00341 124.33154 364.03857 C 127.22216 365.07373 130.13721 366.03515 133.0708 366.92578 C 136.0083 367.8164 138.96533 368.6372 141.94189 369.37939 C 144.91845 370.12548 147.90967 370.79638 150.92138 371.39794 C 153.92919 371.9956 156.95361 372.51904 159.98877 372.96826 C 163.02392 373.42138 166.06592 373.79687 169.1206 374.09765 C 172.17529 374.39843 175.23438 374.62451 178.30078 374.77294 C 181.36328 374.92529 184.42969 375 187.5 375 C 190.57031 375 193.63672 374.92529 196.69922 374.77294 C 199.76562 374.62451 202.82471 374.39843 205.87939 374.09765 C 208.93408 373.79687 211.97607 373.42138 215.01123 372.96826 C 218.04638 372.51904 221.0708 371.9956 224.07861 371.39794 C 227.09033 370.79638 230.08154 370.12548 233.0581 369.37939 C 236.03466 368.6372 238.9917 367.8164 241.9292 366.92578 C 244.86279 366.03515 247.77783 365.07373 250.66845 364.03857 C 253.55517 363.00341 256.41797 361.90234 259.2539 360.72656 C 262.08984 359.55469 264.89062 358.3081 267.66797 356.9956 C 270.4414 355.68701 273.18018 354.3081 275.8872 352.85888 C 278.59423 351.41357 281.26123 349.90185 283.89404 348.32373 C 286.52685 346.7456 289.11719 345.10497 291.66797 343.40185 C 294.22265 341.69482 296.73096 339.93017 299.1958 338.10205 C 301.66064 336.27392 304.07861 334.38671 306.4497 332.4375 C 308.82079 330.49219 311.14453 328.48876 313.41796 326.43017 C 315.6914 324.36767 317.91357 322.25341 320.08154 320.08154 C 322.25341 317.91357 324.36767 315.6914 326.43017 313.41796 C 328.48876 311.14453 330.49219 308.82079 332.4375 306.4497 C 334.38671 304.07861 336.27392 301.66064 338.10205 299.1958 C 339.93017 296.73096 341.69482 294.22265 343.40185 291.66797 C 345.10497 289.11719 346.7456 286.52685 348.32373 283.89404 C 349.90185 281.26123 351.41357 278.59423 352.85888 275.8872 C 354.30419 273.18018 355.68701 270.4414 356.9956 267.66797 C 358.3081 264.89062 359.55469 262.08984 360.72656 259.2539 C 361.90234 256.41797 363.00341 253.55517 364.03857 250.66845 C 365.07373 247.77783 366.03515 244.86279 366.92578 241.9292 C 367.8164 238.9917 368.6372 236.03466 369.37939 233.0581 C 370.12548 230.08154 370.79638 227.09033 371.39794 224.07861 C 371.9956 221.0708 372.51904 218.04638 372.96826 215.01123 C 373.42138 211.97607 373.79687 208.93408 374.09765 205.87939 C 374.39843 202.82471 374.62451 199.76562 374.77294 196.69922 C 374.92529 193.63672 375 190.57031 375 187.5 C 375 184.42969 374.92529 181.36328 374.77294 178.30078 C 374.62451 175.23438 374.39843 172.17529 374.09765 169.1206 C 373.79687 166.06592 373.42138 163.02392 372.96826 159.98877 C 372.51904 156.95361 371.9956 153.92919 371.39794 150.92138 C 370.79638 147.90967 370.12548 144.91845 369.37939 141.94189 C 368.6372 138.96533 367.8164 136.0083 366.92578 133.0708 C 366.03515 130.13721 365.07373 127.22216 364.03857 124.33154 C 363.00341 121.44483 361.90234 118.58203 360.72656 115.74609 C 359.55469 112.91016 358.3081 110.10547 356.9956 107.33203 C 355.68701 104.5586 354.30419 101.81982 352.85888 99.112792 C 351.41357 96.405763 349.90185 93.738765 348.32373 91.105956 C 346.7456 88.473146 345.10497 85.882809 343.40185 83.33203 C 341.69482 80.777346 339.93017 78.269039 338.10205 75.804198 C 336.27392 73.339357 334.38671 70.921384 332.4375 68.550292 C 330.49219 66.179202 328.48876 63.855466 326.43017 61.582031 C 324.36767 59.308596 322.25341 57.086423 320.08154 54.918456 C 317.91357 52.746584 315.6914 50.632322 313.41796 48.569824 C 311.14453 46.511233 308.82079 44.507321 306.4497 42.558105 C 304.07861 40.612794 301.66064 38.726071 299.1958 36.897949 C 296.73096 35.069825 294.22265 33.305174 291.66797 31.598144 C 289.11719 29.895021 286.52685 28.254393 283.89404 26.676269 C 281.26123 25.098146 278.59423 23.586425 275.8872 22.141113 C 273.18018 20.691895 270.4414 19.312987 267.66797 18.004394 C 264.89062 16.691896 262.08984 15.44531 259.2539 14.273437 C 256.41797 13.097657 253.55517 11.996581 250.66845 10.961426 C 247.77783 9.9262697 244.86279 8.9648428 241.9292 8.0742187 C 238.9917 7.1835945 236.03466 6.363768 233.0581 5.6176757 C 230.08154 4.8754885 227.09033 4.2036131 224.07861 3.6020507 C 221.0708 3.0043953 218.04638 2.4809568 215.01123 2.0317383 C 211.97607 1.5786137 208.93408 1.2031244 205.87939 0.90234374 C 202.82471 0.60156204 199.76562 0.37548863 196.69922 0.22705078 C 193.63672 0.074707731 190.57031 0 187.5 0 z M 86.853515 74.66162 L 294.92724 74.66162 L 294.92724 102.5874 L 86.853515 102.5874 L 86.853515 74.66162 z M 86.853515 127.75928 L 294.92724 127.75928 L 294.92724 156.0791 L 86.853515 156.0791 L 86.853515 127.75928 z M 86.853515 180.86133 L 294.92724 180.86133 L 294.92724 311.05224 C 287.06006 309.25145 278.79394 302.47069 271.71972 298.58789 C 253.42678 288.54103 235.34178 278.1074 217.04883 268.06054 C 210.99414 264.73633 204.94726 261.38036 198.95508 257.95459 C 196.87305 256.76318 193.34863 253.78323 190.91894 253.74023 C 188.45802 253.69335 184.91943 256.65429 182.82568 257.84179 C 176.42726 261.48241 169.98241 265.04053 163.55273 268.63037 L 111.63428 297.62695 C 103.8999 301.93945 95.357406 308.59911 86.853515 311.05224 L 86.853515 180.86133 z " />
    </g>
  </g>
</svg>
