<?xml version="1.0" encoding="UTF-8" standalone="no"?>
<!-- Uploaded to: SVG Repo, www.svgrepo.com, Generator: SVG Repo Mixer Tools -->

<svg
   width="800px"
   height="800px"
   viewBox="0 0 32 32"
   fill="none"
   version="1.1"
   id="svg2"
   sodipodi:docname="telegram-svgrepo-com.svg"
   inkscape:version="1.3.2 (091e20e, 2023-11-25)"
   xmlns:inkscape="http://www.inkscape.org/namespaces/inkscape"
   xmlns:sodipodi="http://sodipodi.sourceforge.net/DTD/sodipodi-0.dtd"
   xmlns="http://www.w3.org/2000/svg"
   xmlns:svg="http://www.w3.org/2000/svg">
  <sodipodi:namedview
     id="namedview2"
     pagecolor="#505050"
     bordercolor="#eeeeee"
     borderopacity="1"
     inkscape:showpageshadow="0"
     inkscape:pageopacity="0"
     inkscape:pagecheckerboard="0"
     inkscape:deskcolor="#505050"
     inkscape:zoom="0.295"
     inkscape:cx="400"
     inkscape:cy="400"
     inkscape:window-width="1624"
     inkscape:window-height="885"
     inkscape:window-x="1920"
     inkscape:window-y="0"
     inkscape:window-maximized="0"
     inkscape:current-layer="layer4" />
  <defs
     id="defs2">
    <linearGradient
       id="paint0_linear_87_7225"
       x1="16"
       y1="2"
       x2="16"
       y2="30"
       gradientUnits="userSpaceOnUse">
      <stop
         stop-color="#37BBFE"
         id="stop1" />
      <stop
         offset="1"
         stop-color="#007DBB"
         id="stop2" />
    </linearGradient>
  </defs>
  <g
     inkscape:groupmode="layer"
     id="layer4"
     inkscape:label="Layer 2">
    <path
       id="circle1"
       inkscape:label="circle1"
       d="M 16 2 A 14 14 0 0 0 2 16 A 14 14 0 0 0 16 30 A 14 14 0 0 0 30 16 A 14 14 0 0 0 16 2 z M 22.031094 9.6821875 C 22.601267 9.6939225 23.087879 10.23633 22.986641 10.890781 L 21.141797 22.808047 C 21.029697 23.532496 20.258483 23.910196 19.658984 23.534297 L 14.313984 20.1825 C 13.756885 19.833201 13.665025 19.024061 14.128125 18.546563 L 18.902109 13.624609 C 19.073009 13.44851 18.855 13.164066 18.655 13.302266 L 12.022813 17.884297 C 11.532513 18.223001 10.924623 18.31544 10.363125 18.136641 L 7.4214844 17.199844 C 6.8888149 17.030244 6.8512553 16.252297 7.3648438 16.026797 L 21.629219 9.7639844 C 21.763507 9.7050244 21.899516 9.6794875 22.031094 9.6821875 z "
       style="fill:#FDF8D8;fill-opacity:1"
       inkscape:export-filename="TG.svg"
       inkscape:export-xdpi="96"
       inkscape:export-ydpi="96" />
  </g>
  <g
     inkscape:groupmode="layer"
     id="layer3"
     inkscape:label="Layer 1" />
</svg>
