<svg xmlns="http://www.w3.org/2000/svg" xmlns:xlink="http://www.w3.org/1999/xlink" width="35" height="35" viewBox="0 0 30 30">
  <g>
    <defs>
      <path 
        d="M 15 1 C 7.267 1 1 7.267 1 15 C 1 22.733 7.267 29 15 29 C 22.733 29 29 22.733 29 15 C 28.988 7.267 22.721 1 15 1 Z M 22.67 11.349 C 22.67 11.349 22.912 16.706 18.839 20.027 C 12.742 24.985 6.161 20.961 6.161 20.961 C 6.161 20.961 7.761 20.985 9.179 20.609 C 10.585 20.233 11.603 19.312 11.603 19.312 C 11.603 19.312 10.064 18.997 9.264 18.415 C 8.464 17.833 8.148 16.718 8.148 16.718 C 8.148 16.718 8.682 16.767 9.009 16.755 C 9.349 16.742 9.748 16.585 9.748 16.585 C 9.748 16.585 8.645 16.452 7.615 15.3 C 6.803 14.391 6.864 12.876 6.864 12.876 C 6.864 12.876 7.349 13.167 7.603 13.227 C 7.858 13.3 8.355 13.3 8.355 13.3 C 8.355 13.3 7.385 12.73 6.961 11.239 C 6.536 9.761 7.349 8.257 7.349 8.257 C 7.349 8.257 8.791 10.003 10.924 11.118 C 13.058 12.233 15.07 12.197 15.07 12.197 C 15.07 12.197 14.779 11.312 15.288 10.003 C 15.797 8.694 16.949 7.748 18.706 7.615 C 20.464 7.47 21.591 8.803 21.591 8.803 C 21.591 8.803 22.136 8.706 22.754 8.476 C 23.373 8.257 23.991 7.967 23.991 7.967 C 23.991 7.967 23.773 8.633 23.349 9.155 C 22.924 9.676 22.451 9.991 22.451 9.991 C 22.451 9.991 23.009 9.955 23.567 9.797 C 24.124 9.639 24.427 9.482 24.427 9.482 C 23.785 10.548 22.67 11.349 22.67 11.349 Z M 22.67 11.349" 
        id="a1126z">
      </path> 
    </defs> 
    <use xlink:href="#a1126z" fill="rgba(0, 121, 145, 0.4)" clip-path="url(#a1127z)" ></use>
  </g>
</svg>
