<svg width="158" height="158" viewBox="0 0 158 158" fill="none" xmlns="http://www.w3.org/2000/svg">
<path d="M133.448 133.448V119.697C140.104 110.806 144.63 100.228 146.28 88.7205L156 79L146.28 69.2795C144.63 57.7724 140.104 47.194 133.448 38.3032V24.5522H119.697C110.806 17.8959 100.228 13.3704 88.7205 11.7205L79 2L69.2795 11.7205C57.7724 13.3704 47.194 17.8959 38.3032 24.5522H24.5522V38.3032C17.8959 47.194 13.3704 57.7724 11.7205 69.2795L2 79L11.7205 88.7205C13.3704 100.228 17.8959 110.806 24.5522 119.697V133.448H38.3032C47.194 140.104 57.7724 144.63 69.2795 146.28L79 156L88.7205 146.28C100.228 144.63 110.806 140.104 119.697 133.448H133.448Z" stroke="url(#paint0_linear_821691_866)" stroke-width="2" stroke-miterlimit="10"/>
<defs>
<linearGradient id="paint0_linear_821691_866" x1="79" y1="155.989" x2="79" y2="2" gradientUnits="userSpaceOnUse">
<stop offset="0.065" stop-color="#68341B"/>
<stop offset="0.77" stop-color="#E9B743"/>
<stop offset="0.98" stop-color="#E9B743"/>
</linearGradient>
</defs>
</svg>
