<svg width="348" height="161" viewBox="0 0 348 161" fill="none" xmlns="http://www.w3.org/2000/svg">
<rect width="348" height="161" fill="#E5E5E5"/>
<g id="Group 343">
<g id="bee_stats_panel">
<g id="rectangle_frame">
<g id="Polygon 8" filter="url(#filter0_ii_821229_207)">
<path d="M345 80.4746L314 124V37L345 80.4746Z" fill="url(#paint0_linear_821229_207)" fill-opacity="0.85"/>
</g>
<g id="Group 235">
<g id="b">
<g id="Vector">
<g filter="url(#filter1_ii_821229_207)">
<path d="M304.865 21.8107V1.28613H183.649L177.161 1.28629L170.678 1.28613H89.9832L77.4861 11.8435L61.8831 21.8107L42.0293 34.9324L43.0967 112.152L60.9202 132.884L89.9593 160L170.678 159.643H177.161H183.645H304.865V139.118H313.578V21.8107H304.865Z" fill="url(#paint1_linear_821229_207)" fill-opacity="0.85"/>
</g>
<path d="M304.865 21.8107V1.28613H183.649L177.161 1.28629L170.678 1.28613H89.9832L77.4861 11.8435L61.8831 21.8107L42.0293 34.9324L43.0967 112.152L60.9202 132.884L89.9593 160L170.678 159.643H177.161H183.645H304.865V139.118H313.578V21.8107H304.865Z" stroke="url(#paint2_linear_821229_207)" stroke-width="2" stroke-miterlimit="10"/>
</g>
<path id="Vector_2" d="M280.029 160V142.907L293.77 123.733H315.047L346.029 80.5L315.047 37.2669H293.77L280.029 18.0929V1" stroke="url(#paint3_linear_821229_207)" stroke-width="2" stroke-miterlimit="10"/>
</g>
</g>
</g>
<g id="bee_background_frame">
<ellipse id="Ellipse 12" cx="79.7781" cy="80.2439" rx="73.7781" ry="73.283" fill="#242E4E" fill-opacity="0.9"/>
<g id="Group 242">
<g id="b_2">
<path id="Vector_3" d="M135.33 129.191C146.01 117.211 152.819 101.7 153.792 84.6289" stroke="url(#paint4_linear_821229_207)" stroke-width="2" stroke-miterlimit="10"/>
<path id="Vector_4" d="M31.7295 135.193C43.7146 145.874 59.2156 152.682 76.287 153.655" stroke="url(#paint5_linear_821229_207)" stroke-width="2" stroke-miterlimit="10"/>
<path id="Vector_5" d="M7.26562 76.1503C8.23829 59.0788 15.0469 43.5732 25.7273 31.5928" stroke="url(#paint6_linear_821229_207)" stroke-width="2" stroke-miterlimit="10"/>
<path id="Vector_6" d="M84.7695 7.12891C101.841 8.10157 117.342 14.9102 129.327 25.5906" stroke="url(#paint7_linear_821229_207)" stroke-width="2" stroke-miterlimit="10"/>
<path id="Vector_7" d="M76.2872 7.13379C59.2157 8.10171 43.7195 14.9104 31.7344 25.5907" stroke="url(#paint8_linear_821229_207)" stroke-width="2" stroke-miterlimit="10"/>
<path id="Vector_8" d="M7.26562 84.6328C8.23829 101.704 15.0469 117.21 25.7273 129.19" stroke="url(#paint9_linear_821229_207)" stroke-width="2" stroke-miterlimit="10"/>
<path id="Vector_9" d="M84.7695 153.655C101.841 152.682 117.342 145.874 129.327 135.193" stroke="url(#paint10_linear_821229_207)" stroke-width="2" stroke-miterlimit="10"/>
<path id="Vector_10" d="M135.33 31.5928C146.01 43.5732 152.819 59.0836 153.792 76.155" stroke="url(#paint11_linear_821229_207)" stroke-width="2" stroke-miterlimit="10"/>
<path id="Vector_11" d="M17.0703 73.3115L9.96104 80.4208L17.0703 87.5301" stroke="url(#paint12_linear_821229_207)" stroke-width="2" stroke-miterlimit="10"/>
<path id="Vector_12" d="M143.829 87.5302L150.938 80.4209L143.829 73.3116" stroke="url(#paint13_linear_821229_207)" stroke-width="2" stroke-miterlimit="10"/>
<path id="Vector_13" d="M87.5596 17.041L80.4503 9.93174L73.341 17.041" stroke="url(#paint14_linear_821229_207)" stroke-width="2" stroke-miterlimit="10"/>
<path id="Vector_14" d="M73.3409 143.8L80.4502 150.909L87.5595 143.8" stroke="url(#paint15_linear_821229_207)" stroke-width="2" stroke-miterlimit="10"/>
</g>
</g>
</g>
<g id="bee_stats">
<g id="health">
<text id="health_value" fill="white" stroke="#9A321A" stroke-width="0.5" xml:space="preserve" style="white-space: pre" font-family="Vera Humana 95" font-size="10" font-weight="bold" letter-spacing="0em"><tspan x="243.094" y="46.4316">55/60</tspan></text>
<text id="health_label" fill="#E9B743" xml:space="preserve" style="white-space: pre" font-family="Vera Humana 95" font-size="10" font-weight="bold" letter-spacing="0em"><tspan x="162.029" y="46.4316">Health</tspan></text>
</g>
<g id="productivity">
<text id="productivity_value" fill="white" stroke="#9A321A" stroke-width="0.5" xml:space="preserve" style="white-space: pre" font-family="Vera Humana 95" font-size="10" font-weight="bold" letter-spacing="0em"><tspan x="241.094" y="76.4316">44/67</tspan></text>
<text id="productivity_label" fill="#E9B743" xml:space="preserve" style="white-space: pre" font-family="Vera Humana 95" font-size="10" font-weight="bold" letter-spacing="0em"><tspan x="169.029" y="76.4316">Productivity</tspan></text>
</g>
<g id="energy">
<text id="energy_value" fill="white" stroke="#9A321A" stroke-width="0.5" xml:space="preserve" style="white-space: pre" font-family="Vera Humana 95" font-size="10" font-weight="bold" letter-spacing="0em"><tspan x="243.337" y="16.4316">30/95</tspan></text>
<text id="energy_label" fill="#E9B743" xml:space="preserve" style="white-space: pre" font-family="Vera Humana 95" font-size="10" font-weight="bold" letter-spacing="0em"><tspan x="144.029" y="16.4316">Energy</tspan></text>
</g>
<g id="health_frame">
<path id="Vector_15" d="M168.279 61.3677C165.997 61.3677 165.814 57.0005 165.029 57.0005C165.814 57.0005 165.997 52.6309 168.279 52.6309" stroke="url(#paint16_linear_821229_207)" stroke-width="0.5" stroke-miterlimit="10"/>
<path id="health_bar" d="M173.369 61.9976H263.78V60.1686C264.566 60.1686 265.205 58.7502 265.205 56.9976C265.205 55.245 264.567 53.8266 263.78 53.8266V52H168.28V53.829C167.494 53.829 166.855 55.2474 166.855 57C166.855 58.7526 167.493 60.171 168.28 60.171V62H173.369V61.9976Z" stroke="url(#paint17_linear_821229_207)" stroke-width="0.5" stroke-miterlimit="10"/>
<path id="Vector_16" d="M263.78 61.3672C266.062 61.3672 266.245 56.9976 267.03 56.9976C266.245 56.9976 266.062 52.6279 263.78 52.6279" stroke="url(#paint18_linear_821229_207)" stroke-width="0.5" stroke-miterlimit="10"/>
<g id="Vector_17">
<mask id="path-26-inside-1_821229_207" fill="white">
<path d="M235.259 60C237.105 60 237.306 57.5481 237.886 57C237.346 56.391 237.103 54 235.259 54H171.542C169.696 54 169.496 56.4519 168.915 57C169.456 57.609 169.698 60 171.542 60H235.259Z"/>
</mask>
<path d="M235.259 60C237.105 60 237.306 57.5481 237.886 57C237.346 56.391 237.103 54 235.259 54H171.542C169.696 54 169.496 56.4519 168.915 57C169.456 57.609 169.698 60 171.542 60H235.259Z" fill="url(#paint19_linear_821229_207)" stroke="url(#paint20_linear_821229_207)" mask="url(#path-26-inside-1_821229_207)"/>
</g>
</g>
<g id="productivity_frame">
<path id="Vector_18" d="M171.183 91.3677C168.968 91.3677 168.791 87.0005 168.029 87.0005C168.791 87.0005 168.968 82.6309 171.183 82.6309" stroke="url(#paint21_linear_821229_207)" stroke-width="0.5" stroke-miterlimit="10"/>
<path id="productivity_bar" d="M176.122 91.9976H263.875V90.1686C264.638 90.1686 265.257 88.7502 265.257 86.9976C265.257 85.245 264.639 83.8266 263.875 83.8266V82H171.183V83.829C170.42 83.829 169.801 85.2474 169.801 87C169.801 88.7526 170.419 90.171 171.183 90.171V92H176.122V91.9976Z" stroke="url(#paint22_linear_821229_207)" stroke-width="0.5" stroke-miterlimit="10"/>
<path id="Vector_19" d="M263.876 91.3672C266.091 91.3672 266.268 86.9976 267.03 86.9976C266.268 86.9976 266.091 82.6279 263.876 82.6279" stroke="url(#paint23_linear_821229_207)" stroke-width="0.5" stroke-miterlimit="10"/>
<g id="Vector_20">
<mask id="path-30-inside-2_821229_207" fill="white">
<path d="M252.724 90C254.968 90 255.211 87.5481 255.917 87C255.26 86.391 254.965 84 252.724 84H175.264C173.02 84 172.776 86.4519 172.07 87C172.728 87.609 173.022 90 175.264 90H252.724Z"/>
</mask>
<path d="M252.724 90C254.968 90 255.211 87.5481 255.917 87C255.26 86.391 254.965 84 252.724 84H175.264C173.02 84 172.776 86.4519 172.07 87C172.728 87.609 173.022 90 175.264 90H252.724Z" fill="url(#paint24_linear_821229_207)" stroke="url(#paint25_linear_821229_207)" mask="url(#path-30-inside-2_821229_207)"/>
</g>
<g id="Vector_21">
<mask id="path-31-inside-3_821229_207" fill="white">
<path d="M200.25 90C201.034 90 201.12 87.5481 201.366 87C201.136 86.391 201.034 84 200.25 84H173.186C172.402 84 172.317 86.4519 172.07 87C172.3 87.609 172.403 90 173.186 90H200.25Z"/>
</mask>
<path d="M200.25 90C201.034 90 201.12 87.5481 201.366 87C201.136 86.391 201.034 84 200.25 84H173.186C172.402 84 172.317 86.4519 172.07 87C172.3 87.609 172.403 90 173.186 90H200.25Z" fill="#9A321A" stroke="url(#paint26_linear_821229_207)" mask="url(#path-31-inside-3_821229_207)"/>
</g>
</g>
<g id="energy_frame">
<path id="Vector_22" d="M154.725 31.3677C152.129 31.3677 151.922 27.0005 151.029 27.0005C151.922 27.0005 152.129 22.6309 154.725 22.6309" stroke="url(#paint27_linear_821229_207)" stroke-width="0.5" stroke-miterlimit="10"/>
<path id="energy_bar" d="M160.514 31.9976H263.335V30.1686C264.229 30.1686 264.954 28.7502 264.954 26.9976C264.954 25.245 264.23 23.8266 263.335 23.8266V22H154.726V23.829C153.832 23.829 153.106 25.2474 153.106 27C153.106 28.7526 153.831 30.171 154.726 30.171V32H160.514V31.9976Z" stroke="url(#paint28_linear_821229_207)" stroke-width="0.5" stroke-miterlimit="10"/>
<path id="Vector_23" d="M263.334 31.3672C265.929 31.3672 266.137 26.9976 267.03 26.9976C266.137 26.9976 265.929 22.6279 263.334 22.6279" stroke="url(#paint29_linear_821229_207)" stroke-width="0.5" stroke-miterlimit="10"/>
<g id="Vector_24">
<mask id="path-35-inside-4_821229_207" fill="white">
<path d="M258.916 30C261.806 30 262.12 27.5481 263.029 27C262.182 26.391 261.803 24 258.916 24H159.143C156.252 24 155.938 26.4519 155.029 27C155.876 27.609 156.255 30 159.143 30H258.916Z"/>
</mask>
<path d="M258.916 30C261.806 30 262.12 27.5481 263.029 27C262.182 26.391 261.803 24 258.916 24H159.143C156.252 24 155.938 26.4519 155.029 27C155.876 27.609 156.255 30 159.143 30H258.916Z" fill="url(#paint30_linear_821229_207)" stroke="url(#paint31_linear_821229_207)" mask="url(#path-35-inside-4_821229_207)"/>
</g>
</g>
</g>
<g id="bee_traits">
<g id="frame_top">
<path id="Vector_25" d="M183.665 100.395L187.392 104H205.694C205.694 101.211 216.977 101.098 218.029 97C219.081 101.098 230.364 101.211 230.364 104H248.666L252.394 100.395" stroke="url(#paint32_linear_821229_207)" stroke-width="0.5" stroke-miterlimit="10"/>
<path id="Vector_26" d="M267.029 100.399H243.076L241.637 101.791H220.312L218.029 103.999L215.747 101.791H194.421L192.981 100.399H169.029" stroke="url(#paint33_linear_821229_207)" stroke-width="0.5" stroke-miterlimit="10"/>
</g>
<g id="attack">
<text id="attack_value" fill="white" stroke="#9A321A" stroke-width="0.5" xml:space="preserve" style="white-space: pre" font-family="Vera Humana 95" font-size="10" font-weight="bold" letter-spacing="0em"><tspan x="254.907" y="113.432">30</tspan></text>
<text id="attack_label" fill="#E9B743" xml:space="preserve" style="white-space: pre" font-family="Vera Humana 95" font-size="10" font-weight="bold" letter-spacing="0em"><tspan x="170.43" y="113.432">Attack</tspan></text>
</g>
<g id="defence">
<text id="defence_value" fill="white" stroke="#9A321A" stroke-width="0.5" xml:space="preserve" style="white-space: pre" font-family="Vera Humana 95" font-size="10" font-weight="bold" letter-spacing="0em"><tspan x="255.008" y="125.432">20</tspan></text>
<text id="defence_label" fill="#E9B743" xml:space="preserve" style="white-space: pre" font-family="Vera Humana 95" font-size="10" font-weight="bold" letter-spacing="0em"><tspan x="170.328" y="125.432">Defence</tspan></text>
</g>
<g id="forage">
<text id="forage_value" fill="white" stroke="#9A321A" stroke-width="0.5" xml:space="preserve" style="white-space: pre" font-family="Vera Humana 95" font-size="10" font-weight="bold" letter-spacing="0em"><tspan x="254.934" y="137.432">25</tspan></text>
<text id="forage_label" fill="#E9B743" xml:space="preserve" style="white-space: pre" font-family="Vera Humana 95" font-size="10" font-weight="bold" letter-spacing="0em"><tspan x="170.402" y="137.432">Forage</tspan></text>
</g>
<g id="frame_bottom">
<path id="Vector_27" d="M252.394 145.604L248.666 141.999H230.364C230.364 144.788 219.081 144.901 218.029 148.999C216.977 144.901 205.694 144.788 205.694 141.999H187.392L183.665 145.604" stroke="url(#paint34_linear_821229_207)" stroke-width="0.5" stroke-miterlimit="10"/>
<path id="Vector_28" d="M169.029 145.6H192.982L194.421 144.208H215.747L218.029 142L220.312 144.208H241.637L243.077 145.6H267.029" stroke="url(#paint35_linear_821229_207)" stroke-width="0.5" stroke-miterlimit="10"/>
</g>
</g>
<g id="BeeFrame">
<path id="Vector_29" d="M134.448 134.448V120.697C141.104 111.806 145.63 101.228 147.28 89.7205L157 80L147.28 70.2795C145.63 58.7724 141.104 48.194 134.448 39.3032V25.5522H120.697C111.806 18.8959 101.228 14.3704 89.7205 12.7205L80 3L70.2795 12.7205C58.7724 14.3704 48.194 18.8959 39.3032 25.5522H25.5522V39.3032C18.8959 48.194 14.3704 58.7724 12.7205 70.2795L3 80L12.7205 89.7205C14.3704 101.228 18.8959 111.806 25.5522 120.697V134.448H39.3032C48.194 141.104 58.7724 145.63 70.2795 147.28L80 157L89.7205 147.28C101.228 145.63 111.806 141.104 120.697 134.448H134.448Z" fill="#D9D9D9" stroke="url(#paint36_linear_821229_207)" stroke-width="2" stroke-miterlimit="10"/>
</g>
</g>
<g id="BeeStatsHoverFrame">
<path id="Vector_30" d="M134.448 134.448V120.697C141.104 111.806 145.63 101.228 147.28 89.7205L157 80L147.28 70.2795C145.63 58.7724 141.104 48.194 134.448 39.3032V25.5522H120.697C111.806 18.8959 101.228 14.3704 89.7205 12.7205L80 3L70.2795 12.7205C58.7724 14.3704 48.194 18.8959 39.3032 25.5522H25.5522V39.3032C18.8959 48.194 14.3704 58.7724 12.7205 70.2795L3 80L12.7205 89.7205C14.3704 101.228 18.8959 111.806 25.5522 120.697V134.448H39.3032C48.194 141.104 58.7724 145.63 70.2795 147.28L80 157L89.7205 147.28C101.228 145.63 111.806 141.104 120.697 134.448H134.448Z" fill="black" fill-opacity="0.25" stroke="url(#paint37_linear_821229_207)" stroke-width="2" stroke-miterlimit="10"/>
<text id="Title" fill="white" stroke="#9A321A" xml:space="preserve" style="white-space: pre" font-family="Optima" font-size="20" font-weight="bold" letter-spacing="0em"><tspan x="57.3925" y="76.2811">Your &#10;</tspan><tspan x="60" y="96.2811">Bees</tspan></text>
</g>
<g id="BeeStatsPressed">
<path id="Vector_31" opacity="0.53" d="M134.301 135.301V121.461C141.001 112.513 145.556 101.865 147.216 90.2836L157 80.5L147.216 70.7164C145.556 59.1346 141.001 48.4875 134.301 39.539V25.6987H120.461C111.513 18.9991 100.865 14.4442 89.2836 12.7836L79.5 3L69.7164 12.7836C58.1346 14.4442 47.4875 18.9991 38.539 25.6987H24.6987V39.539C17.9991 48.4875 13.4442 59.1346 11.7836 70.7164L2 80.5L11.7836 90.2836C13.4442 101.865 17.9991 112.513 24.6987 121.461V135.301H38.539C47.4875 142.001 58.1346 146.556 69.7164 148.216L79.5 158L89.2836 148.216C100.865 146.556 111.513 142.001 120.461 135.301H134.301Z" fill="url(#paint38_radial_821229_207)" stroke="url(#paint39_linear_821229_207)" stroke-width="2" stroke-miterlimit="10"/>
<text id="Title_2" fill="white" stroke="#9A321A" xml:space="preserve" style="white-space: pre" font-family="Optima" font-size="24" font-weight="bold" letter-spacing="0em"><tspan x="52.2256" y="76.0232">Your &#10;</tspan><tspan x="55.3545" y="100.023">Bees</tspan></text>
</g>
</g>
<defs>
<filter id="filter0_ii_821229_207" x="312" y="35" width="35" height="91" filterUnits="userSpaceOnUse" colorInterpolationFilters="sRGB">
<feFlood floodOpacity="0" result="BackgroundImageFix"/>
<feBlend mode="normal" in="SourceGraphic" in2="BackgroundImageFix" result="shape"/>
<feColorMatrix in="SourceAlpha" type="matrix" values="0 0 0 0 0 0 0 0 0 0 0 0 0 0 0 0 0 0 127 0" result="hardAlpha"/>
<feOffset dx="-2" dy="-2"/>
<feGaussianBlur stdDeviation="10"/>
<feComposite in2="hardAlpha" operator="arithmetic" k2="-1" k3="1"/>
<feColorMatrix type="matrix" values="0 0 0 0 0 0 0 0 0 0 0 0 0 0 0 0 0 0 0.25 0"/>
<feBlend mode="normal" in2="shape" result="effect1_innerShadow_821229_207"/>
<feColorMatrix in="SourceAlpha" type="matrix" values="0 0 0 0 0 0 0 0 0 0 0 0 0 0 0 0 0 0 127 0" result="hardAlpha"/>
<feOffset dx="2" dy="2"/>
<feGaussianBlur stdDeviation="10"/>
<feComposite in2="hardAlpha" operator="arithmetic" k2="-1" k3="1"/>
<feColorMatrix type="matrix" values="0 0 0 0 0 0 0 0 0 0 0 0 0 0 0 0 0 0 0.25 0"/>
<feBlend mode="normal" in2="effect1_innerShadow_821229_207" result="effect2_innerShadow_821229_207"/>
</filter>
<filter id="filter1_ii_821229_207" x="39.0215" y="-1.71387" width="277.557" height="164.716" filterUnits="userSpaceOnUse" colorInterpolationFilters="sRGB">
<feFlood floodOpacity="0" result="BackgroundImageFix"/>
<feBlend mode="normal" in="SourceGraphic" in2="BackgroundImageFix" result="shape"/>
<feColorMatrix in="SourceAlpha" type="matrix" values="0 0 0 0 0 0 0 0 0 0 0 0 0 0 0 0 0 0 127 0" result="hardAlpha"/>
<feOffset dx="-2" dy="-2"/>
<feGaussianBlur stdDeviation="10"/>
<feComposite in2="hardAlpha" operator="arithmetic" k2="-1" k3="1"/>
<feColorMatrix type="matrix" values="0 0 0 0 0 0 0 0 0 0 0 0 0 0 0 0 0 0 0.25 0"/>
<feBlend mode="normal" in2="shape" result="effect1_innerShadow_821229_207"/>
<feColorMatrix in="SourceAlpha" type="matrix" values="0 0 0 0 0 0 0 0 0 0 0 0 0 0 0 0 0 0 127 0" result="hardAlpha"/>
<feOffset dx="2" dy="2"/>
<feGaussianBlur stdDeviation="10"/>
<feComposite in2="hardAlpha" operator="arithmetic" k2="-1" k3="1"/>
<feColorMatrix type="matrix" values="0 0 0 0 0 0 0 0 0 0 0 0 0 0 0 0 0 0 0.25 0"/>
<feBlend mode="normal" in2="effect1_innerShadow_821229_207" result="effect2_innerShadow_821229_207"/>
</filter>
<linearGradient id="paint0_linear_821229_207" x1="328.958" y1="163.454" x2="328.958" y2="-0.83617" gradientUnits="userSpaceOnUse">
<stop offset="0.142606" stop-color="#242E4E"/>
<stop offset="0.499178" stop-color="#121727"/>
<stop offset="0.926392" stop-color="#202946"/>
</linearGradient>
<linearGradient id="paint1_linear_821229_207" x1="177.163" y1="-8.61114" x2="177.163" y2="168.303" gradientUnits="userSpaceOnUse">
<stop offset="0.142606" stop-color="#242E4E"/>
<stop offset="0.499178" stop-color="#121727"/>
<stop offset="0.926392" stop-color="#202946"/>
</linearGradient>
<linearGradient id="paint2_linear_821229_207" x1="177.804" y1="159.989" x2="177.804" y2="1.28613" gradientUnits="userSpaceOnUse">
<stop offset="0.065" stop-color="#68341B"/>
<stop offset="0.77" stop-color="#E9B743"/>
<stop offset="0.98" stop-color="#E9B743"/>
</linearGradient>
<linearGradient id="paint3_linear_821229_207" x1="313.029" y1="159.989" x2="313.029" y2="1" gradientUnits="userSpaceOnUse">
<stop offset="0.065" stop-color="#68341B"/>
<stop offset="0.77" stop-color="#E9B743"/>
<stop offset="0.98" stop-color="#E9B743"/>
</linearGradient>
<linearGradient id="paint4_linear_821229_207" x1="144.561" y1="129.188" x2="144.561" y2="84.6289" gradientUnits="userSpaceOnUse">
<stop offset="0.065" stop-color="#68341B"/>
<stop offset="0.77" stop-color="#E9B743"/>
<stop offset="0.98" stop-color="#E9B743"/>
</linearGradient>
<linearGradient id="paint5_linear_821229_207" x1="54.0083" y1="153.654" x2="54.0083" y2="135.193" gradientUnits="userSpaceOnUse">
<stop offset="0.065" stop-color="#68341B"/>
<stop offset="0.77" stop-color="#E9B743"/>
<stop offset="0.98" stop-color="#E9B743"/>
</linearGradient>
<linearGradient id="paint6_linear_821229_207" x1="16.4964" y1="76.1471" x2="16.4964" y2="31.5928" gradientUnits="userSpaceOnUse">
<stop offset="0.065" stop-color="#68341B"/>
<stop offset="0.77" stop-color="#E9B743"/>
<stop offset="0.98" stop-color="#E9B743"/>
</linearGradient>
<linearGradient id="paint7_linear_821229_207" x1="107.048" y1="25.5892" x2="107.048" y2="7.12891" gradientUnits="userSpaceOnUse">
<stop offset="0.065" stop-color="#68341B"/>
<stop offset="0.77" stop-color="#E9B743"/>
<stop offset="0.98" stop-color="#E9B743"/>
</linearGradient>
<linearGradient id="paint8_linear_821229_207" x1="54.0108" y1="25.5894" x2="54.0108" y2="7.13379" gradientUnits="userSpaceOnUse">
<stop offset="0.065" stop-color="#68341B"/>
<stop offset="0.77" stop-color="#E9B743"/>
<stop offset="0.98" stop-color="#E9B743"/>
</linearGradient>
<linearGradient id="paint9_linear_821229_207" x1="16.4964" y1="129.187" x2="16.4964" y2="84.6328" gradientUnits="userSpaceOnUse">
<stop offset="0.065" stop-color="#68341B"/>
<stop offset="0.77" stop-color="#E9B743"/>
<stop offset="0.98" stop-color="#E9B743"/>
</linearGradient>
<linearGradient id="paint10_linear_821229_207" x1="107.048" y1="153.654" x2="107.048" y2="135.193" gradientUnits="userSpaceOnUse">
<stop offset="0.065" stop-color="#68341B"/>
<stop offset="0.77" stop-color="#E9B743"/>
<stop offset="0.98" stop-color="#E9B743"/>
</linearGradient>
<linearGradient id="paint11_linear_821229_207" x1="144.561" y1="76.1518" x2="144.561" y2="31.5928" gradientUnits="userSpaceOnUse">
<stop offset="0.065" stop-color="#68341B"/>
<stop offset="0.77" stop-color="#E9B743"/>
<stop offset="0.98" stop-color="#E9B743"/>
</linearGradient>
<linearGradient id="paint12_linear_821229_207" x1="13.5162" y1="83.9749" x2="20.6249" y2="76.8662" gradientUnits="userSpaceOnUse">
<stop offset="0.065" stop-color="#68341B"/>
<stop offset="0.77" stop-color="#E9B743"/>
<stop offset="0.98" stop-color="#E9B743"/>
</linearGradient>
<linearGradient id="paint13_linear_821229_207" x1="140.275" y1="76.8668" x2="147.384" y2="83.9755" gradientUnits="userSpaceOnUse">
<stop offset="0.065" stop-color="#68341B"/>
<stop offset="0.77" stop-color="#E9B743"/>
<stop offset="0.98" stop-color="#E9B743"/>
</linearGradient>
<linearGradient id="paint14_linear_821229_207" x1="76.8962" y1="13.4869" x2="84.0049" y2="20.5957" gradientUnits="userSpaceOnUse">
<stop offset="0.065" stop-color="#68341B"/>
<stop offset="0.77" stop-color="#E9B743"/>
<stop offset="0.98" stop-color="#E9B743"/>
</linearGradient>
<linearGradient id="paint15_linear_821229_207" x1="84.0043" y1="140.246" x2="76.8956" y2="147.355" gradientUnits="userSpaceOnUse">
<stop offset="0.065" stop-color="#68341B"/>
<stop offset="0.77" stop-color="#E9B743"/>
<stop offset="0.98" stop-color="#E9B743"/>
</linearGradient>
<linearGradient id="paint16_linear_821229_207" x1="166.654" y1="61.3671" x2="166.654" y2="52.6309" gradientUnits="userSpaceOnUse">
<stop stop-color="#E9B743"/>
<stop offset="0.0001" stop-color="#68341B"/>
<stop offset="0.875" stop-color="#E9B743"/>
</linearGradient>
<linearGradient id="paint17_linear_821229_207" x1="216.03" y1="61.9993" x2="216.03" y2="52" gradientUnits="userSpaceOnUse">
<stop stop-color="#E9B743"/>
<stop offset="0.0001" stop-color="#68341B"/>
<stop offset="0.875" stop-color="#E9B743"/>
</linearGradient>
<linearGradient id="paint18_linear_821229_207" x1="265.405" y1="61.3666" x2="265.405" y2="52.6279" gradientUnits="userSpaceOnUse">
<stop stop-color="#E9B743"/>
<stop offset="0.0001" stop-color="#68341B"/>
<stop offset="0.875" stop-color="#E9B743"/>
</linearGradient>
<linearGradient id="paint19_linear_821229_207" x1="168.915" y1="57" x2="237.886" y2="57" gradientUnits="userSpaceOnUse">
<stop stop-color="#42681B"/>
<stop offset="1" stop-color="#82CE35"/>
</linearGradient>
<linearGradient id="paint20_linear_821229_207" x1="203.401" y1="59.9996" x2="203.401" y2="54" gradientUnits="userSpaceOnUse">
<stop stop-color="#E9B743"/>
<stop offset="0.0001" stop-color="#68341B"/>
<stop offset="0.875" stop-color="#E9B743"/>
</linearGradient>
<linearGradient id="paint21_linear_821229_207" x1="169.606" y1="91.3671" x2="169.606" y2="82.6309" gradientUnits="userSpaceOnUse">
<stop stop-color="#E9B743"/>
<stop offset="0.0001" stop-color="#68341B"/>
<stop offset="0.875" stop-color="#E9B743"/>
</linearGradient>
<linearGradient id="paint22_linear_821229_207" x1="217.529" y1="91.9993" x2="217.529" y2="82" gradientUnits="userSpaceOnUse">
<stop stop-color="#E9B743"/>
<stop offset="0.0001" stop-color="#68341B"/>
<stop offset="0.875" stop-color="#E9B743"/>
</linearGradient>
<linearGradient id="paint23_linear_821229_207" x1="265.453" y1="91.3666" x2="265.453" y2="82.6279" gradientUnits="userSpaceOnUse">
<stop stop-color="#E9B743"/>
<stop offset="0.0001" stop-color="#68341B"/>
<stop offset="0.875" stop-color="#E9B743"/>
</linearGradient>
<linearGradient id="paint24_linear_821229_207" x1="172.07" y1="87" x2="255.917" y2="87" gradientUnits="userSpaceOnUse">
<stop stop-color="#BE5F25"/>
<stop offset="1" stop-color="#E9B743"/>
</linearGradient>
<linearGradient id="paint25_linear_821229_207" x1="213.994" y1="89.9996" x2="213.994" y2="84" gradientUnits="userSpaceOnUse">
<stop stop-color="#E9B743"/>
<stop offset="0.0001" stop-color="#68341B"/>
<stop offset="0.875" stop-color="#E9B743"/>
</linearGradient>
<linearGradient id="paint26_linear_821229_207" x1="186.718" y1="89.9996" x2="186.718" y2="84" gradientUnits="userSpaceOnUse">
<stop stop-color="#E9B743"/>
<stop offset="0.0001" stop-color="#68341B"/>
<stop offset="0.875" stop-color="#E9B743"/>
</linearGradient>
<linearGradient id="paint27_linear_821229_207" x1="152.877" y1="31.3671" x2="152.877" y2="22.6309" gradientUnits="userSpaceOnUse">
<stop stop-color="#E9B743"/>
<stop offset="0.0001" stop-color="#68341B"/>
<stop offset="0.875" stop-color="#E9B743"/>
</linearGradient>
<linearGradient id="paint28_linear_821229_207" x1="209.03" y1="31.9993" x2="209.03" y2="22" gradientUnits="userSpaceOnUse">
<stop stop-color="#E9B743"/>
<stop offset="0.0001" stop-color="#68341B"/>
<stop offset="0.875" stop-color="#E9B743"/>
</linearGradient>
<linearGradient id="paint29_linear_821229_207" x1="265.182" y1="31.3666" x2="265.182" y2="22.6279" gradientUnits="userSpaceOnUse">
<stop stop-color="#E9B743"/>
<stop offset="0.0001" stop-color="#68341B"/>
<stop offset="0.875" stop-color="#E9B743"/>
</linearGradient>
<linearGradient id="paint30_linear_821229_207" x1="155.029" y1="27" x2="263.029" y2="27" gradientUnits="userSpaceOnUse">
<stop offset="0.07" stop-color="#5B1CAA"/>
<stop offset="0.98" stop-color="#5192F4"/>
</linearGradient>
<linearGradient id="paint31_linear_821229_207" x1="209.029" y1="29.9996" x2="209.029" y2="24" gradientUnits="userSpaceOnUse">
<stop stop-color="#E9B743"/>
<stop offset="0.0001" stop-color="#68341B"/>
<stop offset="0.875" stop-color="#E9B743"/>
</linearGradient>
<linearGradient id="paint32_linear_821229_207" x1="218.029" y1="103.999" x2="218.029" y2="97" gradientUnits="userSpaceOnUse">
<stop stop-color="#E9B743"/>
<stop offset="0.0001" stop-color="#68341B"/>
<stop offset="0.875" stop-color="#E9B743"/>
</linearGradient>
<linearGradient id="paint33_linear_821229_207" x1="218.029" y1="103.998" x2="218.029" y2="100.399" gradientUnits="userSpaceOnUse">
<stop stop-color="#E9B743"/>
<stop offset="0.0001" stop-color="#68341B"/>
<stop offset="0.875" stop-color="#E9B743"/>
</linearGradient>
<linearGradient id="paint34_linear_821229_207" x1="218.029" y1="142" x2="218.029" y2="148.999" gradientUnits="userSpaceOnUse">
<stop stop-color="#E9B743"/>
<stop offset="0.0001" stop-color="#68341B"/>
<stop offset="0.875" stop-color="#E9B743"/>
</linearGradient>
<linearGradient id="paint35_linear_821229_207" x1="218.029" y1="142.001" x2="218.029" y2="145.6" gradientUnits="userSpaceOnUse">
<stop stop-color="#E9B743"/>
<stop offset="0.0001" stop-color="#68341B"/>
<stop offset="0.875" stop-color="#E9B743"/>
</linearGradient>
<linearGradient id="paint36_linear_821229_207" x1="80" y1="156.989" x2="80" y2="3" gradientUnits="userSpaceOnUse">
<stop offset="0.065" stop-color="#68341B"/>
<stop offset="0.77" stop-color="#E9B743"/>
<stop offset="0.98" stop-color="#E9B743"/>
</linearGradient>
<linearGradient id="paint37_linear_821229_207" x1="80" y1="156.989" x2="80" y2="3" gradientUnits="userSpaceOnUse">
<stop offset="0.065" stop-color="#68341B"/>
<stop offset="0.77" stop-color="#E9B743"/>
<stop offset="0.98" stop-color="#E9B743"/>
</linearGradient>
<radialGradient id="paint38_radial_821229_207" cx="0" cy="0" r="1" gradientUnits="userSpaceOnUse" gradientTransform="translate(79.5 80.5) rotate(90) scale(77.5)">
<stop stop-opacity="0"/>
<stop offset="0.325" stop-opacity="0.94"/>
<stop offset="0.8" stop-opacity="0.31"/>
<stop offset="0.92"/>
</radialGradient>
<linearGradient id="paint39_linear_821229_207" x1="79.5" y1="157.989" x2="79.5" y2="3" gradientUnits="userSpaceOnUse">
<stop offset="0.065" stop-color="#68341B"/>
<stop offset="0.77" stop-color="#E9B743"/>
<stop offset="0.98" stop-color="#E9B743"/>
</linearGradient>
</defs>
</svg>
