<svg width="282" height="172" viewBox="0 0 282 172" fill="none" xmlns="http://www.w3.org/2000/svg">
<rect x="1.82617" y="18.5879" width="14.2307" height="5.78827" fill="#242E4E" fill-opacity="0.85"/>
<rect x="266.201" y="18.5879" width="14.2307" height="5.78827" fill="#242E4E" fill-opacity="0.85"/>
<g opacity="0.9">
<path d="M126.135 14.1056H16.9982H15.731V24.6823H1V135.978L6.70233 140.305V151.001V161.222H90.4999C102.584 167.361 138.014 167.467 141.182 170.592C144.502 166.069 176.979 168.007 187.553 161.222H263.08H275.346V140.305L281.206 135.978V24.8024H265.683V13.6248L156.389 14.1056L141.182 2.56738L126.135 14.1056Z" fill="url(#paint0_radial_821663_1668)"/>
<path d="M126.135 14.1056H16.9982H15.731V24.6823H1V135.978L6.70233 140.305V151.001V161.222H90.4999C102.584 167.361 138.014 167.467 141.182 170.592C144.502 166.069 176.979 168.007 187.553 161.222H263.08H275.346V140.305L281.206 135.978V24.8024H265.683V13.6248L156.389 14.1056L141.182 2.56738L126.135 14.1056Z" fill="url(#paint1_radial_821663_1668)" fill-opacity="0.4"/>
</g>
<path d="M6.60742 140.113V161.156H129.07H153.136H275.599V140.113" stroke="url(#paint2_linear_821663_1668)" stroke-width="2" stroke-miterlimit="10"/>
<path d="M265.409 18.3811H153.218L141.103 9.1416L128.988 18.3811H16.1807" stroke="url(#paint3_linear_821663_1668)" stroke-width="2" stroke-miterlimit="10"/>
<path d="M15.8192 18.3809H1.50977V136.225L15.8195 147.139V154.468H85.5151C85.8566 166.505 131.765 165.49 141.103 170.333C150.442 165.49 193.188 166.503 193.529 154.468H266.387V147.139L280.697 136.225V18.3809H265.789" stroke="url(#paint4_linear_821663_1668)" stroke-width="2" stroke-miterlimit="10"/>
<path d="M2.00879 24.6035H15.745V14H125.745L141.245 2L156.745 14L265.79 13.2344V24.6035H280.194" stroke="url(#paint5_linear_821663_1668)" stroke-width="2" stroke-miterlimit="10"/>
<defs>
<radialGradient id="paint0_radial_821663_1668" cx="0" cy="0" r="1" gradientUnits="userSpaceOnUse" gradientTransform="translate(141.234 83.124) rotate(92.9141) scale(229.875 365.293)">
<stop offset="0.3" stop-color="#242E4E"/>
<stop offset="0.575" stop-color="#121727"/>
<stop offset="0.765" stop-color="#202946"/>
<stop offset="0.85813" stop-color="#212A48"/>
</radialGradient>
<radialGradient id="paint1_radial_821663_1668" cx="0" cy="0" r="1" gradientUnits="userSpaceOnUse" gradientTransform="translate(141.103 86.5798) rotate(-104.281) scale(128.08 211.34)">
<stop stop-color="#34778E"/>
<stop offset="1" stop-color="#242E4E"/>
</radialGradient>
<linearGradient id="paint2_linear_821663_1668" x1="141.103" y1="161.155" x2="141.103" y2="140.113" gradientUnits="userSpaceOnUse">
<stop offset="0.065" stop-color="#68341B"/>
<stop offset="0.77" stop-color="#E9B743"/>
<stop offset="0.98" stop-color="#E9B743"/>
</linearGradient>
<linearGradient id="paint3_linear_821663_1668" x1="18.9702" y1="3.51845" x2="261.847" y2="40.2871" gradientUnits="userSpaceOnUse">
<stop offset="0.0225496" stop-color="#68341B"/>
<stop offset="0.15138" stop-color="#E9B743"/>
<stop offset="0.453063" stop-color="#68341B"/>
<stop offset="0.596396" stop-color="#E9B743"/>
<stop offset="0.925" stop-color="#68341B"/>
</linearGradient>
<linearGradient id="paint4_linear_821663_1668" x1="141.103" y1="170.322" x2="141.103" y2="18.3809" gradientUnits="userSpaceOnUse">
<stop offset="0.065" stop-color="#68341B"/>
<stop offset="0.77" stop-color="#E9B743"/>
<stop offset="0.98" stop-color="#E9B743"/>
</linearGradient>
<linearGradient id="paint5_linear_821663_1668" x1="141.101" y1="24.6019" x2="141.101" y2="2" gradientUnits="userSpaceOnUse">
<stop offset="0.065" stop-color="#68341B"/>
<stop offset="0.77" stop-color="#E9B743"/>
<stop offset="0.98" stop-color="#E9B743"/>
</linearGradient>
</defs>
</svg>
