<svg width="750" height="333" viewBox="0 0 750 333" fill="none" xmlns="http://www.w3.org/2000/svg">
<g filter="url(#filter0_d_2727_410)">
<path d="M2.42773 135.592H10.764V147.989H27.4364V137.641L35.7677 133.507V168.66H27.4364V156.257H10.764V166.581L2.42773 170.725V135.592Z" fill="white"/>
</g>
<g filter="url(#filter1_d_2727_410)">
<path d="M83.9435 160.392L75.6073 168.66H50.6035V143.855L58.9398 135.592H83.9435V160.392ZM71.4392 160.392L75.6073 156.258V143.855H63.1029L58.9398 147.989V160.392H71.4392Z" fill="white"/>
</g>
<g filter="url(#filter2_d_2727_410)">
<path d="M123.788 154.188V135.592H132.119V174.859L107.116 150.059V168.66H98.7793V129.388L123.788 154.188Z" fill="white"/>
</g>
<g filter="url(#filter3_d_2727_410)">
<path d="M182.403 135.592L178.235 143.855H146.957V135.592H182.403ZM182.403 147.989L178.235 156.258H146.957V147.989H182.403ZM182.403 160.392L178.235 168.66H146.957V160.392H182.403Z" fill="white"/>
</g>
<g filter="url(#filter4_d_2727_410)">
<path d="M207.635 154.188L195.131 141.791V129.388L211.803 145.925L222.211 135.602H234.711L215.962 154.198V166.601L207.625 170.735L207.635 154.188Z" fill="white"/>
</g>
<g filter="url(#filter5_d_2727_410)">
<path d="M251.645 168.66L243.309 160.392V135.592H278.73L274.587 143.855H251.645V156.258L255.808 160.392H276.624V168.66H251.645Z" fill="white"/>
</g>
<g filter="url(#filter6_d_2727_410)">
<path d="M324.824 160.392L316.493 168.66H291.484V143.855L299.821 135.592H324.824V160.392ZM312.325 160.392L316.493 156.258V143.855H303.989L299.821 147.989V160.392H312.325Z" fill="white"/>
</g>
<g filter="url(#filter7_d_2727_410)">
<path d="M373.004 133.522V168.66H364.668V154.188L356.332 162.456L348 154.188V166.59L339.664 170.725V133.522L356.332 150.059L373.004 133.522Z" fill="white"/>
</g>
<g filter="url(#filter8_d_2727_410)">
<path d="M387.836 168.66V135.592H417.008L421.176 143.855L412.864 152.124L421.196 160.392L417.028 168.66H387.836ZM396.172 160.392H408.677L400.34 152.124L408.677 143.855H396.172V160.392Z" fill="white"/>
</g>
<g filter="url(#filter9_d_2727_410)">
<path d="M457.266 135.592H465.602V147.989H482.25V137.641L490.586 133.507V168.66H482.25V156.257H465.602V166.581L457.266 170.715V135.592Z" fill="white"/>
</g>
<g filter="url(#filter10_d_2727_410)">
<path d="M513.777 168.66L505.445 160.392V135.592H513.777V156.238L517.945 160.372H530.449V137.641L538.785 133.507V168.66H513.777Z" fill="white"/>
</g>
<g filter="url(#filter11_d_2727_410)">
<path d="M566.123 143.855L561.955 147.989H586.959V160.392L578.622 168.66H551.537L555.705 160.392H574.434L578.603 156.258H553.619V143.855L561.955 135.592H589.045L584.877 143.855H566.123Z" fill="white"/>
</g>
<g filter="url(#filter12_d_2727_410)">
<path d="M637.22 135.592L633.052 143.855H622.644V166.591L614.308 170.725V143.855H601.809V135.592H637.22Z" fill="white"/>
</g>
<g filter="url(#filter13_d_2727_410)">
<path d="M658.307 160.392H685.397L681.229 168.66H649.971V133.522L658.307 137.656V160.392Z" fill="white"/>
</g>
<g filter="url(#filter14_d_2727_410)">
<path d="M733.572 135.592L729.404 143.855H698.15V135.592H733.572ZM733.572 147.989L729.404 156.258H698.15V147.989H733.572ZM733.572 160.392L729.404 168.66H698.15V160.392H733.572Z" fill="white"/>
</g>
<g filter="url(#filter15_d_2727_410)">
<path d="M211.532 0V92.5983L196.787 107.228H135.217L109.777 81.9999V6.30693H135.217V69.3812L147.94 81.9999H186.092V12.6139L211.532 0Z" fill="white"/>
</g>
<g filter="url(#filter16_d_2727_410)">
<path d="M265.626 81.9948H322.855V90.3761L305.87 107.237H202.044L202.054 107.227H202.039L278.339 31.5295H221.105V6.30176H341.931L265.626 81.9948Z" fill="white"/>
</g>
<g filter="url(#filter17_d_2727_410)">
<path d="M451.037 6.30176L442.131 15.1354L437.358 19.8693L374.722 81.9948H431.966V107.237H311.135L387.449 31.5295H330.206V23.1628L347.186 6.30176H451.037Z" fill="white"/>
</g>
<g filter="url(#filter18_d_2727_410)">
<path d="M543.881 88.3066L543.99 126.256L486.652 69.3858H467.566V107.237H442.131V20.3658L456.296 6.30176H467.566V44.163H473.925L512.087 6.30176H550.239L505.728 50.4601L543.881 88.3066Z" fill="white"/>
</g>
<g filter="url(#filter19_d_2727_410)">
<path d="M578.622 0L553.188 12.6188V126.257L578.622 113.638V0Z" fill="white"/>
</g>
<g filter="url(#filter20_d_2727_410)">
<path d="M646.338 81.9999H613.157V12.6188L587.717 0V107.228H646.338V81.9999Z" fill="white"/>
</g>
<g filter="url(#filter21_d_2727_410)">
<path d="M744 82L731.282 107.228H687.574L700.292 82H744Z" fill="white"/>
</g>
<g filter="url(#filter22_d_2727_410)">
<path d="M695.017 81.9999L682.3 107.228H651.676V0L677.111 12.6139V81.9999H695.017Z" fill="white"/>
</g>
<g filter="url(#filter23_d_2727_410)">
<path d="M91.0281 6.31204V6.30713L40.1582 56.7675L43.0427 59.6236L50.1151 66.6433L65.5931 82.0001L91.0281 107.228L91.6724 105.95L103.751 82.0001L78.3156 56.7675L103.751 31.5349L91.6724 7.58523L91.0281 6.31204L91.033 6.30713L91.0281 6.31204Z" fill="white"/>
</g>
<g filter="url(#filter24_d_2727_410)">
<path d="M60.2843 82.0001H27.4349V31.5349H60.2843L85.7192 6.30713H2V107.228H85.7192L60.2843 82.0001Z" fill="white"/>
</g>
<g filter="url(#filter25_d_2727_410)">
<path d="M66.5474 253.28V258.88H74.0674V262.432H66.5474V268.352H75.0274V272H62.0674V249.632H75.0274V253.28H66.5474ZM101.115 254.016C103.291 254.016 105.04 254.688 106.363 256.032C107.707 257.355 108.379 259.211 108.379 261.6V272H103.899V262.208C103.899 260.821 103.547 259.765 102.843 259.04C102.139 258.293 101.179 257.92 99.9626 257.92C98.7466 257.92 97.776 258.293 97.0506 259.04C96.3466 259.765 95.9946 260.821 95.9946 262.208V272H91.5146V262.208C91.5146 260.821 91.1626 259.765 90.4586 259.04C89.7546 258.293 88.7946 257.92 87.5786 257.92C86.3413 257.92 85.36 258.293 84.6346 259.04C83.9306 259.765 83.5786 260.821 83.5786 262.208V272H79.0986V254.272H83.5786V256.416C84.1546 255.669 84.8906 255.083 85.7866 254.656C86.704 254.229 87.7066 254.016 88.7946 254.016C90.1813 254.016 91.4186 254.315 92.5066 254.912C93.5946 255.488 94.4373 256.32 95.0346 257.408C95.6106 256.384 96.4426 255.563 97.5306 254.944C98.64 254.325 99.8346 254.016 101.115 254.016ZM117.11 256.864C117.686 256.011 118.475 255.317 119.478 254.784C120.502 254.251 121.665 253.984 122.966 253.984C124.481 253.984 125.846 254.357 127.062 255.104C128.299 255.851 129.27 256.917 129.974 258.304C130.699 259.669 131.062 261.259 131.062 263.072C131.062 264.885 130.699 266.496 129.974 267.904C129.27 269.291 128.299 270.368 127.062 271.136C125.846 271.904 124.481 272.288 122.966 272.288C121.643 272.288 120.481 272.032 119.478 271.52C118.497 270.987 117.707 270.304 117.11 269.472V272H112.63V248.32H117.11V256.864ZM126.486 263.072C126.486 262.005 126.262 261.088 125.814 260.32C125.387 259.531 124.811 258.933 124.086 258.528C123.382 258.123 122.614 257.92 121.782 257.92C120.971 257.92 120.203 258.133 119.478 258.56C118.774 258.965 118.198 259.563 117.75 260.352C117.323 261.141 117.11 262.069 117.11 263.136C117.11 264.203 117.323 265.131 117.75 265.92C118.198 266.709 118.774 267.317 119.478 267.744C120.203 268.149 120.971 268.352 121.782 268.352C122.614 268.352 123.382 268.139 124.086 267.712C124.811 267.285 125.387 266.677 125.814 265.888C126.262 265.099 126.486 264.16 126.486 263.072ZM133.165 263.072C133.165 261.28 133.517 259.691 134.221 258.304C134.947 256.917 135.917 255.851 137.133 255.104C138.371 254.357 139.747 253.984 141.261 253.984C142.584 253.984 143.736 254.251 144.717 254.784C145.72 255.317 146.52 255.989 147.117 256.8V254.272H151.629V272H147.117V269.408C146.541 270.24 145.741 270.933 144.717 271.488C143.715 272.021 142.552 272.288 141.229 272.288C139.736 272.288 138.371 271.904 137.133 271.136C135.917 270.368 134.947 269.291 134.221 267.904C133.517 266.496 133.165 264.885 133.165 263.072ZM147.117 263.136C147.117 262.048 146.904 261.12 146.477 260.352C146.051 259.563 145.475 258.965 144.749 258.56C144.024 258.133 143.245 257.92 142.413 257.92C141.581 257.92 140.813 258.123 140.109 258.528C139.405 258.933 138.829 259.531 138.381 260.32C137.955 261.088 137.741 262.005 137.741 263.072C137.741 264.139 137.955 265.077 138.381 265.888C138.829 266.677 139.405 267.285 140.109 267.712C140.835 268.139 141.603 268.352 142.413 268.352C143.245 268.352 144.024 268.149 144.749 267.744C145.475 267.317 146.051 266.72 146.477 265.952C146.904 265.163 147.117 264.224 147.117 263.136ZM160.485 257.024C161.061 256.085 161.808 255.349 162.725 254.816C163.664 254.283 164.73 254.016 165.925 254.016V258.72H164.741C163.333 258.72 162.266 259.051 161.541 259.712C160.837 260.373 160.485 261.525 160.485 263.168V272H156.005V254.272H160.485V257.024ZM179.438 272L173.422 264.448V272H168.942V248.32H173.422V261.792L179.374 254.272H185.198L177.39 263.168L185.262 272H179.438ZM203.127 272.288C201.42 272.288 199.884 271.915 198.519 271.168C197.154 270.4 196.076 269.323 195.287 267.936C194.519 266.549 194.135 264.949 194.135 263.136C194.135 261.323 194.53 259.723 195.319 258.336C196.13 256.949 197.228 255.883 198.615 255.136C200.002 254.368 201.548 253.984 203.255 253.984C204.962 253.984 206.508 254.368 207.895 255.136C209.282 255.883 210.37 256.949 211.159 258.336C211.97 259.723 212.375 261.323 212.375 263.136C212.375 264.949 211.959 266.549 211.127 267.936C210.316 269.323 209.207 270.4 207.799 271.168C206.412 271.915 204.855 272.288 203.127 272.288ZM203.127 268.384C203.938 268.384 204.695 268.192 205.399 267.808C206.124 267.403 206.7 266.805 207.127 266.016C207.554 265.227 207.767 264.267 207.767 263.136C207.767 261.451 207.319 260.16 206.423 259.264C205.548 258.347 204.471 257.888 203.191 257.888C201.911 257.888 200.834 258.347 199.959 259.264C199.106 260.16 198.679 261.451 198.679 263.136C198.679 264.821 199.095 266.123 199.927 267.04C200.78 267.936 201.847 268.384 203.127 268.384ZM225.485 254.016C227.597 254.016 229.304 254.688 230.605 256.032C231.906 257.355 232.557 259.211 232.557 261.6V272H228.077V262.208C228.077 260.8 227.725 259.723 227.021 258.976C226.317 258.208 225.357 257.824 224.141 257.824C222.904 257.824 221.922 258.208 221.197 258.976C220.493 259.723 220.141 260.8 220.141 262.208V272H215.661V254.272H220.141V256.48C220.738 255.712 221.496 255.115 222.413 254.688C223.352 254.24 224.376 254.016 225.485 254.016ZM243.29 263.072C243.29 261.28 243.642 259.691 244.346 258.304C245.072 256.917 246.042 255.851 247.258 255.104C248.496 254.357 249.872 253.984 251.386 253.984C252.709 253.984 253.861 254.251 254.842 254.784C255.845 255.317 256.645 255.989 257.242 256.8V254.272H261.754V272H257.242V269.408C256.666 270.24 255.866 270.933 254.842 271.488C253.84 272.021 252.677 272.288 251.354 272.288C249.861 272.288 248.496 271.904 247.258 271.136C246.042 270.368 245.072 269.291 244.346 267.904C243.642 266.496 243.29 264.885 243.29 263.072ZM257.242 263.136C257.242 262.048 257.029 261.12 256.602 260.352C256.176 259.563 255.6 258.965 254.874 258.56C254.149 258.133 253.37 257.92 252.538 257.92C251.706 257.92 250.938 258.123 250.234 258.528C249.53 258.933 248.954 259.531 248.506 260.32C248.08 261.088 247.866 262.005 247.866 263.072C247.866 264.139 248.08 265.077 248.506 265.888C248.954 266.677 249.53 267.285 250.234 267.712C250.96 268.139 251.728 268.352 252.538 268.352C253.37 268.352 254.149 268.149 254.874 267.744C255.6 267.317 256.176 266.72 256.602 265.952C257.029 265.163 257.242 264.224 257.242 263.136ZM272.603 263.104C272.603 261.333 272.966 259.765 273.691 258.4C274.438 257.013 275.44 255.936 276.699 255.168C277.958 254.4 279.344 254.016 280.859 254.016C282.118 254.016 283.227 254.261 284.187 254.752C285.168 255.221 285.958 255.829 286.555 256.576V254.272H291.067V280.448H286.555V269.568C285.958 270.336 285.158 270.976 284.155 271.488C283.152 272 282.022 272.256 280.763 272.256C279.27 272.256 277.894 271.872 276.635 271.104C275.398 270.315 274.416 269.227 273.691 267.84C272.966 266.453 272.603 264.875 272.603 263.104ZM286.555 263.136C286.555 262.048 286.331 261.109 285.883 260.32C285.435 259.531 284.848 258.933 284.123 258.528C283.419 258.123 282.662 257.92 281.851 257.92C281.062 257.92 280.304 258.123 279.579 258.528C278.875 258.933 278.299 259.531 277.851 260.32C277.403 261.088 277.179 262.016 277.179 263.104C277.179 264.192 277.403 265.141 277.851 265.952C278.299 266.741 278.875 267.339 279.579 267.744C280.304 268.149 281.062 268.352 281.851 268.352C282.662 268.352 283.419 268.149 284.123 267.744C284.848 267.339 285.435 266.741 285.883 265.952C286.331 265.163 286.555 264.224 286.555 263.136ZM312.178 254.272V272H307.666V269.76C307.09 270.528 306.333 271.136 305.394 271.584C304.477 272.011 303.474 272.224 302.386 272.224C301 272.224 299.773 271.936 298.706 271.36C297.64 270.763 296.797 269.899 296.178 268.768C295.581 267.616 295.282 266.251 295.282 264.672V254.272H299.762V264.032C299.762 265.44 300.114 266.528 300.818 267.296C301.522 268.043 302.482 268.416 303.698 268.416C304.936 268.416 305.906 268.043 306.61 267.296C307.314 266.528 307.666 265.44 307.666 264.032V254.272H312.178ZM333.079 262.752C333.079 263.392 333.036 263.968 332.951 264.48H319.991C320.097 265.76 320.545 266.763 321.335 267.488C322.124 268.213 323.095 268.576 324.247 268.576C325.911 268.576 327.095 267.861 327.799 266.432H332.631C332.119 268.139 331.137 269.547 329.687 270.656C328.236 271.744 326.455 272.288 324.343 272.288C322.636 272.288 321.1 271.915 319.735 271.168C318.391 270.4 317.335 269.323 316.567 267.936C315.82 266.549 315.447 264.949 315.447 263.136C315.447 261.301 315.82 259.691 316.567 258.304C317.313 256.917 318.359 255.851 319.703 255.104C321.047 254.357 322.593 253.984 324.343 253.984C326.028 253.984 327.532 254.347 328.855 255.072C330.199 255.797 331.233 256.832 331.959 258.176C332.705 259.499 333.079 261.024 333.079 262.752ZM328.439 261.472C328.417 260.32 328.001 259.403 327.191 258.72C326.38 258.016 325.388 257.664 324.215 257.664C323.105 257.664 322.167 258.005 321.399 258.688C320.652 259.349 320.193 260.277 320.023 261.472H328.439ZM343.133 272.288C341.682 272.288 340.381 272.032 339.229 271.52C338.077 270.987 337.159 270.272 336.477 269.376C335.815 268.48 335.453 267.488 335.389 266.4H339.901C339.986 267.083 340.317 267.648 340.893 268.096C341.49 268.544 342.226 268.768 343.101 268.768C343.954 268.768 344.615 268.597 345.085 268.256C345.575 267.915 345.821 267.477 345.821 266.944C345.821 266.368 345.522 265.941 344.925 265.664C344.349 265.365 343.421 265.045 342.141 264.704C340.818 264.384 339.73 264.053 338.877 263.712C338.045 263.371 337.319 262.848 336.701 262.144C336.103 261.44 335.805 260.491 335.805 259.296C335.805 258.315 336.082 257.419 336.637 256.608C337.213 255.797 338.023 255.157 339.069 254.688C340.135 254.219 341.383 253.984 342.813 253.984C344.925 253.984 346.61 254.517 347.869 255.584C349.127 256.629 349.821 258.048 349.949 259.84H345.661C345.597 259.136 345.298 258.581 344.765 258.176C344.253 257.749 343.559 257.536 342.685 257.536C341.874 257.536 341.245 257.685 340.797 257.984C340.37 258.283 340.157 258.699 340.157 259.232C340.157 259.829 340.455 260.288 341.053 260.608C341.65 260.907 342.578 261.216 343.837 261.536C345.117 261.856 346.173 262.187 347.005 262.528C347.837 262.869 348.551 263.403 349.149 264.128C349.767 264.832 350.087 265.771 350.109 266.944C350.109 267.968 349.821 268.885 349.245 269.696C348.69 270.507 347.879 271.147 346.813 271.616C345.767 272.064 344.541 272.288 343.133 272.288ZM359.002 257.952V266.528C359.002 267.125 359.141 267.563 359.418 267.84C359.717 268.096 360.207 268.224 360.89 268.224H362.97V272H360.154C356.378 272 354.49 270.165 354.49 266.496V257.952H352.378V254.272H354.49V249.888H359.002V254.272H362.97V257.952H359.002ZM381.945 257.952H378.841V272H374.297V257.952H372.281V254.272H374.297V253.376C374.297 251.2 374.916 249.6 376.153 248.576C377.391 247.552 379.257 247.072 381.753 247.136V250.912C380.665 250.891 379.908 251.072 379.481 251.456C379.055 251.84 378.841 252.533 378.841 253.536V254.272H381.945V257.952ZM392.721 272.288C391.014 272.288 389.478 271.915 388.113 271.168C386.747 270.4 385.67 269.323 384.881 267.936C384.113 266.549 383.729 264.949 383.729 263.136C383.729 261.323 384.123 259.723 384.913 258.336C385.723 256.949 386.822 255.883 388.209 255.136C389.595 254.368 391.142 253.984 392.849 253.984C394.555 253.984 396.102 254.368 397.489 255.136C398.875 255.883 399.963 256.949 400.753 258.336C401.563 259.723 401.969 261.323 401.969 263.136C401.969 264.949 401.553 266.549 400.721 267.936C399.91 269.323 398.801 270.4 397.393 271.168C396.006 271.915 394.449 272.288 392.721 272.288ZM392.721 268.384C393.531 268.384 394.289 268.192 394.993 267.808C395.718 267.403 396.294 266.805 396.721 266.016C397.147 265.227 397.361 264.267 397.361 263.136C397.361 261.451 396.913 260.16 396.017 259.264C395.142 258.347 394.065 257.888 392.785 257.888C391.505 257.888 390.427 258.347 389.553 259.264C388.699 260.16 388.273 261.451 388.273 263.136C388.273 264.821 388.689 266.123 389.521 267.04C390.374 267.936 391.441 268.384 392.721 268.384ZM409.735 257.024C410.311 256.085 411.058 255.349 411.975 254.816C412.914 254.283 413.98 254.016 415.175 254.016V258.72H413.991C412.583 258.72 411.516 259.051 410.791 259.712C410.087 260.373 409.735 261.525 409.735 263.168V272H405.255V254.272H409.735V257.024ZM441.753 265.568C441.753 266.677 441.465 267.723 440.889 268.704C440.335 269.664 439.503 270.464 438.393 271.104C437.305 271.723 436.015 272.085 434.521 272.192V274.784H432.473V272.16C430.34 271.968 428.623 271.328 427.321 270.24C426.02 269.131 425.348 267.637 425.305 265.76H430.105C430.233 267.296 431.023 268.224 432.473 268.544V262.432C430.937 262.048 429.7 261.664 428.761 261.28C427.823 260.896 427.012 260.277 426.329 259.424C425.647 258.571 425.305 257.408 425.305 255.936C425.305 254.08 425.967 252.565 427.289 251.392C428.633 250.219 430.361 249.547 432.473 249.376V246.784H434.521V249.376C436.569 249.547 438.201 250.165 439.417 251.232C440.655 252.299 441.348 253.771 441.497 255.648H436.665C436.601 255.029 436.377 254.496 435.993 254.048C435.631 253.579 435.14 253.248 434.521 253.056V259.104C436.121 259.509 437.38 259.904 438.297 260.288C439.236 260.651 440.047 261.259 440.729 262.112C441.412 262.944 441.753 264.096 441.753 265.568ZM429.977 255.712C429.977 256.416 430.191 256.992 430.617 257.44C431.044 257.867 431.663 258.219 432.473 258.496V252.96C431.705 253.067 431.097 253.355 430.649 253.824C430.201 254.293 429.977 254.923 429.977 255.712ZM434.521 268.608C435.332 268.459 435.961 268.128 436.409 267.616C436.879 267.104 437.113 266.485 437.113 265.76C437.113 265.056 436.889 264.491 436.441 264.064C435.993 263.637 435.353 263.285 434.521 263.008V268.608ZM465.283 249.664V272H460.803V262.496H451.235V272H446.755V249.664H451.235V258.848H460.803V249.664H465.283ZM480.06 272.224C477.97 272.224 476.05 271.733 474.3 270.752C472.551 269.771 471.164 268.416 470.14 266.688C469.116 264.939 468.604 262.965 468.604 260.768C468.604 258.592 469.116 256.64 470.14 254.912C471.164 253.163 472.551 251.797 474.3 250.816C476.05 249.835 477.97 249.344 480.06 249.344C482.172 249.344 484.092 249.835 485.82 250.816C487.57 251.797 488.946 253.163 489.948 254.912C490.972 256.64 491.484 258.592 491.484 260.768C491.484 262.965 490.972 264.939 489.948 266.688C488.946 268.416 487.57 269.771 485.82 270.752C484.071 271.733 482.151 272.224 480.06 272.224ZM480.06 268.224C481.404 268.224 482.588 267.925 483.612 267.328C484.636 266.709 485.436 265.835 486.012 264.704C486.588 263.573 486.876 262.261 486.876 260.768C486.876 259.275 486.588 257.973 486.012 256.864C485.436 255.733 484.636 254.869 483.612 254.272C482.588 253.675 481.404 253.376 480.06 253.376C478.716 253.376 477.522 253.675 476.476 254.272C475.452 254.869 474.652 255.733 474.076 256.864C473.5 257.973 473.212 259.275 473.212 260.768C473.212 262.261 473.5 263.573 474.076 264.704C474.652 265.835 475.452 266.709 476.476 267.328C477.522 267.925 478.716 268.224 480.06 268.224ZM513.921 272H509.441L499.297 256.672V272H494.817V249.632H499.297L509.441 264.992V249.632H513.921V272ZM522.829 253.28V258.88H530.349V262.432H522.829V268.352H531.309V272H518.349V249.632H531.309V253.28H522.829ZM553.14 249.664L545.588 264.224V272H541.108V264.224L533.524 249.664H538.58L543.38 259.872L548.148 249.664H553.14ZM565.621 252.16C564.831 252.16 564.17 251.915 563.637 251.424C563.125 250.912 562.869 250.283 562.869 249.536C562.869 248.789 563.125 248.171 563.637 247.68C564.17 247.168 564.831 246.912 565.621 246.912C566.41 246.912 567.061 247.168 567.573 247.68C568.106 248.171 568.373 248.789 568.373 249.536C568.373 250.283 568.106 250.912 567.573 251.424C567.061 251.915 566.41 252.16 565.621 252.16ZM567.829 254.272V272H563.349V254.272H567.829ZM582.079 254.016C584.191 254.016 585.898 254.688 587.199 256.032C588.5 257.355 589.151 259.211 589.151 261.6V272H584.671V262.208C584.671 260.8 584.319 259.723 583.615 258.976C582.911 258.208 581.951 257.824 580.735 257.824C579.498 257.824 578.516 258.208 577.791 258.976C577.087 259.723 576.735 260.8 576.735 262.208V272H572.255V254.272H576.735V256.48C577.332 255.712 578.09 255.115 579.007 254.688C579.946 254.24 580.97 254.016 582.079 254.016ZM606.252 257.952V266.528C606.252 267.125 606.391 267.563 606.668 267.84C606.967 268.096 607.457 268.224 608.14 268.224H610.22V272H607.404C603.628 272 601.74 270.165 601.74 266.496V257.952H599.628V254.272H601.74V249.888H606.252V254.272H610.22V257.952H606.252ZM623.426 254.016C624.77 254.016 625.965 254.315 627.01 254.912C628.056 255.488 628.866 256.352 629.442 257.504C630.04 258.635 630.338 260 630.338 261.6V272H625.858V262.208C625.858 260.8 625.506 259.723 624.802 258.976C624.098 258.208 623.138 257.824 621.922 257.824C620.685 257.824 619.704 258.208 618.978 258.976C618.274 259.723 617.922 260.8 617.922 262.208V272H613.442V248.32H617.922V256.48C618.498 255.712 619.266 255.115 620.226 254.688C621.186 254.24 622.253 254.016 623.426 254.016ZM651.079 262.752C651.079 263.392 651.036 263.968 650.951 264.48H637.991C638.097 265.76 638.545 266.763 639.335 267.488C640.124 268.213 641.095 268.576 642.247 268.576C643.911 268.576 645.095 267.861 645.799 266.432H650.631C650.119 268.139 649.137 269.547 647.687 270.656C646.236 271.744 644.455 272.288 642.343 272.288C640.636 272.288 639.1 271.915 637.735 271.168C636.391 270.4 635.335 269.323 634.567 267.936C633.82 266.549 633.447 264.949 633.447 263.136C633.447 261.301 633.82 259.691 634.567 258.304C635.313 256.917 636.359 255.851 637.703 255.104C639.047 254.357 640.593 253.984 642.343 253.984C644.028 253.984 645.532 254.347 646.855 255.072C648.199 255.797 649.233 256.832 649.959 258.176C650.705 259.499 651.079 261.024 651.079 262.752ZM646.439 261.472C646.417 260.32 646.001 259.403 645.191 258.72C644.38 258.016 643.388 257.664 642.215 257.664C641.105 257.664 640.167 258.005 639.399 258.688C638.652 259.349 638.193 260.277 638.023 261.472H646.439ZM170.85 315.872L175.33 302.272H180.098L173.538 320H168.098L161.57 302.272H166.37L170.85 315.872ZM184.886 300.16C184.097 300.16 183.436 299.915 182.902 299.424C182.39 298.912 182.134 298.283 182.134 297.536C182.134 296.789 182.39 296.171 182.902 295.68C183.436 295.168 184.097 294.912 184.886 294.912C185.676 294.912 186.326 295.168 186.838 295.68C187.372 296.171 187.638 296.789 187.638 297.536C187.638 298.283 187.372 298.912 186.838 299.424C186.326 299.915 185.676 300.16 184.886 300.16ZM187.094 302.272V320H182.614V302.272H187.094ZM196.001 304.864C196.577 304.011 197.366 303.317 198.369 302.784C199.393 302.251 200.555 301.984 201.857 301.984C203.371 301.984 204.737 302.357 205.953 303.104C207.19 303.851 208.161 304.917 208.865 306.304C209.59 307.669 209.953 309.259 209.953 311.072C209.953 312.885 209.59 314.496 208.865 315.904C208.161 317.291 207.19 318.368 205.953 319.136C204.737 319.904 203.371 320.288 201.857 320.288C200.534 320.288 199.371 320.032 198.369 319.52C197.387 318.987 196.598 318.304 196.001 317.472V320H191.521V296.32H196.001V304.864ZM205.377 311.072C205.377 310.005 205.153 309.088 204.705 308.32C204.278 307.531 203.702 306.933 202.977 306.528C202.273 306.123 201.505 305.92 200.673 305.92C199.862 305.92 199.094 306.133 198.369 306.56C197.665 306.965 197.089 307.563 196.641 308.352C196.214 309.141 196.001 310.069 196.001 311.136C196.001 312.203 196.214 313.131 196.641 313.92C197.089 314.709 197.665 315.317 198.369 315.744C199.094 316.149 199.862 316.352 200.673 316.352C201.505 316.352 202.273 316.139 202.977 315.712C203.702 315.285 204.278 314.677 204.705 313.888C205.153 313.099 205.377 312.16 205.377 311.072ZM217.688 305.024C218.264 304.085 219.011 303.349 219.928 302.816C220.867 302.283 221.933 302.016 223.128 302.016V306.72H221.944C220.536 306.72 219.469 307.051 218.744 307.712C218.04 308.373 217.688 309.525 217.688 311.168V320H213.208V302.272H217.688V305.024ZM224.993 311.072C224.993 309.28 225.345 307.691 226.049 306.304C226.775 304.917 227.746 303.851 228.962 303.104C230.199 302.357 231.575 301.984 233.09 301.984C234.412 301.984 235.564 302.251 236.546 302.784C237.548 303.317 238.348 303.989 238.946 304.8V302.272H243.458V320H238.946V317.408C238.37 318.24 237.57 318.933 236.546 319.488C235.543 320.021 234.38 320.288 233.058 320.288C231.564 320.288 230.199 319.904 228.962 319.136C227.746 318.368 226.775 317.291 226.049 315.904C225.345 314.496 224.993 312.885 224.993 311.072ZM238.946 311.136C238.946 310.048 238.732 309.12 238.306 308.352C237.879 307.563 237.303 306.965 236.578 306.56C235.852 306.133 235.074 305.92 234.242 305.92C233.41 305.92 232.642 306.123 231.938 306.528C231.234 306.933 230.658 307.531 230.21 308.32C229.783 309.088 229.57 310.005 229.57 311.072C229.57 312.139 229.783 313.077 230.21 313.888C230.658 314.677 231.234 315.285 231.938 315.712C232.663 316.139 233.431 316.352 234.242 316.352C235.074 316.352 235.852 316.149 236.578 315.744C237.303 315.317 237.879 314.72 238.306 313.952C238.732 313.163 238.946 312.224 238.946 311.136ZM257.657 302.016C259.769 302.016 261.476 302.688 262.777 304.032C264.078 305.355 264.729 307.211 264.729 309.6V320H260.249V310.208C260.249 308.8 259.897 307.723 259.193 306.976C258.489 306.208 257.529 305.824 256.313 305.824C255.076 305.824 254.094 306.208 253.369 306.976C252.665 307.723 252.313 308.8 252.313 310.208V320H247.833V302.272H252.313V304.48C252.91 303.712 253.668 303.115 254.585 302.688C255.524 302.24 256.548 302.016 257.657 302.016ZM274.205 305.952V314.528C274.205 315.125 274.344 315.563 274.621 315.84C274.92 316.096 275.411 316.224 276.093 316.224H278.173V320H275.357C271.581 320 269.693 318.165 269.693 314.496V305.952H267.581V302.272H269.693V297.888H274.205V302.272H278.173V305.952H274.205ZM299.005 302.016C300.349 302.016 301.543 302.315 302.589 302.912C303.634 303.488 304.445 304.352 305.021 305.504C305.618 306.635 305.917 308 305.917 309.6V320H301.437V310.208C301.437 308.8 301.085 307.723 300.381 306.976C299.677 306.208 298.717 305.824 297.501 305.824C296.263 305.824 295.282 306.208 294.557 306.976C293.853 307.723 293.501 308.8 293.501 310.208V320H289.021V296.32H293.501V304.48C294.077 303.712 294.845 303.115 295.805 302.688C296.765 302.24 297.831 302.016 299.005 302.016ZM326.657 310.752C326.657 311.392 326.614 311.968 326.529 312.48H313.569C313.675 313.76 314.123 314.763 314.913 315.488C315.702 316.213 316.673 316.576 317.825 316.576C319.489 316.576 320.673 315.861 321.377 314.432H326.209C325.697 316.139 324.715 317.547 323.265 318.656C321.814 319.744 320.033 320.288 317.921 320.288C316.214 320.288 314.678 319.915 313.313 319.168C311.969 318.4 310.913 317.323 310.145 315.936C309.398 314.549 309.025 312.949 309.025 311.136C309.025 309.301 309.398 307.691 310.145 306.304C310.891 304.917 311.937 303.851 313.281 303.104C314.625 302.357 316.171 301.984 317.921 301.984C319.606 301.984 321.11 302.347 322.433 303.072C323.777 303.797 324.811 304.832 325.537 306.176C326.283 307.499 326.657 309.024 326.657 310.752ZM322.017 309.472C321.995 308.32 321.579 307.403 320.769 306.72C319.958 306.016 318.966 305.664 317.793 305.664C316.683 305.664 315.745 306.005 314.977 306.688C314.23 307.349 313.771 308.277 313.601 309.472H322.017ZM328.775 311.072C328.775 309.28 329.127 307.691 329.831 306.304C330.556 304.917 331.527 303.851 332.743 303.104C333.98 302.357 335.356 301.984 336.871 301.984C338.193 301.984 339.345 302.251 340.327 302.784C341.329 303.317 342.129 303.989 342.727 304.8V302.272H347.239V320H342.727V317.408C342.151 318.24 341.351 318.933 340.327 319.488C339.324 320.021 338.161 320.288 336.839 320.288C335.345 320.288 333.98 319.904 332.743 319.136C331.527 318.368 330.556 317.291 329.831 315.904C329.127 314.496 328.775 312.885 328.775 311.072ZM342.727 311.136C342.727 310.048 342.513 309.12 342.087 308.352C341.66 307.563 341.084 306.965 340.359 306.56C339.633 306.133 338.855 305.92 338.023 305.92C337.191 305.92 336.423 306.123 335.719 306.528C335.015 306.933 334.439 307.531 333.991 308.32C333.564 309.088 333.351 310.005 333.351 311.072C333.351 312.139 333.564 313.077 333.991 313.888C334.439 314.677 335.015 315.285 335.719 315.712C336.444 316.139 337.212 316.352 338.023 316.352C338.855 316.352 339.633 316.149 340.359 315.744C341.084 315.317 341.66 314.72 342.087 313.952C342.513 313.163 342.727 312.224 342.727 311.136ZM356.094 305.024C356.67 304.085 357.417 303.349 358.334 302.816C359.273 302.283 360.34 302.016 361.534 302.016V306.72H360.35C358.942 306.72 357.876 307.051 357.15 307.712C356.446 308.373 356.094 309.525 356.094 311.168V320H351.614V302.272H356.094V305.024ZM369.768 305.952V314.528C369.768 315.125 369.906 315.563 370.184 315.84C370.482 316.096 370.973 316.224 371.656 316.224H373.736V320H370.92C367.144 320 365.256 318.165 365.256 314.496V305.952H363.144V302.272H365.256V297.888H369.768V302.272H373.736V305.952H369.768ZM392.455 320.288C390.748 320.288 389.212 319.915 387.847 319.168C386.482 318.4 385.404 317.323 384.615 315.936C383.847 314.549 383.463 312.949 383.463 311.136C383.463 309.323 383.858 307.723 384.647 306.336C385.458 304.949 386.556 303.883 387.943 303.136C389.33 302.368 390.876 301.984 392.583 301.984C394.29 301.984 395.836 302.368 397.223 303.136C398.61 303.883 399.698 304.949 400.487 306.336C401.298 307.723 401.703 309.323 401.703 311.136C401.703 312.949 401.287 314.549 400.455 315.936C399.644 317.323 398.535 318.4 397.127 319.168C395.74 319.915 394.183 320.288 392.455 320.288ZM392.455 316.384C393.266 316.384 394.023 316.192 394.727 315.808C395.452 315.403 396.028 314.805 396.455 314.016C396.882 313.227 397.095 312.267 397.095 311.136C397.095 309.451 396.647 308.16 395.751 307.264C394.876 306.347 393.799 305.888 392.519 305.888C391.239 305.888 390.162 306.347 389.287 307.264C388.434 308.16 388.007 309.451 388.007 311.136C388.007 312.821 388.423 314.123 389.255 315.04C390.108 315.936 391.175 316.384 392.455 316.384ZM413.117 305.952H410.013V320H405.469V305.952H403.453V302.272H405.469V301.376C405.469 299.2 406.088 297.6 407.325 296.576C408.563 295.552 410.429 295.072 412.925 295.136V298.912C411.837 298.891 411.08 299.072 410.653 299.456C410.227 299.84 410.013 300.533 410.013 301.536V302.272H413.117V305.952ZM442.75 320H438.27L428.126 304.672V320H423.646V297.632H428.126L438.27 312.992V297.632H442.75V320ZM463.657 310.752C463.657 311.392 463.614 311.968 463.529 312.48H450.569C450.675 313.76 451.123 314.763 451.913 315.488C452.702 316.213 453.673 316.576 454.825 316.576C456.489 316.576 457.673 315.861 458.377 314.432H463.209C462.697 316.139 461.715 317.547 460.265 318.656C458.814 319.744 457.033 320.288 454.921 320.288C453.214 320.288 451.678 319.915 450.313 319.168C448.969 318.4 447.913 317.323 447.145 315.936C446.398 314.549 446.025 312.949 446.025 311.136C446.025 309.301 446.398 307.691 447.145 306.304C447.891 304.917 448.937 303.851 450.281 303.104C451.625 302.357 453.171 301.984 454.921 301.984C456.606 301.984 458.11 302.347 459.433 303.072C460.777 303.797 461.811 304.832 462.537 306.176C463.283 307.499 463.657 309.024 463.657 310.752ZM459.017 309.472C458.995 308.32 458.579 307.403 457.769 306.72C456.958 306.016 455.966 305.664 454.793 305.664C453.683 305.664 452.745 306.005 451.977 306.688C451.23 307.349 450.771 308.277 450.601 309.472H459.017ZM465.775 311.136C465.775 309.301 466.148 307.701 466.895 306.336C467.641 304.949 468.676 303.883 469.999 303.136C471.321 302.368 472.836 301.984 474.543 301.984C476.74 301.984 478.553 302.539 479.983 303.648C481.433 304.736 482.404 306.272 482.895 308.256H478.063C477.807 307.488 477.369 306.891 476.751 306.464C476.153 306.016 475.407 305.792 474.511 305.792C473.231 305.792 472.217 306.261 471.471 307.2C470.724 308.117 470.351 309.429 470.351 311.136C470.351 312.821 470.724 314.133 471.471 315.072C472.217 315.989 473.231 316.448 474.511 316.448C476.324 316.448 477.508 315.637 478.063 314.016H482.895C482.404 315.936 481.433 317.461 479.983 318.592C478.532 319.723 476.719 320.288 474.543 320.288C472.836 320.288 471.321 319.915 469.999 319.168C468.676 318.4 467.641 317.333 466.895 315.968C466.148 314.581 465.775 312.971 465.775 311.136ZM491.393 305.952V314.528C491.393 315.125 491.531 315.563 491.809 315.84C492.107 316.096 492.598 316.224 493.281 316.224H495.361V320H492.545C488.769 320 486.881 318.165 486.881 314.496V305.952H484.769V302.272H486.881V297.888H491.393V302.272H495.361V305.952H491.393ZM515.063 310.752C515.063 311.392 515.02 311.968 514.935 312.48H501.975C502.082 313.76 502.53 314.763 503.319 315.488C504.108 316.213 505.079 316.576 506.231 316.576C507.895 316.576 509.079 315.861 509.783 314.432H514.615C514.103 316.139 513.122 317.547 511.671 318.656C510.22 319.744 508.439 320.288 506.327 320.288C504.62 320.288 503.084 319.915 501.719 319.168C500.375 318.4 499.319 317.323 498.551 315.936C497.804 314.549 497.431 312.949 497.431 311.136C497.431 309.301 497.804 307.691 498.551 306.304C499.298 304.917 500.343 303.851 501.687 303.104C503.031 302.357 504.578 301.984 506.327 301.984C508.012 301.984 509.516 302.347 510.839 303.072C512.183 303.797 513.218 304.832 513.943 306.176C514.69 307.499 515.063 309.024 515.063 310.752ZM510.423 309.472C510.402 308.32 509.986 307.403 509.175 306.72C508.364 306.016 507.372 305.664 506.199 305.664C505.09 305.664 504.151 306.005 503.383 306.688C502.636 307.349 502.178 308.277 502.007 309.472H510.423ZM522.813 305.024C523.389 304.085 524.136 303.349 525.053 302.816C525.992 302.283 527.058 302.016 528.253 302.016V306.72H527.069C525.661 306.72 524.594 307.051 523.869 307.712C523.165 308.373 522.813 309.525 522.813 311.168V320H518.333V302.272H522.813V305.024ZM530.118 311.072C530.118 309.28 530.47 307.691 531.174 306.304C531.9 304.917 532.871 303.851 534.087 303.104C535.324 302.357 536.7 301.984 538.215 301.984C539.537 301.984 540.689 302.251 541.671 302.784C542.673 303.317 543.473 303.989 544.071 304.8V302.272H548.583V320H544.071V317.408C543.495 318.24 542.695 318.933 541.671 319.488C540.668 320.021 539.505 320.288 538.183 320.288C536.689 320.288 535.324 319.904 534.087 319.136C532.871 318.368 531.9 317.291 531.174 315.904C530.47 314.496 530.118 312.885 530.118 311.072ZM544.071 311.136C544.071 310.048 543.857 309.12 543.431 308.352C543.004 307.563 542.428 306.965 541.703 306.56C540.977 306.133 540.199 305.92 539.367 305.92C538.535 305.92 537.767 306.123 537.062 306.528C536.359 306.933 535.783 307.531 535.335 308.32C534.908 309.088 534.695 310.005 534.695 311.072C534.695 312.139 534.908 313.077 535.335 313.888C535.783 314.677 536.359 315.285 537.062 315.712C537.788 316.139 538.556 316.352 539.367 316.352C540.199 316.352 540.977 316.149 541.703 315.744C542.428 315.317 543.004 314.72 543.431 313.952C543.857 313.163 544.071 312.224 544.071 311.136Z" fill="white"/>
</g>
<defs>
<filter id="filter0_d_2727_410" x="0.427734" y="133.507" width="41.3398" height="46.2173" filterUnits="userSpaceOnUse" color-interpolation-filters="sRGB">
<feFlood flood-opacity="0" result="BackgroundImageFix"/>
<feColorMatrix in="SourceAlpha" type="matrix" values="0 0 0 0 0 0 0 0 0 0 0 0 0 0 0 0 0 0 127 0" result="hardAlpha"/>
<feOffset dx="2" dy="5"/>
<feGaussianBlur stdDeviation="2"/>
<feComposite in2="hardAlpha" operator="out"/>
<feColorMatrix type="matrix" values="0 0 0 0 0 0 0 0 0 0 0 0 0 0 0 0 0 0 0.47 0"/>
<feBlend mode="normal" in2="BackgroundImageFix" result="effect1_dropShadow_2727_410"/>
<feBlend mode="normal" in="SourceGraphic" in2="effect1_dropShadow_2727_410" result="shape"/>
</filter>
<filter id="filter1_d_2727_410" x="48.6035" y="135.592" width="41.3398" height="42.0684" filterUnits="userSpaceOnUse" color-interpolation-filters="sRGB">
<feFlood flood-opacity="0" result="BackgroundImageFix"/>
<feColorMatrix in="SourceAlpha" type="matrix" values="0 0 0 0 0 0 0 0 0 0 0 0 0 0 0 0 0 0 127 0" result="hardAlpha"/>
<feOffset dx="2" dy="5"/>
<feGaussianBlur stdDeviation="2"/>
<feComposite in2="hardAlpha" operator="out"/>
<feColorMatrix type="matrix" values="0 0 0 0 0 0 0 0 0 0 0 0 0 0 0 0 0 0 0.47 0"/>
<feBlend mode="normal" in2="BackgroundImageFix" result="effect1_dropShadow_2727_410"/>
<feBlend mode="normal" in="SourceGraphic" in2="effect1_dropShadow_2727_410" result="shape"/>
</filter>
<filter id="filter2_d_2727_410" x="96.7793" y="129.388" width="41.3398" height="54.4707" filterUnits="userSpaceOnUse" color-interpolation-filters="sRGB">
<feFlood flood-opacity="0" result="BackgroundImageFix"/>
<feColorMatrix in="SourceAlpha" type="matrix" values="0 0 0 0 0 0 0 0 0 0 0 0 0 0 0 0 0 0 127 0" result="hardAlpha"/>
<feOffset dx="2" dy="5"/>
<feGaussianBlur stdDeviation="2"/>
<feComposite in2="hardAlpha" operator="out"/>
<feColorMatrix type="matrix" values="0 0 0 0 0 0 0 0 0 0 0 0 0 0 0 0 0 0 0.47 0"/>
<feBlend mode="normal" in2="BackgroundImageFix" result="effect1_dropShadow_2727_410"/>
<feBlend mode="normal" in="SourceGraphic" in2="effect1_dropShadow_2727_410" result="shape"/>
</filter>
<filter id="filter3_d_2727_410" x="144.957" y="135.592" width="43.4473" height="42.0684" filterUnits="userSpaceOnUse" color-interpolation-filters="sRGB">
<feFlood flood-opacity="0" result="BackgroundImageFix"/>
<feColorMatrix in="SourceAlpha" type="matrix" values="0 0 0 0 0 0 0 0 0 0 0 0 0 0 0 0 0 0 127 0" result="hardAlpha"/>
<feOffset dx="2" dy="5"/>
<feGaussianBlur stdDeviation="2"/>
<feComposite in2="hardAlpha" operator="out"/>
<feColorMatrix type="matrix" values="0 0 0 0 0 0 0 0 0 0 0 0 0 0 0 0 0 0 0.47 0"/>
<feBlend mode="normal" in2="BackgroundImageFix" result="effect1_dropShadow_2727_410"/>
<feBlend mode="normal" in="SourceGraphic" in2="effect1_dropShadow_2727_410" result="shape"/>
</filter>
<filter id="filter4_d_2727_410" x="193.131" y="129.388" width="47.5801" height="50.3467" filterUnits="userSpaceOnUse" color-interpolation-filters="sRGB">
<feFlood flood-opacity="0" result="BackgroundImageFix"/>
<feColorMatrix in="SourceAlpha" type="matrix" values="0 0 0 0 0 0 0 0 0 0 0 0 0 0 0 0 0 0 127 0" result="hardAlpha"/>
<feOffset dx="2" dy="5"/>
<feGaussianBlur stdDeviation="2"/>
<feComposite in2="hardAlpha" operator="out"/>
<feColorMatrix type="matrix" values="0 0 0 0 0 0 0 0 0 0 0 0 0 0 0 0 0 0 0.47 0"/>
<feBlend mode="normal" in2="BackgroundImageFix" result="effect1_dropShadow_2727_410"/>
<feBlend mode="normal" in="SourceGraphic" in2="effect1_dropShadow_2727_410" result="shape"/>
</filter>
<filter id="filter5_d_2727_410" x="241.309" y="135.592" width="43.4219" height="42.0684" filterUnits="userSpaceOnUse" color-interpolation-filters="sRGB">
<feFlood flood-opacity="0" result="BackgroundImageFix"/>
<feColorMatrix in="SourceAlpha" type="matrix" values="0 0 0 0 0 0 0 0 0 0 0 0 0 0 0 0 0 0 127 0" result="hardAlpha"/>
<feOffset dx="2" dy="5"/>
<feGaussianBlur stdDeviation="2"/>
<feComposite in2="hardAlpha" operator="out"/>
<feColorMatrix type="matrix" values="0 0 0 0 0 0 0 0 0 0 0 0 0 0 0 0 0 0 0.47 0"/>
<feBlend mode="normal" in2="BackgroundImageFix" result="effect1_dropShadow_2727_410"/>
<feBlend mode="normal" in="SourceGraphic" in2="effect1_dropShadow_2727_410" result="shape"/>
</filter>
<filter id="filter6_d_2727_410" x="289.484" y="135.592" width="41.3398" height="42.0684" filterUnits="userSpaceOnUse" color-interpolation-filters="sRGB">
<feFlood flood-opacity="0" result="BackgroundImageFix"/>
<feColorMatrix in="SourceAlpha" type="matrix" values="0 0 0 0 0 0 0 0 0 0 0 0 0 0 0 0 0 0 127 0" result="hardAlpha"/>
<feOffset dx="2" dy="5"/>
<feGaussianBlur stdDeviation="2"/>
<feComposite in2="hardAlpha" operator="out"/>
<feColorMatrix type="matrix" values="0 0 0 0 0 0 0 0 0 0 0 0 0 0 0 0 0 0 0.47 0"/>
<feBlend mode="normal" in2="BackgroundImageFix" result="effect1_dropShadow_2727_410"/>
<feBlend mode="normal" in="SourceGraphic" in2="effect1_dropShadow_2727_410" result="shape"/>
</filter>
<filter id="filter7_d_2727_410" x="337.664" y="133.522" width="41.3398" height="46.2026" filterUnits="userSpaceOnUse" color-interpolation-filters="sRGB">
<feFlood flood-opacity="0" result="BackgroundImageFix"/>
<feColorMatrix in="SourceAlpha" type="matrix" values="0 0 0 0 0 0 0 0 0 0 0 0 0 0 0 0 0 0 127 0" result="hardAlpha"/>
<feOffset dx="2" dy="5"/>
<feGaussianBlur stdDeviation="2"/>
<feComposite in2="hardAlpha" operator="out"/>
<feColorMatrix type="matrix" values="0 0 0 0 0 0 0 0 0 0 0 0 0 0 0 0 0 0 0.47 0"/>
<feBlend mode="normal" in2="BackgroundImageFix" result="effect1_dropShadow_2727_410"/>
<feBlend mode="normal" in="SourceGraphic" in2="effect1_dropShadow_2727_410" result="shape"/>
</filter>
<filter id="filter8_d_2727_410" x="385.836" y="135.592" width="41.3594" height="42.0684" filterUnits="userSpaceOnUse" color-interpolation-filters="sRGB">
<feFlood flood-opacity="0" result="BackgroundImageFix"/>
<feColorMatrix in="SourceAlpha" type="matrix" values="0 0 0 0 0 0 0 0 0 0 0 0 0 0 0 0 0 0 127 0" result="hardAlpha"/>
<feOffset dx="2" dy="5"/>
<feGaussianBlur stdDeviation="2"/>
<feComposite in2="hardAlpha" operator="out"/>
<feColorMatrix type="matrix" values="0 0 0 0 0 0 0 0 0 0 0 0 0 0 0 0 0 0 0.47 0"/>
<feBlend mode="normal" in2="BackgroundImageFix" result="effect1_dropShadow_2727_410"/>
<feBlend mode="normal" in="SourceGraphic" in2="effect1_dropShadow_2727_410" result="shape"/>
</filter>
<filter id="filter9_d_2727_410" x="455.266" y="133.507" width="41.3203" height="46.2075" filterUnits="userSpaceOnUse" color-interpolation-filters="sRGB">
<feFlood flood-opacity="0" result="BackgroundImageFix"/>
<feColorMatrix in="SourceAlpha" type="matrix" values="0 0 0 0 0 0 0 0 0 0 0 0 0 0 0 0 0 0 127 0" result="hardAlpha"/>
<feOffset dx="2" dy="5"/>
<feGaussianBlur stdDeviation="2"/>
<feComposite in2="hardAlpha" operator="out"/>
<feColorMatrix type="matrix" values="0 0 0 0 0 0 0 0 0 0 0 0 0 0 0 0 0 0 0.47 0"/>
<feBlend mode="normal" in2="BackgroundImageFix" result="effect1_dropShadow_2727_410"/>
<feBlend mode="normal" in="SourceGraphic" in2="effect1_dropShadow_2727_410" result="shape"/>
</filter>
<filter id="filter10_d_2727_410" x="503.445" y="133.507" width="41.3398" height="44.1528" filterUnits="userSpaceOnUse" color-interpolation-filters="sRGB">
<feFlood flood-opacity="0" result="BackgroundImageFix"/>
<feColorMatrix in="SourceAlpha" type="matrix" values="0 0 0 0 0 0 0 0 0 0 0 0 0 0 0 0 0 0 127 0" result="hardAlpha"/>
<feOffset dx="2" dy="5"/>
<feGaussianBlur stdDeviation="2"/>
<feComposite in2="hardAlpha" operator="out"/>
<feColorMatrix type="matrix" values="0 0 0 0 0 0 0 0 0 0 0 0 0 0 0 0 0 0 0.47 0"/>
<feBlend mode="normal" in2="BackgroundImageFix" result="effect1_dropShadow_2727_410"/>
<feBlend mode="normal" in="SourceGraphic" in2="effect1_dropShadow_2727_410" result="shape"/>
</filter>
<filter id="filter11_d_2727_410" x="549.537" y="135.592" width="45.5078" height="42.0684" filterUnits="userSpaceOnUse" color-interpolation-filters="sRGB">
<feFlood flood-opacity="0" result="BackgroundImageFix"/>
<feColorMatrix in="SourceAlpha" type="matrix" values="0 0 0 0 0 0 0 0 0 0 0 0 0 0 0 0 0 0 127 0" result="hardAlpha"/>
<feOffset dx="2" dy="5"/>
<feGaussianBlur stdDeviation="2"/>
<feComposite in2="hardAlpha" operator="out"/>
<feColorMatrix type="matrix" values="0 0 0 0 0 0 0 0 0 0 0 0 0 0 0 0 0 0 0.47 0"/>
<feBlend mode="normal" in2="BackgroundImageFix" result="effect1_dropShadow_2727_410"/>
<feBlend mode="normal" in="SourceGraphic" in2="effect1_dropShadow_2727_410" result="shape"/>
</filter>
<filter id="filter12_d_2727_410" x="599.809" y="135.592" width="43.4121" height="44.1328" filterUnits="userSpaceOnUse" color-interpolation-filters="sRGB">
<feFlood flood-opacity="0" result="BackgroundImageFix"/>
<feColorMatrix in="SourceAlpha" type="matrix" values="0 0 0 0 0 0 0 0 0 0 0 0 0 0 0 0 0 0 127 0" result="hardAlpha"/>
<feOffset dx="2" dy="5"/>
<feGaussianBlur stdDeviation="2"/>
<feComposite in2="hardAlpha" operator="out"/>
<feColorMatrix type="matrix" values="0 0 0 0 0 0 0 0 0 0 0 0 0 0 0 0 0 0 0.47 0"/>
<feBlend mode="normal" in2="BackgroundImageFix" result="effect1_dropShadow_2727_410"/>
<feBlend mode="normal" in="SourceGraphic" in2="effect1_dropShadow_2727_410" result="shape"/>
</filter>
<filter id="filter13_d_2727_410" x="647.971" y="133.522" width="43.4258" height="44.1377" filterUnits="userSpaceOnUse" color-interpolation-filters="sRGB">
<feFlood flood-opacity="0" result="BackgroundImageFix"/>
<feColorMatrix in="SourceAlpha" type="matrix" values="0 0 0 0 0 0 0 0 0 0 0 0 0 0 0 0 0 0 127 0" result="hardAlpha"/>
<feOffset dx="2" dy="5"/>
<feGaussianBlur stdDeviation="2"/>
<feComposite in2="hardAlpha" operator="out"/>
<feColorMatrix type="matrix" values="0 0 0 0 0 0 0 0 0 0 0 0 0 0 0 0 0 0 0.47 0"/>
<feBlend mode="normal" in2="BackgroundImageFix" result="effect1_dropShadow_2727_410"/>
<feBlend mode="normal" in="SourceGraphic" in2="effect1_dropShadow_2727_410" result="shape"/>
</filter>
<filter id="filter14_d_2727_410" x="696.15" y="135.592" width="43.4219" height="42.0684" filterUnits="userSpaceOnUse" color-interpolation-filters="sRGB">
<feFlood flood-opacity="0" result="BackgroundImageFix"/>
<feColorMatrix in="SourceAlpha" type="matrix" values="0 0 0 0 0 0 0 0 0 0 0 0 0 0 0 0 0 0 127 0" result="hardAlpha"/>
<feOffset dx="2" dy="5"/>
<feGaussianBlur stdDeviation="2"/>
<feComposite in2="hardAlpha" operator="out"/>
<feColorMatrix type="matrix" values="0 0 0 0 0 0 0 0 0 0 0 0 0 0 0 0 0 0 0.47 0"/>
<feBlend mode="normal" in2="BackgroundImageFix" result="effect1_dropShadow_2727_410"/>
<feBlend mode="normal" in="SourceGraphic" in2="effect1_dropShadow_2727_410" result="shape"/>
</filter>
<filter id="filter15_d_2727_410" x="107.777" y="0" width="109.754" height="116.228" filterUnits="userSpaceOnUse" color-interpolation-filters="sRGB">
<feFlood flood-opacity="0" result="BackgroundImageFix"/>
<feColorMatrix in="SourceAlpha" type="matrix" values="0 0 0 0 0 0 0 0 0 0 0 0 0 0 0 0 0 0 127 0" result="hardAlpha"/>
<feOffset dx="2" dy="5"/>
<feGaussianBlur stdDeviation="2"/>
<feComposite in2="hardAlpha" operator="out"/>
<feColorMatrix type="matrix" values="0 0 0 0 0 0 0 0 0 0 0 0 0 0 0 0 0 0 0.47 0"/>
<feBlend mode="normal" in2="BackgroundImageFix" result="effect1_dropShadow_2727_410"/>
<feBlend mode="normal" in="SourceGraphic" in2="effect1_dropShadow_2727_410" result="shape"/>
</filter>
<filter id="filter16_d_2727_410" x="200.039" y="6.30176" width="147.893" height="109.936" filterUnits="userSpaceOnUse" color-interpolation-filters="sRGB">
<feFlood flood-opacity="0" result="BackgroundImageFix"/>
<feColorMatrix in="SourceAlpha" type="matrix" values="0 0 0 0 0 0 0 0 0 0 0 0 0 0 0 0 0 0 127 0" result="hardAlpha"/>
<feOffset dx="2" dy="5"/>
<feGaussianBlur stdDeviation="2"/>
<feComposite in2="hardAlpha" operator="out"/>
<feColorMatrix type="matrix" values="0 0 0 0 0 0 0 0 0 0 0 0 0 0 0 0 0 0 0.47 0"/>
<feBlend mode="normal" in2="BackgroundImageFix" result="effect1_dropShadow_2727_410"/>
<feBlend mode="normal" in="SourceGraphic" in2="effect1_dropShadow_2727_410" result="shape"/>
</filter>
<filter id="filter17_d_2727_410" x="309.135" y="6.30176" width="147.902" height="109.936" filterUnits="userSpaceOnUse" color-interpolation-filters="sRGB">
<feFlood flood-opacity="0" result="BackgroundImageFix"/>
<feColorMatrix in="SourceAlpha" type="matrix" values="0 0 0 0 0 0 0 0 0 0 0 0 0 0 0 0 0 0 127 0" result="hardAlpha"/>
<feOffset dx="2" dy="5"/>
<feGaussianBlur stdDeviation="2"/>
<feComposite in2="hardAlpha" operator="out"/>
<feColorMatrix type="matrix" values="0 0 0 0 0 0 0 0 0 0 0 0 0 0 0 0 0 0 0.47 0"/>
<feBlend mode="normal" in2="BackgroundImageFix" result="effect1_dropShadow_2727_410"/>
<feBlend mode="normal" in="SourceGraphic" in2="effect1_dropShadow_2727_410" result="shape"/>
</filter>
<filter id="filter18_d_2727_410" x="440.131" y="6.30176" width="116.109" height="128.955" filterUnits="userSpaceOnUse" color-interpolation-filters="sRGB">
<feFlood flood-opacity="0" result="BackgroundImageFix"/>
<feColorMatrix in="SourceAlpha" type="matrix" values="0 0 0 0 0 0 0 0 0 0 0 0 0 0 0 0 0 0 127 0" result="hardAlpha"/>
<feOffset dx="2" dy="5"/>
<feGaussianBlur stdDeviation="2"/>
<feComposite in2="hardAlpha" operator="out"/>
<feColorMatrix type="matrix" values="0 0 0 0 0 0 0 0 0 0 0 0 0 0 0 0 0 0 0.47 0"/>
<feBlend mode="normal" in2="BackgroundImageFix" result="effect1_dropShadow_2727_410"/>
<feBlend mode="normal" in="SourceGraphic" in2="effect1_dropShadow_2727_410" result="shape"/>
</filter>
<filter id="filter19_d_2727_410" x="551.188" y="0" width="33.4355" height="135.256" filterUnits="userSpaceOnUse" color-interpolation-filters="sRGB">
<feFlood flood-opacity="0" result="BackgroundImageFix"/>
<feColorMatrix in="SourceAlpha" type="matrix" values="0 0 0 0 0 0 0 0 0 0 0 0 0 0 0 0 0 0 127 0" result="hardAlpha"/>
<feOffset dx="2" dy="5"/>
<feGaussianBlur stdDeviation="2"/>
<feComposite in2="hardAlpha" operator="out"/>
<feColorMatrix type="matrix" values="0 0 0 0 0 0 0 0 0 0 0 0 0 0 0 0 0 0 0.47 0"/>
<feBlend mode="normal" in2="BackgroundImageFix" result="effect1_dropShadow_2727_410"/>
<feBlend mode="normal" in="SourceGraphic" in2="effect1_dropShadow_2727_410" result="shape"/>
</filter>
<filter id="filter20_d_2727_410" x="585.717" y="0" width="66.6211" height="116.228" filterUnits="userSpaceOnUse" color-interpolation-filters="sRGB">
<feFlood flood-opacity="0" result="BackgroundImageFix"/>
<feColorMatrix in="SourceAlpha" type="matrix" values="0 0 0 0 0 0 0 0 0 0 0 0 0 0 0 0 0 0 127 0" result="hardAlpha"/>
<feOffset dx="2" dy="5"/>
<feGaussianBlur stdDeviation="2"/>
<feComposite in2="hardAlpha" operator="out"/>
<feColorMatrix type="matrix" values="0 0 0 0 0 0 0 0 0 0 0 0 0 0 0 0 0 0 0.47 0"/>
<feBlend mode="normal" in2="BackgroundImageFix" result="effect1_dropShadow_2727_410"/>
<feBlend mode="normal" in="SourceGraphic" in2="effect1_dropShadow_2727_410" result="shape"/>
</filter>
<filter id="filter21_d_2727_410" x="685.574" y="82" width="64.4258" height="34.2275" filterUnits="userSpaceOnUse" color-interpolation-filters="sRGB">
<feFlood flood-opacity="0" result="BackgroundImageFix"/>
<feColorMatrix in="SourceAlpha" type="matrix" values="0 0 0 0 0 0 0 0 0 0 0 0 0 0 0 0 0 0 127 0" result="hardAlpha"/>
<feOffset dx="2" dy="5"/>
<feGaussianBlur stdDeviation="2"/>
<feComposite in2="hardAlpha" operator="out"/>
<feColorMatrix type="matrix" values="0 0 0 0 0 0 0 0 0 0 0 0 0 0 0 0 0 0 0.47 0"/>
<feBlend mode="normal" in2="BackgroundImageFix" result="effect1_dropShadow_2727_410"/>
<feBlend mode="normal" in="SourceGraphic" in2="effect1_dropShadow_2727_410" result="shape"/>
</filter>
<filter id="filter22_d_2727_410" x="649.676" y="0" width="51.3418" height="116.228" filterUnits="userSpaceOnUse" color-interpolation-filters="sRGB">
<feFlood flood-opacity="0" result="BackgroundImageFix"/>
<feColorMatrix in="SourceAlpha" type="matrix" values="0 0 0 0 0 0 0 0 0 0 0 0 0 0 0 0 0 0 127 0" result="hardAlpha"/>
<feOffset dx="2" dy="5"/>
<feGaussianBlur stdDeviation="2"/>
<feComposite in2="hardAlpha" operator="out"/>
<feColorMatrix type="matrix" values="0 0 0 0 0 0 0 0 0 0 0 0 0 0 0 0 0 0 0.47 0"/>
<feBlend mode="normal" in2="BackgroundImageFix" result="effect1_dropShadow_2727_410"/>
<feBlend mode="normal" in="SourceGraphic" in2="effect1_dropShadow_2727_410" result="shape"/>
</filter>
<filter id="filter23_d_2727_410" x="38.1582" y="6.30713" width="71.5918" height="109.921" filterUnits="userSpaceOnUse" color-interpolation-filters="sRGB">
<feFlood flood-opacity="0" result="BackgroundImageFix"/>
<feColorMatrix in="SourceAlpha" type="matrix" values="0 0 0 0 0 0 0 0 0 0 0 0 0 0 0 0 0 0 127 0" result="hardAlpha"/>
<feOffset dx="2" dy="5"/>
<feGaussianBlur stdDeviation="2"/>
<feComposite in2="hardAlpha" operator="out"/>
<feColorMatrix type="matrix" values="0 0 0 0 0 0 0 0 0 0 0 0 0 0 0 0 0 0 0.47 0"/>
<feBlend mode="normal" in2="BackgroundImageFix" result="effect1_dropShadow_2727_410"/>
<feBlend mode="normal" in="SourceGraphic" in2="effect1_dropShadow_2727_410" result="shape"/>
</filter>
<filter id="filter24_d_2727_410" x="0" y="6.30713" width="91.7188" height="109.921" filterUnits="userSpaceOnUse" color-interpolation-filters="sRGB">
<feFlood flood-opacity="0" result="BackgroundImageFix"/>
<feColorMatrix in="SourceAlpha" type="matrix" values="0 0 0 0 0 0 0 0 0 0 0 0 0 0 0 0 0 0 127 0" result="hardAlpha"/>
<feOffset dx="2" dy="5"/>
<feGaussianBlur stdDeviation="2"/>
<feComposite in2="hardAlpha" operator="out"/>
<feColorMatrix type="matrix" values="0 0 0 0 0 0 0 0 0 0 0 0 0 0 0 0 0 0 0.47 0"/>
<feBlend mode="normal" in2="BackgroundImageFix" result="effect1_dropShadow_2727_410"/>
<feBlend mode="normal" in="SourceGraphic" in2="effect1_dropShadow_2727_410" result="shape"/>
</filter>
<filter id="filter25_d_2727_410" x="60.0664" y="246.784" width="597.012" height="82.5039" filterUnits="userSpaceOnUse" color-interpolation-filters="sRGB">
<feFlood flood-opacity="0" result="BackgroundImageFix"/>
<feColorMatrix in="SourceAlpha" type="matrix" values="0 0 0 0 0 0 0 0 0 0 0 0 0 0 0 0 0 0 127 0" result="hardAlpha"/>
<feOffset dx="2" dy="5"/>
<feGaussianBlur stdDeviation="2"/>
<feComposite in2="hardAlpha" operator="out"/>
<feColorMatrix type="matrix" values="0 0 0 0 0 0 0 0 0 0 0 0 0 0 0 0 0 0 0.47 0"/>
<feBlend mode="normal" in2="BackgroundImageFix" result="effect1_dropShadow_2727_410"/>
<feBlend mode="normal" in="SourceGraphic" in2="effect1_dropShadow_2727_410" result="shape"/>
</filter>
</defs>
</svg>
