<svg width="750" height="357" viewBox="0 0 750 357" fill="none" xmlns="http://www.w3.org/2000/svg">
<g filter="url(#filter0_d_2727_410)">
<path d="M2.42773 135.592H10.764V147.989H27.4364V137.641L35.7677 133.507V168.66H27.4364V156.257H10.764V166.581L2.42773 170.725V135.592Z" fill="white"/>
</g>
<g filter="url(#filter1_d_2727_410)">
<path d="M83.9435 160.392L75.6073 168.66H50.6035V143.855L58.9398 135.592H83.9435V160.392ZM71.4392 160.392L75.6073 156.258V143.855H63.1029L58.9398 147.989V160.392H71.4392Z" fill="white"/>
</g>
<g filter="url(#filter2_d_2727_410)">
<path d="M123.788 154.188V135.592H132.119V174.859L107.116 150.059V168.66H98.7793V129.388L123.788 154.188Z" fill="white"/>
</g>
<g filter="url(#filter3_d_2727_410)">
<path d="M182.403 135.592L178.235 143.855H146.957V135.592H182.403ZM182.403 147.989L178.235 156.258H146.957V147.989H182.403ZM182.403 160.392L178.235 168.66H146.957V160.392H182.403Z" fill="white"/>
</g>
<g filter="url(#filter4_d_2727_410)">
<path d="M207.635 154.188L195.131 141.791V129.388L211.803 145.925L222.211 135.602H234.711L215.962 154.198V166.601L207.625 170.735L207.635 154.188Z" fill="white"/>
</g>
<g filter="url(#filter5_d_2727_410)">
<path d="M251.645 168.66L243.309 160.392V135.592H278.73L274.587 143.855H251.645V156.258L255.808 160.392H276.624V168.66H251.645Z" fill="white"/>
</g>
<g filter="url(#filter6_d_2727_410)">
<path d="M324.824 160.392L316.493 168.66H291.484V143.855L299.821 135.592H324.824V160.392ZM312.325 160.392L316.493 156.258V143.855H303.989L299.821 147.989V160.392H312.325Z" fill="white"/>
</g>
<g filter="url(#filter7_d_2727_410)">
<path d="M373.004 133.522V168.66H364.668V154.188L356.332 162.456L348 154.188V166.59L339.664 170.725V133.522L356.332 150.059L373.004 133.522Z" fill="white"/>
</g>
<g filter="url(#filter8_d_2727_410)">
<path d="M387.836 168.66V135.592H417.008L421.176 143.855L412.864 152.124L421.196 160.392L417.028 168.66H387.836ZM396.172 160.392H408.677L400.34 152.124L408.677 143.855H396.172V160.392Z" fill="white"/>
</g>
<g filter="url(#filter9_d_2727_410)">
<path d="M457.266 135.592H465.602V147.989H482.25V137.641L490.586 133.507V168.66H482.25V156.257H465.602V166.581L457.266 170.715V135.592Z" fill="white"/>
</g>
<g filter="url(#filter10_d_2727_410)">
<path d="M513.777 168.66L505.445 160.392V135.592H513.777V156.238L517.945 160.372H530.449V137.641L538.785 133.507V168.66H513.777Z" fill="white"/>
</g>
<g filter="url(#filter11_d_2727_410)">
<path d="M566.123 143.855L561.955 147.989H586.959V160.392L578.622 168.66H551.537L555.705 160.392H574.434L578.603 156.258H553.619V143.855L561.955 135.592H589.045L584.877 143.855H566.123Z" fill="white"/>
</g>
<g filter="url(#filter12_d_2727_410)">
<path d="M637.22 135.592L633.052 143.855H622.644V166.591L614.308 170.725V143.855H601.809V135.592H637.22Z" fill="white"/>
</g>
<g filter="url(#filter13_d_2727_410)">
<path d="M658.307 160.392H685.397L681.229 168.66H649.971V133.522L658.307 137.656V160.392Z" fill="white"/>
</g>
<g filter="url(#filter14_d_2727_410)">
<path d="M733.572 135.592L729.404 143.855H698.15V135.592H733.572ZM733.572 147.989L729.404 156.258H698.15V147.989H733.572ZM733.572 160.392L729.404 168.66H698.15V160.392H733.572Z" fill="white"/>
</g>
<g filter="url(#filter15_d_2727_410)">
<path d="M211.532 0V92.5983L196.787 107.228H135.217L109.777 81.9999V6.30693H135.217V69.3812L147.94 81.9999H186.092V12.6139L211.532 0Z" fill="white"/>
</g>
<g filter="url(#filter16_d_2727_410)">
<path d="M265.626 81.9948H322.855V90.3761L305.87 107.237H202.044L202.054 107.227H202.039L278.339 31.5295H221.105V6.30176H341.931L265.626 81.9948Z" fill="white"/>
</g>
<g filter="url(#filter17_d_2727_410)">
<path d="M451.037 6.30176L442.131 15.1354L437.358 19.8693L374.722 81.9948H431.966V107.237H311.135L387.449 31.5295H330.206V23.1628L347.186 6.30176H451.037Z" fill="white"/>
</g>
<g filter="url(#filter18_d_2727_410)">
<path d="M543.881 88.3066L543.99 126.256L486.652 69.3858H467.566V107.237H442.131V20.3658L456.296 6.30176H467.566V44.163H473.925L512.087 6.30176H550.239L505.728 50.4601L543.881 88.3066Z" fill="white"/>
</g>
<g filter="url(#filter19_d_2727_410)">
<path d="M578.622 0L553.188 12.6188V126.257L578.622 113.638V0Z" fill="white"/>
</g>
<g filter="url(#filter20_d_2727_410)">
<path d="M646.338 81.9999H613.157V12.6188L587.717 0V107.228H646.338V81.9999Z" fill="white"/>
</g>
<g filter="url(#filter21_d_2727_410)">
<path d="M744 82L731.282 107.228H687.574L700.292 82H744Z" fill="white"/>
</g>
<g filter="url(#filter22_d_2727_410)">
<path d="M695.017 81.9999L682.3 107.228H651.676V0L677.111 12.6139V81.9999H695.017Z" fill="white"/>
</g>
<g filter="url(#filter23_d_2727_410)">
<path d="M91.0281 6.31204V6.30713L40.1582 56.7675L43.0427 59.6236L50.1151 66.6433L65.5931 82.0001L91.0281 107.228L91.6724 105.95L103.751 82.0001L78.3156 56.7675L103.751 31.5349L91.6724 7.58523L91.0281 6.31204L91.033 6.30713L91.0281 6.31204Z" fill="white"/>
</g>
<g filter="url(#filter24_d_2727_410)">
<path d="M60.2843 82.0001H27.4349V31.5349H60.2843L85.7192 6.30713H2V107.228H85.7192L60.2843 82.0001Z" fill="white"/>
</g>
<g filter="url(#filter25_d_2727_410)">
<path d="M32.2702 257.6V264.6H41.6702V269.04H32.2702V276.44H42.8702V281H26.6702V253.04H42.8702V257.6H32.2702ZM75.4792 258.52C78.1992 258.52 80.3859 259.36 82.0392 261.04C83.7192 262.693 84.5592 265.013 84.5592 268V281H78.9592V268.76C78.9592 267.027 78.5192 265.707 77.6392 264.8C76.7592 263.867 75.5592 263.4 74.0392 263.4C72.5192 263.4 71.3059 263.867 70.3992 264.8C69.5192 265.707 69.0792 267.027 69.0792 268.76V281H63.4792V268.76C63.4792 267.027 63.0392 265.707 62.1592 264.8C61.2792 263.867 60.0792 263.4 58.5592 263.4C57.0126 263.4 55.7859 263.867 54.8792 264.8C53.9992 265.707 53.5592 267.027 53.5592 268.76V281H47.9592V258.84H53.5592V261.52C54.2792 260.587 55.1992 259.853 56.3192 259.32C57.4659 258.787 58.7192 258.52 60.0792 258.52C61.8126 258.52 63.3592 258.893 64.7192 259.64C66.0792 260.36 67.1326 261.4 67.8792 262.76C68.5992 261.48 69.6392 260.453 70.9992 259.68C72.3859 258.907 73.8792 258.52 75.4792 258.52ZM95.4733 262.08C96.1933 261.013 97.1799 260.147 98.4333 259.48C99.7133 258.813 101.167 258.48 102.793 258.48C104.687 258.48 106.393 258.947 107.913 259.88C109.46 260.813 110.673 262.147 111.553 263.88C112.46 265.587 112.913 267.573 112.913 269.84C112.913 272.107 112.46 274.12 111.553 275.88C110.673 277.613 109.46 278.96 107.913 279.92C106.393 280.88 104.687 281.36 102.793 281.36C101.14 281.36 99.6866 281.04 98.4333 280.4C97.2066 279.733 96.2199 278.88 95.4733 277.84V281H89.8733V251.4H95.4733V262.08ZM107.193 269.84C107.193 268.507 106.913 267.36 106.353 266.4C105.82 265.413 105.1 264.667 104.193 264.16C103.313 263.653 102.353 263.4 101.313 263.4C100.3 263.4 99.3399 263.667 98.4333 264.2C97.5533 264.707 96.8333 265.453 96.2733 266.44C95.7399 267.427 95.4733 268.587 95.4733 269.92C95.4733 271.253 95.7399 272.413 96.2733 273.4C96.8333 274.387 97.5533 275.147 98.4333 275.68C99.3399 276.187 100.3 276.44 101.313 276.44C102.353 276.44 103.313 276.173 104.193 275.64C105.1 275.107 105.82 274.347 106.353 273.36C106.913 272.373 107.193 271.2 107.193 269.84ZM115.543 269.84C115.543 267.6 115.983 265.613 116.863 263.88C117.769 262.147 118.983 260.813 120.503 259.88C122.049 258.947 123.769 258.48 125.663 258.48C127.316 258.48 128.756 258.813 129.983 259.48C131.236 260.147 132.236 260.987 132.983 262V258.84H138.623V281H132.983V277.76C132.263 278.8 131.263 279.667 129.983 280.36C128.729 281.027 127.276 281.36 125.623 281.36C123.756 281.36 122.049 280.88 120.503 279.92C118.983 278.96 117.769 277.613 116.863 275.88C115.983 274.12 115.543 272.107 115.543 269.84ZM132.983 269.92C132.983 268.56 132.716 267.4 132.183 266.44C131.649 265.453 130.929 264.707 130.023 264.2C129.116 263.667 128.143 263.4 127.103 263.4C126.063 263.4 125.103 263.653 124.223 264.16C123.343 264.667 122.623 265.413 122.063 266.4C121.529 267.36 121.263 268.507 121.263 269.84C121.263 271.173 121.529 272.347 122.063 273.36C122.623 274.347 123.343 275.107 124.223 275.64C125.129 276.173 126.089 276.44 127.103 276.44C128.143 276.44 129.116 276.187 130.023 275.68C130.929 275.147 131.649 274.4 132.183 273.44C132.716 272.453 132.983 271.28 132.983 269.92ZM149.692 262.28C150.412 261.107 151.345 260.187 152.492 259.52C153.665 258.853 154.999 258.52 156.492 258.52V264.4H155.012C153.252 264.4 151.919 264.813 151.012 265.64C150.132 266.467 149.692 267.907 149.692 269.96V281H144.092V258.84H149.692V262.28ZM173.384 281L165.864 271.56V281H160.264V251.4H165.864V268.24L173.304 258.84H180.584L170.824 269.96L180.664 281H173.384ZM202.995 281.36C200.861 281.36 198.941 280.893 197.235 279.96C195.528 279 194.181 277.653 193.195 275.92C192.235 274.187 191.755 272.187 191.755 269.92C191.755 267.653 192.248 265.653 193.235 263.92C194.248 262.187 195.621 260.853 197.355 259.92C199.088 258.96 201.021 258.48 203.155 258.48C205.288 258.48 207.221 258.96 208.955 259.92C210.688 260.853 212.048 262.187 213.035 263.92C214.048 265.653 214.555 267.653 214.555 269.92C214.555 272.187 214.035 274.187 212.995 275.92C211.981 277.653 210.595 279 208.835 279.96C207.101 280.893 205.155 281.36 202.995 281.36ZM202.995 276.48C204.008 276.48 204.955 276.24 205.835 275.76C206.741 275.253 207.461 274.507 207.995 273.52C208.528 272.533 208.795 271.333 208.795 269.92C208.795 267.813 208.235 266.2 207.115 265.08C206.021 263.933 204.675 263.36 203.075 263.36C201.475 263.36 200.128 263.933 199.035 265.08C197.968 266.2 197.435 267.813 197.435 269.92C197.435 272.027 197.955 273.653 198.995 274.8C200.061 275.92 201.395 276.48 202.995 276.48ZM230.942 258.52C233.582 258.52 235.716 259.36 237.342 261.04C238.969 262.693 239.782 265.013 239.782 268V281H234.182V268.76C234.182 267 233.742 265.653 232.862 264.72C231.982 263.76 230.782 263.28 229.262 263.28C227.716 263.28 226.489 263.76 225.582 264.72C224.702 265.653 224.262 267 224.262 268.76V281H218.662V258.84H224.262V261.6C225.009 260.64 225.956 259.893 227.102 259.36C228.276 258.8 229.556 258.52 230.942 258.52ZM253.199 269.84C253.199 267.6 253.639 265.613 254.519 263.88C255.426 262.147 256.639 260.813 258.159 259.88C259.706 258.947 261.426 258.48 263.319 258.48C264.972 258.48 266.412 258.813 267.639 259.48C268.892 260.147 269.892 260.987 270.639 262V258.84H276.279V281H270.639V277.76C269.919 278.8 268.919 279.667 267.639 280.36C266.386 281.027 264.932 281.36 263.279 281.36C261.412 281.36 259.706 280.88 258.159 279.92C256.639 278.96 255.426 277.613 254.519 275.88C253.639 274.12 253.199 272.107 253.199 269.84ZM270.639 269.92C270.639 268.56 270.372 267.4 269.839 266.44C269.306 265.453 268.586 264.707 267.679 264.2C266.772 263.667 265.799 263.4 264.759 263.4C263.719 263.4 262.759 263.653 261.879 264.16C260.999 264.667 260.279 265.413 259.719 266.4C259.186 267.36 258.919 268.507 258.919 269.84C258.919 271.173 259.186 272.347 259.719 273.36C260.279 274.347 260.999 275.107 261.879 275.64C262.786 276.173 263.746 276.44 264.759 276.44C265.799 276.44 266.772 276.187 267.679 275.68C268.586 275.147 269.306 274.4 269.839 273.44C270.372 272.453 270.639 271.28 270.639 269.92ZM289.84 269.88C289.84 267.667 290.293 265.707 291.2 264C292.133 262.267 293.386 260.92 294.96 259.96C296.533 259 298.266 258.52 300.16 258.52C301.733 258.52 303.12 258.827 304.32 259.44C305.546 260.027 306.533 260.787 307.28 261.72V258.84H312.92V291.56H307.28V277.96C306.533 278.92 305.533 279.72 304.28 280.36C303.026 281 301.613 281.32 300.04 281.32C298.173 281.32 296.453 280.84 294.88 279.88C293.333 278.893 292.106 277.533 291.2 275.8C290.293 274.067 289.84 272.093 289.84 269.88ZM307.28 269.92C307.28 268.56 307 267.387 306.44 266.4C305.88 265.413 305.146 264.667 304.24 264.16C303.36 263.653 302.413 263.4 301.4 263.4C300.413 263.4 299.466 263.653 298.56 264.16C297.68 264.667 296.96 265.413 296.4 266.4C295.84 267.36 295.56 268.52 295.56 269.88C295.56 271.24 295.84 272.427 296.4 273.44C296.96 274.427 297.68 275.173 298.56 275.68C299.466 276.187 300.413 276.44 301.4 276.44C302.413 276.44 303.36 276.187 304.24 275.68C305.146 275.173 305.88 274.427 306.44 273.44C307 272.453 307.28 271.28 307.28 269.92ZM339.309 258.84V281H333.669V278.2C332.949 279.16 332.002 279.92 330.829 280.48C329.682 281.013 328.429 281.28 327.069 281.28C325.336 281.28 323.802 280.92 322.469 280.2C321.136 279.453 320.082 278.373 319.309 276.96C318.562 275.52 318.189 273.813 318.189 271.84V258.84H323.789V271.04C323.789 272.8 324.229 274.16 325.109 275.12C325.989 276.053 327.189 276.52 328.709 276.52C330.256 276.52 331.469 276.053 332.349 275.12C333.229 274.16 333.669 272.8 333.669 271.04V258.84H339.309ZM365.434 269.44C365.434 270.24 365.381 270.96 365.274 271.6H349.074C349.208 273.2 349.768 274.453 350.754 275.36C351.741 276.267 352.954 276.72 354.394 276.72C356.474 276.72 357.954 275.827 358.834 274.04H364.874C364.234 276.173 363.008 277.933 361.194 279.32C359.381 280.68 357.154 281.36 354.514 281.36C352.381 281.36 350.461 280.893 348.754 279.96C347.074 279 345.754 277.653 344.794 275.92C343.861 274.187 343.394 272.187 343.394 269.92C343.394 267.627 343.861 265.613 344.794 263.88C345.728 262.147 347.034 260.813 348.714 259.88C350.394 258.947 352.328 258.48 354.514 258.48C356.621 258.48 358.501 258.933 360.154 259.84C361.834 260.747 363.128 262.04 364.034 263.72C364.968 265.373 365.434 267.28 365.434 269.44ZM359.634 267.84C359.608 266.4 359.088 265.253 358.074 264.4C357.061 263.52 355.821 263.08 354.354 263.08C352.968 263.08 351.794 263.507 350.834 264.36C349.901 265.187 349.328 266.347 349.114 267.84H359.634ZM378.002 281.36C376.188 281.36 374.562 281.04 373.122 280.4C371.682 279.733 370.535 278.84 369.682 277.72C368.855 276.6 368.402 275.36 368.322 274H373.962C374.068 274.853 374.482 275.56 375.202 276.12C375.948 276.68 376.868 276.96 377.962 276.96C379.028 276.96 379.855 276.747 380.442 276.32C381.055 275.893 381.362 275.347 381.362 274.68C381.362 273.96 380.988 273.427 380.242 273.08C379.522 272.707 378.362 272.307 376.762 271.88C375.108 271.48 373.748 271.067 372.682 270.64C371.642 270.213 370.735 269.56 369.962 268.68C369.215 267.8 368.842 266.613 368.842 265.12C368.842 263.893 369.188 262.773 369.882 261.76C370.602 260.747 371.615 259.947 372.922 259.36C374.255 258.773 375.815 258.48 377.602 258.48C380.242 258.48 382.348 259.147 383.922 260.48C385.495 261.787 386.362 263.56 386.522 265.8H381.162C381.082 264.92 380.708 264.227 380.042 263.72C379.402 263.187 378.535 262.92 377.442 262.92C376.428 262.92 375.642 263.107 375.082 263.48C374.548 263.853 374.282 264.373 374.282 265.04C374.282 265.787 374.655 266.36 375.402 266.76C376.148 267.133 377.308 267.52 378.882 267.92C380.482 268.32 381.802 268.733 382.842 269.16C383.882 269.587 384.775 270.253 385.522 271.16C386.295 272.04 386.695 273.213 386.722 274.68C386.722 275.96 386.362 277.107 385.642 278.12C384.948 279.133 383.935 279.933 382.602 280.52C381.295 281.08 379.762 281.36 378.002 281.36ZM397.839 263.44V274.16C397.839 274.907 398.012 275.453 398.359 275.8C398.732 276.12 399.345 276.28 400.199 276.28H402.799V281H399.279C394.559 281 392.199 278.707 392.199 274.12V263.44H389.559V258.84H392.199V253.36H397.839V258.84H402.799V263.44H397.839ZM426.518 263.44H422.638V281H416.958V263.44H414.438V258.84H416.958V257.72C416.958 255 417.731 253 419.278 251.72C420.824 250.44 423.158 249.84 426.278 249.92V254.64C424.918 254.613 423.971 254.84 423.438 255.32C422.904 255.8 422.638 256.667 422.638 257.92V258.84H426.518V263.44ZM439.987 281.36C437.853 281.36 435.933 280.893 434.227 279.96C432.52 279 431.173 277.653 430.187 275.92C429.227 274.187 428.747 272.187 428.747 269.92C428.747 267.653 429.24 265.653 430.227 263.92C431.24 262.187 432.613 260.853 434.347 259.92C436.08 258.96 438.013 258.48 440.147 258.48C442.28 258.48 444.213 258.96 445.947 259.92C447.68 260.853 449.04 262.187 450.027 263.92C451.04 265.653 451.547 267.653 451.547 269.92C451.547 272.187 451.027 274.187 449.987 275.92C448.973 277.653 447.587 279 445.827 279.96C444.093 280.893 442.147 281.36 439.987 281.36ZM439.987 276.48C441 276.48 441.947 276.24 442.827 275.76C443.733 275.253 444.453 274.507 444.987 273.52C445.52 272.533 445.787 271.333 445.787 269.92C445.787 267.813 445.227 266.2 444.107 265.08C443.013 263.933 441.667 263.36 440.067 263.36C438.467 263.36 437.12 263.933 436.027 265.08C434.96 266.2 434.427 267.813 434.427 269.92C434.427 272.027 434.947 273.653 435.987 274.8C437.053 275.92 438.387 276.48 439.987 276.48ZM461.255 262.28C461.975 261.107 462.908 260.187 464.055 259.52C465.228 258.853 466.561 258.52 468.055 258.52V264.4H466.575C464.815 264.4 463.481 264.813 462.575 265.64C461.695 266.467 461.255 267.907 461.255 269.96V281H455.655V258.84H461.255V262.28ZM501.278 272.96C501.278 274.347 500.918 275.653 500.198 276.88C499.504 278.08 498.464 279.08 497.078 279.88C495.718 280.653 494.104 281.107 492.238 281.24V284.48H489.678V281.2C487.011 280.96 484.864 280.16 483.238 278.8C481.611 277.413 480.771 275.547 480.718 273.2H486.718C486.878 275.12 487.864 276.28 489.678 276.68V269.04C487.758 268.56 486.211 268.08 485.038 267.6C483.864 267.12 482.851 266.347 481.998 265.28C481.144 264.213 480.718 262.76 480.718 260.92C480.718 258.6 481.544 256.707 483.198 255.24C484.878 253.773 487.038 252.933 489.678 252.72V249.48H492.238V252.72C494.798 252.933 496.838 253.707 498.358 255.04C499.904 256.373 500.771 258.213 500.958 260.56H494.918C494.838 259.787 494.558 259.12 494.078 258.56C493.624 257.973 493.011 257.56 492.238 257.32V264.88C494.238 265.387 495.811 265.88 496.958 266.36C498.131 266.813 499.144 267.573 499.998 268.64C500.851 269.68 501.278 271.12 501.278 272.96ZM486.558 260.64C486.558 261.52 486.824 262.24 487.358 262.8C487.891 263.333 488.664 263.773 489.678 264.12V257.2C488.718 257.333 487.958 257.693 487.398 258.28C486.838 258.867 486.558 259.653 486.558 260.64ZM492.238 276.76C493.251 276.573 494.038 276.16 494.598 275.52C495.184 274.88 495.478 274.107 495.478 273.2C495.478 272.32 495.198 271.613 494.638 271.08C494.078 270.547 493.278 270.107 492.238 269.76V276.76ZM530.69 253.08V281H525.09V269.12H513.13V281H507.53V253.08H513.13V264.56H525.09V253.08H530.69ZM549.161 281.28C546.548 281.28 544.148 280.667 541.961 279.44C539.775 278.213 538.041 276.52 536.761 274.36C535.481 272.173 534.841 269.707 534.841 266.96C534.841 264.24 535.481 261.8 536.761 259.64C538.041 257.453 539.775 255.747 541.961 254.52C544.148 253.293 546.548 252.68 549.161 252.68C551.801 252.68 554.201 253.293 556.361 254.52C558.548 255.747 560.268 257.453 561.521 259.64C562.801 261.8 563.441 264.24 563.441 266.96C563.441 269.707 562.801 272.173 561.521 274.36C560.268 276.52 558.548 278.213 556.361 279.44C554.175 280.667 551.775 281.28 549.161 281.28ZM549.161 276.28C550.841 276.28 552.321 275.907 553.601 275.16C554.881 274.387 555.881 273.293 556.601 271.88C557.321 270.467 557.681 268.827 557.681 266.96C557.681 265.093 557.321 263.467 556.601 262.08C555.881 260.667 554.881 259.587 553.601 258.84C552.321 258.093 550.841 257.72 549.161 257.72C547.481 257.72 545.988 258.093 544.681 258.84C543.401 259.587 542.401 260.667 541.681 262.08C540.961 263.467 540.601 265.093 540.601 266.96C540.601 268.827 540.961 270.467 541.681 271.88C542.401 273.293 543.401 274.387 544.681 275.16C545.988 275.907 547.481 276.28 549.161 276.28ZM591.488 281H585.888L573.208 261.84V281H567.608V253.04H573.208L585.888 272.24V253.04H591.488V281ZM602.622 257.6V264.6H612.022V269.04H602.622V276.44H613.222V281H597.022V253.04H613.222V257.6H602.622ZM640.511 253.08L631.071 271.28V281H625.471V271.28L615.991 253.08H622.311L628.311 265.84L634.271 253.08H640.511ZM656.112 256.2C655.125 256.2 654.298 255.893 653.632 255.28C652.992 254.64 652.672 253.853 652.672 252.92C652.672 251.987 652.992 251.213 653.632 250.6C654.298 249.96 655.125 249.64 656.112 249.64C657.098 249.64 657.912 249.96 658.552 250.6C659.218 251.213 659.552 251.987 659.552 252.92C659.552 253.853 659.218 254.64 658.552 255.28C657.912 255.893 657.098 256.2 656.112 256.2ZM658.872 258.84V281H653.272V258.84H658.872ZM676.685 258.52C679.325 258.52 681.458 259.36 683.085 261.04C684.711 262.693 685.525 265.013 685.525 268V281H679.925V268.76C679.925 267 679.485 265.653 678.605 264.72C677.725 263.76 676.525 263.28 675.005 263.28C673.458 263.28 672.231 263.76 671.325 264.72C670.445 265.653 670.005 267 670.005 268.76V281H664.405V258.84H670.005V261.6C670.751 260.64 671.698 259.893 672.845 259.36C674.018 258.8 675.298 258.52 676.685 258.52ZM83.7566 323.44V334.16C83.7566 334.907 83.9299 335.453 84.2766 335.8C84.6499 336.12 85.2632 336.28 86.1166 336.28H88.7166V341H85.1966C80.4766 341 78.1166 338.707 78.1166 334.12V323.44H75.4766V318.84H78.1166V313.36H83.7566V318.84H88.7166V323.44H83.7566ZM105.224 318.52C106.904 318.52 108.398 318.893 109.704 319.64C111.011 320.36 112.024 321.44 112.744 322.88C113.491 324.293 113.864 326 113.864 328V341H108.264V328.76C108.264 327 107.824 325.653 106.944 324.72C106.064 323.76 104.864 323.28 103.344 323.28C101.798 323.28 100.571 323.76 99.6644 324.72C98.7844 325.653 98.3444 327 98.3444 328.76V341H92.7444V311.4H98.3444V321.6C99.0644 320.64 100.024 319.893 101.224 319.36C102.424 318.8 103.758 318.52 105.224 318.52ZM139.79 329.44C139.79 330.24 139.736 330.96 139.63 331.6H123.43C123.563 333.2 124.123 334.453 125.11 335.36C126.096 336.267 127.31 336.72 128.75 336.72C130.83 336.72 132.31 335.827 133.19 334.04H139.23C138.59 336.173 137.363 337.933 135.55 339.32C133.736 340.68 131.51 341.36 128.87 341.36C126.736 341.36 124.816 340.893 123.11 339.96C121.43 339 120.11 337.653 119.15 335.92C118.216 334.187 117.75 332.187 117.75 329.92C117.75 327.627 118.216 325.613 119.15 323.88C120.083 322.147 121.39 320.813 123.07 319.88C124.75 318.947 126.683 318.48 128.87 318.48C130.976 318.48 132.856 318.933 134.51 319.84C136.19 320.747 137.483 322.04 138.39 323.72C139.323 325.373 139.79 327.28 139.79 329.44ZM133.99 327.84C133.963 326.4 133.443 325.253 132.43 324.4C131.416 323.52 130.176 323.08 128.71 323.08C127.323 323.08 126.15 323.507 125.19 324.36C124.256 325.187 123.683 326.347 123.47 327.84H133.99ZM162.648 335.84L168.248 318.84H174.208L166.008 341H159.208L151.048 318.84H157.048L162.648 335.84ZM180.194 316.2C179.207 316.2 178.38 315.893 177.714 315.28C177.074 314.64 176.754 313.853 176.754 312.92C176.754 311.987 177.074 311.213 177.714 310.6C178.38 309.96 179.207 309.64 180.194 309.64C181.18 309.64 181.994 309.96 182.634 310.6C183.3 311.213 183.634 311.987 183.634 312.92C183.634 313.853 183.3 314.64 182.634 315.28C181.994 315.893 181.18 316.2 180.194 316.2ZM182.954 318.84V341H177.354V318.84H182.954ZM194.087 322.08C194.807 321.013 195.793 320.147 197.047 319.48C198.327 318.813 199.78 318.48 201.407 318.48C203.3 318.48 205.007 318.947 206.527 319.88C208.073 320.813 209.287 322.147 210.167 323.88C211.073 325.587 211.527 327.573 211.527 329.84C211.527 332.107 211.073 334.12 210.167 335.88C209.287 337.613 208.073 338.96 206.527 339.92C205.007 340.88 203.3 341.36 201.407 341.36C199.753 341.36 198.3 341.04 197.047 340.4C195.82 339.733 194.833 338.88 194.087 337.84V341H188.487V311.4H194.087V322.08ZM205.807 329.84C205.807 328.507 205.527 327.36 204.967 326.4C204.433 325.413 203.713 324.667 202.807 324.16C201.927 323.653 200.967 323.4 199.927 323.4C198.913 323.4 197.953 323.667 197.047 324.2C196.167 324.707 195.447 325.453 194.887 326.44C194.353 327.427 194.087 328.587 194.087 329.92C194.087 331.253 194.353 332.413 194.887 333.4C195.447 334.387 196.167 335.147 197.047 335.68C197.953 336.187 198.913 336.44 199.927 336.44C200.967 336.44 201.927 336.173 202.807 335.64C203.713 335.107 204.433 334.347 204.967 333.36C205.527 332.373 205.807 331.2 205.807 329.84ZM221.196 322.28C221.916 321.107 222.849 320.187 223.996 319.52C225.169 318.853 226.503 318.52 227.996 318.52V324.4H226.516C224.756 324.4 223.423 324.813 222.516 325.64C221.636 326.467 221.196 327.907 221.196 329.96V341H215.596V318.84H221.196V322.28ZM230.328 329.84C230.328 327.6 230.768 325.613 231.648 323.88C232.554 322.147 233.768 320.813 235.288 319.88C236.834 318.947 238.554 318.48 240.448 318.48C242.101 318.48 243.541 318.813 244.768 319.48C246.021 320.147 247.021 320.987 247.768 322V318.84H253.408V341H247.768V337.76C247.048 338.8 246.048 339.667 244.768 340.36C243.514 341.027 242.061 341.36 240.408 341.36C238.541 341.36 236.834 340.88 235.288 339.92C233.768 338.96 232.554 337.613 231.648 335.88C230.768 334.12 230.328 332.107 230.328 329.84ZM247.768 329.92C247.768 328.56 247.501 327.4 246.968 326.44C246.434 325.453 245.714 324.707 244.808 324.2C243.901 323.667 242.928 323.4 241.888 323.4C240.848 323.4 239.888 323.653 239.008 324.16C238.128 324.667 237.408 325.413 236.848 326.4C236.314 327.36 236.048 328.507 236.048 329.84C236.048 331.173 236.314 332.347 236.848 333.36C237.408 334.347 238.128 335.107 239.008 335.64C239.914 336.173 240.874 336.44 241.888 336.44C242.928 336.44 243.901 336.187 244.808 335.68C245.714 335.147 246.434 334.4 246.968 333.44C247.501 332.453 247.768 331.28 247.768 329.92ZM271.157 318.52C273.797 318.52 275.931 319.36 277.557 321.04C279.184 322.693 279.997 325.013 279.997 328V341H274.397V328.76C274.397 327 273.957 325.653 273.077 324.72C272.197 323.76 270.997 323.28 269.477 323.28C267.931 323.28 266.704 323.76 265.797 324.72C264.917 325.653 264.477 327 264.477 328.76V341H258.877V318.84H264.477V321.6C265.224 320.64 266.171 319.893 267.317 319.36C268.491 318.8 269.771 318.52 271.157 318.52ZM291.843 323.44V334.16C291.843 334.907 292.016 335.453 292.363 335.8C292.736 336.12 293.349 336.28 294.203 336.28H296.803V341H293.283C288.563 341 286.203 338.707 286.203 334.12V323.44H283.563V318.84H286.203V313.36H291.843V318.84H296.803V323.44H291.843ZM322.842 318.52C324.522 318.52 326.015 318.893 327.322 319.64C328.628 320.36 329.642 321.44 330.362 322.88C331.108 324.293 331.482 326 331.482 328V341H325.882V328.76C325.882 327 325.442 325.653 324.562 324.72C323.682 323.76 322.482 323.28 320.962 323.28C319.415 323.28 318.188 323.76 317.282 324.72C316.402 325.653 315.962 327 315.962 328.76V341H310.362V311.4H315.962V321.6C316.682 320.64 317.642 319.893 318.842 319.36C320.042 318.8 321.375 318.52 322.842 318.52ZM357.407 329.44C357.407 330.24 357.354 330.96 357.247 331.6H341.047C341.18 333.2 341.74 334.453 342.727 335.36C343.714 336.267 344.927 336.72 346.367 336.72C348.447 336.72 349.927 335.827 350.807 334.04H356.847C356.207 336.173 354.98 337.933 353.167 339.32C351.354 340.68 349.127 341.36 346.487 341.36C344.354 341.36 342.434 340.893 340.727 339.96C339.047 339 337.727 337.653 336.767 335.92C335.834 334.187 335.367 332.187 335.367 329.92C335.367 327.627 335.834 325.613 336.767 323.88C337.7 322.147 339.007 320.813 340.687 319.88C342.367 318.947 344.3 318.48 346.487 318.48C348.594 318.48 350.474 318.933 352.127 319.84C353.807 320.747 355.1 322.04 356.007 323.72C356.94 325.373 357.407 327.28 357.407 329.44ZM351.607 327.84C351.58 326.4 351.06 325.253 350.047 324.4C349.034 323.52 347.794 323.08 346.327 323.08C344.94 323.08 343.767 323.507 342.807 324.36C341.874 325.187 341.3 326.347 341.087 327.84H351.607ZM360.054 329.84C360.054 327.6 360.494 325.613 361.374 323.88C362.281 322.147 363.494 320.813 365.014 319.88C366.561 318.947 368.281 318.48 370.174 318.48C371.828 318.48 373.268 318.813 374.494 319.48C375.748 320.147 376.748 320.987 377.494 322V318.84H383.134V341H377.494V337.76C376.774 338.8 375.774 339.667 374.494 340.36C373.241 341.027 371.788 341.36 370.134 341.36C368.268 341.36 366.561 340.88 365.014 339.92C363.494 338.96 362.281 337.613 361.374 335.88C360.494 334.12 360.054 332.107 360.054 329.84ZM377.494 329.92C377.494 328.56 377.228 327.4 376.694 326.44C376.161 325.453 375.441 324.707 374.534 324.2C373.628 323.667 372.654 323.4 371.614 323.4C370.574 323.4 369.614 323.653 368.734 324.16C367.854 324.667 367.134 325.413 366.574 326.4C366.041 327.36 365.774 328.507 365.774 329.84C365.774 331.173 366.041 332.347 366.574 333.36C367.134 334.347 367.854 335.107 368.734 335.64C369.641 336.173 370.601 336.44 371.614 336.44C372.654 336.44 373.628 336.187 374.534 335.68C375.441 335.147 376.161 334.4 376.694 333.44C377.228 332.453 377.494 331.28 377.494 329.92ZM394.204 322.28C394.924 321.107 395.857 320.187 397.004 319.52C398.177 318.853 399.51 318.52 401.004 318.52V324.4H399.524C397.764 324.4 396.43 324.813 395.524 325.64C394.644 326.467 394.204 327.907 394.204 329.96V341H388.604V318.84H394.204V322.28ZM411.296 323.44V334.16C411.296 334.907 411.469 335.453 411.816 335.8C412.189 336.12 412.802 336.28 413.656 336.28H416.256V341H412.736C408.016 341 405.656 338.707 405.656 334.12V323.44H403.016V318.84H405.656V313.36H411.296V318.84H416.256V323.44H411.296ZM439.655 341.36C437.521 341.36 435.601 340.893 433.895 339.96C432.188 339 430.841 337.653 429.855 335.92C428.895 334.187 428.415 332.187 428.415 329.92C428.415 327.653 428.908 325.653 429.895 323.92C430.908 322.187 432.281 320.853 434.015 319.92C435.748 318.96 437.681 318.48 439.815 318.48C441.948 318.48 443.881 318.96 445.615 319.92C447.348 320.853 448.708 322.187 449.695 323.92C450.708 325.653 451.215 327.653 451.215 329.92C451.215 332.187 450.695 334.187 449.655 335.92C448.641 337.653 447.255 339 445.495 339.96C443.761 340.893 441.815 341.36 439.655 341.36ZM439.655 336.48C440.668 336.48 441.615 336.24 442.495 335.76C443.401 335.253 444.121 334.507 444.655 333.52C445.188 332.533 445.455 331.333 445.455 329.92C445.455 327.813 444.895 326.2 443.775 325.08C442.681 323.933 441.335 323.36 439.735 323.36C438.135 323.36 436.788 323.933 435.695 325.08C434.628 326.2 434.095 327.813 434.095 329.92C434.095 332.027 434.615 333.653 435.655 334.8C436.721 335.92 438.055 336.48 439.655 336.48ZM465.483 323.44H461.603V341H455.923V323.44H453.403V318.84H455.923V317.72C455.923 315 456.696 313 458.243 311.72C459.789 310.44 462.123 309.84 465.243 309.92V314.64C463.883 314.613 462.936 314.84 462.403 315.32C461.869 315.8 461.603 316.667 461.603 317.92V318.84H465.483V323.44ZM502.523 341H496.923L484.243 321.84V341H478.643V313.04H484.243L496.923 332.24V313.04H502.523V341ZM528.657 329.44C528.657 330.24 528.604 330.96 528.497 331.6H512.297C512.43 333.2 512.99 334.453 513.977 335.36C514.964 336.267 516.177 336.72 517.617 336.72C519.697 336.72 521.177 335.827 522.057 334.04H528.097C527.457 336.173 526.23 337.933 524.417 339.32C522.604 340.68 520.377 341.36 517.737 341.36C515.604 341.36 513.684 340.893 511.977 339.96C510.297 339 508.977 337.653 508.017 335.92C507.084 334.187 506.617 332.187 506.617 329.92C506.617 327.627 507.084 325.613 508.017 323.88C508.95 322.147 510.257 320.813 511.937 319.88C513.617 318.947 515.55 318.48 517.737 318.48C519.844 318.48 521.724 318.933 523.377 319.84C525.057 320.747 526.35 322.04 527.257 323.72C528.19 325.373 528.657 327.28 528.657 329.44ZM522.857 327.84C522.83 326.4 522.31 325.253 521.297 324.4C520.284 323.52 519.044 323.08 517.577 323.08C516.19 323.08 515.017 323.507 514.057 324.36C513.124 325.187 512.55 326.347 512.337 327.84H522.857ZM531.304 329.92C531.304 327.627 531.771 325.627 532.704 323.92C533.638 322.187 534.931 320.853 536.584 319.92C538.238 318.96 540.131 318.48 542.264 318.48C545.011 318.48 547.278 319.173 549.064 320.56C550.878 321.92 552.091 323.84 552.704 326.32H546.664C546.344 325.36 545.798 324.613 545.024 324.08C544.278 323.52 543.344 323.24 542.224 323.24C540.624 323.24 539.358 323.827 538.424 325C537.491 326.147 537.024 327.787 537.024 329.92C537.024 332.027 537.491 333.667 538.424 334.84C539.358 335.987 540.624 336.56 542.224 336.56C544.491 336.56 545.971 335.547 546.664 333.52H552.704C552.091 335.92 550.878 337.827 549.064 339.24C547.251 340.653 544.984 341.36 542.264 341.36C540.131 341.36 538.238 340.893 536.584 339.96C534.931 339 533.638 337.667 532.704 335.96C531.771 334.227 531.304 332.213 531.304 329.92ZM563.327 323.44V334.16C563.327 334.907 563.5 335.453 563.847 335.8C564.22 336.12 564.834 336.28 565.687 336.28H568.287V341H564.767C560.047 341 557.687 338.707 557.687 334.12V323.44H555.047V318.84H557.687V313.36H563.327V318.84H568.287V323.44H563.327ZM592.915 329.44C592.915 330.24 592.861 330.96 592.755 331.6H576.555C576.688 333.2 577.248 334.453 578.235 335.36C579.221 336.267 580.435 336.72 581.875 336.72C583.955 336.72 585.435 335.827 586.315 334.04H592.355C591.715 336.173 590.488 337.933 588.675 339.32C586.861 340.68 584.635 341.36 581.995 341.36C579.861 341.36 577.941 340.893 576.235 339.96C574.555 339 573.235 337.653 572.275 335.92C571.341 334.187 570.875 332.187 570.875 329.92C570.875 327.627 571.341 325.613 572.275 323.88C573.208 322.147 574.515 320.813 576.195 319.88C577.875 318.947 579.808 318.48 581.995 318.48C584.101 318.48 585.981 318.933 587.635 319.84C589.315 320.747 590.608 322.04 591.515 323.72C592.448 325.373 592.915 327.28 592.915 329.44ZM587.115 327.84C587.088 326.4 586.568 325.253 585.555 324.4C584.541 323.52 583.301 323.08 581.835 323.08C580.448 323.08 579.275 323.507 578.315 324.36C577.381 325.187 576.808 326.347 576.595 327.84H587.115ZM602.602 322.28C603.322 321.107 604.256 320.187 605.402 319.52C606.576 318.853 607.909 318.52 609.402 318.52V324.4H607.922C606.162 324.4 604.829 324.813 603.922 325.64C603.042 326.467 602.602 327.907 602.602 329.96V341H597.002V318.84H602.602V322.28ZM611.734 329.84C611.734 327.6 612.174 325.613 613.054 323.88C613.961 322.147 615.174 320.813 616.694 319.88C618.241 318.947 619.961 318.48 621.854 318.48C623.507 318.48 624.947 318.813 626.174 319.48C627.427 320.147 628.427 320.987 629.174 322V318.84H634.814V341H629.174V337.76C628.454 338.8 627.454 339.667 626.174 340.36C624.921 341.027 623.467 341.36 621.814 341.36C619.947 341.36 618.241 340.88 616.694 339.92C615.174 338.96 613.961 337.613 613.054 335.88C612.174 334.12 611.734 332.107 611.734 329.84ZM629.174 329.92C629.174 328.56 628.907 327.4 628.374 326.44C627.841 325.453 627.121 324.707 626.214 324.2C625.307 323.667 624.334 323.4 623.294 323.4C622.254 323.4 621.294 323.653 620.414 324.16C619.534 324.667 618.814 325.413 618.254 326.4C617.721 327.36 617.454 328.507 617.454 329.84C617.454 331.173 617.721 332.347 618.254 333.36C618.814 334.347 619.534 335.107 620.414 335.64C621.321 336.173 622.281 336.44 623.294 336.44C624.334 336.44 625.307 336.187 626.214 335.68C627.121 335.147 627.841 334.4 628.374 333.44C628.907 332.453 629.174 331.28 629.174 329.92Z" fill="white"/>
</g>
<defs>
<filter id="filter0_d_2727_410" x="0.427734" y="133.507" width="41.3398" height="46.2173" filterUnits="userSpaceOnUse" color-interpolation-filters="sRGB">
<feFlood flood-opacity="0" result="BackgroundImageFix"/>
<feColorMatrix in="SourceAlpha" type="matrix" values="0 0 0 0 0 0 0 0 0 0 0 0 0 0 0 0 0 0 127 0" result="hardAlpha"/>
<feOffset dx="2" dy="5"/>
<feGaussianBlur stdDeviation="2"/>
<feComposite in2="hardAlpha" operator="out"/>
<feColorMatrix type="matrix" values="0 0 0 0 0 0 0 0 0 0 0 0 0 0 0 0 0 0 0.47 0"/>
<feBlend mode="normal" in2="BackgroundImageFix" result="effect1_dropShadow_2727_410"/>
<feBlend mode="normal" in="SourceGraphic" in2="effect1_dropShadow_2727_410" result="shape"/>
</filter>
<filter id="filter1_d_2727_410" x="48.6035" y="135.592" width="41.3398" height="42.0684" filterUnits="userSpaceOnUse" color-interpolation-filters="sRGB">
<feFlood flood-opacity="0" result="BackgroundImageFix"/>
<feColorMatrix in="SourceAlpha" type="matrix" values="0 0 0 0 0 0 0 0 0 0 0 0 0 0 0 0 0 0 127 0" result="hardAlpha"/>
<feOffset dx="2" dy="5"/>
<feGaussianBlur stdDeviation="2"/>
<feComposite in2="hardAlpha" operator="out"/>
<feColorMatrix type="matrix" values="0 0 0 0 0 0 0 0 0 0 0 0 0 0 0 0 0 0 0.47 0"/>
<feBlend mode="normal" in2="BackgroundImageFix" result="effect1_dropShadow_2727_410"/>
<feBlend mode="normal" in="SourceGraphic" in2="effect1_dropShadow_2727_410" result="shape"/>
</filter>
<filter id="filter2_d_2727_410" x="96.7793" y="129.388" width="41.3398" height="54.4707" filterUnits="userSpaceOnUse" color-interpolation-filters="sRGB">
<feFlood flood-opacity="0" result="BackgroundImageFix"/>
<feColorMatrix in="SourceAlpha" type="matrix" values="0 0 0 0 0 0 0 0 0 0 0 0 0 0 0 0 0 0 127 0" result="hardAlpha"/>
<feOffset dx="2" dy="5"/>
<feGaussianBlur stdDeviation="2"/>
<feComposite in2="hardAlpha" operator="out"/>
<feColorMatrix type="matrix" values="0 0 0 0 0 0 0 0 0 0 0 0 0 0 0 0 0 0 0.47 0"/>
<feBlend mode="normal" in2="BackgroundImageFix" result="effect1_dropShadow_2727_410"/>
<feBlend mode="normal" in="SourceGraphic" in2="effect1_dropShadow_2727_410" result="shape"/>
</filter>
<filter id="filter3_d_2727_410" x="144.957" y="135.592" width="43.4473" height="42.0684" filterUnits="userSpaceOnUse" color-interpolation-filters="sRGB">
<feFlood flood-opacity="0" result="BackgroundImageFix"/>
<feColorMatrix in="SourceAlpha" type="matrix" values="0 0 0 0 0 0 0 0 0 0 0 0 0 0 0 0 0 0 127 0" result="hardAlpha"/>
<feOffset dx="2" dy="5"/>
<feGaussianBlur stdDeviation="2"/>
<feComposite in2="hardAlpha" operator="out"/>
<feColorMatrix type="matrix" values="0 0 0 0 0 0 0 0 0 0 0 0 0 0 0 0 0 0 0.47 0"/>
<feBlend mode="normal" in2="BackgroundImageFix" result="effect1_dropShadow_2727_410"/>
<feBlend mode="normal" in="SourceGraphic" in2="effect1_dropShadow_2727_410" result="shape"/>
</filter>
<filter id="filter4_d_2727_410" x="193.131" y="129.388" width="47.5801" height="50.3467" filterUnits="userSpaceOnUse" color-interpolation-filters="sRGB">
<feFlood flood-opacity="0" result="BackgroundImageFix"/>
<feColorMatrix in="SourceAlpha" type="matrix" values="0 0 0 0 0 0 0 0 0 0 0 0 0 0 0 0 0 0 127 0" result="hardAlpha"/>
<feOffset dx="2" dy="5"/>
<feGaussianBlur stdDeviation="2"/>
<feComposite in2="hardAlpha" operator="out"/>
<feColorMatrix type="matrix" values="0 0 0 0 0 0 0 0 0 0 0 0 0 0 0 0 0 0 0.47 0"/>
<feBlend mode="normal" in2="BackgroundImageFix" result="effect1_dropShadow_2727_410"/>
<feBlend mode="normal" in="SourceGraphic" in2="effect1_dropShadow_2727_410" result="shape"/>
</filter>
<filter id="filter5_d_2727_410" x="241.309" y="135.592" width="43.4219" height="42.0684" filterUnits="userSpaceOnUse" color-interpolation-filters="sRGB">
<feFlood flood-opacity="0" result="BackgroundImageFix"/>
<feColorMatrix in="SourceAlpha" type="matrix" values="0 0 0 0 0 0 0 0 0 0 0 0 0 0 0 0 0 0 127 0" result="hardAlpha"/>
<feOffset dx="2" dy="5"/>
<feGaussianBlur stdDeviation="2"/>
<feComposite in2="hardAlpha" operator="out"/>
<feColorMatrix type="matrix" values="0 0 0 0 0 0 0 0 0 0 0 0 0 0 0 0 0 0 0.47 0"/>
<feBlend mode="normal" in2="BackgroundImageFix" result="effect1_dropShadow_2727_410"/>
<feBlend mode="normal" in="SourceGraphic" in2="effect1_dropShadow_2727_410" result="shape"/>
</filter>
<filter id="filter6_d_2727_410" x="289.484" y="135.592" width="41.3398" height="42.0684" filterUnits="userSpaceOnUse" color-interpolation-filters="sRGB">
<feFlood flood-opacity="0" result="BackgroundImageFix"/>
<feColorMatrix in="SourceAlpha" type="matrix" values="0 0 0 0 0 0 0 0 0 0 0 0 0 0 0 0 0 0 127 0" result="hardAlpha"/>
<feOffset dx="2" dy="5"/>
<feGaussianBlur stdDeviation="2"/>
<feComposite in2="hardAlpha" operator="out"/>
<feColorMatrix type="matrix" values="0 0 0 0 0 0 0 0 0 0 0 0 0 0 0 0 0 0 0.47 0"/>
<feBlend mode="normal" in2="BackgroundImageFix" result="effect1_dropShadow_2727_410"/>
<feBlend mode="normal" in="SourceGraphic" in2="effect1_dropShadow_2727_410" result="shape"/>
</filter>
<filter id="filter7_d_2727_410" x="337.664" y="133.522" width="41.3398" height="46.2026" filterUnits="userSpaceOnUse" color-interpolation-filters="sRGB">
<feFlood flood-opacity="0" result="BackgroundImageFix"/>
<feColorMatrix in="SourceAlpha" type="matrix" values="0 0 0 0 0 0 0 0 0 0 0 0 0 0 0 0 0 0 127 0" result="hardAlpha"/>
<feOffset dx="2" dy="5"/>
<feGaussianBlur stdDeviation="2"/>
<feComposite in2="hardAlpha" operator="out"/>
<feColorMatrix type="matrix" values="0 0 0 0 0 0 0 0 0 0 0 0 0 0 0 0 0 0 0.47 0"/>
<feBlend mode="normal" in2="BackgroundImageFix" result="effect1_dropShadow_2727_410"/>
<feBlend mode="normal" in="SourceGraphic" in2="effect1_dropShadow_2727_410" result="shape"/>
</filter>
<filter id="filter8_d_2727_410" x="385.836" y="135.592" width="41.3594" height="42.0684" filterUnits="userSpaceOnUse" color-interpolation-filters="sRGB">
<feFlood flood-opacity="0" result="BackgroundImageFix"/>
<feColorMatrix in="SourceAlpha" type="matrix" values="0 0 0 0 0 0 0 0 0 0 0 0 0 0 0 0 0 0 127 0" result="hardAlpha"/>
<feOffset dx="2" dy="5"/>
<feGaussianBlur stdDeviation="2"/>
<feComposite in2="hardAlpha" operator="out"/>
<feColorMatrix type="matrix" values="0 0 0 0 0 0 0 0 0 0 0 0 0 0 0 0 0 0 0.47 0"/>
<feBlend mode="normal" in2="BackgroundImageFix" result="effect1_dropShadow_2727_410"/>
<feBlend mode="normal" in="SourceGraphic" in2="effect1_dropShadow_2727_410" result="shape"/>
</filter>
<filter id="filter9_d_2727_410" x="455.266" y="133.507" width="41.3203" height="46.2075" filterUnits="userSpaceOnUse" color-interpolation-filters="sRGB">
<feFlood flood-opacity="0" result="BackgroundImageFix"/>
<feColorMatrix in="SourceAlpha" type="matrix" values="0 0 0 0 0 0 0 0 0 0 0 0 0 0 0 0 0 0 127 0" result="hardAlpha"/>
<feOffset dx="2" dy="5"/>
<feGaussianBlur stdDeviation="2"/>
<feComposite in2="hardAlpha" operator="out"/>
<feColorMatrix type="matrix" values="0 0 0 0 0 0 0 0 0 0 0 0 0 0 0 0 0 0 0.47 0"/>
<feBlend mode="normal" in2="BackgroundImageFix" result="effect1_dropShadow_2727_410"/>
<feBlend mode="normal" in="SourceGraphic" in2="effect1_dropShadow_2727_410" result="shape"/>
</filter>
<filter id="filter10_d_2727_410" x="503.445" y="133.507" width="41.3398" height="44.1528" filterUnits="userSpaceOnUse" color-interpolation-filters="sRGB">
<feFlood flood-opacity="0" result="BackgroundImageFix"/>
<feColorMatrix in="SourceAlpha" type="matrix" values="0 0 0 0 0 0 0 0 0 0 0 0 0 0 0 0 0 0 127 0" result="hardAlpha"/>
<feOffset dx="2" dy="5"/>
<feGaussianBlur stdDeviation="2"/>
<feComposite in2="hardAlpha" operator="out"/>
<feColorMatrix type="matrix" values="0 0 0 0 0 0 0 0 0 0 0 0 0 0 0 0 0 0 0.47 0"/>
<feBlend mode="normal" in2="BackgroundImageFix" result="effect1_dropShadow_2727_410"/>
<feBlend mode="normal" in="SourceGraphic" in2="effect1_dropShadow_2727_410" result="shape"/>
</filter>
<filter id="filter11_d_2727_410" x="549.537" y="135.592" width="45.5078" height="42.0684" filterUnits="userSpaceOnUse" color-interpolation-filters="sRGB">
<feFlood flood-opacity="0" result="BackgroundImageFix"/>
<feColorMatrix in="SourceAlpha" type="matrix" values="0 0 0 0 0 0 0 0 0 0 0 0 0 0 0 0 0 0 127 0" result="hardAlpha"/>
<feOffset dx="2" dy="5"/>
<feGaussianBlur stdDeviation="2"/>
<feComposite in2="hardAlpha" operator="out"/>
<feColorMatrix type="matrix" values="0 0 0 0 0 0 0 0 0 0 0 0 0 0 0 0 0 0 0.47 0"/>
<feBlend mode="normal" in2="BackgroundImageFix" result="effect1_dropShadow_2727_410"/>
<feBlend mode="normal" in="SourceGraphic" in2="effect1_dropShadow_2727_410" result="shape"/>
</filter>
<filter id="filter12_d_2727_410" x="599.809" y="135.592" width="43.4121" height="44.1328" filterUnits="userSpaceOnUse" color-interpolation-filters="sRGB">
<feFlood flood-opacity="0" result="BackgroundImageFix"/>
<feColorMatrix in="SourceAlpha" type="matrix" values="0 0 0 0 0 0 0 0 0 0 0 0 0 0 0 0 0 0 127 0" result="hardAlpha"/>
<feOffset dx="2" dy="5"/>
<feGaussianBlur stdDeviation="2"/>
<feComposite in2="hardAlpha" operator="out"/>
<feColorMatrix type="matrix" values="0 0 0 0 0 0 0 0 0 0 0 0 0 0 0 0 0 0 0.47 0"/>
<feBlend mode="normal" in2="BackgroundImageFix" result="effect1_dropShadow_2727_410"/>
<feBlend mode="normal" in="SourceGraphic" in2="effect1_dropShadow_2727_410" result="shape"/>
</filter>
<filter id="filter13_d_2727_410" x="647.971" y="133.522" width="43.4258" height="44.1377" filterUnits="userSpaceOnUse" color-interpolation-filters="sRGB">
<feFlood flood-opacity="0" result="BackgroundImageFix"/>
<feColorMatrix in="SourceAlpha" type="matrix" values="0 0 0 0 0 0 0 0 0 0 0 0 0 0 0 0 0 0 127 0" result="hardAlpha"/>
<feOffset dx="2" dy="5"/>
<feGaussianBlur stdDeviation="2"/>
<feComposite in2="hardAlpha" operator="out"/>
<feColorMatrix type="matrix" values="0 0 0 0 0 0 0 0 0 0 0 0 0 0 0 0 0 0 0.47 0"/>
<feBlend mode="normal" in2="BackgroundImageFix" result="effect1_dropShadow_2727_410"/>
<feBlend mode="normal" in="SourceGraphic" in2="effect1_dropShadow_2727_410" result="shape"/>
</filter>
<filter id="filter14_d_2727_410" x="696.15" y="135.592" width="43.4219" height="42.0684" filterUnits="userSpaceOnUse" color-interpolation-filters="sRGB">
<feFlood flood-opacity="0" result="BackgroundImageFix"/>
<feColorMatrix in="SourceAlpha" type="matrix" values="0 0 0 0 0 0 0 0 0 0 0 0 0 0 0 0 0 0 127 0" result="hardAlpha"/>
<feOffset dx="2" dy="5"/>
<feGaussianBlur stdDeviation="2"/>
<feComposite in2="hardAlpha" operator="out"/>
<feColorMatrix type="matrix" values="0 0 0 0 0 0 0 0 0 0 0 0 0 0 0 0 0 0 0.47 0"/>
<feBlend mode="normal" in2="BackgroundImageFix" result="effect1_dropShadow_2727_410"/>
<feBlend mode="normal" in="SourceGraphic" in2="effect1_dropShadow_2727_410" result="shape"/>
</filter>
<filter id="filter15_d_2727_410" x="107.777" y="0" width="109.754" height="116.228" filterUnits="userSpaceOnUse" color-interpolation-filters="sRGB">
<feFlood flood-opacity="0" result="BackgroundImageFix"/>
<feColorMatrix in="SourceAlpha" type="matrix" values="0 0 0 0 0 0 0 0 0 0 0 0 0 0 0 0 0 0 127 0" result="hardAlpha"/>
<feOffset dx="2" dy="5"/>
<feGaussianBlur stdDeviation="2"/>
<feComposite in2="hardAlpha" operator="out"/>
<feColorMatrix type="matrix" values="0 0 0 0 0 0 0 0 0 0 0 0 0 0 0 0 0 0 0.47 0"/>
<feBlend mode="normal" in2="BackgroundImageFix" result="effect1_dropShadow_2727_410"/>
<feBlend mode="normal" in="SourceGraphic" in2="effect1_dropShadow_2727_410" result="shape"/>
</filter>
<filter id="filter16_d_2727_410" x="200.039" y="6.30176" width="147.893" height="109.936" filterUnits="userSpaceOnUse" color-interpolation-filters="sRGB">
<feFlood flood-opacity="0" result="BackgroundImageFix"/>
<feColorMatrix in="SourceAlpha" type="matrix" values="0 0 0 0 0 0 0 0 0 0 0 0 0 0 0 0 0 0 127 0" result="hardAlpha"/>
<feOffset dx="2" dy="5"/>
<feGaussianBlur stdDeviation="2"/>
<feComposite in2="hardAlpha" operator="out"/>
<feColorMatrix type="matrix" values="0 0 0 0 0 0 0 0 0 0 0 0 0 0 0 0 0 0 0.47 0"/>
<feBlend mode="normal" in2="BackgroundImageFix" result="effect1_dropShadow_2727_410"/>
<feBlend mode="normal" in="SourceGraphic" in2="effect1_dropShadow_2727_410" result="shape"/>
</filter>
<filter id="filter17_d_2727_410" x="309.135" y="6.30176" width="147.902" height="109.936" filterUnits="userSpaceOnUse" color-interpolation-filters="sRGB">
<feFlood flood-opacity="0" result="BackgroundImageFix"/>
<feColorMatrix in="SourceAlpha" type="matrix" values="0 0 0 0 0 0 0 0 0 0 0 0 0 0 0 0 0 0 127 0" result="hardAlpha"/>
<feOffset dx="2" dy="5"/>
<feGaussianBlur stdDeviation="2"/>
<feComposite in2="hardAlpha" operator="out"/>
<feColorMatrix type="matrix" values="0 0 0 0 0 0 0 0 0 0 0 0 0 0 0 0 0 0 0.47 0"/>
<feBlend mode="normal" in2="BackgroundImageFix" result="effect1_dropShadow_2727_410"/>
<feBlend mode="normal" in="SourceGraphic" in2="effect1_dropShadow_2727_410" result="shape"/>
</filter>
<filter id="filter18_d_2727_410" x="440.131" y="6.30176" width="116.109" height="128.955" filterUnits="userSpaceOnUse" color-interpolation-filters="sRGB">
<feFlood flood-opacity="0" result="BackgroundImageFix"/>
<feColorMatrix in="SourceAlpha" type="matrix" values="0 0 0 0 0 0 0 0 0 0 0 0 0 0 0 0 0 0 127 0" result="hardAlpha"/>
<feOffset dx="2" dy="5"/>
<feGaussianBlur stdDeviation="2"/>
<feComposite in2="hardAlpha" operator="out"/>
<feColorMatrix type="matrix" values="0 0 0 0 0 0 0 0 0 0 0 0 0 0 0 0 0 0 0.47 0"/>
<feBlend mode="normal" in2="BackgroundImageFix" result="effect1_dropShadow_2727_410"/>
<feBlend mode="normal" in="SourceGraphic" in2="effect1_dropShadow_2727_410" result="shape"/>
</filter>
<filter id="filter19_d_2727_410" x="551.188" y="0" width="33.4355" height="135.256" filterUnits="userSpaceOnUse" color-interpolation-filters="sRGB">
<feFlood flood-opacity="0" result="BackgroundImageFix"/>
<feColorMatrix in="SourceAlpha" type="matrix" values="0 0 0 0 0 0 0 0 0 0 0 0 0 0 0 0 0 0 127 0" result="hardAlpha"/>
<feOffset dx="2" dy="5"/>
<feGaussianBlur stdDeviation="2"/>
<feComposite in2="hardAlpha" operator="out"/>
<feColorMatrix type="matrix" values="0 0 0 0 0 0 0 0 0 0 0 0 0 0 0 0 0 0 0.47 0"/>
<feBlend mode="normal" in2="BackgroundImageFix" result="effect1_dropShadow_2727_410"/>
<feBlend mode="normal" in="SourceGraphic" in2="effect1_dropShadow_2727_410" result="shape"/>
</filter>
<filter id="filter20_d_2727_410" x="585.717" y="0" width="66.6211" height="116.228" filterUnits="userSpaceOnUse" color-interpolation-filters="sRGB">
<feFlood flood-opacity="0" result="BackgroundImageFix"/>
<feColorMatrix in="SourceAlpha" type="matrix" values="0 0 0 0 0 0 0 0 0 0 0 0 0 0 0 0 0 0 127 0" result="hardAlpha"/>
<feOffset dx="2" dy="5"/>
<feGaussianBlur stdDeviation="2"/>
<feComposite in2="hardAlpha" operator="out"/>
<feColorMatrix type="matrix" values="0 0 0 0 0 0 0 0 0 0 0 0 0 0 0 0 0 0 0.47 0"/>
<feBlend mode="normal" in2="BackgroundImageFix" result="effect1_dropShadow_2727_410"/>
<feBlend mode="normal" in="SourceGraphic" in2="effect1_dropShadow_2727_410" result="shape"/>
</filter>
<filter id="filter21_d_2727_410" x="685.574" y="82" width="64.4258" height="34.2275" filterUnits="userSpaceOnUse" color-interpolation-filters="sRGB">
<feFlood flood-opacity="0" result="BackgroundImageFix"/>
<feColorMatrix in="SourceAlpha" type="matrix" values="0 0 0 0 0 0 0 0 0 0 0 0 0 0 0 0 0 0 127 0" result="hardAlpha"/>
<feOffset dx="2" dy="5"/>
<feGaussianBlur stdDeviation="2"/>
<feComposite in2="hardAlpha" operator="out"/>
<feColorMatrix type="matrix" values="0 0 0 0 0 0 0 0 0 0 0 0 0 0 0 0 0 0 0.47 0"/>
<feBlend mode="normal" in2="BackgroundImageFix" result="effect1_dropShadow_2727_410"/>
<feBlend mode="normal" in="SourceGraphic" in2="effect1_dropShadow_2727_410" result="shape"/>
</filter>
<filter id="filter22_d_2727_410" x="649.676" y="0" width="51.3418" height="116.228" filterUnits="userSpaceOnUse" color-interpolation-filters="sRGB">
<feFlood flood-opacity="0" result="BackgroundImageFix"/>
<feColorMatrix in="SourceAlpha" type="matrix" values="0 0 0 0 0 0 0 0 0 0 0 0 0 0 0 0 0 0 127 0" result="hardAlpha"/>
<feOffset dx="2" dy="5"/>
<feGaussianBlur stdDeviation="2"/>
<feComposite in2="hardAlpha" operator="out"/>
<feColorMatrix type="matrix" values="0 0 0 0 0 0 0 0 0 0 0 0 0 0 0 0 0 0 0.47 0"/>
<feBlend mode="normal" in2="BackgroundImageFix" result="effect1_dropShadow_2727_410"/>
<feBlend mode="normal" in="SourceGraphic" in2="effect1_dropShadow_2727_410" result="shape"/>
</filter>
<filter id="filter23_d_2727_410" x="38.1582" y="6.30713" width="71.5918" height="109.921" filterUnits="userSpaceOnUse" color-interpolation-filters="sRGB">
<feFlood flood-opacity="0" result="BackgroundImageFix"/>
<feColorMatrix in="SourceAlpha" type="matrix" values="0 0 0 0 0 0 0 0 0 0 0 0 0 0 0 0 0 0 127 0" result="hardAlpha"/>
<feOffset dx="2" dy="5"/>
<feGaussianBlur stdDeviation="2"/>
<feComposite in2="hardAlpha" operator="out"/>
<feColorMatrix type="matrix" values="0 0 0 0 0 0 0 0 0 0 0 0 0 0 0 0 0 0 0.47 0"/>
<feBlend mode="normal" in2="BackgroundImageFix" result="effect1_dropShadow_2727_410"/>
<feBlend mode="normal" in="SourceGraphic" in2="effect1_dropShadow_2727_410" result="shape"/>
</filter>
<filter id="filter24_d_2727_410" x="0" y="6.30713" width="91.7188" height="109.921" filterUnits="userSpaceOnUse" color-interpolation-filters="sRGB">
<feFlood flood-opacity="0" result="BackgroundImageFix"/>
<feColorMatrix in="SourceAlpha" type="matrix" values="0 0 0 0 0 0 0 0 0 0 0 0 0 0 0 0 0 0 127 0" result="hardAlpha"/>
<feOffset dx="2" dy="5"/>
<feGaussianBlur stdDeviation="2"/>
<feComposite in2="hardAlpha" operator="out"/>
<feColorMatrix type="matrix" values="0 0 0 0 0 0 0 0 0 0 0 0 0 0 0 0 0 0 0.47 0"/>
<feBlend mode="normal" in2="BackgroundImageFix" result="effect1_dropShadow_2727_410"/>
<feBlend mode="normal" in="SourceGraphic" in2="effect1_dropShadow_2727_410" result="shape"/>
</filter>
<filter id="filter25_d_2727_410" x="24.6699" y="249.48" width="666.855" height="100.88" filterUnits="userSpaceOnUse" color-interpolation-filters="sRGB">
<feFlood flood-opacity="0" result="BackgroundImageFix"/>
<feColorMatrix in="SourceAlpha" type="matrix" values="0 0 0 0 0 0 0 0 0 0 0 0 0 0 0 0 0 0 127 0" result="hardAlpha"/>
<feOffset dx="2" dy="5"/>
<feGaussianBlur stdDeviation="2"/>
<feComposite in2="hardAlpha" operator="out"/>
<feColorMatrix type="matrix" values="0 0 0 0 0 0 0 0 0 0 0 0 0 0 0 0 0 0 0.47 0"/>
<feBlend mode="normal" in2="BackgroundImageFix" result="effect1_dropShadow_2727_410"/>
<feBlend mode="normal" in="SourceGraphic" in2="effect1_dropShadow_2727_410" result="shape"/>
</filter>
</defs>
</svg>
