<svg width="750" height="357" viewBox="0 0 750 357" fill="none" xmlns="http://www.w3.org/2000/svg">
<g filter="url(#filter0_d_2727_410)">
<path d="M2.42773 135.592H10.764V147.989H27.4364V137.641L35.7677 133.507V168.66H27.4364V156.257H10.764V166.581L2.42773 170.725V135.592Z" fill="white"/>
</g>
<g filter="url(#filter1_d_2727_410)">
<path d="M83.9435 160.392L75.6073 168.66H50.6035V143.855L58.9398 135.592H83.9435V160.392ZM71.4392 160.392L75.6073 156.258V143.855H63.1029L58.9398 147.989V160.392H71.4392Z" fill="white"/>
</g>
<g filter="url(#filter2_d_2727_410)">
<path d="M123.788 154.188V135.592H132.119V174.859L107.116 150.059V168.66H98.7793V129.388L123.788 154.188Z" fill="white"/>
</g>
<g filter="url(#filter3_d_2727_410)">
<path d="M182.403 135.592L178.235 143.855H146.957V135.592H182.403ZM182.403 147.989L178.235 156.258H146.957V147.989H182.403ZM182.403 160.392L178.235 168.66H146.957V160.392H182.403Z" fill="white"/>
</g>
<g filter="url(#filter4_d_2727_410)">
<path d="M207.635 154.188L195.131 141.791V129.388L211.803 145.925L222.211 135.602H234.711L215.962 154.198V166.601L207.625 170.735L207.635 154.188Z" fill="white"/>
</g>
<g filter="url(#filter5_d_2727_410)">
<path d="M251.645 168.66L243.309 160.392V135.592H278.73L274.587 143.855H251.645V156.258L255.808 160.392H276.624V168.66H251.645Z" fill="white"/>
</g>
<g filter="url(#filter6_d_2727_410)">
<path d="M324.824 160.392L316.493 168.66H291.484V143.855L299.821 135.592H324.824V160.392ZM312.325 160.392L316.493 156.258V143.855H303.989L299.821 147.989V160.392H312.325Z" fill="white"/>
</g>
<g filter="url(#filter7_d_2727_410)">
<path d="M373.004 133.522V168.66H364.668V154.188L356.332 162.456L348 154.188V166.59L339.664 170.725V133.522L356.332 150.059L373.004 133.522Z" fill="white"/>
</g>
<g filter="url(#filter8_d_2727_410)">
<path d="M387.836 168.66V135.592H417.008L421.176 143.855L412.864 152.124L421.196 160.392L417.028 168.66H387.836ZM396.172 160.392H408.677L400.34 152.124L408.677 143.855H396.172V160.392Z" fill="white"/>
</g>
<g filter="url(#filter9_d_2727_410)">
<path d="M457.266 135.592H465.602V147.989H482.25V137.641L490.586 133.507V168.66H482.25V156.257H465.602V166.581L457.266 170.715V135.592Z" fill="white"/>
</g>
<g filter="url(#filter10_d_2727_410)">
<path d="M513.777 168.66L505.445 160.392V135.592H513.777V156.238L517.945 160.372H530.449V137.641L538.785 133.507V168.66H513.777Z" fill="white"/>
</g>
<g filter="url(#filter11_d_2727_410)">
<path d="M566.123 143.855L561.955 147.989H586.959V160.392L578.622 168.66H551.537L555.705 160.392H574.434L578.603 156.258H553.619V143.855L561.955 135.592H589.045L584.877 143.855H566.123Z" fill="white"/>
</g>
<g filter="url(#filter12_d_2727_410)">
<path d="M637.22 135.592L633.052 143.855H622.644V166.591L614.308 170.725V143.855H601.809V135.592H637.22Z" fill="white"/>
</g>
<g filter="url(#filter13_d_2727_410)">
<path d="M658.307 160.392H685.397L681.229 168.66H649.971V133.522L658.307 137.656V160.392Z" fill="white"/>
</g>
<g filter="url(#filter14_d_2727_410)">
<path d="M733.572 135.592L729.404 143.855H698.15V135.592H733.572ZM733.572 147.989L729.404 156.258H698.15V147.989H733.572ZM733.572 160.392L729.404 168.66H698.15V160.392H733.572Z" fill="white"/>
</g>
<g filter="url(#filter15_d_2727_410)">
<path d="M211.532 0V92.5983L196.787 107.228H135.217L109.777 81.9999V6.30693H135.217V69.3811L147.94 81.9999H186.092V12.6139L211.532 0Z" fill="white"/>
</g>
<g filter="url(#filter16_d_2727_410)">
<path d="M265.626 81.9948H322.855V90.3761L305.87 107.237H202.044L202.054 107.227H202.039L278.339 31.5295H221.105V6.30176H341.931L265.626 81.9948Z" fill="white"/>
</g>
<g filter="url(#filter17_d_2727_410)">
<path d="M451.037 6.30176L442.131 15.1354L437.358 19.8693L374.722 81.9948H431.966V107.237H311.135L387.449 31.5295H330.206V23.1628L347.186 6.30176H451.037Z" fill="white"/>
</g>
<g filter="url(#filter18_d_2727_410)">
<path d="M543.881 88.3066L543.99 126.256L486.652 69.3858H467.566V107.237H442.131V20.3658L456.296 6.30176H467.566V44.163H473.925L512.087 6.30176H550.239L505.728 50.4601L543.881 88.3066Z" fill="white"/>
</g>
<g filter="url(#filter19_d_2727_410)">
<path d="M578.622 0L553.188 12.6188V126.257L578.622 113.638V0Z" fill="white"/>
</g>
<g filter="url(#filter20_d_2727_410)">
<path d="M646.338 81.9999H613.157V12.6188L587.717 0V107.228H646.338V81.9999Z" fill="white"/>
</g>
<g filter="url(#filter21_d_2727_410)">
<path d="M744 82L731.282 107.228H687.574L700.292 82H744Z" fill="white"/>
</g>
<g filter="url(#filter22_d_2727_410)">
<path d="M695.017 81.9999L682.3 107.228H651.676V0L677.111 12.6139V81.9999H695.017Z" fill="white"/>
</g>
<g filter="url(#filter23_d_2727_410)">
<path d="M91.0281 6.31204V6.30713L40.1582 56.7675L43.0427 59.6236L50.1151 66.6433L65.5931 82.0001L91.0281 107.228L91.6724 105.95L103.751 82.0001L78.3156 56.7675L103.751 31.5349L91.6724 7.58523L91.0281 6.31204L91.033 6.30713L91.0281 6.31204Z" fill="white"/>
</g>
<g filter="url(#filter24_d_2727_410)">
<path d="M60.2843 82.0001H27.4349V31.5349H60.2843L85.7192 6.30713H2V107.228H85.7192L60.2843 82.0001Z" fill="white"/>
</g>
<g filter="url(#filter25_d_2727_410)">
<path d="M49.2702 257.459V264.459H58.6702V268.899H49.2702V276.299H59.8702V280.859H43.6702V252.899H59.8702V257.459H49.2702ZM92.4792 258.379C95.1992 258.379 97.3859 259.219 99.0392 260.899C100.719 262.552 101.559 264.872 101.559 267.859V280.859H95.9592V268.619C95.9592 266.886 95.5192 265.566 94.6392 264.659C93.7592 263.726 92.5592 263.259 91.0392 263.259C89.5192 263.259 88.3059 263.726 87.3992 264.659C86.5192 265.566 86.0792 266.886 86.0792 268.619V280.859H80.4792V268.619C80.4792 266.886 80.0392 265.566 79.1592 264.659C78.2792 263.726 77.0792 263.259 75.5592 263.259C74.0126 263.259 72.7859 263.726 71.8792 264.659C70.9992 265.566 70.5592 266.886 70.5592 268.619V280.859H64.9592V258.699H70.5592V261.379C71.2792 260.446 72.1992 259.712 73.3192 259.179C74.4659 258.646 75.7192 258.379 77.0792 258.379C78.8126 258.379 80.3592 258.752 81.7192 259.499C83.0792 260.219 84.1326 261.259 84.8792 262.619C85.5992 261.339 86.6392 260.312 87.9992 259.539C89.3859 258.766 90.8792 258.379 92.4792 258.379ZM112.473 261.939C113.193 260.872 114.18 260.006 115.433 259.339C116.713 258.672 118.167 258.339 119.793 258.339C121.687 258.339 123.393 258.806 124.913 259.739C126.46 260.672 127.673 262.006 128.553 263.739C129.46 265.446 129.913 267.432 129.913 269.699C129.913 271.966 129.46 273.979 128.553 275.739C127.673 277.472 126.46 278.819 124.913 279.779C123.393 280.739 121.687 281.219 119.793 281.219C118.14 281.219 116.687 280.899 115.433 280.259C114.207 279.592 113.22 278.739 112.473 277.699V280.859H106.873V251.259H112.473V261.939ZM124.193 269.699C124.193 268.366 123.913 267.219 123.353 266.259C122.82 265.272 122.1 264.526 121.193 264.019C120.313 263.512 119.353 263.259 118.313 263.259C117.3 263.259 116.34 263.526 115.433 264.059C114.553 264.566 113.833 265.312 113.273 266.299C112.74 267.286 112.473 268.446 112.473 269.779C112.473 271.112 112.74 272.272 113.273 273.259C113.833 274.246 114.553 275.006 115.433 275.539C116.34 276.046 117.3 276.299 118.313 276.299C119.353 276.299 120.313 276.032 121.193 275.499C122.1 274.966 122.82 274.206 123.353 273.219C123.913 272.232 124.193 271.059 124.193 269.699ZM132.543 269.699C132.543 267.459 132.983 265.472 133.863 263.739C134.769 262.006 135.983 260.672 137.503 259.739C139.049 258.806 140.769 258.339 142.663 258.339C144.316 258.339 145.756 258.672 146.983 259.339C148.236 260.006 149.236 260.846 149.983 261.859V258.699H155.623V280.859H149.983V277.619C149.263 278.659 148.263 279.526 146.983 280.219C145.729 280.886 144.276 281.219 142.623 281.219C140.756 281.219 139.049 280.739 137.503 279.779C135.983 278.819 134.769 277.472 133.863 275.739C132.983 273.979 132.543 271.966 132.543 269.699ZM149.983 269.779C149.983 268.419 149.716 267.259 149.183 266.299C148.649 265.312 147.929 264.566 147.023 264.059C146.116 263.526 145.143 263.259 144.103 263.259C143.063 263.259 142.103 263.512 141.223 264.019C140.343 264.526 139.623 265.272 139.063 266.259C138.529 267.219 138.263 268.366 138.263 269.699C138.263 271.032 138.529 272.206 139.063 273.219C139.623 274.206 140.343 274.966 141.223 275.499C142.129 276.032 143.089 276.299 144.103 276.299C145.143 276.299 146.116 276.046 147.023 275.539C147.929 275.006 148.649 274.259 149.183 273.299C149.716 272.312 149.983 271.139 149.983 269.779ZM166.692 262.139C167.412 260.966 168.345 260.046 169.492 259.379C170.665 258.712 171.999 258.379 173.492 258.379V264.259H172.012C170.252 264.259 168.919 264.672 168.012 265.499C167.132 266.326 166.692 267.766 166.692 269.819V280.859H161.092V258.699H166.692V262.139ZM190.384 280.859L182.864 271.419V280.859H177.264V251.259H182.864V268.099L190.304 258.699H197.584L187.824 269.819L197.664 280.859H190.384ZM219.995 281.219C217.861 281.219 215.941 280.752 214.235 279.819C212.528 278.859 211.181 277.512 210.195 275.779C209.235 274.046 208.755 272.046 208.755 269.779C208.755 267.512 209.248 265.512 210.235 263.779C211.248 262.046 212.621 260.712 214.355 259.779C216.088 258.819 218.021 258.339 220.155 258.339C222.288 258.339 224.221 258.819 225.955 259.779C227.688 260.712 229.048 262.046 230.035 263.779C231.048 265.512 231.555 267.512 231.555 269.779C231.555 272.046 231.035 274.046 229.995 275.779C228.981 277.512 227.595 278.859 225.835 279.819C224.101 280.752 222.155 281.219 219.995 281.219ZM219.995 276.339C221.008 276.339 221.955 276.099 222.835 275.619C223.741 275.112 224.461 274.366 224.995 273.379C225.528 272.392 225.795 271.192 225.795 269.779C225.795 267.672 225.235 266.059 224.115 264.939C223.021 263.792 221.675 263.219 220.075 263.219C218.475 263.219 217.128 263.792 216.035 264.939C214.968 266.059 214.435 267.672 214.435 269.779C214.435 271.886 214.955 273.512 215.995 274.659C217.061 275.779 218.395 276.339 219.995 276.339ZM247.942 258.379C250.582 258.379 252.716 259.219 254.342 260.899C255.969 262.552 256.782 264.872 256.782 267.859V280.859H251.182V268.619C251.182 266.859 250.742 265.512 249.862 264.579C248.982 263.619 247.782 263.139 246.262 263.139C244.716 263.139 243.489 263.619 242.582 264.579C241.702 265.512 241.262 266.859 241.262 268.619V280.859H235.662V258.699H241.262V261.459C242.009 260.499 242.956 259.752 244.102 259.219C245.276 258.659 246.556 258.379 247.942 258.379ZM270.199 269.699C270.199 267.459 270.639 265.472 271.519 263.739C272.426 262.006 273.639 260.672 275.159 259.739C276.706 258.806 278.426 258.339 280.319 258.339C281.972 258.339 283.412 258.672 284.639 259.339C285.892 260.006 286.892 260.846 287.639 261.859V258.699H293.279V280.859H287.639V277.619C286.919 278.659 285.919 279.526 284.639 280.219C283.386 280.886 281.932 281.219 280.279 281.219C278.412 281.219 276.706 280.739 275.159 279.779C273.639 278.819 272.426 277.472 271.519 275.739C270.639 273.979 270.199 271.966 270.199 269.699ZM287.639 269.779C287.639 268.419 287.372 267.259 286.839 266.299C286.306 265.312 285.586 264.566 284.679 264.059C283.772 263.526 282.799 263.259 281.759 263.259C280.719 263.259 279.759 263.512 278.879 264.019C277.999 264.526 277.279 265.272 276.719 266.259C276.186 267.219 275.919 268.366 275.919 269.699C275.919 271.032 276.186 272.206 276.719 273.219C277.279 274.206 277.999 274.966 278.879 275.499C279.786 276.032 280.746 276.299 281.759 276.299C282.799 276.299 283.772 276.046 284.679 275.539C285.586 275.006 286.306 274.259 286.839 273.299C287.372 272.312 287.639 271.139 287.639 269.779ZM306.84 269.739C306.84 267.526 307.293 265.566 308.2 263.859C309.133 262.126 310.386 260.779 311.96 259.819C313.533 258.859 315.266 258.379 317.16 258.379C318.733 258.379 320.12 258.686 321.32 259.299C322.546 259.886 323.533 260.646 324.28 261.579V258.699H329.92V291.419H324.28V277.819C323.533 278.779 322.533 279.579 321.28 280.219C320.026 280.859 318.613 281.179 317.04 281.179C315.173 281.179 313.453 280.699 311.88 279.739C310.333 278.752 309.106 277.392 308.2 275.659C307.293 273.926 306.84 271.952 306.84 269.739ZM324.28 269.779C324.28 268.419 324 267.246 323.44 266.259C322.88 265.272 322.146 264.526 321.24 264.019C320.36 263.512 319.413 263.259 318.4 263.259C317.413 263.259 316.466 263.512 315.56 264.019C314.68 264.526 313.96 265.272 313.4 266.259C312.84 267.219 312.56 268.379 312.56 269.739C312.56 271.099 312.84 272.286 313.4 273.299C313.96 274.286 314.68 275.032 315.56 275.539C316.466 276.046 317.413 276.299 318.4 276.299C319.413 276.299 320.36 276.046 321.24 275.539C322.146 275.032 322.88 274.286 323.44 273.299C324 272.312 324.28 271.139 324.28 269.779ZM356.309 258.699V280.859H350.669V278.059C349.949 279.019 349.002 279.779 347.829 280.339C346.682 280.872 345.429 281.139 344.069 281.139C342.336 281.139 340.802 280.779 339.469 280.059C338.136 279.312 337.082 278.232 336.309 276.819C335.562 275.379 335.189 273.672 335.189 271.699V258.699H340.789V270.899C340.789 272.659 341.229 274.019 342.109 274.979C342.989 275.912 344.189 276.379 345.709 276.379C347.256 276.379 348.469 275.912 349.349 274.979C350.229 274.019 350.669 272.659 350.669 270.899V258.699H356.309ZM382.434 269.299C382.434 270.099 382.381 270.819 382.274 271.459H366.074C366.208 273.059 366.768 274.312 367.754 275.219C368.741 276.126 369.954 276.579 371.394 276.579C373.474 276.579 374.954 275.686 375.834 273.899H381.874C381.234 276.032 380.008 277.792 378.194 279.179C376.381 280.539 374.154 281.219 371.514 281.219C369.381 281.219 367.461 280.752 365.754 279.819C364.074 278.859 362.754 277.512 361.794 275.779C360.861 274.046 360.394 272.046 360.394 269.779C360.394 267.486 360.861 265.472 361.794 263.739C362.728 262.006 364.034 260.672 365.714 259.739C367.394 258.806 369.328 258.339 371.514 258.339C373.621 258.339 375.501 258.792 377.154 259.699C378.834 260.606 380.128 261.899 381.034 263.579C381.968 265.232 382.434 267.139 382.434 269.299ZM376.634 267.699C376.608 266.259 376.088 265.112 375.074 264.259C374.061 263.379 372.821 262.939 371.354 262.939C369.968 262.939 368.794 263.366 367.834 264.219C366.901 265.046 366.328 266.206 366.114 267.699H376.634ZM395.002 281.219C393.188 281.219 391.562 280.899 390.122 280.259C388.682 279.592 387.535 278.699 386.682 277.579C385.855 276.459 385.402 275.219 385.322 273.859H390.962C391.068 274.712 391.482 275.419 392.202 275.979C392.948 276.539 393.868 276.819 394.962 276.819C396.028 276.819 396.855 276.606 397.442 276.179C398.055 275.752 398.362 275.206 398.362 274.539C398.362 273.819 397.988 273.286 397.242 272.939C396.522 272.566 395.362 272.166 393.762 271.739C392.108 271.339 390.748 270.926 389.682 270.499C388.642 270.072 387.735 269.419 386.962 268.539C386.215 267.659 385.842 266.472 385.842 264.979C385.842 263.752 386.188 262.632 386.882 261.619C387.602 260.606 388.615 259.806 389.922 259.219C391.255 258.632 392.815 258.339 394.602 258.339C397.242 258.339 399.348 259.006 400.922 260.339C402.495 261.646 403.362 263.419 403.522 265.659H398.162C398.082 264.779 397.708 264.086 397.042 263.579C396.402 263.046 395.535 262.779 394.442 262.779C393.428 262.779 392.642 262.966 392.082 263.339C391.548 263.712 391.282 264.232 391.282 264.899C391.282 265.646 391.655 266.219 392.402 266.619C393.148 266.992 394.308 267.379 395.882 267.779C397.482 268.179 398.802 268.592 399.842 269.019C400.882 269.446 401.775 270.112 402.522 271.019C403.295 271.899 403.695 273.072 403.722 274.539C403.722 275.819 403.362 276.966 402.642 277.979C401.948 278.992 400.935 279.792 399.602 280.379C398.295 280.939 396.762 281.219 395.002 281.219ZM414.839 263.299V274.019C414.839 274.766 415.012 275.312 415.359 275.659C415.732 275.979 416.345 276.139 417.199 276.139H419.799V280.859H416.279C411.559 280.859 409.199 278.566 409.199 273.979V263.299H406.559V258.699H409.199V253.219H414.839V258.699H419.799V263.299H414.839ZM443.518 263.299H439.638V280.859H433.958V263.299H431.438V258.699H433.958V257.579C433.958 254.859 434.731 252.859 436.278 251.579C437.824 250.299 440.158 249.699 443.278 249.779V254.499C441.918 254.472 440.971 254.699 440.438 255.179C439.904 255.659 439.638 256.526 439.638 257.779V258.699H443.518V263.299ZM456.987 281.219C454.853 281.219 452.933 280.752 451.227 279.819C449.52 278.859 448.173 277.512 447.187 275.779C446.227 274.046 445.747 272.046 445.747 269.779C445.747 267.512 446.24 265.512 447.227 263.779C448.24 262.046 449.613 260.712 451.347 259.779C453.08 258.819 455.013 258.339 457.147 258.339C459.28 258.339 461.213 258.819 462.947 259.779C464.68 260.712 466.04 262.046 467.027 263.779C468.04 265.512 468.547 267.512 468.547 269.779C468.547 272.046 468.027 274.046 466.987 275.779C465.973 277.512 464.587 278.859 462.827 279.819C461.093 280.752 459.147 281.219 456.987 281.219ZM456.987 276.339C458 276.339 458.947 276.099 459.827 275.619C460.733 275.112 461.453 274.366 461.987 273.379C462.52 272.392 462.787 271.192 462.787 269.779C462.787 267.672 462.227 266.059 461.107 264.939C460.013 263.792 458.667 263.219 457.067 263.219C455.467 263.219 454.12 263.792 453.027 264.939C451.96 266.059 451.427 267.672 451.427 269.779C451.427 271.886 451.947 273.512 452.987 274.659C454.053 275.779 455.387 276.339 456.987 276.339ZM478.255 262.139C478.975 260.966 479.908 260.046 481.055 259.379C482.228 258.712 483.561 258.379 485.055 258.379V264.259H483.575C481.815 264.259 480.481 264.672 479.575 265.499C478.695 266.326 478.255 267.766 478.255 269.819V280.859H472.655V258.699H478.255V262.139ZM518.278 272.819C518.278 274.206 517.918 275.512 517.198 276.739C516.504 277.939 515.464 278.939 514.078 279.739C512.718 280.512 511.104 280.966 509.238 281.099V284.339H506.678V281.059C504.011 280.819 501.864 280.019 500.238 278.659C498.611 277.272 497.771 275.406 497.718 273.059H503.718C503.878 274.979 504.864 276.139 506.678 276.539V268.899C504.758 268.419 503.211 267.939 502.038 267.459C500.864 266.979 499.851 266.206 498.998 265.139C498.144 264.072 497.718 262.619 497.718 260.779C497.718 258.459 498.544 256.566 500.198 255.099C501.878 253.632 504.038 252.792 506.678 252.579V249.339H509.238V252.579C511.798 252.792 513.838 253.566 515.358 254.899C516.904 256.232 517.771 258.072 517.958 260.419H511.918C511.838 259.646 511.558 258.979 511.078 258.419C510.624 257.832 510.011 257.419 509.238 257.179V264.739C511.238 265.246 512.811 265.739 513.958 266.219C515.131 266.672 516.144 267.432 516.998 268.499C517.851 269.539 518.278 270.979 518.278 272.819ZM503.558 260.499C503.558 261.379 503.824 262.099 504.358 262.659C504.891 263.192 505.664 263.632 506.678 263.979V257.059C505.718 257.192 504.958 257.552 504.398 258.139C503.838 258.726 503.558 259.512 503.558 260.499ZM509.238 276.619C510.251 276.432 511.038 276.019 511.598 275.379C512.184 274.739 512.478 273.966 512.478 273.059C512.478 272.179 512.198 271.472 511.638 270.939C511.078 270.406 510.278 269.966 509.238 269.619V276.619ZM547.69 252.939V280.859H542.09V268.979H530.13V280.859H524.53V252.939H530.13V264.419H542.09V252.939H547.69ZM566.161 281.139C563.548 281.139 561.148 280.526 558.961 279.299C556.775 278.072 555.041 276.379 553.761 274.219C552.481 272.032 551.841 269.566 551.841 266.819C551.841 264.099 552.481 261.659 553.761 259.499C555.041 257.312 556.775 255.606 558.961 254.379C561.148 253.152 563.548 252.539 566.161 252.539C568.801 252.539 571.201 253.152 573.361 254.379C575.548 255.606 577.268 257.312 578.521 259.499C579.801 261.659 580.441 264.099 580.441 266.819C580.441 269.566 579.801 272.032 578.521 274.219C577.268 276.379 575.548 278.072 573.361 279.299C571.175 280.526 568.775 281.139 566.161 281.139ZM566.161 276.139C567.841 276.139 569.321 275.766 570.601 275.019C571.881 274.246 572.881 273.152 573.601 271.739C574.321 270.326 574.681 268.686 574.681 266.819C574.681 264.952 574.321 263.326 573.601 261.939C572.881 260.526 571.881 259.446 570.601 258.699C569.321 257.952 567.841 257.579 566.161 257.579C564.481 257.579 562.988 257.952 561.681 258.699C560.401 259.446 559.401 260.526 558.681 261.939C557.961 263.326 557.601 264.952 557.601 266.819C557.601 268.686 557.961 270.326 558.681 271.739C559.401 273.152 560.401 274.246 561.681 275.019C562.988 275.766 564.481 276.139 566.161 276.139ZM608.488 280.859H602.888L590.208 261.699V280.859H584.608V252.899H590.208L602.888 272.099V252.899H608.488V280.859ZM619.622 257.459V264.459H629.022V268.899H619.622V276.299H630.222V280.859H614.022V252.899H630.222V257.459H619.622ZM657.511 252.939L648.071 271.139V280.859H642.471V271.139L632.991 252.939H639.311L645.311 265.699L651.271 252.939H657.511ZM673.112 256.059C672.125 256.059 671.298 255.752 670.632 255.139C669.992 254.499 669.672 253.712 669.672 252.779C669.672 251.846 669.992 251.072 670.632 250.459C671.298 249.819 672.125 249.499 673.112 249.499C674.098 249.499 674.912 249.819 675.552 250.459C676.218 251.072 676.552 251.846 676.552 252.779C676.552 253.712 676.218 254.499 675.552 255.139C674.912 255.752 674.098 256.059 673.112 256.059ZM675.872 258.699V280.859H670.272V258.699H675.872ZM693.685 258.379C696.325 258.379 698.458 259.219 700.085 260.899C701.711 262.552 702.525 264.872 702.525 267.859V280.859H696.925V268.619C696.925 266.859 696.485 265.512 695.605 264.579C694.725 263.619 693.525 263.139 692.005 263.139C690.458 263.139 689.231 263.619 688.325 264.579C687.445 265.512 687.005 266.859 687.005 268.619V280.859H681.405V258.699H687.005V261.459C687.751 260.499 688.698 259.752 689.845 259.219C691.018 258.659 692.298 258.379 693.685 258.379ZM100.757 323.299V334.019C100.757 334.766 100.93 335.312 101.277 335.659C101.65 335.979 102.263 336.139 103.117 336.139H105.717V340.859H102.197C97.4766 340.859 95.1166 338.566 95.1166 333.979V323.299H92.4766V318.699H95.1166V313.219H100.757V318.699H105.717V323.299H100.757ZM122.224 318.379C123.904 318.379 125.398 318.752 126.704 319.499C128.011 320.219 129.024 321.299 129.744 322.739C130.491 324.152 130.864 325.859 130.864 327.859V340.859H125.264V328.619C125.264 326.859 124.824 325.512 123.944 324.579C123.064 323.619 121.864 323.139 120.344 323.139C118.798 323.139 117.571 323.619 116.664 324.579C115.784 325.512 115.344 326.859 115.344 328.619V340.859H109.744V311.259H115.344V321.459C116.064 320.499 117.024 319.752 118.224 319.219C119.424 318.659 120.758 318.379 122.224 318.379ZM156.79 329.299C156.79 330.099 156.736 330.819 156.63 331.459H140.43C140.563 333.059 141.123 334.312 142.11 335.219C143.096 336.126 144.31 336.579 145.75 336.579C147.83 336.579 149.31 335.686 150.19 333.899H156.23C155.59 336.032 154.363 337.792 152.55 339.179C150.736 340.539 148.51 341.219 145.87 341.219C143.736 341.219 141.816 340.752 140.11 339.819C138.43 338.859 137.11 337.512 136.15 335.779C135.216 334.046 134.75 332.046 134.75 329.779C134.75 327.486 135.216 325.472 136.15 323.739C137.083 322.006 138.39 320.672 140.07 319.739C141.75 318.806 143.683 318.339 145.87 318.339C147.976 318.339 149.856 318.792 151.51 319.699C153.19 320.606 154.483 321.899 155.39 323.579C156.323 325.232 156.79 327.139 156.79 329.299ZM150.99 327.699C150.963 326.259 150.443 325.112 149.43 324.259C148.416 323.379 147.176 322.939 145.71 322.939C144.323 322.939 143.15 323.366 142.19 324.219C141.256 325.046 140.683 326.206 140.47 327.699H150.99ZM179.648 335.699L185.248 318.699H191.208L183.008 340.859H176.208L168.048 318.699H174.048L179.648 335.699ZM197.194 316.059C196.207 316.059 195.38 315.752 194.714 315.139C194.074 314.499 193.754 313.712 193.754 312.779C193.754 311.846 194.074 311.072 194.714 310.459C195.38 309.819 196.207 309.499 197.194 309.499C198.18 309.499 198.994 309.819 199.634 310.459C200.3 311.072 200.634 311.846 200.634 312.779C200.634 313.712 200.3 314.499 199.634 315.139C198.994 315.752 198.18 316.059 197.194 316.059ZM199.954 318.699V340.859H194.354V318.699H199.954ZM211.087 321.939C211.807 320.872 212.793 320.006 214.047 319.339C215.327 318.672 216.78 318.339 218.407 318.339C220.3 318.339 222.007 318.806 223.527 319.739C225.073 320.672 226.287 322.006 227.167 323.739C228.073 325.446 228.527 327.432 228.527 329.699C228.527 331.966 228.073 333.979 227.167 335.739C226.287 337.472 225.073 338.819 223.527 339.779C222.007 340.739 220.3 341.219 218.407 341.219C216.753 341.219 215.3 340.899 214.047 340.259C212.82 339.592 211.833 338.739 211.087 337.699V340.859H205.487V311.259H211.087V321.939ZM222.807 329.699C222.807 328.366 222.527 327.219 221.967 326.259C221.433 325.272 220.713 324.526 219.807 324.019C218.927 323.512 217.967 323.259 216.927 323.259C215.913 323.259 214.953 323.526 214.047 324.059C213.167 324.566 212.447 325.312 211.887 326.299C211.353 327.286 211.087 328.446 211.087 329.779C211.087 331.112 211.353 332.272 211.887 333.259C212.447 334.246 213.167 335.006 214.047 335.539C214.953 336.046 215.913 336.299 216.927 336.299C217.967 336.299 218.927 336.032 219.807 335.499C220.713 334.966 221.433 334.206 221.967 333.219C222.527 332.232 222.807 331.059 222.807 329.699ZM238.196 322.139C238.916 320.966 239.849 320.046 240.996 319.379C242.169 318.712 243.503 318.379 244.996 318.379V324.259H243.516C241.756 324.259 240.423 324.672 239.516 325.499C238.636 326.326 238.196 327.766 238.196 329.819V340.859H232.596V318.699H238.196V322.139ZM247.328 329.699C247.328 327.459 247.768 325.472 248.648 323.739C249.554 322.006 250.768 320.672 252.288 319.739C253.834 318.806 255.554 318.339 257.448 318.339C259.101 318.339 260.541 318.672 261.768 319.339C263.021 320.006 264.021 320.846 264.768 321.859V318.699H270.408V340.859H264.768V337.619C264.048 338.659 263.048 339.526 261.768 340.219C260.514 340.886 259.061 341.219 257.408 341.219C255.541 341.219 253.834 340.739 252.288 339.779C250.768 338.819 249.554 337.472 248.648 335.739C247.768 333.979 247.328 331.966 247.328 329.699ZM264.768 329.779C264.768 328.419 264.501 327.259 263.968 326.299C263.434 325.312 262.714 324.566 261.808 324.059C260.901 323.526 259.928 323.259 258.888 323.259C257.848 323.259 256.888 323.512 256.008 324.019C255.128 324.526 254.408 325.272 253.848 326.259C253.314 327.219 253.048 328.366 253.048 329.699C253.048 331.032 253.314 332.206 253.848 333.219C254.408 334.206 255.128 334.966 256.008 335.499C256.914 336.032 257.874 336.299 258.888 336.299C259.928 336.299 260.901 336.046 261.808 335.539C262.714 335.006 263.434 334.259 263.968 333.299C264.501 332.312 264.768 331.139 264.768 329.779ZM288.157 318.379C290.797 318.379 292.931 319.219 294.557 320.899C296.184 322.552 296.997 324.872 296.997 327.859V340.859H291.397V328.619C291.397 326.859 290.957 325.512 290.077 324.579C289.197 323.619 287.997 323.139 286.477 323.139C284.931 323.139 283.704 323.619 282.797 324.579C281.917 325.512 281.477 326.859 281.477 328.619V340.859H275.877V318.699H281.477V321.459C282.224 320.499 283.171 319.752 284.317 319.219C285.491 318.659 286.771 318.379 288.157 318.379ZM308.843 323.299V334.019C308.843 334.766 309.016 335.312 309.363 335.659C309.736 335.979 310.349 336.139 311.203 336.139H313.803V340.859H310.283C305.563 340.859 303.203 338.566 303.203 333.979V323.299H300.563V318.699H303.203V313.219H308.843V318.699H313.803V323.299H308.843ZM339.842 318.379C341.522 318.379 343.015 318.752 344.322 319.499C345.628 320.219 346.642 321.299 347.362 322.739C348.108 324.152 348.482 325.859 348.482 327.859V340.859H342.882V328.619C342.882 326.859 342.442 325.512 341.562 324.579C340.682 323.619 339.482 323.139 337.962 323.139C336.415 323.139 335.188 323.619 334.282 324.579C333.402 325.512 332.962 326.859 332.962 328.619V340.859H327.362V311.259H332.962V321.459C333.682 320.499 334.642 319.752 335.842 319.219C337.042 318.659 338.375 318.379 339.842 318.379ZM374.407 329.299C374.407 330.099 374.354 330.819 374.247 331.459H358.047C358.18 333.059 358.74 334.312 359.727 335.219C360.714 336.126 361.927 336.579 363.367 336.579C365.447 336.579 366.927 335.686 367.807 333.899H373.847C373.207 336.032 371.98 337.792 370.167 339.179C368.354 340.539 366.127 341.219 363.487 341.219C361.354 341.219 359.434 340.752 357.727 339.819C356.047 338.859 354.727 337.512 353.767 335.779C352.834 334.046 352.367 332.046 352.367 329.779C352.367 327.486 352.834 325.472 353.767 323.739C354.7 322.006 356.007 320.672 357.687 319.739C359.367 318.806 361.3 318.339 363.487 318.339C365.594 318.339 367.474 318.792 369.127 319.699C370.807 320.606 372.1 321.899 373.007 323.579C373.94 325.232 374.407 327.139 374.407 329.299ZM368.607 327.699C368.58 326.259 368.06 325.112 367.047 324.259C366.034 323.379 364.794 322.939 363.327 322.939C361.94 322.939 360.767 323.366 359.807 324.219C358.874 325.046 358.3 326.206 358.087 327.699H368.607ZM377.054 329.699C377.054 327.459 377.494 325.472 378.374 323.739C379.281 322.006 380.494 320.672 382.014 319.739C383.561 318.806 385.281 318.339 387.174 318.339C388.828 318.339 390.268 318.672 391.494 319.339C392.748 320.006 393.748 320.846 394.494 321.859V318.699H400.134V340.859H394.494V337.619C393.774 338.659 392.774 339.526 391.494 340.219C390.241 340.886 388.788 341.219 387.134 341.219C385.268 341.219 383.561 340.739 382.014 339.779C380.494 338.819 379.281 337.472 378.374 335.739C377.494 333.979 377.054 331.966 377.054 329.699ZM394.494 329.779C394.494 328.419 394.228 327.259 393.694 326.299C393.161 325.312 392.441 324.566 391.534 324.059C390.628 323.526 389.654 323.259 388.614 323.259C387.574 323.259 386.614 323.512 385.734 324.019C384.854 324.526 384.134 325.272 383.574 326.259C383.041 327.219 382.774 328.366 382.774 329.699C382.774 331.032 383.041 332.206 383.574 333.219C384.134 334.206 384.854 334.966 385.734 335.499C386.641 336.032 387.601 336.299 388.614 336.299C389.654 336.299 390.628 336.046 391.534 335.539C392.441 335.006 393.161 334.259 393.694 333.299C394.228 332.312 394.494 331.139 394.494 329.779ZM411.204 322.139C411.924 320.966 412.857 320.046 414.004 319.379C415.177 318.712 416.51 318.379 418.004 318.379V324.259H416.524C414.764 324.259 413.43 324.672 412.524 325.499C411.644 326.326 411.204 327.766 411.204 329.819V340.859H405.604V318.699H411.204V322.139ZM428.296 323.299V334.019C428.296 334.766 428.469 335.312 428.816 335.659C429.189 335.979 429.802 336.139 430.656 336.139H433.256V340.859H429.736C425.016 340.859 422.656 338.566 422.656 333.979V323.299H420.016V318.699H422.656V313.219H428.296V318.699H433.256V323.299H428.296ZM456.655 341.219C454.521 341.219 452.601 340.752 450.895 339.819C449.188 338.859 447.841 337.512 446.855 335.779C445.895 334.046 445.415 332.046 445.415 329.779C445.415 327.512 445.908 325.512 446.895 323.779C447.908 322.046 449.281 320.712 451.015 319.779C452.748 318.819 454.681 318.339 456.815 318.339C458.948 318.339 460.881 318.819 462.615 319.779C464.348 320.712 465.708 322.046 466.695 323.779C467.708 325.512 468.215 327.512 468.215 329.779C468.215 332.046 467.695 334.046 466.655 335.779C465.641 337.512 464.255 338.859 462.495 339.819C460.761 340.752 458.815 341.219 456.655 341.219ZM456.655 336.339C457.668 336.339 458.615 336.099 459.495 335.619C460.401 335.112 461.121 334.366 461.655 333.379C462.188 332.392 462.455 331.192 462.455 329.779C462.455 327.672 461.895 326.059 460.775 324.939C459.681 323.792 458.335 323.219 456.735 323.219C455.135 323.219 453.788 323.792 452.695 324.939C451.628 326.059 451.095 327.672 451.095 329.779C451.095 331.886 451.615 333.512 452.655 334.659C453.721 335.779 455.055 336.339 456.655 336.339ZM482.483 323.299H478.603V340.859H472.923V323.299H470.403V318.699H472.923V317.579C472.923 314.859 473.696 312.859 475.243 311.579C476.789 310.299 479.123 309.699 482.243 309.779V314.499C480.883 314.472 479.936 314.699 479.403 315.179C478.869 315.659 478.603 316.526 478.603 317.779V318.699H482.483V323.299ZM519.523 340.859H513.923L501.243 321.699V340.859H495.643V312.899H501.243L513.923 332.099V312.899H519.523V340.859ZM545.657 329.299C545.657 330.099 545.604 330.819 545.497 331.459H529.297C529.43 333.059 529.99 334.312 530.977 335.219C531.964 336.126 533.177 336.579 534.617 336.579C536.697 336.579 538.177 335.686 539.057 333.899H545.097C544.457 336.032 543.23 337.792 541.417 339.179C539.604 340.539 537.377 341.219 534.737 341.219C532.604 341.219 530.684 340.752 528.977 339.819C527.297 338.859 525.977 337.512 525.017 335.779C524.084 334.046 523.617 332.046 523.617 329.779C523.617 327.486 524.084 325.472 525.017 323.739C525.95 322.006 527.257 320.672 528.937 319.739C530.617 318.806 532.55 318.339 534.737 318.339C536.844 318.339 538.724 318.792 540.377 319.699C542.057 320.606 543.35 321.899 544.257 323.579C545.19 325.232 545.657 327.139 545.657 329.299ZM539.857 327.699C539.83 326.259 539.31 325.112 538.297 324.259C537.284 323.379 536.044 322.939 534.577 322.939C533.19 322.939 532.017 323.366 531.057 324.219C530.124 325.046 529.55 326.206 529.337 327.699H539.857ZM548.304 329.779C548.304 327.486 548.771 325.486 549.704 323.779C550.638 322.046 551.931 320.712 553.584 319.779C555.238 318.819 557.131 318.339 559.264 318.339C562.011 318.339 564.278 319.032 566.064 320.419C567.878 321.779 569.091 323.699 569.704 326.179H563.664C563.344 325.219 562.798 324.472 562.024 323.939C561.278 323.379 560.344 323.099 559.224 323.099C557.624 323.099 556.358 323.686 555.424 324.859C554.491 326.006 554.024 327.646 554.024 329.779C554.024 331.886 554.491 333.526 555.424 334.699C556.358 335.846 557.624 336.419 559.224 336.419C561.491 336.419 562.971 335.406 563.664 333.379H569.704C569.091 335.779 567.878 337.686 566.064 339.099C564.251 340.512 561.984 341.219 559.264 341.219C557.131 341.219 555.238 340.752 553.584 339.819C551.931 338.859 550.638 337.526 549.704 335.819C548.771 334.086 548.304 332.072 548.304 329.779ZM580.327 323.299V334.019C580.327 334.766 580.5 335.312 580.847 335.659C581.22 335.979 581.834 336.139 582.687 336.139H585.287V340.859H581.767C577.047 340.859 574.687 338.566 574.687 333.979V323.299H572.047V318.699H574.687V313.219H580.327V318.699H585.287V323.299H580.327ZM609.915 329.299C609.915 330.099 609.861 330.819 609.755 331.459H593.555C593.688 333.059 594.248 334.312 595.235 335.219C596.221 336.126 597.435 336.579 598.875 336.579C600.955 336.579 602.435 335.686 603.315 333.899H609.355C608.715 336.032 607.488 337.792 605.675 339.179C603.861 340.539 601.635 341.219 598.995 341.219C596.861 341.219 594.941 340.752 593.235 339.819C591.555 338.859 590.235 337.512 589.275 335.779C588.341 334.046 587.875 332.046 587.875 329.779C587.875 327.486 588.341 325.472 589.275 323.739C590.208 322.006 591.515 320.672 593.195 319.739C594.875 318.806 596.808 318.339 598.995 318.339C601.101 318.339 602.981 318.792 604.635 319.699C606.315 320.606 607.608 321.899 608.515 323.579C609.448 325.232 609.915 327.139 609.915 329.299ZM604.115 327.699C604.088 326.259 603.568 325.112 602.555 324.259C601.541 323.379 600.301 322.939 598.835 322.939C597.448 322.939 596.275 323.366 595.315 324.219C594.381 325.046 593.808 326.206 593.595 327.699H604.115ZM619.602 322.139C620.322 320.966 621.256 320.046 622.402 319.379C623.576 318.712 624.909 318.379 626.402 318.379V324.259H624.922C623.162 324.259 621.829 324.672 620.922 325.499C620.042 326.326 619.602 327.766 619.602 329.819V340.859H614.002V318.699H619.602V322.139ZM628.734 329.699C628.734 327.459 629.174 325.472 630.054 323.739C630.961 322.006 632.174 320.672 633.694 319.739C635.241 318.806 636.961 318.339 638.854 318.339C640.507 318.339 641.947 318.672 643.174 319.339C644.427 320.006 645.427 320.846 646.174 321.859V318.699H651.814V340.859H646.174V337.619C645.454 338.659 644.454 339.526 643.174 340.219C641.921 340.886 640.467 341.219 638.814 341.219C636.947 341.219 635.241 340.739 633.694 339.779C632.174 338.819 630.961 337.472 630.054 335.739C629.174 333.979 628.734 331.966 628.734 329.699ZM646.174 329.779C646.174 328.419 645.907 327.259 645.374 326.299C644.841 325.312 644.121 324.566 643.214 324.059C642.307 323.526 641.334 323.259 640.294 323.259C639.254 323.259 638.294 323.512 637.414 324.019C636.534 324.526 635.814 325.272 635.254 326.259C634.721 327.219 634.454 328.366 634.454 329.699C634.454 331.032 634.721 332.206 635.254 333.219C635.814 334.206 636.534 334.966 637.414 335.499C638.321 336.032 639.281 336.299 640.294 336.299C641.334 336.299 642.307 336.046 643.214 335.539C644.121 335.006 644.841 334.259 645.374 333.299C645.907 332.312 646.174 331.139 646.174 329.779Z" fill="white"/>
</g>
<defs>
<filter id="filter0_d_2727_410" x="0.427734" y="133.507" width="41.3398" height="46.2173" filterUnits="userSpaceOnUse" color-interpolation-filters="sRGB">
<feFlood flood-opacity="0" result="BackgroundImageFix"/>
<feColorMatrix in="SourceAlpha" type="matrix" values="0 0 0 0 0 0 0 0 0 0 0 0 0 0 0 0 0 0 127 0" result="hardAlpha"/>
<feOffset dx="2" dy="5"/>
<feGaussianBlur stdDeviation="2"/>
<feComposite in2="hardAlpha" operator="out"/>
<feColorMatrix type="matrix" values="0 0 0 0 0 0 0 0 0 0 0 0 0 0 0 0 0 0 0.47 0"/>
<feBlend mode="normal" in2="BackgroundImageFix" result="effect1_dropShadow_2727_410"/>
<feBlend mode="normal" in="SourceGraphic" in2="effect1_dropShadow_2727_410" result="shape"/>
</filter>
<filter id="filter1_d_2727_410" x="48.6035" y="135.592" width="41.3398" height="42.0684" filterUnits="userSpaceOnUse" color-interpolation-filters="sRGB">
<feFlood flood-opacity="0" result="BackgroundImageFix"/>
<feColorMatrix in="SourceAlpha" type="matrix" values="0 0 0 0 0 0 0 0 0 0 0 0 0 0 0 0 0 0 127 0" result="hardAlpha"/>
<feOffset dx="2" dy="5"/>
<feGaussianBlur stdDeviation="2"/>
<feComposite in2="hardAlpha" operator="out"/>
<feColorMatrix type="matrix" values="0 0 0 0 0 0 0 0 0 0 0 0 0 0 0 0 0 0 0.47 0"/>
<feBlend mode="normal" in2="BackgroundImageFix" result="effect1_dropShadow_2727_410"/>
<feBlend mode="normal" in="SourceGraphic" in2="effect1_dropShadow_2727_410" result="shape"/>
</filter>
<filter id="filter2_d_2727_410" x="96.7793" y="129.388" width="41.3398" height="54.4707" filterUnits="userSpaceOnUse" color-interpolation-filters="sRGB">
<feFlood flood-opacity="0" result="BackgroundImageFix"/>
<feColorMatrix in="SourceAlpha" type="matrix" values="0 0 0 0 0 0 0 0 0 0 0 0 0 0 0 0 0 0 127 0" result="hardAlpha"/>
<feOffset dx="2" dy="5"/>
<feGaussianBlur stdDeviation="2"/>
<feComposite in2="hardAlpha" operator="out"/>
<feColorMatrix type="matrix" values="0 0 0 0 0 0 0 0 0 0 0 0 0 0 0 0 0 0 0.47 0"/>
<feBlend mode="normal" in2="BackgroundImageFix" result="effect1_dropShadow_2727_410"/>
<feBlend mode="normal" in="SourceGraphic" in2="effect1_dropShadow_2727_410" result="shape"/>
</filter>
<filter id="filter3_d_2727_410" x="144.957" y="135.592" width="43.4473" height="42.0684" filterUnits="userSpaceOnUse" color-interpolation-filters="sRGB">
<feFlood flood-opacity="0" result="BackgroundImageFix"/>
<feColorMatrix in="SourceAlpha" type="matrix" values="0 0 0 0 0 0 0 0 0 0 0 0 0 0 0 0 0 0 127 0" result="hardAlpha"/>
<feOffset dx="2" dy="5"/>
<feGaussianBlur stdDeviation="2"/>
<feComposite in2="hardAlpha" operator="out"/>
<feColorMatrix type="matrix" values="0 0 0 0 0 0 0 0 0 0 0 0 0 0 0 0 0 0 0.47 0"/>
<feBlend mode="normal" in2="BackgroundImageFix" result="effect1_dropShadow_2727_410"/>
<feBlend mode="normal" in="SourceGraphic" in2="effect1_dropShadow_2727_410" result="shape"/>
</filter>
<filter id="filter4_d_2727_410" x="193.131" y="129.388" width="47.5801" height="50.3467" filterUnits="userSpaceOnUse" color-interpolation-filters="sRGB">
<feFlood flood-opacity="0" result="BackgroundImageFix"/>
<feColorMatrix in="SourceAlpha" type="matrix" values="0 0 0 0 0 0 0 0 0 0 0 0 0 0 0 0 0 0 127 0" result="hardAlpha"/>
<feOffset dx="2" dy="5"/>
<feGaussianBlur stdDeviation="2"/>
<feComposite in2="hardAlpha" operator="out"/>
<feColorMatrix type="matrix" values="0 0 0 0 0 0 0 0 0 0 0 0 0 0 0 0 0 0 0.47 0"/>
<feBlend mode="normal" in2="BackgroundImageFix" result="effect1_dropShadow_2727_410"/>
<feBlend mode="normal" in="SourceGraphic" in2="effect1_dropShadow_2727_410" result="shape"/>
</filter>
<filter id="filter5_d_2727_410" x="241.309" y="135.592" width="43.4219" height="42.0684" filterUnits="userSpaceOnUse" color-interpolation-filters="sRGB">
<feFlood flood-opacity="0" result="BackgroundImageFix"/>
<feColorMatrix in="SourceAlpha" type="matrix" values="0 0 0 0 0 0 0 0 0 0 0 0 0 0 0 0 0 0 127 0" result="hardAlpha"/>
<feOffset dx="2" dy="5"/>
<feGaussianBlur stdDeviation="2"/>
<feComposite in2="hardAlpha" operator="out"/>
<feColorMatrix type="matrix" values="0 0 0 0 0 0 0 0 0 0 0 0 0 0 0 0 0 0 0.47 0"/>
<feBlend mode="normal" in2="BackgroundImageFix" result="effect1_dropShadow_2727_410"/>
<feBlend mode="normal" in="SourceGraphic" in2="effect1_dropShadow_2727_410" result="shape"/>
</filter>
<filter id="filter6_d_2727_410" x="289.484" y="135.592" width="41.3398" height="42.0684" filterUnits="userSpaceOnUse" color-interpolation-filters="sRGB">
<feFlood flood-opacity="0" result="BackgroundImageFix"/>
<feColorMatrix in="SourceAlpha" type="matrix" values="0 0 0 0 0 0 0 0 0 0 0 0 0 0 0 0 0 0 127 0" result="hardAlpha"/>
<feOffset dx="2" dy="5"/>
<feGaussianBlur stdDeviation="2"/>
<feComposite in2="hardAlpha" operator="out"/>
<feColorMatrix type="matrix" values="0 0 0 0 0 0 0 0 0 0 0 0 0 0 0 0 0 0 0.47 0"/>
<feBlend mode="normal" in2="BackgroundImageFix" result="effect1_dropShadow_2727_410"/>
<feBlend mode="normal" in="SourceGraphic" in2="effect1_dropShadow_2727_410" result="shape"/>
</filter>
<filter id="filter7_d_2727_410" x="337.664" y="133.522" width="41.3398" height="46.2026" filterUnits="userSpaceOnUse" color-interpolation-filters="sRGB">
<feFlood flood-opacity="0" result="BackgroundImageFix"/>
<feColorMatrix in="SourceAlpha" type="matrix" values="0 0 0 0 0 0 0 0 0 0 0 0 0 0 0 0 0 0 127 0" result="hardAlpha"/>
<feOffset dx="2" dy="5"/>
<feGaussianBlur stdDeviation="2"/>
<feComposite in2="hardAlpha" operator="out"/>
<feColorMatrix type="matrix" values="0 0 0 0 0 0 0 0 0 0 0 0 0 0 0 0 0 0 0.47 0"/>
<feBlend mode="normal" in2="BackgroundImageFix" result="effect1_dropShadow_2727_410"/>
<feBlend mode="normal" in="SourceGraphic" in2="effect1_dropShadow_2727_410" result="shape"/>
</filter>
<filter id="filter8_d_2727_410" x="385.836" y="135.592" width="41.3594" height="42.0684" filterUnits="userSpaceOnUse" color-interpolation-filters="sRGB">
<feFlood flood-opacity="0" result="BackgroundImageFix"/>
<feColorMatrix in="SourceAlpha" type="matrix" values="0 0 0 0 0 0 0 0 0 0 0 0 0 0 0 0 0 0 127 0" result="hardAlpha"/>
<feOffset dx="2" dy="5"/>
<feGaussianBlur stdDeviation="2"/>
<feComposite in2="hardAlpha" operator="out"/>
<feColorMatrix type="matrix" values="0 0 0 0 0 0 0 0 0 0 0 0 0 0 0 0 0 0 0.47 0"/>
<feBlend mode="normal" in2="BackgroundImageFix" result="effect1_dropShadow_2727_410"/>
<feBlend mode="normal" in="SourceGraphic" in2="effect1_dropShadow_2727_410" result="shape"/>
</filter>
<filter id="filter9_d_2727_410" x="455.266" y="133.507" width="41.3203" height="46.2075" filterUnits="userSpaceOnUse" color-interpolation-filters="sRGB">
<feFlood flood-opacity="0" result="BackgroundImageFix"/>
<feColorMatrix in="SourceAlpha" type="matrix" values="0 0 0 0 0 0 0 0 0 0 0 0 0 0 0 0 0 0 127 0" result="hardAlpha"/>
<feOffset dx="2" dy="5"/>
<feGaussianBlur stdDeviation="2"/>
<feComposite in2="hardAlpha" operator="out"/>
<feColorMatrix type="matrix" values="0 0 0 0 0 0 0 0 0 0 0 0 0 0 0 0 0 0 0.47 0"/>
<feBlend mode="normal" in2="BackgroundImageFix" result="effect1_dropShadow_2727_410"/>
<feBlend mode="normal" in="SourceGraphic" in2="effect1_dropShadow_2727_410" result="shape"/>
</filter>
<filter id="filter10_d_2727_410" x="503.445" y="133.507" width="41.3398" height="44.1528" filterUnits="userSpaceOnUse" color-interpolation-filters="sRGB">
<feFlood flood-opacity="0" result="BackgroundImageFix"/>
<feColorMatrix in="SourceAlpha" type="matrix" values="0 0 0 0 0 0 0 0 0 0 0 0 0 0 0 0 0 0 127 0" result="hardAlpha"/>
<feOffset dx="2" dy="5"/>
<feGaussianBlur stdDeviation="2"/>
<feComposite in2="hardAlpha" operator="out"/>
<feColorMatrix type="matrix" values="0 0 0 0 0 0 0 0 0 0 0 0 0 0 0 0 0 0 0.47 0"/>
<feBlend mode="normal" in2="BackgroundImageFix" result="effect1_dropShadow_2727_410"/>
<feBlend mode="normal" in="SourceGraphic" in2="effect1_dropShadow_2727_410" result="shape"/>
</filter>
<filter id="filter11_d_2727_410" x="549.537" y="135.592" width="45.5078" height="42.0684" filterUnits="userSpaceOnUse" color-interpolation-filters="sRGB">
<feFlood flood-opacity="0" result="BackgroundImageFix"/>
<feColorMatrix in="SourceAlpha" type="matrix" values="0 0 0 0 0 0 0 0 0 0 0 0 0 0 0 0 0 0 127 0" result="hardAlpha"/>
<feOffset dx="2" dy="5"/>
<feGaussianBlur stdDeviation="2"/>
<feComposite in2="hardAlpha" operator="out"/>
<feColorMatrix type="matrix" values="0 0 0 0 0 0 0 0 0 0 0 0 0 0 0 0 0 0 0.47 0"/>
<feBlend mode="normal" in2="BackgroundImageFix" result="effect1_dropShadow_2727_410"/>
<feBlend mode="normal" in="SourceGraphic" in2="effect1_dropShadow_2727_410" result="shape"/>
</filter>
<filter id="filter12_d_2727_410" x="599.809" y="135.592" width="43.4121" height="44.1328" filterUnits="userSpaceOnUse" color-interpolation-filters="sRGB">
<feFlood flood-opacity="0" result="BackgroundImageFix"/>
<feColorMatrix in="SourceAlpha" type="matrix" values="0 0 0 0 0 0 0 0 0 0 0 0 0 0 0 0 0 0 127 0" result="hardAlpha"/>
<feOffset dx="2" dy="5"/>
<feGaussianBlur stdDeviation="2"/>
<feComposite in2="hardAlpha" operator="out"/>
<feColorMatrix type="matrix" values="0 0 0 0 0 0 0 0 0 0 0 0 0 0 0 0 0 0 0.47 0"/>
<feBlend mode="normal" in2="BackgroundImageFix" result="effect1_dropShadow_2727_410"/>
<feBlend mode="normal" in="SourceGraphic" in2="effect1_dropShadow_2727_410" result="shape"/>
</filter>
<filter id="filter13_d_2727_410" x="647.971" y="133.522" width="43.4258" height="44.1377" filterUnits="userSpaceOnUse" color-interpolation-filters="sRGB">
<feFlood flood-opacity="0" result="BackgroundImageFix"/>
<feColorMatrix in="SourceAlpha" type="matrix" values="0 0 0 0 0 0 0 0 0 0 0 0 0 0 0 0 0 0 127 0" result="hardAlpha"/>
<feOffset dx="2" dy="5"/>
<feGaussianBlur stdDeviation="2"/>
<feComposite in2="hardAlpha" operator="out"/>
<feColorMatrix type="matrix" values="0 0 0 0 0 0 0 0 0 0 0 0 0 0 0 0 0 0 0.47 0"/>
<feBlend mode="normal" in2="BackgroundImageFix" result="effect1_dropShadow_2727_410"/>
<feBlend mode="normal" in="SourceGraphic" in2="effect1_dropShadow_2727_410" result="shape"/>
</filter>
<filter id="filter14_d_2727_410" x="696.15" y="135.592" width="43.4219" height="42.0684" filterUnits="userSpaceOnUse" color-interpolation-filters="sRGB">
<feFlood flood-opacity="0" result="BackgroundImageFix"/>
<feColorMatrix in="SourceAlpha" type="matrix" values="0 0 0 0 0 0 0 0 0 0 0 0 0 0 0 0 0 0 127 0" result="hardAlpha"/>
<feOffset dx="2" dy="5"/>
<feGaussianBlur stdDeviation="2"/>
<feComposite in2="hardAlpha" operator="out"/>
<feColorMatrix type="matrix" values="0 0 0 0 0 0 0 0 0 0 0 0 0 0 0 0 0 0 0.47 0"/>
<feBlend mode="normal" in2="BackgroundImageFix" result="effect1_dropShadow_2727_410"/>
<feBlend mode="normal" in="SourceGraphic" in2="effect1_dropShadow_2727_410" result="shape"/>
</filter>
<filter id="filter15_d_2727_410" x="107.777" y="0" width="109.754" height="116.228" filterUnits="userSpaceOnUse" color-interpolation-filters="sRGB">
<feFlood flood-opacity="0" result="BackgroundImageFix"/>
<feColorMatrix in="SourceAlpha" type="matrix" values="0 0 0 0 0 0 0 0 0 0 0 0 0 0 0 0 0 0 127 0" result="hardAlpha"/>
<feOffset dx="2" dy="5"/>
<feGaussianBlur stdDeviation="2"/>
<feComposite in2="hardAlpha" operator="out"/>
<feColorMatrix type="matrix" values="0 0 0 0 0 0 0 0 0 0 0 0 0 0 0 0 0 0 0.47 0"/>
<feBlend mode="normal" in2="BackgroundImageFix" result="effect1_dropShadow_2727_410"/>
<feBlend mode="normal" in="SourceGraphic" in2="effect1_dropShadow_2727_410" result="shape"/>
</filter>
<filter id="filter16_d_2727_410" x="200.039" y="6.30176" width="147.893" height="109.936" filterUnits="userSpaceOnUse" color-interpolation-filters="sRGB">
<feFlood flood-opacity="0" result="BackgroundImageFix"/>
<feColorMatrix in="SourceAlpha" type="matrix" values="0 0 0 0 0 0 0 0 0 0 0 0 0 0 0 0 0 0 127 0" result="hardAlpha"/>
<feOffset dx="2" dy="5"/>
<feGaussianBlur stdDeviation="2"/>
<feComposite in2="hardAlpha" operator="out"/>
<feColorMatrix type="matrix" values="0 0 0 0 0 0 0 0 0 0 0 0 0 0 0 0 0 0 0.47 0"/>
<feBlend mode="normal" in2="BackgroundImageFix" result="effect1_dropShadow_2727_410"/>
<feBlend mode="normal" in="SourceGraphic" in2="effect1_dropShadow_2727_410" result="shape"/>
</filter>
<filter id="filter17_d_2727_410" x="309.135" y="6.30176" width="147.902" height="109.936" filterUnits="userSpaceOnUse" color-interpolation-filters="sRGB">
<feFlood flood-opacity="0" result="BackgroundImageFix"/>
<feColorMatrix in="SourceAlpha" type="matrix" values="0 0 0 0 0 0 0 0 0 0 0 0 0 0 0 0 0 0 127 0" result="hardAlpha"/>
<feOffset dx="2" dy="5"/>
<feGaussianBlur stdDeviation="2"/>
<feComposite in2="hardAlpha" operator="out"/>
<feColorMatrix type="matrix" values="0 0 0 0 0 0 0 0 0 0 0 0 0 0 0 0 0 0 0.47 0"/>
<feBlend mode="normal" in2="BackgroundImageFix" result="effect1_dropShadow_2727_410"/>
<feBlend mode="normal" in="SourceGraphic" in2="effect1_dropShadow_2727_410" result="shape"/>
</filter>
<filter id="filter18_d_2727_410" x="440.131" y="6.30176" width="116.109" height="128.955" filterUnits="userSpaceOnUse" color-interpolation-filters="sRGB">
<feFlood flood-opacity="0" result="BackgroundImageFix"/>
<feColorMatrix in="SourceAlpha" type="matrix" values="0 0 0 0 0 0 0 0 0 0 0 0 0 0 0 0 0 0 127 0" result="hardAlpha"/>
<feOffset dx="2" dy="5"/>
<feGaussianBlur stdDeviation="2"/>
<feComposite in2="hardAlpha" operator="out"/>
<feColorMatrix type="matrix" values="0 0 0 0 0 0 0 0 0 0 0 0 0 0 0 0 0 0 0.47 0"/>
<feBlend mode="normal" in2="BackgroundImageFix" result="effect1_dropShadow_2727_410"/>
<feBlend mode="normal" in="SourceGraphic" in2="effect1_dropShadow_2727_410" result="shape"/>
</filter>
<filter id="filter19_d_2727_410" x="551.188" y="0" width="33.4355" height="135.256" filterUnits="userSpaceOnUse" color-interpolation-filters="sRGB">
<feFlood flood-opacity="0" result="BackgroundImageFix"/>
<feColorMatrix in="SourceAlpha" type="matrix" values="0 0 0 0 0 0 0 0 0 0 0 0 0 0 0 0 0 0 127 0" result="hardAlpha"/>
<feOffset dx="2" dy="5"/>
<feGaussianBlur stdDeviation="2"/>
<feComposite in2="hardAlpha" operator="out"/>
<feColorMatrix type="matrix" values="0 0 0 0 0 0 0 0 0 0 0 0 0 0 0 0 0 0 0.47 0"/>
<feBlend mode="normal" in2="BackgroundImageFix" result="effect1_dropShadow_2727_410"/>
<feBlend mode="normal" in="SourceGraphic" in2="effect1_dropShadow_2727_410" result="shape"/>
</filter>
<filter id="filter20_d_2727_410" x="585.717" y="0" width="66.6211" height="116.228" filterUnits="userSpaceOnUse" color-interpolation-filters="sRGB">
<feFlood flood-opacity="0" result="BackgroundImageFix"/>
<feColorMatrix in="SourceAlpha" type="matrix" values="0 0 0 0 0 0 0 0 0 0 0 0 0 0 0 0 0 0 127 0" result="hardAlpha"/>
<feOffset dx="2" dy="5"/>
<feGaussianBlur stdDeviation="2"/>
<feComposite in2="hardAlpha" operator="out"/>
<feColorMatrix type="matrix" values="0 0 0 0 0 0 0 0 0 0 0 0 0 0 0 0 0 0 0.47 0"/>
<feBlend mode="normal" in2="BackgroundImageFix" result="effect1_dropShadow_2727_410"/>
<feBlend mode="normal" in="SourceGraphic" in2="effect1_dropShadow_2727_410" result="shape"/>
</filter>
<filter id="filter21_d_2727_410" x="685.574" y="82" width="64.4258" height="34.2275" filterUnits="userSpaceOnUse" color-interpolation-filters="sRGB">
<feFlood flood-opacity="0" result="BackgroundImageFix"/>
<feColorMatrix in="SourceAlpha" type="matrix" values="0 0 0 0 0 0 0 0 0 0 0 0 0 0 0 0 0 0 127 0" result="hardAlpha"/>
<feOffset dx="2" dy="5"/>
<feGaussianBlur stdDeviation="2"/>
<feComposite in2="hardAlpha" operator="out"/>
<feColorMatrix type="matrix" values="0 0 0 0 0 0 0 0 0 0 0 0 0 0 0 0 0 0 0.47 0"/>
<feBlend mode="normal" in2="BackgroundImageFix" result="effect1_dropShadow_2727_410"/>
<feBlend mode="normal" in="SourceGraphic" in2="effect1_dropShadow_2727_410" result="shape"/>
</filter>
<filter id="filter22_d_2727_410" x="649.676" y="0" width="51.3418" height="116.228" filterUnits="userSpaceOnUse" color-interpolation-filters="sRGB">
<feFlood flood-opacity="0" result="BackgroundImageFix"/>
<feColorMatrix in="SourceAlpha" type="matrix" values="0 0 0 0 0 0 0 0 0 0 0 0 0 0 0 0 0 0 127 0" result="hardAlpha"/>
<feOffset dx="2" dy="5"/>
<feGaussianBlur stdDeviation="2"/>
<feComposite in2="hardAlpha" operator="out"/>
<feColorMatrix type="matrix" values="0 0 0 0 0 0 0 0 0 0 0 0 0 0 0 0 0 0 0.47 0"/>
<feBlend mode="normal" in2="BackgroundImageFix" result="effect1_dropShadow_2727_410"/>
<feBlend mode="normal" in="SourceGraphic" in2="effect1_dropShadow_2727_410" result="shape"/>
</filter>
<filter id="filter23_d_2727_410" x="38.1582" y="6.30713" width="71.5918" height="109.921" filterUnits="userSpaceOnUse" color-interpolation-filters="sRGB">
<feFlood flood-opacity="0" result="BackgroundImageFix"/>
<feColorMatrix in="SourceAlpha" type="matrix" values="0 0 0 0 0 0 0 0 0 0 0 0 0 0 0 0 0 0 127 0" result="hardAlpha"/>
<feOffset dx="2" dy="5"/>
<feGaussianBlur stdDeviation="2"/>
<feComposite in2="hardAlpha" operator="out"/>
<feColorMatrix type="matrix" values="0 0 0 0 0 0 0 0 0 0 0 0 0 0 0 0 0 0 0.47 0"/>
<feBlend mode="normal" in2="BackgroundImageFix" result="effect1_dropShadow_2727_410"/>
<feBlend mode="normal" in="SourceGraphic" in2="effect1_dropShadow_2727_410" result="shape"/>
</filter>
<filter id="filter24_d_2727_410" x="0" y="6.30713" width="91.7188" height="109.921" filterUnits="userSpaceOnUse" color-interpolation-filters="sRGB">
<feFlood flood-opacity="0" result="BackgroundImageFix"/>
<feColorMatrix in="SourceAlpha" type="matrix" values="0 0 0 0 0 0 0 0 0 0 0 0 0 0 0 0 0 0 127 0" result="hardAlpha"/>
<feOffset dx="2" dy="5"/>
<feGaussianBlur stdDeviation="2"/>
<feComposite in2="hardAlpha" operator="out"/>
<feColorMatrix type="matrix" values="0 0 0 0 0 0 0 0 0 0 0 0 0 0 0 0 0 0 0.47 0"/>
<feBlend mode="normal" in2="BackgroundImageFix" result="effect1_dropShadow_2727_410"/>
<feBlend mode="normal" in="SourceGraphic" in2="effect1_dropShadow_2727_410" result="shape"/>
</filter>
<filter id="filter25_d_2727_410" x="41.6699" y="249.339" width="666.855" height="100.88" filterUnits="userSpaceOnUse" color-interpolation-filters="sRGB">
<feFlood flood-opacity="0" result="BackgroundImageFix"/>
<feColorMatrix in="SourceAlpha" type="matrix" values="0 0 0 0 0 0 0 0 0 0 0 0 0 0 0 0 0 0 127 0" result="hardAlpha"/>
<feOffset dx="2" dy="5"/>
<feGaussianBlur stdDeviation="2"/>
<feComposite in2="hardAlpha" operator="out"/>
<feColorMatrix type="matrix" values="0 0 0 0 0 0 0 0 0 0 0 0 0 0 0 0 0 0 0.47 0"/>
<feBlend mode="normal" in2="BackgroundImageFix" result="effect1_dropShadow_2727_410"/>
<feBlend mode="normal" in="SourceGraphic" in2="effect1_dropShadow_2727_410" result="shape"/>
</filter>
</defs>
</svg>
