<svg width="322" height="286" viewBox="0 0 322 286" fill="none" xmlns="http://www.w3.org/2000/svg">
<g filter="url(#filter0_f_821477_244)">
<mask id="path-1-inside-1_821477_244" fill="white">
<path fill-rule="evenodd" clip-rule="evenodd" d="M229 260.556L297 142.778L229 25H93L25 142.778L93 260.556H229ZM213 232.844L265 142.778L213 52.7125H109L57.0001 142.778L109 232.844H213Z"/>
</mask>
<path fill-rule="evenodd" clip-rule="evenodd" d="M229 260.556L297 142.778L229 25H93L25 142.778L93 260.556H229ZM213 232.844L265 142.778L213 52.7125H109L57.0001 142.778L109 232.844H213Z" fill="#FFCC4A"/>
<path d="M297 142.778L297.433 143.028L297.577 142.778L297.433 142.528L297 142.778ZM229 260.556V261.056H229.289L229.433 260.806L229 260.556ZM229 25L229.433 24.75L229.289 24.5H229V25ZM93 25V24.5H92.7113L92.567 24.75L93 25ZM25 142.778L24.567 142.528L24.4226 142.778L24.567 143.028L25 142.778ZM93 260.556L92.567 260.806L92.7113 261.056H93V260.556ZM265 142.778L265.433 143.028L265.577 142.778L265.433 142.528L265 142.778ZM213 232.844V233.344H213.289L213.433 233.094L213 232.844ZM213 52.7125L213.433 52.4625L213.289 52.2125H213V52.7125ZM109 52.7125V52.2125H108.711L108.567 52.4625L109 52.7125ZM57.0001 142.778L56.5671 142.528L56.4228 142.778L56.5671 143.028L57.0001 142.778ZM109 232.844L108.567 233.094L108.711 233.344H109V232.844ZM296.567 142.528L228.567 260.306L229.433 260.806L297.433 143.028L296.567 142.528ZM228.567 25.25L296.567 143.028L297.433 142.528L229.433 24.75L228.567 25.25ZM93 25.5H229V24.5H93V25.5ZM25.433 143.028L93.433 25.25L92.567 24.75L24.567 142.528L25.433 143.028ZM93.433 260.306L25.433 142.528L24.567 143.028L92.567 260.806L93.433 260.306ZM229 260.056H93V261.056H229V260.056ZM264.567 142.528L212.567 232.594L213.433 233.094L265.433 143.028L264.567 142.528ZM212.567 52.9625L264.567 143.028L265.433 142.528L213.433 52.4625L212.567 52.9625ZM109 53.2125H213V52.2125H109V53.2125ZM57.4331 143.028L109.433 52.9625L108.567 52.4625L56.5671 142.528L57.4331 143.028ZM109.433 232.594L57.4331 142.528L56.5671 143.028L108.567 233.094L109.433 232.594ZM213 232.344H109V233.344H213V232.344Z" fill="black" mask="url(#path-1-inside-1_821477_244)"/>
</g>
<g filter="url(#filter1_f_821477_244)">
<path d="M227 142.498L193.75 200.088H127.25L94.0002 142.498L127.25 84.9084H193.75L227 142.498Z" fill="#FFCC4A"/>
</g>
<g filter="url(#filter2_f_821477_244)">
<path fill-rule="evenodd" clip-rule="evenodd" d="M223.25 251.37L286 142.685L223.25 34H97.75L35 142.685L97.75 251.37H223.25ZM208.485 225.797L256.471 142.685L208.485 59.5729H112.515L64.5295 142.685L112.515 225.797H208.485Z" fill="#FFCC4A"/>
</g>
<mask id="path-5-outside-2_821477_244" maskUnits="userSpaceOnUse" x="39.634" y="38.4537" width="242" height="209" fill="black">
<rect fill="white" x="39.634" y="38.4537" width="242" height="209"/>
<path fill-rule="evenodd" clip-rule="evenodd" d="M220.249 245.698L279.788 142.576L220.249 39.4537H101.172L41.634 142.576L101.172 245.698H220.249ZM206.241 221.434L251.77 142.576L206.241 63.7178H115.182L69.653 142.576L115.182 221.434H206.241Z"/>
</mask>
<path fill-rule="evenodd" clip-rule="evenodd" d="M220.249 245.698L279.788 142.576L220.249 39.4537H101.172L41.634 142.576L101.172 245.698H220.249ZM206.241 221.434L251.77 142.576L206.241 63.7178H115.182L69.653 142.576L115.182 221.434H206.241Z" fill="white"/>
<path d="M279.788 142.576L280.654 143.076L280.942 142.576L280.654 142.076L279.788 142.576ZM220.249 245.698V246.698H220.827L221.115 246.198L220.249 245.698ZM220.249 39.4537L221.115 38.9537L220.827 38.4537H220.249V39.4537ZM101.172 39.4537V38.4537H100.595L100.306 38.9537L101.172 39.4537ZM41.634 142.576L40.768 142.076L40.4793 142.576L40.768 143.076L41.634 142.576ZM101.172 245.698L100.306 246.198L100.595 246.698H101.172V245.698ZM251.77 142.576L252.636 143.076L252.925 142.576L252.636 142.076L251.77 142.576ZM206.241 221.434V222.434H206.818L207.107 221.934L206.241 221.434ZM206.241 63.7178L207.107 63.2178L206.818 62.7178H206.241V63.7178ZM115.182 63.7178V62.7178H114.605L114.316 63.2178L115.182 63.7178ZM69.653 142.576L68.787 142.076L68.4983 142.576L68.787 143.076L69.653 142.576ZM115.182 221.434L114.316 221.934L114.605 222.434H115.182V221.434ZM278.922 142.076L219.383 245.198L221.115 246.198L280.654 143.076L278.922 142.076ZM219.383 39.9537L278.922 143.076L280.654 142.076L221.115 38.9537L219.383 39.9537ZM101.172 40.4537H220.249V38.4537H101.172V40.4537ZM42.5001 143.076L102.038 39.9537L100.306 38.9537L40.768 142.076L42.5001 143.076ZM102.038 245.198L42.5001 142.076L40.768 143.076L100.306 246.198L102.038 245.198ZM220.249 244.698H101.172V246.698H220.249V244.698ZM250.904 142.076L205.375 220.934L207.107 221.934L252.636 143.076L250.904 142.076ZM205.375 64.2178L250.904 143.076L252.636 142.076L207.107 63.2178L205.375 64.2178ZM115.182 64.7178H206.241V62.7178H115.182V64.7178ZM70.5191 143.076L116.048 64.2178L114.316 63.2178L68.787 142.076L70.5191 143.076ZM116.048 220.934L70.5191 142.076L68.787 143.076L114.316 221.934L116.048 220.934ZM206.241 220.434H115.182V222.434H206.241V220.434Z" fill="#E9B743" mask="url(#path-5-outside-2_821477_244)"/>
<path d="M223.394 142.18L223.538 141.93L223.394 141.68L191.846 87.0371L191.701 86.7871H191.413H128.316H128.028L127.883 87.0371L96.335 141.68L96.1907 141.93L96.335 142.18L127.883 196.822L128.028 197.072H128.316H191.413H191.701L191.846 196.822L223.394 142.18Z" fill="white" stroke="#E9B743"/>
<defs>
<filter id="filter0_f_821477_244" x="0" y="0" width="322" height="285.556" filterUnits="userSpaceOnUse" color-interpolation-filters="sRGB">
<feFlood flood-opacity="0" result="BackgroundImageFix"/>
<feBlend mode="normal" in="SourceGraphic" in2="BackgroundImageFix" result="shape"/>
<feGaussianBlur stdDeviation="12.5" result="effect1_foregroundBlur_821477_244"/>
</filter>
<filter id="filter1_f_821477_244" x="84.0002" y="74.9083" width="153" height="135.18" filterUnits="userSpaceOnUse" color-interpolation-filters="sRGB">
<feFlood flood-opacity="0" result="BackgroundImageFix"/>
<feBlend mode="normal" in="SourceGraphic" in2="BackgroundImageFix" result="shape"/>
<feGaussianBlur stdDeviation="5" result="effect1_foregroundBlur_821477_244"/>
</filter>
<filter id="filter2_f_821477_244" x="20" y="19" width="281" height="247.37" filterUnits="userSpaceOnUse" color-interpolation-filters="sRGB">
<feFlood flood-opacity="0" result="BackgroundImageFix"/>
<feBlend mode="normal" in="SourceGraphic" in2="BackgroundImageFix" result="shape"/>
<feGaussianBlur stdDeviation="7.5" result="effect1_foregroundBlur_821477_244"/>
</filter>
</defs>
</svg>
