<svg width="104" height="104" viewBox="0 0 104 104" fill="none" xmlns="http://www.w3.org/2000/svg">
<g filter="url(#filter0_i_821621_683)">
<path d="M84.5283 80.9645C90.8676 73.8536 94.9089 64.6474 95.4862 54.5146" stroke="url(#paint0_linear_821621_683)" stroke-width="2" stroke-miterlimit="10"/>
<path d="M23.0352 84.5283C30.1489 90.8676 39.3495 94.9089 49.4822 95.4862" stroke="url(#paint1_linear_821621_683)" stroke-width="2" stroke-miterlimit="10"/>
<path d="M8.51465 49.4822C9.09197 39.3495 13.1332 30.1461 19.4725 23.0352" stroke="url(#paint2_linear_821621_683)" stroke-width="2" stroke-miterlimit="10"/>
<path d="M54.5195 8.51465C64.6523 9.09197 73.8528 13.1332 80.9666 19.4725" stroke="url(#paint3_linear_821621_683)" stroke-width="2" stroke-miterlimit="10"/>
<path d="M49.4813 8.51855C39.3486 9.09306 30.1509 13.1343 23.0371 19.4736" stroke="url(#paint4_linear_821621_683)" stroke-width="2" stroke-miterlimit="10"/>
<path d="M8.51465 54.5195C9.09197 64.6523 13.1332 73.8556 19.4725 80.9666" stroke="url(#paint5_linear_821621_683)" stroke-width="2" stroke-miterlimit="10"/>
<path d="M54.5195 95.4862C64.6523 94.9089 73.8528 90.8676 80.9666 84.5283" stroke="url(#paint6_linear_821621_683)" stroke-width="2" stroke-miterlimit="10"/>
<path d="M84.5283 23.0352C90.8676 30.1461 94.9089 39.3523 95.4862 49.485" stroke="url(#paint7_linear_821621_683)" stroke-width="2" stroke-miterlimit="10"/>
<path d="M19.4707 52.0009L15.251 47.7812L11.0313 52.0009L15.251 56.2206L19.4707 52.0009Z" stroke="url(#paint8_linear_821621_683)" stroke-width="2" stroke-miterlimit="10"/>
<path d="M88.7491 56.2226L92.9688 52.0029L88.7491 47.7832L84.5294 52.0029L88.7491 56.2226Z" stroke="url(#paint9_linear_821621_683)" stroke-width="2" stroke-miterlimit="10"/>
<path d="M52 19.4746L56.2197 15.2549L52 11.0352L47.7803 15.2549L52 19.4746Z" stroke="url(#paint10_linear_821621_683)" stroke-width="2" stroke-miterlimit="10"/>
<path d="M47.7832 88.7491L52.0029 92.9688L56.2226 88.7491L52.0029 84.5294L47.7832 88.7491Z" stroke="url(#paint11_linear_821621_683)" stroke-width="2" stroke-miterlimit="10"/>
<path d="M84.5272 84.5272V76.3124C88.5037 71.001 91.2073 64.6814 92.193 57.807L98 52L92.193 46.193C91.2073 39.3186 88.5037 32.999 84.5272 27.6876V19.4728H76.3124C71.001 15.4963 64.6814 12.7927 57.807 11.807L52 6L46.193 11.807C39.3186 12.7927 32.999 15.4963 27.6876 19.4728H19.4728V27.6876C15.4963 32.999 12.7927 39.3186 11.807 46.193L6 52L11.807 57.807C12.7927 64.6814 15.4963 71.001 19.4728 76.3124V84.5272H27.6876C32.999 88.5037 39.3186 91.2073 46.193 92.193L52 98L57.807 92.193C64.6814 91.2073 71.001 88.5037 76.3124 84.5272H84.5272Z" stroke="url(#paint12_linear_821621_683)" stroke-width="8" stroke-miterlimit="10"/>
</g>
<defs>
<filter id="filter0_i_821621_683" x="0.342773" y="0.342773" width="107.314" height="107.314" filterUnits="userSpaceOnUse" color-interpolation-filters="sRGB">
<feFlood flood-opacity="0" result="BackgroundImageFix"/>
<feBlend mode="normal" in="SourceGraphic" in2="BackgroundImageFix" result="shape"/>
<feColorMatrix in="SourceAlpha" type="matrix" values="0 0 0 0 0 0 0 0 0 0 0 0 0 0 0 0 0 0 127 0" result="hardAlpha"/>
<feOffset dx="4" dy="4"/>
<feGaussianBlur stdDeviation="8.5"/>
<feComposite in2="hardAlpha" operator="arithmetic" k2="-1" k3="1"/>
<feColorMatrix type="matrix" values="0 0 0 0 0 0 0 0 0 0 0 0 0 0 0 0 0 0 0.25 0"/>
<feBlend mode="normal" in2="shape" result="effect1_innerShadow_821621_683"/>
</filter>
<linearGradient id="paint0_linear_821621_683" x1="90.0073" y1="80.9626" x2="90.0073" y2="54.5146" gradientUnits="userSpaceOnUse">
<stop offset="0.065" stop-color="#68341B"/>
<stop offset="0.77" stop-color="#E9B743"/>
<stop offset="0.98" stop-color="#E9B743"/>
</linearGradient>
<linearGradient id="paint1_linear_821621_683" x1="36.2587" y1="95.4854" x2="36.2587" y2="84.5283" gradientUnits="userSpaceOnUse">
<stop offset="0.065" stop-color="#68341B"/>
<stop offset="0.77" stop-color="#E9B743"/>
<stop offset="0.98" stop-color="#E9B743"/>
</linearGradient>
<linearGradient id="paint2_linear_821621_683" x1="13.9936" y1="49.4803" x2="13.9936" y2="23.0352" gradientUnits="userSpaceOnUse">
<stop offset="0.065" stop-color="#68341B"/>
<stop offset="0.77" stop-color="#E9B743"/>
<stop offset="0.98" stop-color="#E9B743"/>
</linearGradient>
<linearGradient id="paint3_linear_821621_683" x1="67.7431" y1="19.4717" x2="67.7431" y2="8.51465" gradientUnits="userSpaceOnUse">
<stop offset="0.065" stop-color="#68341B"/>
<stop offset="0.77" stop-color="#E9B743"/>
<stop offset="0.98" stop-color="#E9B743"/>
</linearGradient>
<linearGradient id="paint4_linear_821621_683" x1="36.2592" y1="19.4728" x2="36.2592" y2="8.51855" gradientUnits="userSpaceOnUse">
<stop offset="0.065" stop-color="#68341B"/>
<stop offset="0.77" stop-color="#E9B743"/>
<stop offset="0.98" stop-color="#E9B743"/>
</linearGradient>
<linearGradient id="paint5_linear_821621_683" x1="13.9936" y1="80.9647" x2="13.9936" y2="54.5195" gradientUnits="userSpaceOnUse">
<stop offset="0.065" stop-color="#68341B"/>
<stop offset="0.77" stop-color="#E9B743"/>
<stop offset="0.98" stop-color="#E9B743"/>
</linearGradient>
<linearGradient id="paint6_linear_821621_683" x1="67.7431" y1="95.4854" x2="67.7431" y2="84.5283" gradientUnits="userSpaceOnUse">
<stop offset="0.065" stop-color="#68341B"/>
<stop offset="0.77" stop-color="#E9B743"/>
<stop offset="0.98" stop-color="#E9B743"/>
</linearGradient>
<linearGradient id="paint7_linear_821621_683" x1="90.0073" y1="49.4831" x2="90.0073" y2="23.0352" gradientUnits="userSpaceOnUse">
<stop offset="0.065" stop-color="#68341B"/>
<stop offset="0.77" stop-color="#E9B743"/>
<stop offset="0.98" stop-color="#E9B743"/>
</linearGradient>
<linearGradient id="paint8_linear_821621_683" x1="13.1414" y1="54.1105" x2="17.3608" y2="49.8911" gradientUnits="userSpaceOnUse">
<stop offset="0.065" stop-color="#68341B"/>
<stop offset="0.77" stop-color="#E9B743"/>
<stop offset="0.98" stop-color="#E9B743"/>
</linearGradient>
<linearGradient id="paint9_linear_821621_683" x1="86.6395" y1="49.8934" x2="90.8589" y2="54.1128" gradientUnits="userSpaceOnUse">
<stop offset="0.065" stop-color="#68341B"/>
<stop offset="0.77" stop-color="#E9B743"/>
<stop offset="0.98" stop-color="#E9B743"/>
</linearGradient>
<linearGradient id="paint10_linear_821621_683" x1="49.8905" y1="13.1453" x2="54.1099" y2="17.3647" gradientUnits="userSpaceOnUse">
<stop offset="0.065" stop-color="#68341B"/>
<stop offset="0.77" stop-color="#E9B743"/>
<stop offset="0.98" stop-color="#E9B743"/>
</linearGradient>
<linearGradient id="paint11_linear_821621_683" x1="54.1125" y1="86.6395" x2="49.8931" y2="90.8589" gradientUnits="userSpaceOnUse">
<stop offset="0.065" stop-color="#68341B"/>
<stop offset="0.77" stop-color="#E9B743"/>
<stop offset="0.98" stop-color="#E9B743"/>
</linearGradient>
<linearGradient id="paint12_linear_821621_683" x1="52" y1="97.9934" x2="52" y2="6" gradientUnits="userSpaceOnUse">
<stop offset="0.065" stop-color="#68341B"/>
<stop offset="0.77" stop-color="#E9B743"/>
<stop offset="0.98" stop-color="#E9B743"/>
</linearGradient>
</defs>
</svg>
