<svg width="281" height="248" viewBox="0 0 281 248" fill="none" xmlns="http://www.w3.org/2000/svg">
<g filter="url(#filter0_f_821477_481)">
<path d="M207 123.498L173.75 181.088H107.25L74 123.498L107.25 65.9084H173.75L207 123.498Z" fill="#FFCC4A"/>
<path d="M173.606 66.1584L206.711 123.498L173.606 180.838H107.394L74.2887 123.498L107.394 66.1584H173.606Z" stroke="black" stroke-width="0.5"/>
</g>
<g filter="url(#filter1_f_821477_481)">
<mask id="path-3-inside-1_821477_481" fill="white">
<path fill-rule="evenodd" clip-rule="evenodd" d="M203.25 232.37L266 123.685L203.25 15H77.75L15 123.685L77.75 232.37H203.25ZM188.485 206.797L236.471 123.685L188.485 40.5729H92.5148L44.5295 123.685L92.5148 206.797H188.485Z"/>
</mask>
<path fill-rule="evenodd" clip-rule="evenodd" d="M203.25 232.37L266 123.685L203.25 15H77.75L15 123.685L77.75 232.37H203.25ZM188.485 206.797L236.471 123.685L188.485 40.5729H92.5148L44.5295 123.685L92.5148 206.797H188.485Z" fill="#FFCC4A"/>
<path d="M266 123.685L266.433 123.935L266.577 123.685L266.433 123.435L266 123.685ZM203.25 232.37V232.87H203.539L203.683 232.62L203.25 232.37ZM203.25 15L203.683 14.75L203.539 14.5H203.25V15ZM77.75 15V14.5H77.4613L77.317 14.75L77.75 15ZM15 123.685L14.567 123.435L14.4226 123.685L14.567 123.935L15 123.685ZM77.75 232.37L77.317 232.62L77.4613 232.87H77.75V232.37ZM236.471 123.685L236.904 123.935L237.048 123.685L236.904 123.435L236.471 123.685ZM188.485 206.797V207.297H188.774L188.918 207.047L188.485 206.797ZM188.485 40.5729L188.918 40.3229L188.774 40.0729H188.485V40.5729ZM92.5148 40.5729V40.0729H92.2261L92.0818 40.3229L92.5148 40.5729ZM44.5295 123.685L44.0965 123.435L43.9521 123.685L44.0965 123.935L44.5295 123.685ZM92.5148 206.797L92.0818 207.047L92.2261 207.297H92.5148V206.797ZM265.567 123.435L202.817 232.12L203.683 232.62L266.433 123.935L265.567 123.435ZM202.817 15.25L265.567 123.935L266.433 123.435L203.683 14.75L202.817 15.25ZM77.75 15.5H203.25V14.5H77.75V15.5ZM15.433 123.935L78.183 15.25L77.317 14.75L14.567 123.435L15.433 123.935ZM78.183 232.12L15.433 123.435L14.567 123.935L77.317 232.62L78.183 232.12ZM203.25 231.87H77.75V232.87H203.25V231.87ZM236.038 123.435L188.052 206.547L188.918 207.047L236.904 123.935L236.038 123.435ZM188.052 40.8229L236.038 123.935L236.904 123.435L188.918 40.3229L188.052 40.8229ZM92.5148 41.0729H188.485V40.0729H92.5148V41.0729ZM44.9625 123.935L92.9478 40.8229L92.0818 40.3229L44.0965 123.435L44.9625 123.935ZM92.9478 206.547L44.9625 123.435L44.0965 123.935L92.0818 207.047L92.9478 206.547ZM188.485 206.297H92.5148V207.297H188.485V206.297Z" fill="black" mask="url(#path-3-inside-1_821477_481)"/>
</g>
<g filter="url(#filter2_i_821477_481)">
<mask id="path-5-inside-2_821477_481" fill="white">
<path fill-rule="evenodd" clip-rule="evenodd" d="M200.615 227.245L260.154 124.122L200.615 21H81.5384L22 124.122L81.5384 227.245H200.615ZM186.607 202.981L232.136 124.122L186.607 45.264H95.5484L50.019 124.122L95.5484 202.981H186.607Z"/>
</mask>
<g filter="url(#filter3_i_821477_481)">
<path fill-rule="evenodd" clip-rule="evenodd" d="M200.615 227.245L260.154 124.122L200.615 21H81.5384L22 124.122L81.5384 227.245H200.615ZM186.607 202.981L232.136 124.122L186.607 45.264H95.5484L50.019 124.122L95.5484 202.981H186.607Z" fill="white"/>
</g>
<path d="M260.154 124.122L260.37 124.247L260.442 124.122L260.37 123.997L260.154 124.122ZM200.615 227.245V227.495H200.759L200.832 227.37L200.615 227.245ZM200.615 21L200.832 20.875L200.759 20.75H200.615V21ZM81.5384 21V20.75H81.3941L81.3219 20.875L81.5384 21ZM22 124.122L21.7835 123.997L21.7113 124.122L21.7835 124.247L22 124.122ZM81.5384 227.245L81.3219 227.37L81.3941 227.495H81.5384V227.245ZM232.136 124.122L232.353 124.247L232.425 124.122L232.353 123.997L232.136 124.122ZM186.607 202.981V203.231H186.751L186.824 203.106L186.607 202.981ZM186.607 45.264L186.824 45.139L186.751 45.014H186.607V45.264ZM95.5484 45.264V45.014H95.404L95.3319 45.139L95.5484 45.264ZM50.019 124.122L49.8025 123.997L49.7303 124.122L49.8025 124.247L50.019 124.122ZM95.5484 202.981L95.3319 203.106L95.404 203.231H95.5484V202.981ZM259.937 123.997L200.399 227.12L200.832 227.37L260.37 124.247L259.937 123.997ZM200.399 21.125L259.937 124.247L260.37 123.997L200.832 20.875L200.399 21.125ZM81.5384 21.25H200.615V20.75H81.5384V21.25ZM22.2165 124.247L81.7549 21.125L81.3219 20.875L21.7835 123.997L22.2165 124.247ZM81.7549 227.12L22.2165 123.997L21.7835 124.247L81.3219 227.37L81.7549 227.12ZM200.615 226.995H81.5384V227.495H200.615V226.995ZM231.92 123.997L186.391 202.856L186.824 203.106L232.353 124.247L231.92 123.997ZM186.391 45.389L231.92 124.247L232.353 123.997L186.824 45.139L186.391 45.389ZM95.5484 45.514H186.607V45.014H95.5484V45.514ZM50.2355 124.247L95.7649 45.389L95.3319 45.139L49.8025 123.997L50.2355 124.247ZM95.7649 202.856L50.2355 123.997L49.8025 124.247L95.3319 203.106L95.7649 202.856ZM186.607 202.731H95.5484V203.231H186.607V202.731Z" fill="black" mask="url(#path-5-inside-2_821477_481)"/>
<g filter="url(#filter4_i_821477_481)">
<path d="M204.193 125.096L172.645 179.738H109.549L78.0005 125.096L109.549 70.4532H172.645L204.193 125.096Z" fill="white"/>
</g>
<path d="M172.573 70.5782L204.049 125.096L172.573 179.613H109.621L78.1448 125.096L109.621 70.5782H172.573Z" stroke="black" stroke-width="0.25"/>
</g>
<defs>
<filter id="filter0_f_821477_481" x="64" y="55.9084" width="153" height="135.18" filterUnits="userSpaceOnUse" color-interpolation-filters="sRGB">
<feFlood flood-opacity="0" result="BackgroundImageFix"/>
<feBlend mode="normal" in="SourceGraphic" in2="BackgroundImageFix" result="shape"/>
<feGaussianBlur stdDeviation="5" result="effect1_foregroundBlur_821477_481"/>
</filter>
<filter id="filter1_f_821477_481" x="0" y="0" width="281" height="247.37" filterUnits="userSpaceOnUse" color-interpolation-filters="sRGB">
<feFlood flood-opacity="0" result="BackgroundImageFix"/>
<feBlend mode="normal" in="SourceGraphic" in2="BackgroundImageFix" result="shape"/>
<feGaussianBlur stdDeviation="7.5" result="effect1_foregroundBlur_821477_481"/>
</filter>
<filter id="filter2_i_821477_481" x="22" y="21" width="238.154" height="206.245" filterUnits="userSpaceOnUse" color-interpolation-filters="sRGB">
<feFlood flood-opacity="0" result="BackgroundImageFix"/>
<feBlend mode="normal" in="SourceGraphic" in2="BackgroundImageFix" result="shape"/>
<feColorMatrix in="SourceAlpha" type="matrix" values="0 0 0 0 0 0 0 0 0 0 0 0 0 0 0 0 0 0 127 0" result="hardAlpha"/>
<feOffset/>
<feGaussianBlur stdDeviation="5"/>
<feComposite in2="hardAlpha" operator="arithmetic" k2="-1" k3="1"/>
<feColorMatrix type="matrix" values="0 0 0 0 0 0 0 0 0 0 0 0 0 0 0 0 0 0 0.25 0"/>
<feBlend mode="normal" in2="shape" result="effect1_innerShadow_821477_481"/>
</filter>
<filter id="filter3_i_821477_481" x="22" y="21" width="238.154" height="206.245" filterUnits="userSpaceOnUse" color-interpolation-filters="sRGB">
<feFlood flood-opacity="0" result="BackgroundImageFix"/>
<feBlend mode="normal" in="SourceGraphic" in2="BackgroundImageFix" result="shape"/>
<feColorMatrix in="SourceAlpha" type="matrix" values="0 0 0 0 0 0 0 0 0 0 0 0 0 0 0 0 0 0 127 0" result="hardAlpha"/>
<feOffset/>
<feGaussianBlur stdDeviation="7.5"/>
<feComposite in2="hardAlpha" operator="arithmetic" k2="-1" k3="1"/>
<feColorMatrix type="matrix" values="0 0 0 0 0 0 0 0 0 0 0 0 0 0 0 0 0 0 0.25 0"/>
<feBlend mode="normal" in2="shape" result="effect1_innerShadow_821477_481"/>
</filter>
<filter id="filter4_i_821477_481" x="78" y="70.4532" width="126.193" height="109.285" filterUnits="userSpaceOnUse" color-interpolation-filters="sRGB">
<feFlood flood-opacity="0" result="BackgroundImageFix"/>
<feBlend mode="normal" in="SourceGraphic" in2="BackgroundImageFix" result="shape"/>
<feColorMatrix in="SourceAlpha" type="matrix" values="0 0 0 0 0 0 0 0 0 0 0 0 0 0 0 0 0 0 127 0" result="hardAlpha"/>
<feOffset/>
<feGaussianBlur stdDeviation="7.5"/>
<feComposite in2="hardAlpha" operator="arithmetic" k2="-1" k3="1"/>
<feColorMatrix type="matrix" values="0 0 0 0 0 0 0 0 0 0 0 0 0 0 0 0 0 0 0.25 0"/>
<feBlend mode="normal" in2="shape" result="effect1_innerShadow_821477_481"/>
</filter>
</defs>
</svg>
