<svg width="279" height="278" viewBox="0 0 279 278" fill="none" xmlns="http://www.w3.org/2000/svg">
<g filter="url(#filter0_f_821594_580)">
<path d="M254.842 152.935C254.842 210.133 215.898 221.629 139.616 253.946C52.2125 208.242 24 215.002 24 140.765C24.0012 58.0097 46.7361 66.5293 139.616 24C220.766 55.5763 247.54 50.8487 254.842 152.935Z" fill="white" fill-opacity="0.61"/>
</g>
<g filter="url(#filter1_f_821594_580)">
<path fill-rule="evenodd" clip-rule="evenodd" d="M41.8036 189.151L140.699 240.144L239.594 189.151L239.594 87.1642L140.699 36.1709L41.8036 87.1641L41.8036 189.151ZM63.6049 178.091L140.555 217.828L217.504 178.091L217.504 98.6157L140.555 58.8783L63.6049 98.6157L63.6049 178.091Z" fill="#E9B743"/>
</g>
<g filter="url(#filter2_f_821594_580)">
<path d="M206.341 171.615L140.003 206.716L74.039 172.955L74.4128 104.092L140.75 68.9908L206.714 102.752L206.341 171.615Z" fill="#E9B743"/>
<path d="M206.341 171.615L140.003 206.716L74.039 172.955L74.4128 104.092L140.75 68.9908L206.714 102.752L206.341 171.615Z" fill="black" fill-opacity="0.2"/>
<path d="M206.341 171.615L140.003 206.716L74.039 172.955L74.4128 104.092L140.75 68.9908L206.714 102.752L206.341 171.615Z" stroke="#E9B743" stroke-miterlimit="10"/>
</g>
<g filter="url(#filter3_d_821594_580)">
<g filter="url(#filter4_d_821594_580)">
<path fill-rule="evenodd" clip-rule="evenodd" d="M39.8202 189.151L138.715 240.144L237.61 189.151L237.61 87.1642L138.715 36.1709L39.8202 87.1641L39.8202 189.151ZM55.8434 180.828L138.759 223.496L221.674 180.828L221.674 95.4924L138.759 52.8245L55.8434 95.4924L55.8434 180.828Z" fill="url(#paint0_linear_821594_580)"/>
</g>
<path d="M202.317 173.498L138.692 207.164L75.4253 174.783L75.7838 108.736L139.409 75.0704L202.675 107.451L202.317 173.498Z" fill="url(#paint1_diamond_821594_580)" fill-opacity="0.75" stroke="url(#paint2_linear_821594_580)" stroke-width="3" stroke-miterlimit="10"/>
</g>
<defs>
<filter id="filter0_f_821594_580" x="0" y="0" width="278.842" height="277.945" filterUnits="userSpaceOnUse" color-interpolation-filters="sRGB">
<feFlood flood-opacity="0" result="BackgroundImageFix"/>
<feBlend mode="normal" in="SourceGraphic" in2="BackgroundImageFix" result="shape"/>
<feGaussianBlur stdDeviation="12" result="effect1_foregroundBlur_821594_580"/>
</filter>
<filter id="filter1_f_821594_580" x="26.8037" y="21.1709" width="227.79" height="233.973" filterUnits="userSpaceOnUse" color-interpolation-filters="sRGB">
<feFlood flood-opacity="0" result="BackgroundImageFix"/>
<feBlend mode="normal" in="SourceGraphic" in2="BackgroundImageFix" result="shape"/>
<feGaussianBlur stdDeviation="7.5" result="effect1_foregroundBlur_821594_580"/>
</filter>
<filter id="filter2_f_821594_580" x="58.5166" y="53.4414" width="163.72" height="168.825" filterUnits="userSpaceOnUse" color-interpolation-filters="sRGB">
<feFlood flood-opacity="0" result="BackgroundImageFix"/>
<feBlend mode="normal" in="SourceGraphic" in2="BackgroundImageFix" result="shape"/>
<feGaussianBlur stdDeviation="7.5" result="effect1_foregroundBlur_821594_580"/>
</filter>
<filter id="filter3_d_821594_580" x="35.8203" y="36.1709" width="205.79" height="211.973" filterUnits="userSpaceOnUse" color-interpolation-filters="sRGB">
<feFlood flood-opacity="0" result="BackgroundImageFix"/>
<feColorMatrix in="SourceAlpha" type="matrix" values="0 0 0 0 0 0 0 0 0 0 0 0 0 0 0 0 0 0 127 0" result="hardAlpha"/>
<feOffset dy="4"/>
<feGaussianBlur stdDeviation="2"/>
<feComposite in2="hardAlpha" operator="out"/>
<feColorMatrix type="matrix" values="0 0 0 0 0 0 0 0 0 0 0 0 0 0 0 0 0 0 0.25 0"/>
<feBlend mode="normal" in2="BackgroundImageFix" result="effect1_dropShadow_821594_580"/>
<feBlend mode="normal" in="SourceGraphic" in2="effect1_dropShadow_821594_580" result="shape"/>
</filter>
<filter id="filter4_d_821594_580" x="29.8203" y="26.1709" width="217.79" height="223.973" filterUnits="userSpaceOnUse" color-interpolation-filters="sRGB">
<feFlood flood-opacity="0" result="BackgroundImageFix"/>
<feColorMatrix in="SourceAlpha" type="matrix" values="0 0 0 0 0 0 0 0 0 0 0 0 0 0 0 0 0 0 127 0" result="hardAlpha"/>
<feOffset/>
<feGaussianBlur stdDeviation="5"/>
<feComposite in2="hardAlpha" operator="out"/>
<feColorMatrix type="matrix" values="0 0 0 0 0 0 0 0 0 0 0 0 0 0 0 0 0 0 0.05 0"/>
<feBlend mode="normal" in2="BackgroundImageFix" result="effect1_dropShadow_821594_580"/>
<feBlend mode="normal" in="SourceGraphic" in2="effect1_dropShadow_821594_580" result="shape"/>
</filter>
<linearGradient id="paint0_linear_821594_580" x1="39.8345" y1="138.157" x2="237.61" y2="138.157" gradientUnits="userSpaceOnUse">
<stop offset="0.065" stop-color="#68341B"/>
<stop offset="0.77" stop-color="#E9B743"/>
<stop offset="0.98" stop-color="#E9B743"/>
</linearGradient>
<radialGradient id="paint1_diamond_821594_580" cx="0" cy="0" r="1" gradientUnits="userSpaceOnUse" gradientTransform="translate(82.8588 276.908) rotate(-108.087) scale(89.2607 1467.5)">
<stop stop-color="#242E4E"/>
<stop offset="0.47" stop-color="#121727"/>
<stop offset="0.765" stop-color="#202946"/>
</radialGradient>
<linearGradient id="paint2_linear_821594_580" x1="75.7929" y1="108.741" x2="194.849" y2="185.136" gradientUnits="userSpaceOnUse">
<stop offset="0.065" stop-color="#68341B"/>
<stop offset="0.77" stop-color="#E9B743"/>
<stop offset="0.98" stop-color="#E9B743"/>
</linearGradient>
</defs>
</svg>
