<svg width="232" height="237" viewBox="0 0 232 237" fill="none" xmlns="http://www.w3.org/2000/svg">
<g filter="url(#filter0_f_821593_564)">
<path fill-rule="evenodd" clip-rule="evenodd" d="M15.9829 169.953L116.154 221.604L216.324 169.953L216.324 66.651L116.154 15L15.9829 66.651L15.9829 169.953ZM38.0645 158.75L116.007 199L193.949 158.75L193.949 78.2501L116.007 38.0001L38.0645 78.2501L38.0645 158.75Z" fill="#E9B743"/>
</g>
<g filter="url(#filter1_f_821593_564)">
<path d="M173.42 147.066L115.654 177.632L58.2135 148.233L58.5389 88.2678L116.305 57.702L173.745 87.1009L173.42 147.066Z" fill="#E9B743"/>
<path d="M173.42 147.066L115.654 177.632L58.2135 148.233L58.5389 88.2678L116.305 57.702L173.745 87.1009L173.42 147.066Z" stroke="#E9B743" stroke-miterlimit="10"/>
</g>
<g filter="url(#filter2_di_821593_564)">
<path fill-rule="evenodd" clip-rule="evenodd" d="M13.976 169.953L114.147 221.604L214.317 169.953L214.317 66.6509L114.147 14.9999L13.976 66.6509L13.976 169.953ZM30.2052 161.523L114.19 204.741L198.175 161.523L198.175 75.0863L114.19 31.8681L30.2052 75.0863L30.2052 161.523Z" fill="url(#paint0_linear_821593_564)"/>
</g>
<g filter="url(#filter3_di_821593_564)">
<path d="M163.397 142.592L115.76 167.798L68.3912 143.554L68.6596 94.1032L116.297 68.8968L163.666 93.141L163.397 142.592Z" fill="url(#paint1_diamond_821593_564)" fill-opacity="0.8" shape-rendering="crispEdges"/>
<path d="M163.397 142.592L115.76 167.798L68.3912 143.554L68.6596 94.1032L116.297 68.8968L163.666 93.141L163.397 142.592Z" stroke="url(#paint2_linear_821593_564)" stroke-width="5" stroke-miterlimit="10" shape-rendering="crispEdges"/>
</g>
<defs>
<filter id="filter0_f_821593_564" x="0.982422" y="0" width="230.342" height="236.604" filterUnits="userSpaceOnUse" color-interpolation-filters="sRGB">
<feFlood flood-opacity="0" result="BackgroundImageFix"/>
<feBlend mode="normal" in="SourceGraphic" in2="BackgroundImageFix" result="shape"/>
<feGaussianBlur stdDeviation="7.5" result="effect1_foregroundBlur_821593_564"/>
</filter>
<filter id="filter1_f_821593_564" x="42.6914" y="42.1523" width="146.576" height="151.029" filterUnits="userSpaceOnUse" color-interpolation-filters="sRGB">
<feFlood flood-opacity="0" result="BackgroundImageFix"/>
<feBlend mode="normal" in="SourceGraphic" in2="BackgroundImageFix" result="shape"/>
<feGaussianBlur stdDeviation="7.5" result="effect1_foregroundBlur_821593_564"/>
</filter>
<filter id="filter2_di_821593_564" x="9.97559" y="15" width="208.342" height="214.604" filterUnits="userSpaceOnUse" color-interpolation-filters="sRGB">
<feFlood flood-opacity="0" result="BackgroundImageFix"/>
<feColorMatrix in="SourceAlpha" type="matrix" values="0 0 0 0 0 0 0 0 0 0 0 0 0 0 0 0 0 0 127 0" result="hardAlpha"/>
<feOffset dy="4"/>
<feGaussianBlur stdDeviation="2"/>
<feComposite in2="hardAlpha" operator="out"/>
<feColorMatrix type="matrix" values="0 0 0 0 0 0 0 0 0 0 0 0 0 0 0 0 0 0 0.25 0"/>
<feBlend mode="normal" in2="BackgroundImageFix" result="effect1_dropShadow_821593_564"/>
<feBlend mode="normal" in="SourceGraphic" in2="effect1_dropShadow_821593_564" result="shape"/>
<feColorMatrix in="SourceAlpha" type="matrix" values="0 0 0 0 0 0 0 0 0 0 0 0 0 0 0 0 0 0 127 0" result="hardAlpha"/>
<feOffset dx="4" dy="4"/>
<feGaussianBlur stdDeviation="14"/>
<feComposite in2="hardAlpha" operator="arithmetic" k2="-1" k3="1"/>
<feColorMatrix type="matrix" values="0 0 0 0 0 0 0 0 0 0 0 0 0 0 0 0 0 0 0.05 0"/>
<feBlend mode="normal" in2="shape" result="effect2_innerShadow_821593_564"/>
</filter>
<filter id="filter3_di_821593_564" x="61.7812" y="62.1475" width="108.495" height="112.399" filterUnits="userSpaceOnUse" color-interpolation-filters="sRGB">
<feFlood flood-opacity="0" result="BackgroundImageFix"/>
<feColorMatrix in="SourceAlpha" type="matrix" values="0 0 0 0 0 0 0 0 0 0 0 0 0 0 0 0 0 0 127 0" result="hardAlpha"/>
<feOffset/>
<feGaussianBlur stdDeviation="2"/>
<feComposite in2="hardAlpha" operator="out"/>
<feColorMatrix type="matrix" values="0 0 0 0 0 0 0 0 0 0 0 0 0 0 0 0 0 0 0.25 0"/>
<feBlend mode="normal" in2="BackgroundImageFix" result="effect1_dropShadow_821593_564"/>
<feBlend mode="normal" in="SourceGraphic" in2="effect1_dropShadow_821593_564" result="shape"/>
<feColorMatrix in="SourceAlpha" type="matrix" values="0 0 0 0 0 0 0 0 0 0 0 0 0 0 0 0 0 0 127 0" result="hardAlpha"/>
<feOffset/>
<feGaussianBlur stdDeviation="5"/>
<feComposite in2="hardAlpha" operator="arithmetic" k2="-1" k3="1"/>
<feColorMatrix type="matrix" values="0 0 0 0 0 0 0 0 0 0 0 0 0 0 0 0 0 0 0.25 0"/>
<feBlend mode="normal" in2="shape" result="effect2_innerShadow_821593_564"/>
</filter>
<linearGradient id="paint0_linear_821593_564" x1="13.9904" y1="118.302" x2="214.317" y2="118.302" gradientUnits="userSpaceOnUse">
<stop offset="0.065" stop-color="#68341B"/>
<stop offset="0.77" stop-color="#E9B743"/>
<stop offset="0.98" stop-color="#E9B743"/>
</linearGradient>
<radialGradient id="paint1_diamond_821593_564" cx="0" cy="0" r="1" gradientUnits="userSpaceOnUse" gradientTransform="translate(116.399 118.537) rotate(-108.087) scale(66.8312 1098.74)">
<stop offset="0.135" stop-color="#202946"/>
<stop offset="0.51" stop-color="#121727"/>
<stop offset="0.795" stop-color="#242E4E"/>
</radialGradient>
<linearGradient id="paint2_linear_821593_564" x1="68.6664" y1="94.1067" x2="157.806" y2="151.305" gradientUnits="userSpaceOnUse">
<stop offset="0.065" stop-color="#68341B"/>
<stop offset="0.77" stop-color="#E9B743"/>
<stop offset="0.98" stop-color="#E9B743"/>
</linearGradient>
</defs>
</svg>
