<svg width="271" height="238" viewBox="0 0 271 238" fill="none" xmlns="http://www.w3.org/2000/svg">
<g filter="url(#filter0_d_821477_492)">
<mask id="path-1-inside-1_821477_492" fill="white">
<path fill-rule="evenodd" clip-rule="evenodd" d="M198.25 227.372L261 118.686L198.25 10H72.75L10 118.686L72.75 227.372H198.25ZM183.485 201.799L231.471 118.686L183.485 35.5732H87.5147L39.5294 118.686L87.5147 201.799H183.485Z"/>
</mask>
<path fill-rule="evenodd" clip-rule="evenodd" d="M198.25 227.372L261 118.686L198.25 10H72.75L10 118.686L72.75 227.372H198.25ZM183.485 201.799L231.471 118.686L183.485 35.5732H87.5147L39.5294 118.686L87.5147 201.799H183.485Z" fill="white"/>
<path d="M261 118.686L262.732 119.686L263.309 118.686L262.732 117.686L261 118.686ZM198.25 227.372V229.372H199.405L199.982 228.372L198.25 227.372ZM198.25 10L199.982 9L199.405 8H198.25V10ZM72.75 10V8H71.5953L71.0179 9L72.75 10ZM10 118.686L8.26795 117.686L7.6906 118.686L8.26795 119.686L10 118.686ZM72.75 227.372L71.0179 228.372L71.5953 229.372H72.75V227.372ZM231.471 118.686L233.203 119.686L233.78 118.686L233.203 117.686L231.471 118.686ZM183.485 201.799V203.799H184.64L185.217 202.799L183.485 201.799ZM183.485 35.5732L185.217 34.5732L184.64 33.5732H183.485V35.5732ZM87.5147 35.5732V33.5732H86.36L85.7826 34.5732L87.5147 35.5732ZM39.5294 118.686L37.7974 117.686L37.22 118.686L37.7974 119.686L39.5294 118.686ZM87.5147 201.799L85.7826 202.799L86.36 203.799H87.5147V201.799ZM259.268 117.686L196.518 226.372L199.982 228.372L262.732 119.686L259.268 117.686ZM196.518 11L259.268 119.686L262.732 117.686L199.982 9L196.518 11ZM72.75 12H198.25V8H72.75V12ZM11.7321 119.686L74.482 11L71.0179 9L8.26795 117.686L11.7321 119.686ZM74.482 226.372L11.7321 117.686L8.26795 119.686L71.0179 228.372L74.482 226.372ZM198.25 225.372H72.75V229.372H198.25V225.372ZM229.739 117.686L181.753 200.799L185.217 202.799L233.203 119.686L229.739 117.686ZM181.753 36.5732L229.739 119.686L233.203 117.686L185.217 34.5732L181.753 36.5732ZM87.5147 37.5732H183.485V33.5732H87.5147V37.5732ZM41.2615 119.686L89.2467 36.5732L85.7826 34.5732L37.7974 117.686L41.2615 119.686ZM89.2467 200.799L41.2615 117.686L37.7974 119.686L85.7826 202.799L89.2467 200.799ZM183.485 199.799H87.5147V203.799H183.485V199.799Z" fill="black" mask="url(#path-1-inside-1_821477_492)"/>
</g>
<g filter="url(#filter1_d_821477_492)">
<path d="M202 118.751L168.75 176.341H102.25L69 118.751L102.25 61.16L168.75 61.16L202 118.751Z" fill="white"/>
<path d="M168.173 62.16L200.845 118.751L168.173 175.341H102.827L70.1547 118.751L102.827 62.16L168.173 62.16Z" stroke="black" stroke-width="2"/>
</g>
<defs>
<filter id="filter0_d_821477_492" x="0" y="0" width="271" height="237.372" filterUnits="userSpaceOnUse" color-interpolation-filters="sRGB">
<feFlood flood-opacity="0" result="BackgroundImageFix"/>
<feColorMatrix in="SourceAlpha" type="matrix" values="0 0 0 0 0 0 0 0 0 0 0 0 0 0 0 0 0 0 127 0" result="hardAlpha"/>
<feOffset/>
<feGaussianBlur stdDeviation="5"/>
<feComposite in2="hardAlpha" operator="out"/>
<feColorMatrix type="matrix" values="0 0 0 0 0 0 0 0 0 0 0 0 0 0 0 0 0 0 0.05 0"/>
<feBlend mode="normal" in2="BackgroundImageFix" result="effect1_dropShadow_821477_492"/>
<feBlend mode="normal" in="SourceGraphic" in2="effect1_dropShadow_821477_492" result="shape"/>
</filter>
<filter id="filter1_d_821477_492" x="59" y="51.16" width="153" height="135.181" filterUnits="userSpaceOnUse" color-interpolation-filters="sRGB">
<feFlood flood-opacity="0" result="BackgroundImageFix"/>
<feColorMatrix in="SourceAlpha" type="matrix" values="0 0 0 0 0 0 0 0 0 0 0 0 0 0 0 0 0 0 127 0" result="hardAlpha"/>
<feOffset/>
<feGaussianBlur stdDeviation="5"/>
<feComposite in2="hardAlpha" operator="out"/>
<feColorMatrix type="matrix" values="0 0 0 0 0 0 0 0 0 0 0 0 0 0 0 0 0 0 0.05 0"/>
<feBlend mode="normal" in2="BackgroundImageFix" result="effect1_dropShadow_821477_492"/>
<feBlend mode="normal" in="SourceGraphic" in2="effect1_dropShadow_821477_492" result="shape"/>
</filter>
</defs>
</svg>
