<svg width="285" height="462" viewBox="0 0 285 462" fill="none" xmlns="http://www.w3.org/2000/svg">
<g id="Group 376">
<g id="bee_details_panel">
<g id="background_frame_decorator">
<g filter="url(#filter0_ii_822374_1979)">
<path d="M283 61.2278V2H153.407L146.471 2.00045L139.539 2H53.268L2 2.00045V99.0928L3.14118 321.926V460H53.2424L139.539 458.969H146.471H153.402H283V399.741V61.2278Z" fill="url(#paint0_linear_822374_1979)" fill-opacity="0.85"/>
</g>
<path d="M283 61.2278V2H153.407L146.471 2.00045L139.539 2H53.268L2 2.00045V99.0928L3.14118 321.926V460H53.2424L139.539 458.969H146.471H153.402H283V399.741V61.2278Z" stroke="url(#paint1_linear_822374_1979)" stroke-width="3" stroke-miterlimit="10"/>
</g>
<g id="bee_traits">
<g id="forage_row">
<g id="forage_value">
<mask id="path-2-outside-1_822374_1979" maskUnits="userSpaceOnUse" x="251.553" y="428.568" width="13" height="10" fill="black">
<rect fill="white" x="251.553" y="428.568" width="13" height="10"/>
<path d="M252.436 437.568V436.947C253.647 435.979 254.522 435.119 255.061 434.369C255.639 433.564 255.928 432.756 255.928 431.943C255.928 430.85 255.538 430.303 254.757 430.303C254.35 430.303 254.014 430.459 253.749 430.771C253.491 431.076 253.346 431.502 253.315 432.049C253.065 431.689 252.76 431.412 252.401 431.217C252.909 430.24 253.772 429.752 254.991 429.752C255.874 429.752 256.553 429.943 257.03 430.326C257.514 430.701 257.757 431.229 257.757 431.908C257.757 432.643 257.436 433.314 256.796 433.924C256.632 434.08 256.249 434.4 255.647 434.885C255.1 435.33 254.659 435.725 254.323 436.068C254.823 436.084 255.206 436.092 255.471 436.092C256.198 436.092 256.991 436.061 257.85 435.998C257.819 436.326 257.803 436.58 257.803 436.76C257.803 436.924 257.819 437.193 257.85 437.568C256.819 437.529 255.905 437.51 255.108 437.51C254.303 437.51 253.413 437.529 252.436 437.568ZM259.913 434.064L259.608 433.877C259.671 433.564 259.702 433.135 259.702 432.588C259.702 431.533 259.663 430.654 259.585 429.951C259.858 429.967 260.26 429.975 260.792 429.975H261.589C262.565 429.975 263.253 429.967 263.651 429.951C263.643 430.084 263.639 430.303 263.639 430.607C263.639 430.936 263.643 431.193 263.651 431.381C263.026 431.342 262.467 431.322 261.975 431.322C261.491 431.322 260.948 431.342 260.346 431.381V431.369C260.339 431.58 260.311 432.221 260.264 433.291C260.686 433.08 261.128 432.975 261.589 432.975C262.323 432.975 262.909 433.17 263.346 433.561C263.792 433.951 264.014 434.467 264.014 435.107C264.014 435.912 263.737 436.553 263.182 437.029C262.628 437.506 261.866 437.744 260.897 437.744C260.014 437.744 259.311 437.545 258.788 437.146C259.014 436.732 259.237 436.287 259.456 435.811H259.596C259.745 436.756 260.182 437.229 260.909 437.229C261.776 437.229 262.21 436.592 262.21 435.318C262.21 434.17 261.8 433.596 260.979 433.596C260.589 433.596 260.233 433.752 259.913 434.064Z"/>
</mask>
<path d="M252.436 437.568V436.947C253.647 435.979 254.522 435.119 255.061 434.369C255.639 433.564 255.928 432.756 255.928 431.943C255.928 430.85 255.538 430.303 254.757 430.303C254.35 430.303 254.014 430.459 253.749 430.771C253.491 431.076 253.346 431.502 253.315 432.049C253.065 431.689 252.76 431.412 252.401 431.217C252.909 430.24 253.772 429.752 254.991 429.752C255.874 429.752 256.553 429.943 257.03 430.326C257.514 430.701 257.757 431.229 257.757 431.908C257.757 432.643 257.436 433.314 256.796 433.924C256.632 434.08 256.249 434.4 255.647 434.885C255.1 435.33 254.659 435.725 254.323 436.068C254.823 436.084 255.206 436.092 255.471 436.092C256.198 436.092 256.991 436.061 257.85 435.998C257.819 436.326 257.803 436.58 257.803 436.76C257.803 436.924 257.819 437.193 257.85 437.568C256.819 437.529 255.905 437.51 255.108 437.51C254.303 437.51 253.413 437.529 252.436 437.568ZM259.913 434.064L259.608 433.877C259.671 433.564 259.702 433.135 259.702 432.588C259.702 431.533 259.663 430.654 259.585 429.951C259.858 429.967 260.26 429.975 260.792 429.975H261.589C262.565 429.975 263.253 429.967 263.651 429.951C263.643 430.084 263.639 430.303 263.639 430.607C263.639 430.936 263.643 431.193 263.651 431.381C263.026 431.342 262.467 431.322 261.975 431.322C261.491 431.322 260.948 431.342 260.346 431.381V431.369C260.339 431.58 260.311 432.221 260.264 433.291C260.686 433.08 261.128 432.975 261.589 432.975C262.323 432.975 262.909 433.17 263.346 433.561C263.792 433.951 264.014 434.467 264.014 435.107C264.014 435.912 263.737 436.553 263.182 437.029C262.628 437.506 261.866 437.744 260.897 437.744C260.014 437.744 259.311 437.545 258.788 437.146C259.014 436.732 259.237 436.287 259.456 435.811H259.596C259.745 436.756 260.182 437.229 260.909 437.229C261.776 437.229 262.21 436.592 262.21 435.318C262.21 434.17 261.8 433.596 260.979 433.596C260.589 433.596 260.233 433.752 259.913 434.064Z" fill="white"/>
<path d="M252.436 437.568H251.936V438.089L252.456 438.068L252.436 437.568ZM252.436 436.947L252.124 436.557L251.936 436.707V436.947H252.436ZM255.061 434.369L255.467 434.661L255.467 434.661L255.061 434.369ZM253.749 430.771L253.368 430.448L253.367 430.449L253.749 430.771ZM253.315 432.049L252.905 432.334L253.732 433.523L253.814 432.077L253.315 432.049ZM252.401 431.217L251.957 430.986L251.731 431.422L252.162 431.656L252.401 431.217ZM257.03 430.326L256.717 430.716L256.724 430.722L257.03 430.326ZM256.796 433.924L256.451 433.562L256.451 433.562L256.796 433.924ZM255.647 434.885L255.334 434.495L255.331 434.497L255.647 434.885ZM254.323 436.068L253.965 435.719L253.17 436.533L254.307 436.568L254.323 436.068ZM257.85 435.998L258.348 436.045L258.404 435.456L257.814 435.499L257.85 435.998ZM257.85 437.568L257.831 438.068L258.395 438.089L258.349 437.527L257.85 437.568ZM252.936 437.568V436.947H251.936V437.568H252.936ZM252.749 437.338C253.974 436.357 254.89 435.465 255.467 434.661L254.655 434.077C254.155 434.774 253.32 435.6 252.124 436.557L252.749 437.338ZM255.467 434.661C256.093 433.79 256.428 432.882 256.428 431.943H255.428C255.428 432.63 255.186 433.339 254.655 434.077L255.467 434.661ZM256.428 431.943C256.428 431.352 256.326 430.819 256.042 430.422C255.737 429.995 255.279 429.803 254.757 429.803V430.803C255.016 430.803 255.143 430.884 255.229 431.004C255.336 431.154 255.428 431.441 255.428 431.943H256.428ZM254.757 429.803C254.202 429.803 253.727 430.025 253.368 430.448L254.13 431.095C254.301 430.893 254.499 430.803 254.757 430.803V429.803ZM253.367 430.449C253.017 430.862 252.851 431.405 252.816 432.02L253.814 432.077C253.842 431.599 253.965 431.29 254.13 431.094L253.367 430.449ZM253.726 431.763C253.434 431.345 253.072 431.013 252.64 430.777L252.162 431.656C252.449 431.812 252.696 432.034 252.905 432.334L253.726 431.763ZM252.845 431.447C253.059 431.035 253.337 430.745 253.676 430.553C254.017 430.36 254.448 430.252 254.991 430.252V429.252C254.315 429.252 253.705 429.388 253.183 429.683C252.658 429.98 252.251 430.422 251.957 430.986L252.845 431.447ZM254.991 430.252C255.809 430.252 256.361 430.43 256.717 430.716L257.343 429.936C256.746 429.457 255.938 429.252 254.991 429.252V430.252ZM256.724 430.722C257.071 430.991 257.257 431.364 257.257 431.908H258.257C258.257 431.093 257.957 430.412 257.336 429.931L256.724 430.722ZM257.257 431.908C257.257 432.478 257.014 433.026 256.451 433.562L257.14 434.286C257.858 433.603 258.257 432.807 258.257 431.908H257.257ZM256.451 433.562C256.305 433.701 255.939 434.008 255.334 434.495L255.961 435.274C256.558 434.793 256.958 434.459 257.14 434.286L256.451 433.562ZM255.331 434.497C254.776 434.949 254.319 435.357 253.965 435.719L254.681 436.418C254.999 436.092 255.425 435.711 255.963 435.272L255.331 434.497ZM254.307 436.568C254.809 436.584 255.198 436.592 255.471 436.592V435.592C255.214 435.592 254.837 435.584 254.339 435.569L254.307 436.568ZM255.471 436.592C256.212 436.592 257.017 436.56 257.887 436.497L257.814 435.499C256.965 435.561 256.184 435.592 255.471 435.592V436.592ZM257.353 435.951C257.321 436.284 257.303 436.556 257.303 436.76H258.303C258.303 436.604 258.317 436.368 258.348 436.045L257.353 435.951ZM257.303 436.76C257.303 436.946 257.321 437.234 257.352 437.61L258.349 437.527C258.317 437.153 258.303 436.901 258.303 436.76H257.303ZM257.869 437.069C256.833 437.029 255.913 437.01 255.108 437.01V438.01C255.897 438.01 256.805 438.029 257.831 438.068L257.869 437.069ZM255.108 437.01C254.296 437.01 253.398 437.029 252.416 437.069L252.456 438.068C253.427 438.029 254.311 438.01 255.108 438.01V437.01ZM259.913 434.064L259.651 434.49L259.983 434.695L260.262 434.422L259.913 434.064ZM259.608 433.877L259.118 433.779L259.05 434.12L259.346 434.303L259.608 433.877ZM259.585 429.951L259.613 429.452L259.022 429.418L259.088 430.006L259.585 429.951ZM263.651 429.951L264.15 429.981L264.183 429.43L263.631 429.452L263.651 429.951ZM263.651 431.381L263.62 431.88L264.174 431.915L264.151 431.36L263.651 431.381ZM260.346 431.381H259.846V431.914L260.379 431.88L260.346 431.381ZM260.346 431.369H260.846L259.847 431.351L260.346 431.369ZM260.264 433.291L259.765 433.269L259.728 434.118L260.488 433.738L260.264 433.291ZM263.346 433.561L263.013 433.934L263.017 433.936L263.346 433.561ZM263.182 437.029L262.856 436.65L263.182 437.029ZM258.788 437.146L258.349 436.906L258.143 437.284L258.485 437.544L258.788 437.146ZM259.456 435.811V435.311H259.135L259.001 435.602L259.456 435.811ZM259.596 435.811L260.09 435.733L260.024 435.311H259.596V435.811ZM260.175 433.639L259.87 433.451L259.346 434.303L259.651 434.49L260.175 433.639ZM260.098 433.975C260.17 433.615 260.202 433.148 260.202 432.588H259.202C259.202 433.122 259.171 433.514 259.118 433.779L260.098 433.975ZM260.202 432.588C260.202 431.523 260.163 430.624 260.082 429.896L259.088 430.006C259.163 430.685 259.202 431.544 259.202 432.588H260.202ZM259.556 430.45C259.844 430.467 260.258 430.475 260.792 430.475V429.475C260.263 429.475 259.872 429.467 259.613 429.452L259.556 430.45ZM260.792 430.475H261.589V429.475H260.792V430.475ZM261.589 430.475C262.565 430.475 263.261 430.467 263.671 430.451L263.631 429.452C263.244 429.467 262.565 429.475 261.589 429.475V430.475ZM263.152 429.922C263.143 430.071 263.139 430.302 263.139 430.607H264.139C264.139 430.303 264.143 430.097 264.15 429.981L263.152 429.922ZM263.139 430.607C263.139 430.938 263.143 431.204 263.152 431.402L264.151 431.36C264.143 431.183 264.139 430.933 264.139 430.607H263.139ZM263.682 430.882C263.05 430.842 262.48 430.822 261.975 430.822V431.822C262.455 431.822 263.003 431.841 263.62 431.88L263.682 430.882ZM261.975 430.822C261.478 430.822 260.924 430.842 260.314 430.882L260.379 431.88C260.972 431.841 261.504 431.822 261.975 431.822V430.822ZM260.846 431.381V431.369H259.846V431.381H260.846ZM259.847 431.351C259.839 431.559 259.812 432.198 259.765 433.269L260.764 433.313C260.811 432.243 260.838 431.601 260.846 431.388L259.847 431.351ZM260.488 433.738C260.842 433.561 261.207 433.475 261.589 433.475V432.475C261.048 432.475 260.53 432.599 260.041 432.844L260.488 433.738ZM261.589 433.475C262.232 433.475 262.689 433.644 263.013 433.934L263.679 433.188C263.129 432.696 262.414 432.475 261.589 432.475V433.475ZM263.017 433.936C263.344 434.224 263.514 434.598 263.514 435.107H264.514C264.514 434.336 264.239 433.679 263.676 433.185L263.017 433.936ZM263.514 435.107C263.514 435.783 263.289 436.279 262.856 436.65L263.508 437.409C264.185 436.827 264.514 436.041 264.514 435.107H263.514ZM262.856 436.65C262.418 437.026 261.786 437.244 260.897 437.244V438.244C261.946 438.244 262.837 437.985 263.508 437.409L262.856 436.65ZM260.897 437.244C260.087 437.244 259.501 437.061 259.091 436.749L258.485 437.544C259.121 438.028 259.942 438.244 260.897 438.244V437.244ZM259.226 437.386C259.459 436.961 259.687 436.505 259.91 436.019L259.001 435.602C258.787 436.069 258.57 436.504 258.349 436.906L259.226 437.386ZM259.456 436.311H259.596V435.311H259.456V436.311ZM259.102 435.888C259.185 436.414 259.357 436.877 259.669 437.214C259.995 437.566 260.426 437.729 260.909 437.729V436.729C260.665 436.729 260.514 436.655 260.403 436.534C260.277 436.398 260.156 436.152 260.09 435.733L259.102 435.888ZM260.909 437.729C261.484 437.729 261.975 437.506 262.298 437.032C262.597 436.593 262.71 435.996 262.71 435.318H261.71C261.71 435.914 261.605 436.272 261.471 436.47C261.36 436.632 261.201 436.729 260.909 436.729V437.729ZM262.71 435.318C262.71 434.7 262.602 434.146 262.309 433.736C261.994 433.295 261.521 433.096 260.979 433.096V434.096C261.258 434.096 261.4 434.184 261.495 434.317C261.612 434.481 261.71 434.789 261.71 435.318H262.71ZM260.979 433.096C260.439 433.096 259.963 433.317 259.564 433.707L260.262 434.422C260.504 434.187 260.738 434.096 260.979 434.096V433.096Z" fill="#9A321A" mask="url(#path-2-outside-1_822374_1979)"/>
</g>
<path id="forage_row_2" d="M159.855 437.568C159.949 436.584 159.996 435.252 159.996 433.572C159.996 432.143 159.961 430.807 159.891 429.564C160.547 429.596 161.293 429.611 162.129 429.611C162.957 429.611 163.711 429.596 164.391 429.564C164.367 429.713 164.355 429.873 164.355 430.045C164.355 430.201 164.367 430.373 164.391 430.561C163.594 430.475 162.879 430.432 162.246 430.432C162.191 430.432 162.109 430.432 162 430.432C161.891 430.439 161.812 430.443 161.766 430.443C161.727 430.701 161.707 431.186 161.707 431.896V432.975C162.66 432.951 163.523 432.904 164.297 432.834C164.273 432.998 164.262 433.162 164.262 433.326C164.262 433.49 164.273 433.654 164.297 433.818C163.539 433.756 162.684 433.717 161.73 433.701V435.74C161.73 436.521 161.762 437.131 161.824 437.568C161.457 437.529 161.129 437.51 160.84 437.51C160.551 437.51 160.223 437.529 159.855 437.568ZM166.641 434.768C166.641 435.635 166.727 436.252 166.898 436.619C167.078 437.01 167.395 437.205 167.848 437.205C168.301 437.205 168.617 437.014 168.797 436.631C168.977 436.248 169.066 435.627 169.066 434.768C169.066 433.908 168.977 433.287 168.797 432.904C168.617 432.521 168.301 432.33 167.848 432.33C167.395 432.33 167.078 432.521 166.898 432.904C166.727 433.279 166.641 433.9 166.641 434.768ZM164.918 434.768C164.918 433.838 165.176 433.115 165.691 432.6C166.207 432.076 166.93 431.814 167.859 431.814C168.797 431.814 169.52 432.072 170.027 432.588C170.535 433.096 170.789 433.822 170.789 434.768C170.789 435.697 170.527 436.42 170.004 436.936C169.488 437.451 168.77 437.709 167.848 437.709C166.918 437.709 166.195 437.451 165.68 436.936C165.172 436.42 164.918 435.697 164.918 434.768ZM171.82 437.568C171.875 436.795 171.902 435.857 171.902 434.756C171.902 433.498 171.875 432.564 171.82 431.955C172.062 431.986 172.336 432.002 172.641 432.002C172.938 432.002 173.207 431.986 173.449 431.955C173.41 432.635 173.391 433.135 173.391 433.455H173.449C173.738 432.361 174.34 431.814 175.254 431.814H175.312C175.266 432.096 175.242 432.377 175.242 432.658C175.242 432.947 175.266 433.24 175.312 433.537C175 433.42 174.746 433.361 174.551 433.361C173.816 433.361 173.449 433.916 173.449 435.025C173.449 435.932 173.484 436.779 173.555 437.568C173.242 437.529 172.953 437.51 172.688 437.51C172.438 437.51 172.148 437.529 171.82 437.568ZM179.086 434.486C178.547 434.596 178.156 434.764 177.914 434.99C177.672 435.209 177.551 435.521 177.551 435.928C177.551 436.6 177.793 436.936 178.277 436.936C178.816 436.936 179.086 436.572 179.086 435.846V434.486ZM179.133 436.83C178.789 437.416 178.262 437.709 177.551 437.709C177.059 437.709 176.672 437.564 176.391 437.275C176.109 436.986 175.969 436.588 175.969 436.08C175.969 435.369 176.379 434.873 177.199 434.592C177.543 434.482 177.887 434.373 178.23 434.264C178.582 434.154 178.855 434.033 179.051 433.9C179.059 433.854 179.062 433.787 179.062 433.701C179.062 433.35 178.961 433.068 178.758 432.857C178.555 432.646 178.285 432.541 177.949 432.541C177.434 432.541 176.996 432.842 176.637 433.443C176.535 433.131 176.449 432.881 176.379 432.693C177.051 432.1 177.746 431.803 178.465 431.803C179.918 431.803 180.645 432.428 180.645 433.678V433.736L180.609 435.998C180.609 436.443 180.652 436.736 180.738 436.877C180.84 437.041 181.055 437.123 181.383 437.123H181.418V437.416C181.004 437.588 180.594 437.674 180.188 437.674C179.617 437.674 179.266 437.393 179.133 436.83ZM183.539 433.666C183.539 434.596 183.828 435.061 184.406 435.061C184.727 435.061 184.953 434.943 185.086 434.709C185.219 434.467 185.285 434.076 185.285 433.537C185.285 432.701 185.004 432.283 184.441 432.283C183.84 432.283 183.539 432.744 183.539 433.666ZM183.023 437.838L183.035 437.744C182.535 437.596 182.285 437.287 182.285 436.818C182.285 436.271 182.676 435.834 183.457 435.506V435.365C182.449 435.162 181.945 434.607 181.945 433.701C181.945 433.139 182.16 432.686 182.59 432.342C183.027 431.99 183.617 431.814 184.359 431.814C184.43 431.814 184.691 431.83 185.145 431.861C185.598 431.893 186.016 431.908 186.398 431.908C186.719 431.908 187.07 431.896 187.453 431.873V432.447C187.242 432.439 186.855 432.424 186.293 432.4C186.699 432.666 186.902 433.064 186.902 433.596C186.902 434.197 186.672 434.67 186.211 435.014C185.75 435.357 185.102 435.529 184.266 435.529H184.066C183.723 435.568 183.551 435.756 183.551 436.092C183.551 436.342 183.691 436.502 183.973 436.572C184.145 436.619 184.578 436.658 185.273 436.689C185.719 436.705 186.02 436.725 186.176 436.748C186.441 436.779 186.648 436.838 186.797 436.924C187.281 437.205 187.523 437.666 187.523 438.307C187.523 439.018 187.227 439.604 186.633 440.064C186.047 440.533 185.273 440.768 184.312 440.768C183.523 440.768 182.91 440.631 182.473 440.357C182.043 440.084 181.828 439.717 181.828 439.256C181.828 438.584 182.227 438.111 183.023 437.838ZM183.539 437.908C183.133 438.119 182.93 438.467 182.93 438.951C182.93 439.35 183.062 439.67 183.328 439.912C183.602 440.154 183.965 440.275 184.418 440.275C184.957 440.275 185.375 440.166 185.672 439.947C185.969 439.729 186.117 439.428 186.117 439.045C186.117 438.373 185.707 438.018 184.887 437.979L183.539 437.908ZM189.551 434.205H191.531C191.531 434.158 191.535 434.104 191.543 434.041C191.543 433.979 191.543 433.939 191.543 433.924C191.543 432.854 191.238 432.318 190.629 432.318C189.91 432.318 189.551 432.912 189.551 434.1V434.205ZM189.551 434.779C189.551 435.467 189.711 436.006 190.031 436.396C190.359 436.787 190.793 436.982 191.332 436.982C191.871 436.982 192.371 436.799 192.832 436.432L192.949 436.514L192.691 437.182C192.191 437.533 191.547 437.709 190.758 437.709C189.844 437.709 189.129 437.443 188.613 436.912C188.098 436.373 187.84 435.627 187.84 434.674C187.84 433.83 188.094 433.143 188.602 432.611C189.109 432.08 189.793 431.814 190.652 431.814C191.457 431.814 192.074 432.037 192.504 432.482C192.934 432.928 193.148 433.568 193.148 434.404C193.148 434.568 193.145 434.693 193.137 434.779H189.551Z" fill="#E9B743"/>
</g>
<g id="defence_row">
<g id="defence_value">
<mask id="path-5-outside-2_822374_1979" maskUnits="userSpaceOnUse" x="251.887" y="412.405" width="14" height="10" fill="black">
<rect fill="white" x="251.887" y="412.405" width="14" height="10"/>
<path d="M252.601 421.405V420.784C253.812 419.815 254.687 418.956 255.226 418.206C255.804 417.401 256.094 416.593 256.094 415.78C256.094 414.687 255.703 414.14 254.922 414.14C254.515 414.14 254.179 414.296 253.914 414.608C253.656 414.913 253.511 415.339 253.48 415.886C253.23 415.526 252.926 415.249 252.566 415.054C253.074 414.077 253.937 413.589 255.156 413.589C256.039 413.589 256.719 413.78 257.195 414.163C257.679 414.538 257.922 415.065 257.922 415.745C257.922 416.479 257.601 417.151 256.961 417.761C256.797 417.917 256.414 418.237 255.812 418.722C255.265 419.167 254.824 419.562 254.488 419.905C254.988 419.921 255.371 419.929 255.636 419.929C256.363 419.929 257.156 419.897 258.015 419.835C257.984 420.163 257.969 420.417 257.969 420.597C257.969 420.761 257.984 421.03 258.015 421.405C256.984 421.366 256.07 421.347 255.273 421.347C254.469 421.347 253.578 421.366 252.601 421.405ZM258.929 417.597C258.929 416.245 259.16 415.241 259.621 414.585C260.082 413.929 260.801 413.601 261.777 413.601C262.801 413.601 263.531 413.917 263.969 414.55C264.406 415.183 264.625 416.198 264.625 417.597C264.625 418.948 264.39 419.952 263.922 420.608C263.461 421.265 262.742 421.593 261.765 421.593C260.75 421.593 260.023 421.276 259.586 420.644C259.148 420.011 258.929 418.995 258.929 417.597ZM261.777 414.093C261.316 414.093 261.004 414.374 260.84 414.937C260.691 415.429 260.617 416.315 260.617 417.597C260.617 418.878 260.687 419.765 260.828 420.257C261 420.819 261.316 421.101 261.777 421.101C262.238 421.101 262.554 420.819 262.726 420.257C262.867 419.772 262.937 418.886 262.937 417.597C262.937 416.308 262.867 415.421 262.726 414.937C262.554 414.374 262.238 414.093 261.777 414.093Z"/>
</mask>
<path d="M252.601 421.405V420.784C253.812 419.815 254.687 418.956 255.226 418.206C255.804 417.401 256.094 416.593 256.094 415.78C256.094 414.687 255.703 414.14 254.922 414.14C254.515 414.14 254.179 414.296 253.914 414.608C253.656 414.913 253.511 415.339 253.48 415.886C253.23 415.526 252.926 415.249 252.566 415.054C253.074 414.077 253.937 413.589 255.156 413.589C256.039 413.589 256.719 413.78 257.195 414.163C257.679 414.538 257.922 415.065 257.922 415.745C257.922 416.479 257.601 417.151 256.961 417.761C256.797 417.917 256.414 418.237 255.812 418.722C255.265 419.167 254.824 419.562 254.488 419.905C254.988 419.921 255.371 419.929 255.636 419.929C256.363 419.929 257.156 419.897 258.015 419.835C257.984 420.163 257.969 420.417 257.969 420.597C257.969 420.761 257.984 421.03 258.015 421.405C256.984 421.366 256.07 421.347 255.273 421.347C254.469 421.347 253.578 421.366 252.601 421.405ZM258.929 417.597C258.929 416.245 259.16 415.241 259.621 414.585C260.082 413.929 260.801 413.601 261.777 413.601C262.801 413.601 263.531 413.917 263.969 414.55C264.406 415.183 264.625 416.198 264.625 417.597C264.625 418.948 264.39 419.952 263.922 420.608C263.461 421.265 262.742 421.593 261.765 421.593C260.75 421.593 260.023 421.276 259.586 420.644C259.148 420.011 258.929 418.995 258.929 417.597ZM261.777 414.093C261.316 414.093 261.004 414.374 260.84 414.937C260.691 415.429 260.617 416.315 260.617 417.597C260.617 418.878 260.687 419.765 260.828 420.257C261 420.819 261.316 421.101 261.777 421.101C262.238 421.101 262.554 420.819 262.726 420.257C262.867 419.772 262.937 418.886 262.937 417.597C262.937 416.308 262.867 415.421 262.726 414.937C262.554 414.374 262.238 414.093 261.777 414.093Z" fill="white"/>
<path d="M252.601 421.405H252.101V421.926L252.621 421.905L252.601 421.405ZM252.601 420.784L252.289 420.394L252.101 420.544V420.784H252.601ZM255.226 418.206L255.632 418.498L255.632 418.498L255.226 418.206ZM253.914 414.608L253.533 414.285L253.532 414.285L253.914 414.608ZM253.48 415.886L253.07 416.171L253.897 417.36L253.979 415.914L253.48 415.886ZM252.566 415.054L252.123 414.823L251.896 415.259L252.327 415.493L252.566 415.054ZM257.195 414.163L256.882 414.553L256.889 414.558L257.195 414.163ZM256.961 417.761L256.616 417.398L256.616 417.399L256.961 417.761ZM255.812 418.722L255.499 418.332L255.497 418.334L255.812 418.722ZM254.488 419.905L254.13 419.556L253.335 420.369L254.472 420.405L254.488 419.905ZM258.015 419.835L258.513 419.882L258.569 419.293L257.979 419.336L258.015 419.835ZM258.015 421.405L257.996 421.905L258.561 421.926L258.514 421.364L258.015 421.405ZM253.101 421.405V420.784H252.101V421.405H253.101ZM252.914 421.175C254.14 420.194 255.055 419.301 255.632 418.498L254.82 417.914C254.32 418.611 253.485 419.437 252.289 420.394L252.914 421.175ZM255.632 418.498C256.258 417.627 256.594 416.719 256.594 415.78H255.594C255.594 416.467 255.351 417.176 254.82 417.914L255.632 418.498ZM256.594 415.78C256.594 415.189 256.491 414.656 256.207 414.259C255.902 413.832 255.444 413.64 254.922 413.64V414.64C255.181 414.64 255.308 414.721 255.394 414.84C255.501 414.991 255.594 415.278 255.594 415.78H256.594ZM254.922 413.64C254.367 413.64 253.892 413.862 253.533 414.285L254.295 414.932C254.466 414.73 254.664 414.64 254.922 414.64V413.64ZM253.532 414.285C253.182 414.699 253.016 415.242 252.981 415.857L253.979 415.914C254.007 415.436 254.13 415.127 254.296 414.931L253.532 414.285ZM253.891 415.6C253.599 415.182 253.237 414.849 252.805 414.614L252.327 415.493C252.614 415.649 252.861 415.871 253.07 416.171L253.891 415.6ZM253.01 415.284C253.224 414.872 253.502 414.582 253.841 414.39C254.182 414.197 254.613 414.089 255.156 414.089V413.089C254.48 413.089 253.87 413.225 253.348 413.52C252.823 413.817 252.416 414.259 252.123 414.823L253.01 415.284ZM255.156 414.089C255.974 414.089 256.526 414.267 256.882 414.553L257.508 413.773C256.911 413.293 256.103 413.089 255.156 413.089V414.089ZM256.889 414.558C257.236 414.827 257.422 415.201 257.422 415.745H258.422C258.422 414.93 258.122 414.249 257.501 413.768L256.889 414.558ZM257.422 415.745C257.422 416.315 257.179 416.863 256.616 417.398L257.305 418.123C258.023 417.44 258.422 416.644 258.422 415.745H257.422ZM256.616 417.399C256.47 417.538 256.104 417.844 255.499 418.332L256.126 419.111C256.723 418.63 257.123 418.296 257.306 418.123L256.616 417.399ZM255.497 418.334C254.941 418.786 254.484 419.194 254.13 419.556L254.846 420.255C255.164 419.929 255.59 419.548 256.128 419.109L255.497 418.334ZM254.472 420.405C254.974 420.421 255.363 420.429 255.636 420.429V419.429C255.379 419.429 255.002 419.421 254.504 419.406L254.472 420.405ZM255.636 420.429C256.377 420.429 257.182 420.397 258.052 420.334L257.979 419.336C257.13 419.398 256.349 419.429 255.636 419.429V420.429ZM257.518 419.788C257.486 420.121 257.469 420.393 257.469 420.597H258.469C258.469 420.441 258.482 420.205 258.513 419.882L257.518 419.788ZM257.469 420.597C257.469 420.783 257.486 421.071 257.517 421.447L258.514 421.364C258.482 420.99 258.469 420.738 258.469 420.597H257.469ZM258.034 420.906C256.998 420.866 256.078 420.847 255.273 420.847V421.847C256.062 421.847 256.97 421.866 257.996 421.905L258.034 420.906ZM255.273 420.847C254.461 420.847 253.563 420.866 252.581 420.906L252.621 421.905C253.593 421.866 254.476 421.847 255.273 421.847V420.847ZM263.922 420.608L263.515 420.318L263.512 420.321L263.922 420.608ZM260.84 414.937L261.318 415.081L261.32 415.077L260.84 414.937ZM260.828 420.257L260.347 420.394L260.35 420.403L260.828 420.257ZM262.726 420.257L263.205 420.403L263.206 420.396L262.726 420.257ZM262.726 414.937L263.207 414.797L263.204 414.79L262.726 414.937ZM259.429 417.597C259.429 416.285 259.656 415.404 260.03 414.872L259.212 414.298C258.663 415.078 258.429 416.206 258.429 417.597H259.429ZM260.03 414.872C260.376 414.379 260.923 414.101 261.777 414.101V413.101C260.678 413.101 259.787 413.478 259.212 414.298L260.03 414.872ZM261.777 414.101C262.696 414.101 263.243 414.379 263.557 414.834L264.38 414.265C263.819 413.455 262.905 413.101 261.777 413.101V414.101ZM263.557 414.834C263.906 415.339 264.125 416.228 264.125 417.597H265.125C265.125 416.169 264.906 415.026 264.38 414.265L263.557 414.834ZM264.125 417.597C264.125 418.908 263.894 419.786 263.515 420.318L264.328 420.899C264.887 420.118 265.125 418.989 265.125 417.597H264.125ZM263.512 420.321C263.166 420.814 262.619 421.093 261.765 421.093V422.093C262.865 422.093 263.755 421.715 264.331 420.896L263.512 420.321ZM261.765 421.093C260.856 421.093 260.312 420.815 259.997 420.359L259.174 420.928C259.734 421.737 260.644 422.093 261.765 422.093V421.093ZM259.997 420.359C259.648 419.854 259.429 418.966 259.429 417.597H258.429C258.429 419.025 258.649 420.167 259.174 420.928L259.997 420.359ZM261.777 413.593C261.436 413.593 261.12 413.701 260.863 413.932C260.615 414.155 260.458 414.46 260.36 414.797L261.32 415.077C261.385 414.851 261.466 414.734 261.532 414.675C261.587 414.626 261.657 414.593 261.777 414.593V413.593ZM260.361 414.792C260.189 415.363 260.117 416.318 260.117 417.597H261.117C261.117 416.313 261.194 415.494 261.318 415.081L260.361 414.792ZM260.117 417.597C260.117 418.875 260.185 419.827 260.347 420.394L261.309 420.119C261.189 419.702 261.117 418.881 261.117 417.597H260.117ZM260.35 420.403C260.452 420.739 260.613 421.042 260.862 421.263C261.12 421.493 261.436 421.601 261.777 421.601V420.601C261.657 420.601 261.585 420.568 261.526 420.516C261.458 420.456 261.375 420.337 261.306 420.111L260.35 420.403ZM261.777 421.601C262.118 421.601 262.434 421.493 262.692 421.263C262.941 421.042 263.102 420.739 263.204 420.403L262.248 420.111C262.179 420.337 262.096 420.456 262.028 420.516C261.97 420.568 261.897 420.601 261.777 420.601V421.601ZM263.206 420.396C263.369 419.835 263.437 418.882 263.437 417.597H262.437C262.437 418.89 262.365 419.71 262.246 420.117L263.206 420.396ZM263.437 417.597C263.437 416.311 263.369 415.358 263.206 414.797L262.246 415.076C262.365 415.484 262.437 416.304 262.437 417.597H263.437ZM263.204 414.79C263.102 414.454 262.941 414.151 262.692 413.93C262.434 413.701 262.118 413.593 261.777 413.593V414.593C261.897 414.593 261.97 414.626 262.028 414.677C262.096 414.738 262.179 414.856 262.248 415.083L263.204 414.79Z" fill="#9A321A" mask="url(#path-5-outside-2_822374_1979)"/>
</g>
<path id="defence_label" d="M159.867 421.405C159.953 420.757 159.996 419.772 159.996 418.452V416.776C159.996 415.276 159.953 414.155 159.867 413.413C160.195 413.437 160.5 413.448 160.781 413.448C161.031 413.448 161.422 413.44 161.953 413.425C162.484 413.409 162.891 413.401 163.172 413.401C164.57 413.401 165.582 413.647 166.207 414.14C167.082 414.827 167.52 415.854 167.52 417.222C167.52 420.019 165.914 421.417 162.703 421.417C162.414 421.417 162.047 421.413 161.602 421.405C161.164 421.39 160.867 421.382 160.711 421.382C160.477 421.382 160.195 421.39 159.867 421.405ZM161.754 420.69C162.051 420.737 162.316 420.761 162.551 420.761C164.605 420.761 165.633 419.616 165.633 417.327C165.633 416.171 165.391 415.343 164.906 414.843C164.422 414.335 163.641 414.081 162.562 414.081C162.523 414.081 162.262 414.089 161.777 414.104C161.746 415.128 161.73 416.354 161.73 417.784C161.73 419.05 161.738 420.019 161.754 420.69ZM170.074 418.042H172.055C172.055 417.995 172.059 417.94 172.066 417.878C172.066 417.815 172.066 417.776 172.066 417.761C172.066 416.69 171.762 416.155 171.152 416.155C170.434 416.155 170.074 416.749 170.074 417.937V418.042ZM170.074 418.616C170.074 419.304 170.234 419.843 170.555 420.233C170.883 420.624 171.316 420.819 171.855 420.819C172.395 420.819 172.895 420.636 173.355 420.269L173.473 420.351L173.215 421.019C172.715 421.37 172.07 421.546 171.281 421.546C170.367 421.546 169.652 421.28 169.137 420.749C168.621 420.21 168.363 419.464 168.363 418.511C168.363 417.667 168.617 416.979 169.125 416.448C169.633 415.917 170.316 415.651 171.176 415.651C171.98 415.651 172.598 415.874 173.027 416.319C173.457 416.765 173.672 417.405 173.672 418.241C173.672 418.405 173.668 418.53 173.66 418.616H170.074ZM176.414 415.909H176.684C176.973 415.909 177.262 415.897 177.551 415.874C177.535 416.015 177.527 416.12 177.527 416.19C177.527 416.253 177.535 416.347 177.551 416.472C177.41 416.464 177.039 416.46 176.438 416.46C176.422 417.272 176.414 417.858 176.414 418.218C176.414 419.39 176.449 420.452 176.52 421.405C176.207 421.366 175.926 421.347 175.676 421.347C175.418 421.347 175.133 421.366 174.82 421.405C174.891 420.444 174.926 419.386 174.926 418.229C174.926 417.87 174.918 417.284 174.902 416.472C174.801 416.464 174.656 416.46 174.469 416.46C174.297 416.46 174.172 416.464 174.094 416.472C174.117 416.378 174.129 416.28 174.129 416.179C174.129 416.077 174.117 415.976 174.094 415.874C174.32 415.897 174.523 415.909 174.703 415.909H174.891C174.891 415.151 175.113 414.425 175.559 413.729C176.035 412.987 176.594 412.616 177.234 412.616C177.469 412.616 177.727 412.659 178.008 412.745C177.914 413.198 177.832 413.694 177.762 414.233C177.387 413.944 177.039 413.8 176.719 413.8C176.508 413.8 176.34 413.858 176.215 413.976C176.09 414.085 176.027 414.226 176.027 414.397C176.027 414.522 176.074 414.729 176.168 415.019C176.285 415.409 176.367 415.706 176.414 415.909ZM179.695 418.042H181.676C181.676 417.995 181.68 417.94 181.688 417.878C181.688 417.815 181.688 417.776 181.688 417.761C181.688 416.69 181.383 416.155 180.773 416.155C180.055 416.155 179.695 416.749 179.695 417.937V418.042ZM179.695 418.616C179.695 419.304 179.855 419.843 180.176 420.233C180.504 420.624 180.938 420.819 181.477 420.819C182.016 420.819 182.516 420.636 182.977 420.269L183.094 420.351L182.836 421.019C182.336 421.37 181.691 421.546 180.902 421.546C179.988 421.546 179.273 421.28 178.758 420.749C178.242 420.21 177.984 419.464 177.984 418.511C177.984 417.667 178.238 416.979 178.746 416.448C179.254 415.917 179.938 415.651 180.797 415.651C181.602 415.651 182.219 415.874 182.648 416.319C183.078 416.765 183.293 417.405 183.293 418.241C183.293 418.405 183.289 418.53 183.281 418.616H179.695ZM184.324 421.405C184.387 420.382 184.418 419.448 184.418 418.604C184.418 417.651 184.387 416.714 184.324 415.792C184.566 415.823 184.836 415.839 185.133 415.839C185.43 415.839 185.691 415.823 185.918 415.792V416.612C186.395 415.987 186.996 415.675 187.723 415.675C188.316 415.675 188.777 415.866 189.105 416.249C189.262 416.437 189.367 416.679 189.422 416.976C189.453 417.179 189.469 417.507 189.469 417.96C189.469 418.038 189.469 418.241 189.469 418.569C189.461 418.89 189.457 419.175 189.457 419.425C189.457 420.144 189.484 420.804 189.539 421.405C189.211 421.366 188.918 421.347 188.66 421.347C188.41 421.347 188.121 421.366 187.793 421.405C187.855 420.733 187.887 419.823 187.887 418.675C187.887 417.917 187.836 417.409 187.734 417.151C187.609 416.823 187.348 416.659 186.949 416.659C186.582 416.659 186.324 416.815 186.176 417.128C186.027 417.433 185.953 417.921 185.953 418.593C185.953 419.327 185.98 420.265 186.035 421.405C185.723 421.366 185.438 421.347 185.18 421.347C184.922 421.347 184.637 421.366 184.324 421.405ZM195.375 420.304L195.457 420.351C195.41 420.663 195.379 420.886 195.363 421.019C194.84 421.362 194.242 421.534 193.57 421.534C192.648 421.534 191.918 421.276 191.379 420.761C190.84 420.237 190.57 419.526 190.57 418.628C190.57 417.737 190.848 417.019 191.402 416.472C191.957 415.925 192.684 415.651 193.582 415.651C194.41 415.651 195.078 415.823 195.586 416.167C195.367 416.659 195.215 417.05 195.129 417.339L194.977 417.269C194.781 416.542 194.359 416.179 193.711 416.179C193.258 416.179 192.898 416.382 192.633 416.788C192.367 417.194 192.234 417.757 192.234 418.476C192.234 420.054 192.805 420.843 193.945 420.843C194.453 420.843 194.93 420.663 195.375 420.304ZM197.812 418.042H199.793C199.793 417.995 199.797 417.94 199.805 417.878C199.805 417.815 199.805 417.776 199.805 417.761C199.805 416.69 199.5 416.155 198.891 416.155C198.172 416.155 197.812 416.749 197.812 417.937V418.042ZM197.812 418.616C197.812 419.304 197.973 419.843 198.293 420.233C198.621 420.624 199.055 420.819 199.594 420.819C200.133 420.819 200.633 420.636 201.094 420.269L201.211 420.351L200.953 421.019C200.453 421.37 199.809 421.546 199.02 421.546C198.105 421.546 197.391 421.28 196.875 420.749C196.359 420.21 196.102 419.464 196.102 418.511C196.102 417.667 196.355 416.979 196.863 416.448C197.371 415.917 198.055 415.651 198.914 415.651C199.719 415.651 200.336 415.874 200.766 416.319C201.195 416.765 201.41 417.405 201.41 418.241C201.41 418.405 201.406 418.53 201.398 418.616H197.812Z" fill="#E9B743"/>
</g>
<g id="attack_row">
<g id="attack_value">
<mask id="path-8-outside-3_822374_1979" maskUnits="userSpaceOnUse" x="251.221" y="395" width="14" height="10" fill="black">
<rect fill="white" x="251.221" y="395" width="14" height="10"/>
<path d="M253.138 402.043C253.232 403.113 253.677 403.648 254.474 403.648C255.318 403.648 255.74 403.086 255.74 401.961C255.74 400.836 255.295 400.273 254.404 400.273C254.201 400.273 254.056 400.277 253.97 400.285V399.711C254.08 399.727 254.162 399.734 254.216 399.734C255.091 399.734 255.529 399.207 255.529 398.152C255.529 397.191 255.205 396.711 254.556 396.711C254.259 396.711 254.013 396.844 253.818 397.109C253.631 397.375 253.533 397.734 253.525 398.188L253.56 398.223C253.443 398.121 253.095 397.824 252.517 397.332C253.041 396.574 253.83 396.195 254.884 396.195C255.634 396.195 256.213 396.363 256.619 396.699C257.033 397.027 257.24 397.488 257.24 398.082C257.24 398.512 257.115 398.863 256.865 399.137C256.615 399.402 256.205 399.633 255.634 399.828V399.91C256.916 400.098 257.556 400.703 257.556 401.727C257.556 402.461 257.287 403.055 256.748 403.508C256.209 403.953 255.49 404.176 254.591 404.176C253.638 404.176 252.865 403.922 252.271 403.414C252.607 402.898 252.896 402.441 253.138 402.043ZM258.705 400.191C258.705 398.84 258.935 397.836 259.396 397.18C259.857 396.523 260.576 396.195 261.552 396.195C262.576 396.195 263.306 396.512 263.744 397.145C264.181 397.777 264.4 398.793 264.4 400.191C264.4 401.543 264.166 402.547 263.697 403.203C263.236 403.859 262.517 404.188 261.541 404.188C260.525 404.188 259.798 403.871 259.361 403.238C258.923 402.605 258.705 401.59 258.705 400.191ZM261.552 396.688C261.091 396.688 260.779 396.969 260.615 397.531C260.466 398.023 260.392 398.91 260.392 400.191C260.392 401.473 260.463 402.359 260.603 402.852C260.775 403.414 261.091 403.695 261.552 403.695C262.013 403.695 262.33 403.414 262.502 402.852C262.642 402.367 262.713 401.48 262.713 400.191C262.713 398.902 262.642 398.016 262.502 397.531C262.33 396.969 262.013 396.688 261.552 396.688Z"/>
</mask>
<path d="M253.138 402.043C253.232 403.113 253.677 403.648 254.474 403.648C255.318 403.648 255.74 403.086 255.74 401.961C255.74 400.836 255.295 400.273 254.404 400.273C254.201 400.273 254.056 400.277 253.97 400.285V399.711C254.08 399.727 254.162 399.734 254.216 399.734C255.091 399.734 255.529 399.207 255.529 398.152C255.529 397.191 255.205 396.711 254.556 396.711C254.259 396.711 254.013 396.844 253.818 397.109C253.631 397.375 253.533 397.734 253.525 398.188L253.56 398.223C253.443 398.121 253.095 397.824 252.517 397.332C253.041 396.574 253.83 396.195 254.884 396.195C255.634 396.195 256.213 396.363 256.619 396.699C257.033 397.027 257.24 397.488 257.24 398.082C257.24 398.512 257.115 398.863 256.865 399.137C256.615 399.402 256.205 399.633 255.634 399.828V399.91C256.916 400.098 257.556 400.703 257.556 401.727C257.556 402.461 257.287 403.055 256.748 403.508C256.209 403.953 255.49 404.176 254.591 404.176C253.638 404.176 252.865 403.922 252.271 403.414C252.607 402.898 252.896 402.441 253.138 402.043ZM258.705 400.191C258.705 398.84 258.935 397.836 259.396 397.18C259.857 396.523 260.576 396.195 261.552 396.195C262.576 396.195 263.306 396.512 263.744 397.145C264.181 397.777 264.4 398.793 264.4 400.191C264.4 401.543 264.166 402.547 263.697 403.203C263.236 403.859 262.517 404.188 261.541 404.188C260.525 404.188 259.798 403.871 259.361 403.238C258.923 402.605 258.705 401.59 258.705 400.191ZM261.552 396.688C261.091 396.688 260.779 396.969 260.615 397.531C260.466 398.023 260.392 398.91 260.392 400.191C260.392 401.473 260.463 402.359 260.603 402.852C260.775 403.414 261.091 403.695 261.552 403.695C262.013 403.695 262.33 403.414 262.502 402.852C262.642 402.367 262.713 401.48 262.713 400.191C262.713 398.902 262.642 398.016 262.502 397.531C262.33 396.969 262.013 396.688 261.552 396.688Z" fill="white"/>
<path d="M253.138 402.043L253.636 401.999L253.503 400.48L252.711 401.783L253.138 402.043ZM253.97 400.285H253.47V400.833L254.016 400.783L253.97 400.285ZM253.97 399.711L254.041 399.216L253.47 399.134V399.711H253.97ZM253.818 397.109L253.415 396.813L253.41 396.821L253.818 397.109ZM253.525 398.188L253.025 398.179L253.021 398.391L253.172 398.541L253.525 398.188ZM253.56 398.223L253.233 398.601L253.914 397.869L253.56 398.223ZM252.517 397.332L252.106 397.048L251.849 397.42L252.193 397.713L252.517 397.332ZM256.619 396.699L256.3 397.085L256.308 397.091L256.619 396.699ZM256.865 399.137L257.229 399.479L257.234 399.474L256.865 399.137ZM255.634 399.828L255.472 399.355L255.134 399.471V399.828H255.634ZM255.634 399.91H255.134V400.342L255.562 400.405L255.634 399.91ZM256.748 403.508L257.066 403.893L257.069 403.891L256.748 403.508ZM252.271 403.414L251.852 403.141L251.613 403.509L251.946 403.794L252.271 403.414ZM252.64 402.087C252.692 402.672 252.844 403.189 253.158 403.567C253.49 403.966 253.951 404.148 254.474 404.148V403.148C254.2 403.148 254.04 403.063 253.927 402.927C253.796 402.77 253.679 402.484 253.636 401.999L252.64 402.087ZM254.474 404.148C255.018 404.148 255.499 403.96 255.823 403.527C256.128 403.121 256.24 402.572 256.24 401.961H255.24C255.24 402.475 255.141 402.77 255.023 402.927C254.926 403.056 254.774 403.148 254.474 403.148V404.148ZM256.24 401.961C256.24 401.346 256.12 400.792 255.798 400.385C255.458 399.955 254.961 399.773 254.404 399.773V400.773C254.737 400.773 254.909 400.873 255.014 401.006C255.137 401.161 255.24 401.451 255.24 401.961H256.24ZM254.404 399.773C254.2 399.773 254.036 399.777 253.925 399.787L254.016 400.783C254.077 400.778 254.201 400.773 254.404 400.773V399.773ZM254.47 400.285V399.711H253.47V400.285H254.47ZM253.9 400.206C254.014 400.222 254.125 400.234 254.216 400.234V399.234C254.199 399.234 254.146 399.231 254.041 399.216L253.9 400.206ZM254.216 400.234C254.758 400.234 255.247 400.067 255.586 399.658C255.91 399.267 256.029 398.736 256.029 398.152H255.029C255.029 398.623 254.929 398.883 254.816 399.02C254.717 399.138 254.55 399.234 254.216 399.234V400.234ZM256.029 398.152C256.029 397.631 255.944 397.153 255.7 396.792C255.433 396.396 255.024 396.211 254.556 396.211V397.211C254.737 397.211 254.814 397.267 254.871 397.351C254.952 397.47 255.029 397.712 255.029 398.152H256.029ZM254.556 396.211C254.081 396.211 253.693 396.436 253.415 396.813L254.221 397.406C254.334 397.252 254.438 397.211 254.556 397.211V396.211ZM253.41 396.821C253.146 397.195 253.034 397.664 253.025 398.179L254.025 398.196C254.032 397.805 254.116 397.555 254.227 397.398L253.41 396.821ZM253.172 398.541L253.207 398.576L253.914 397.869L253.879 397.834L253.172 398.541ZM253.888 397.845C253.768 397.741 253.419 397.443 252.841 396.951L252.193 397.713C252.772 398.206 253.118 398.501 253.233 398.601L253.888 397.845ZM252.929 397.616C253.344 397.015 253.966 396.695 254.884 396.695V395.695C253.693 395.695 252.737 396.134 252.106 397.048L252.929 397.616ZM254.884 396.695C255.566 396.695 256.015 396.849 256.3 397.085L256.937 396.314C256.41 395.878 255.702 395.695 254.884 395.695V396.695ZM256.308 397.091C256.587 397.312 256.74 397.62 256.74 398.082H257.74C257.74 397.357 257.479 396.743 256.929 396.307L256.308 397.091ZM256.74 398.082C256.74 398.408 256.648 398.633 256.496 398.799L257.234 399.474C257.582 399.094 257.74 398.615 257.74 398.082H256.74ZM256.501 398.794C256.332 398.974 256.01 399.171 255.472 399.355L255.796 400.301C256.399 400.095 256.898 399.831 257.229 399.479L256.501 398.794ZM255.134 399.828V399.91H256.134V399.828H255.134ZM255.562 400.405C256.146 400.49 256.514 400.662 256.732 400.868C256.936 401.061 257.056 401.328 257.056 401.727H258.056C258.056 401.102 257.856 400.554 257.419 400.141C256.997 399.742 256.404 399.517 255.707 399.415L255.562 400.405ZM257.056 401.727C257.056 402.321 256.847 402.772 256.426 403.125L257.069 403.891C257.727 403.338 258.056 402.601 258.056 401.727H257.056ZM256.429 403.122C256.003 403.475 255.407 403.676 254.591 403.676V404.676C255.572 404.676 256.415 404.432 257.066 403.893L256.429 403.122ZM254.591 403.676C253.73 403.676 253.081 403.448 252.596 403.034L251.946 403.794C252.649 404.395 253.546 404.676 254.591 404.676V403.676ZM252.69 403.687C253.028 403.168 253.32 402.707 253.566 402.303L252.711 401.783C252.472 402.176 252.186 402.629 251.852 403.141L252.69 403.687ZM263.697 403.203L263.29 402.912L263.288 402.916L263.697 403.203ZM260.615 397.531L261.094 397.676L261.095 397.671L260.615 397.531ZM260.603 402.852L260.122 402.989L260.125 402.998L260.603 402.852ZM262.502 402.852L262.98 402.998L262.982 402.991L262.502 402.852ZM262.502 397.531L262.982 397.392L262.98 397.385L262.502 397.531ZM259.205 400.191C259.205 398.879 259.432 397.999 259.805 397.467L258.987 396.892C258.439 397.673 258.205 398.8 258.205 400.191H259.205ZM259.805 397.467C260.152 396.974 260.699 396.695 261.552 396.695V395.695C260.453 395.695 259.562 396.073 258.987 396.892L259.805 397.467ZM261.552 396.695C262.471 396.695 263.018 396.974 263.333 397.429L264.155 396.86C263.595 396.05 262.68 395.695 261.552 395.695V396.695ZM263.333 397.429C263.682 397.934 263.9 398.822 263.9 400.191H264.9C264.9 398.763 264.681 397.621 264.155 396.86L263.333 397.429ZM263.9 400.191C263.9 401.502 263.67 402.381 263.29 402.913L264.104 403.494C264.662 402.713 264.9 401.584 264.9 400.191H263.9ZM263.288 402.916C262.941 403.409 262.395 403.688 261.541 403.688V404.688C262.64 404.688 263.531 404.31 264.106 403.491L263.288 402.916ZM261.541 403.688C260.631 403.688 260.088 403.41 259.772 402.954L258.95 403.523C259.509 404.332 260.419 404.688 261.541 404.688V403.688ZM259.772 402.954C259.423 402.449 259.205 401.56 259.205 400.191H258.205C258.205 401.619 258.424 402.762 258.95 403.523L259.772 402.954ZM261.552 396.188C261.211 396.188 260.895 396.295 260.638 396.527C260.39 396.749 260.233 397.054 260.135 397.391L261.095 397.671C261.161 397.446 261.242 397.329 261.307 397.27C261.362 397.22 261.433 397.188 261.552 397.188V396.188ZM260.136 397.387C259.964 397.958 259.892 398.913 259.892 400.191H260.892C260.892 398.908 260.969 398.089 261.094 397.676L260.136 397.387ZM259.892 400.191C259.892 401.47 259.96 402.422 260.122 402.989L261.084 402.714C260.965 402.297 260.892 401.475 260.892 400.191H259.892ZM260.125 402.998C260.228 403.334 260.389 403.637 260.637 403.858C260.895 404.088 261.211 404.195 261.552 404.195V403.195C261.433 403.195 261.36 403.162 261.302 403.111C261.234 403.05 261.15 402.932 261.081 402.705L260.125 402.998ZM261.552 404.195C261.894 404.195 262.209 404.088 262.468 403.858C262.716 403.637 262.877 403.334 262.98 402.998L262.023 402.705C261.954 402.932 261.871 403.05 261.803 403.111C261.745 403.162 261.672 403.195 261.552 403.195V404.195ZM262.982 402.991C263.145 402.43 263.213 401.477 263.213 400.191H262.213C262.213 401.484 262.14 402.304 262.021 402.712L262.982 402.991ZM263.213 400.191C263.213 398.906 263.145 397.953 262.982 397.392L262.021 397.671C262.14 398.078 262.213 398.899 262.213 400.191H263.213ZM262.98 397.385C262.877 397.049 262.716 396.746 262.468 396.525C262.209 396.295 261.894 396.188 261.552 396.188V397.188C261.672 397.188 261.745 397.22 261.803 397.272C261.871 397.332 261.954 397.451 262.023 397.677L262.98 397.385Z" fill="#9A321A" mask="url(#path-8-outside-3_822374_1979)"/>
</g>
<path id="attack_label" d="M161.051 400.871C161.52 400.887 161.867 400.895 162.094 400.895C162.32 400.895 162.668 400.887 163.137 400.871C162.832 399.941 162.492 399.047 162.117 398.188C161.734 399.016 161.379 399.91 161.051 400.871ZM158.836 404C159.969 401.5 161.059 398.781 162.105 395.844C162.27 395.867 162.426 395.879 162.574 395.879C162.73 395.879 162.871 395.867 162.996 395.844C163.934 398.438 165.02 401.156 166.254 404C165.965 403.969 165.629 403.953 165.246 403.953C164.879 403.953 164.543 403.969 164.238 404C164.059 403.438 163.801 402.652 163.465 401.645C163.16 401.629 162.703 401.621 162.094 401.621C161.484 401.621 161.027 401.629 160.723 401.645C160.355 402.723 160.078 403.508 159.891 404C159.742 403.977 159.574 403.965 159.387 403.965C159.223 403.965 159.039 403.977 158.836 404ZM167.004 399.066H166.793C166.543 399.066 166.348 399.07 166.207 399.078C166.23 398.969 166.242 398.867 166.242 398.773C166.242 398.672 166.23 398.57 166.207 398.469C166.535 398.5 166.758 398.516 166.875 398.516H167.004C167.012 398.414 167.016 398.262 167.016 398.059C167.016 397.684 166.996 397.309 166.957 396.934C167.512 396.73 168.039 396.504 168.539 396.254L168.668 396.348C168.621 397.238 168.598 397.84 168.598 398.152V398.516C169.012 398.516 169.391 398.5 169.734 398.469C169.719 398.609 169.711 398.711 169.711 398.773C169.711 398.836 169.719 398.938 169.734 399.078C169.555 399.07 169.168 399.066 168.574 399.066C168.543 400.066 168.527 400.73 168.527 401.059V401.527C168.527 402.316 168.559 402.824 168.621 403.051C168.699 403.348 168.883 403.496 169.172 403.496C169.328 403.496 169.555 403.457 169.852 403.379V403.812C169.352 404.031 168.902 404.141 168.504 404.141C167.48 404.141 166.969 403.625 166.969 402.594C166.969 402.57 166.973 402.238 166.98 401.598C166.996 400.949 167.004 400.312 167.004 399.688V399.066ZM170.777 399.066H170.566C170.316 399.066 170.121 399.07 169.98 399.078C170.004 398.969 170.016 398.867 170.016 398.773C170.016 398.672 170.004 398.57 169.98 398.469C170.309 398.5 170.531 398.516 170.648 398.516H170.777C170.785 398.414 170.789 398.262 170.789 398.059C170.789 397.684 170.77 397.309 170.73 396.934C171.285 396.73 171.812 396.504 172.312 396.254L172.441 396.348C172.395 397.238 172.371 397.84 172.371 398.152V398.516C172.785 398.516 173.164 398.5 173.508 398.469C173.492 398.609 173.484 398.711 173.484 398.773C173.484 398.836 173.492 398.938 173.508 399.078C173.328 399.07 172.941 399.066 172.348 399.066C172.316 400.066 172.301 400.73 172.301 401.059V401.527C172.301 402.316 172.332 402.824 172.395 403.051C172.473 403.348 172.656 403.496 172.945 403.496C173.102 403.496 173.328 403.457 173.625 403.379V403.812C173.125 404.031 172.676 404.141 172.277 404.141C171.254 404.141 170.742 403.625 170.742 402.594C170.742 402.57 170.746 402.238 170.754 401.598C170.77 400.949 170.777 400.312 170.777 399.688V399.066ZM177.188 400.918C176.648 401.027 176.258 401.195 176.016 401.422C175.773 401.641 175.652 401.953 175.652 402.359C175.652 403.031 175.895 403.367 176.379 403.367C176.918 403.367 177.188 403.004 177.188 402.277V400.918ZM177.234 403.262C176.891 403.848 176.363 404.141 175.652 404.141C175.16 404.141 174.773 403.996 174.492 403.707C174.211 403.418 174.07 403.02 174.07 402.512C174.07 401.801 174.48 401.305 175.301 401.023C175.645 400.914 175.988 400.805 176.332 400.695C176.684 400.586 176.957 400.465 177.152 400.332C177.16 400.285 177.164 400.219 177.164 400.133C177.164 399.781 177.062 399.5 176.859 399.289C176.656 399.078 176.387 398.973 176.051 398.973C175.535 398.973 175.098 399.273 174.738 399.875C174.637 399.562 174.551 399.312 174.48 399.125C175.152 398.531 175.848 398.234 176.566 398.234C178.02 398.234 178.746 398.859 178.746 400.109V400.168L178.711 402.43C178.711 402.875 178.754 403.168 178.84 403.309C178.941 403.473 179.156 403.555 179.484 403.555H179.52V403.848C179.105 404.02 178.695 404.105 178.289 404.105C177.719 404.105 177.367 403.824 177.234 403.262ZM184.688 402.898L184.77 402.945C184.723 403.258 184.691 403.48 184.676 403.613C184.152 403.957 183.555 404.129 182.883 404.129C181.961 404.129 181.23 403.871 180.691 403.355C180.152 402.832 179.883 402.121 179.883 401.223C179.883 400.332 180.16 399.613 180.715 399.066C181.27 398.52 181.996 398.246 182.895 398.246C183.723 398.246 184.391 398.418 184.898 398.762C184.68 399.254 184.527 399.645 184.441 399.934L184.289 399.863C184.094 399.137 183.672 398.773 183.023 398.773C182.57 398.773 182.211 398.977 181.945 399.383C181.68 399.789 181.547 400.352 181.547 401.07C181.547 402.648 182.117 403.438 183.258 403.438C183.766 403.438 184.242 403.258 184.688 402.898ZM185.789 404C185.867 402.82 185.906 401.211 185.906 399.172C185.906 397.531 185.867 396.211 185.789 395.211C186.062 395.242 186.359 395.258 186.68 395.258C187.016 395.258 187.312 395.242 187.57 395.211C187.5 395.844 187.465 396.719 187.465 397.836V401.023C188.48 400 189.238 399.121 189.738 398.387C189.902 398.418 190.082 398.434 190.277 398.434C190.465 398.434 190.633 398.418 190.781 398.387L190.84 398.434L188.848 400.531L191.004 404C190.668 403.961 190.355 403.941 190.066 403.941C189.785 403.941 189.469 403.961 189.117 404C188.672 403.133 188.121 402.219 187.465 401.258V401.844C187.465 402.867 187.484 403.586 187.523 404C187.211 403.961 186.922 403.941 186.656 403.941C186.406 403.941 186.117 403.961 185.789 404Z" fill="#E9B743"/>
</g>
</g>
<g id="frame_decorator">
<path id="bee_nft_image" d="M282.606 3H2.60645V329.532H282.606V3Z" stroke="url(#paint2_linear_822374_1979)" stroke-width="3" stroke-miterlimit="10"/>
<path id="Vector" d="M210 328.817L222.445 319.248H273.659V228.193L282 213.989" stroke="url(#paint3_linear_822374_1979)" stroke-width="2" stroke-miterlimit="10"/>
<path id="Vector_2" d="M74.3203 330.533L61.8204 320.87H10.378V228.922L2.00031 214.579" stroke="url(#paint4_linear_822374_1979)" stroke-width="2" stroke-miterlimit="10"/>
<path id="Vector_3" d="M210 3.00293L223.878 11.9779H249.41H274.943V99.4036L283.321 113.747" stroke="url(#paint5_linear_822374_1979)" stroke-width="2" stroke-miterlimit="10"/>
<path id="Vector_4" d="M76.7949 3.00293L62.9172 11.3895H37.3849H11.8526V93.0836L3.47492 106.486" stroke="url(#paint6_linear_822374_1979)" stroke-width="2" stroke-miterlimit="10"/>
</g>
<path id="owner_id" d="M25.9688 380.828C25.9688 379.057 26.5 377.667 27.5625 376.656C28.6354 375.635 30.1302 375.125 32.0469 375.125C33.8802 375.125 35.2917 375.609 36.2812 376.578C37.2812 377.547 37.7812 378.911 37.7812 380.672C37.7812 382.349 37.2448 383.693 36.1719 384.703C35.099 385.703 33.6667 386.203 31.875 386.203C29.9688 386.203 28.5052 385.74 27.4844 384.812C26.474 383.875 25.9688 382.547 25.9688 380.828ZM28.4844 380.672C28.4844 382.141 28.7865 383.281 29.3906 384.094C29.9948 384.906 30.8229 385.312 31.875 385.312C32.9167 385.312 33.7396 384.906 34.3438 384.094C34.9479 383.281 35.25 382.141 35.25 380.672C35.25 379.193 34.9427 378.036 34.3281 377.203C33.7344 376.401 32.9167 376 31.875 376C30.8229 376 29.9948 376.411 29.3906 377.234C28.7865 378.057 28.4844 379.203 28.4844 380.672ZM40.7031 386C40.0885 383.844 39.3073 381.349 38.3594 378.516C38.6927 378.557 39.0729 378.578 39.5 378.578C39.9271 378.578 40.3073 378.557 40.6406 378.516C41.2656 380.734 41.7708 382.495 42.1562 383.797C42.7604 381.911 43.276 380.151 43.7031 378.516C43.9635 378.557 44.2656 378.578 44.6094 378.578C44.9427 378.578 45.2396 378.557 45.5 378.516C45.9375 380.141 46.4427 381.901 47.0156 383.797C47.6719 381.672 48.1979 379.911 48.5938 378.516C48.7708 378.557 48.974 378.578 49.2031 378.578C49.4219 378.578 49.6198 378.557 49.7969 378.516C48.8802 380.932 48.0365 383.427 47.2656 386C46.9531 385.948 46.6667 385.922 46.4062 385.922C46.1667 385.922 45.8802 385.948 45.5469 386C45.1719 384.625 44.6615 382.932 44.0156 380.922C43.4948 382.536 42.974 384.229 42.4531 386C42.1406 385.948 41.849 385.922 41.5781 385.922C41.3281 385.922 41.0365 385.948 40.7031 386ZM50.6562 386C50.7396 384.635 50.7812 383.391 50.7812 382.266C50.7812 380.995 50.7396 379.745 50.6562 378.516C50.9792 378.557 51.3385 378.578 51.7344 378.578C52.1302 378.578 52.4792 378.557 52.7812 378.516V379.609C53.4167 378.776 54.2188 378.359 55.1875 378.359C55.9792 378.359 56.5938 378.615 57.0312 379.125C57.2396 379.375 57.3802 379.698 57.4531 380.094C57.4948 380.365 57.5156 380.802 57.5156 381.406C57.5156 381.51 57.5156 381.781 57.5156 382.219C57.5052 382.646 57.5 383.026 57.5 383.359C57.5 384.318 57.5365 385.198 57.6094 386C57.1719 385.948 56.7812 385.922 56.4375 385.922C56.1042 385.922 55.7188 385.948 55.2812 386C55.3646 385.104 55.4062 383.891 55.4062 382.359C55.4062 381.349 55.3385 380.672 55.2031 380.328C55.0365 379.891 54.6875 379.672 54.1562 379.672C53.6667 379.672 53.3229 379.88 53.125 380.297C52.9271 380.703 52.8281 381.354 52.8281 382.25C52.8281 383.229 52.8646 384.479 52.9375 386C52.5208 385.948 52.1406 385.922 51.7969 385.922C51.4531 385.922 51.0729 385.948 50.6562 386ZM61.3281 381.516H63.9688C63.9688 381.453 63.974 381.38 63.9844 381.297C63.9844 381.214 63.9844 381.161 63.9844 381.141C63.9844 379.714 63.5781 379 62.7656 379C61.8073 379 61.3281 379.792 61.3281 381.375V381.516ZM61.3281 382.281C61.3281 383.198 61.5417 383.917 61.9688 384.438C62.4062 384.958 62.9844 385.219 63.7031 385.219C64.4219 385.219 65.0885 384.974 65.7031 384.484L65.8594 384.594L65.5156 385.484C64.849 385.953 63.9896 386.188 62.9375 386.188C61.7188 386.188 60.7656 385.833 60.0781 385.125C59.3906 384.406 59.0469 383.411 59.0469 382.141C59.0469 381.016 59.3854 380.099 60.0625 379.391C60.7396 378.682 61.651 378.328 62.7969 378.328C63.8698 378.328 64.6927 378.625 65.2656 379.219C65.8385 379.812 66.125 380.667 66.125 381.781C66.125 382 66.1198 382.167 66.1094 382.281H61.3281ZM67.5 386C67.5729 384.969 67.6094 383.719 67.6094 382.25C67.6094 380.573 67.5729 379.328 67.5 378.516C67.8229 378.557 68.1875 378.578 68.5938 378.578C68.9896 378.578 69.349 378.557 69.6719 378.516C69.6198 379.422 69.5938 380.089 69.5938 380.516H69.6719C70.0573 379.057 70.8594 378.328 72.0781 378.328H72.1562C72.0938 378.703 72.0625 379.078 72.0625 379.453C72.0625 379.839 72.0938 380.229 72.1562 380.625C71.7396 380.469 71.401 380.391 71.1406 380.391C70.1615 380.391 69.6719 381.13 69.6719 382.609C69.6719 383.818 69.7188 384.948 69.8125 386C69.3958 385.948 69.0104 385.922 68.6562 385.922C68.3229 385.922 67.9375 385.948 67.5 386ZM73.6719 386C73.7865 384.698 73.8438 382.922 73.8438 380.672C73.8438 378.37 73.7865 376.589 73.6719 375.328C74.1302 375.391 74.5833 375.422 75.0312 375.422C75.4896 375.422 75.9375 375.391 76.375 375.328C76.2604 376.609 76.2031 378.391 76.2031 380.672C76.2031 382.984 76.2604 384.76 76.375 386C75.875 385.948 75.4271 385.922 75.0312 385.922C74.625 385.922 74.1719 385.948 73.6719 386ZM78.7031 386C78.8177 385.135 78.875 383.823 78.875 382.062V379.828C78.875 377.828 78.8177 376.333 78.7031 375.344C79.1406 375.375 79.5469 375.391 79.9219 375.391C80.2552 375.391 80.776 375.38 81.4844 375.359C82.1927 375.339 82.7344 375.328 83.1094 375.328C84.974 375.328 86.3229 375.656 87.1562 376.312C88.3229 377.229 88.9062 378.599 88.9062 380.422C88.9062 384.151 86.7656 386.016 82.4844 386.016C82.099 386.016 81.6094 386.01 81.0156 386C80.4323 385.979 80.0365 385.969 79.8281 385.969C79.5156 385.969 79.1406 385.979 78.7031 386ZM81.2188 385.047C81.6146 385.109 81.9688 385.141 82.2812 385.141C85.0208 385.141 86.3906 383.615 86.3906 380.562C86.3906 379.021 86.0677 377.917 85.4219 377.25C84.776 376.573 83.7344 376.234 82.2969 376.234C82.2448 376.234 81.8958 376.245 81.25 376.266C81.2083 377.63 81.1875 379.266 81.1875 381.172C81.1875 382.859 81.1979 384.151 81.2188 385.047Z" fill="white"/>
</g>
<path id="bee_name" d="M28.5322 361C27.1884 355.859 25.5634 350.523 23.6572 344.992C24.2353 345.055 24.8994 345.086 25.6494 345.086C26.3837 345.086 27.04 345.055 27.6181 344.992C28.5244 348.914 29.5712 352.812 30.7587 356.688C32.2275 352.5 33.5556 348.602 34.7431 344.992C35.1025 345.055 35.4931 345.086 35.915 345.086C36.3525 345.086 36.7509 345.055 37.1103 344.992C38.2197 348.695 39.4775 352.539 40.8837 356.523C42.1962 352.789 43.3369 348.945 44.3056 344.992C44.6181 345.055 44.9775 345.086 45.3837 345.086C45.7744 345.086 46.1259 345.055 46.4384 344.992C44.7822 349.711 43.0166 355.047 41.1416 361C40.7041 360.922 40.2978 360.883 39.9228 360.883C39.5791 360.883 39.1728 360.922 38.7041 361C37.6259 357.391 36.3681 353.609 34.9306 349.656C33.54 353.234 32.2041 357.016 30.9228 361C30.4853 360.922 30.0869 360.883 29.7275 360.883C29.3681 360.883 28.9697 360.922 28.5322 361ZM49.5087 355.398C49.5087 357.133 49.6806 358.367 50.0244 359.102C50.3837 359.883 51.0166 360.273 51.9228 360.273C52.8291 360.273 53.4619 359.891 53.8212 359.125C54.1806 358.359 54.3603 357.117 54.3603 355.398C54.3603 353.68 54.1806 352.438 53.8212 351.672C53.4619 350.906 52.8291 350.523 51.9228 350.523C51.0166 350.523 50.3837 350.906 50.0244 351.672C49.6806 352.422 49.5087 353.664 49.5087 355.398ZM46.0634 355.398C46.0634 353.539 46.5791 352.094 47.6103 351.062C48.6416 350.016 50.0869 349.492 51.9462 349.492C53.8212 349.492 55.2666 350.008 56.2822 351.039C57.2978 352.055 57.8056 353.508 57.8056 355.398C57.8056 357.258 57.2822 358.703 56.2353 359.734C55.2041 360.766 53.7666 361.281 51.9228 361.281C50.0634 361.281 48.6181 360.766 47.5869 359.734C46.5712 358.703 46.0634 357.258 46.0634 355.398ZM59.8681 361C59.9775 359.453 60.0322 357.578 60.0322 355.375C60.0322 352.859 59.9775 350.992 59.8681 349.773C60.3525 349.836 60.8994 349.867 61.5087 349.867C62.1025 349.867 62.6416 349.836 63.1259 349.773C63.0478 351.133 63.0087 352.133 63.0087 352.773H63.1259C63.7041 350.586 64.9072 349.492 66.7353 349.492H66.8525C66.7587 350.055 66.7119 350.617 66.7119 351.18C66.7119 351.758 66.7587 352.344 66.8525 352.938C66.2275 352.703 65.7197 352.586 65.3291 352.586C63.8603 352.586 63.1259 353.695 63.1259 355.914C63.1259 357.727 63.1962 359.422 63.3369 361C62.7119 360.922 62.1337 360.883 61.6025 360.883C61.1025 360.883 60.5244 360.922 59.8681 361ZM68.7978 361C68.9541 358.641 69.0322 355.422 69.0322 351.344C69.0322 348.062 68.9541 345.422 68.7978 343.422C69.3447 343.484 69.9384 343.516 70.5791 343.516C71.2509 343.516 71.8447 343.484 72.3603 343.422C72.2197 344.688 72.1494 346.438 72.1494 348.672V355.047C74.1806 353 75.6962 351.242 76.6962 349.773C77.0244 349.836 77.3837 349.867 77.7744 349.867C78.1494 349.867 78.4853 349.836 78.7822 349.773L78.8994 349.867L74.915 354.062L79.2275 361C78.5556 360.922 77.9306 360.883 77.3525 360.883C76.79 360.883 76.1572 360.922 75.4541 361C74.5634 359.266 73.4619 357.438 72.1494 355.516V356.688C72.1494 358.734 72.1884 360.172 72.2666 361C71.6416 360.922 71.0634 360.883 70.5322 360.883C70.0322 360.883 69.4541 360.922 68.7978 361ZM83.3056 354.273H87.2666C87.2666 354.18 87.2744 354.07 87.29 353.945C87.29 353.82 87.29 353.742 87.29 353.711C87.29 351.57 86.6806 350.5 85.4619 350.5C84.0244 350.5 83.3056 351.688 83.3056 354.062V354.273ZM83.3056 355.422C83.3056 356.797 83.6259 357.875 84.2666 358.656C84.9228 359.438 85.79 359.828 86.8681 359.828C87.9462 359.828 88.9462 359.461 89.8681 358.727L90.1025 358.891L89.5869 360.227C88.5869 360.93 87.2978 361.281 85.7197 361.281C83.8916 361.281 82.4619 360.75 81.4306 359.688C80.3994 358.609 79.8837 357.117 79.8837 355.211C79.8837 353.523 80.3916 352.148 81.4072 351.086C82.4228 350.023 83.79 349.492 85.5087 349.492C87.1181 349.492 88.3525 349.938 89.2119 350.828C90.0712 351.719 90.5009 353 90.5009 354.672C90.5009 355 90.4931 355.25 90.4775 355.422H83.3056ZM92.5634 361C92.6728 359.453 92.7275 357.578 92.7275 355.375C92.7275 352.859 92.6728 350.992 92.5634 349.773C93.0478 349.836 93.5947 349.867 94.2041 349.867C94.7978 349.867 95.3369 349.836 95.8212 349.773C95.7431 351.133 95.7041 352.133 95.7041 352.773H95.8212C96.3994 350.586 97.6025 349.492 99.4306 349.492H99.5478C99.4541 350.055 99.4072 350.617 99.4072 351.18C99.4072 351.758 99.4541 352.344 99.5478 352.938C98.9228 352.703 98.415 352.586 98.0244 352.586C96.5556 352.586 95.8212 353.695 95.8212 355.914C95.8212 357.727 95.8916 359.422 96.0322 361C95.4072 360.922 94.8291 360.883 94.2978 360.883C93.7978 360.883 93.2197 360.922 92.5634 361ZM108.22 361C108.392 359.703 108.477 357.734 108.477 355.094V353.008C108.477 349.195 108.392 346.523 108.22 344.992C109.61 345.039 110.595 345.062 111.173 345.062C111.501 345.062 111.97 345.055 112.579 345.039C113.188 345.008 113.626 344.992 113.892 344.992C117.329 344.992 119.048 346.219 119.048 348.672C119.048 349.75 118.634 350.617 117.806 351.273C116.993 351.93 115.821 352.312 114.29 352.422V352.539C117.727 352.539 119.446 353.875 119.446 356.547C119.446 357.938 118.962 359.031 117.993 359.828C117.024 360.609 115.665 361 113.915 361C113.493 361 112.829 360.984 111.923 360.953C111.017 360.922 110.321 360.906 109.837 360.906C109.571 360.906 109.032 360.938 108.22 361ZM111.97 359.641C112.313 359.719 112.587 359.758 112.79 359.758C114.79 359.758 115.79 358.664 115.79 356.477C115.79 354.336 114.72 353.266 112.579 353.266C112.282 353.266 112.048 353.273 111.876 353.289V356.336C111.876 357.414 111.907 358.516 111.97 359.641ZM111.852 352C111.915 352 111.993 352 112.087 352C112.196 352.016 112.274 352.023 112.321 352.023C114.509 352.023 115.602 350.984 115.602 348.906C115.602 347.156 114.657 346.281 112.767 346.281C112.61 346.281 112.36 346.297 112.017 346.328C111.907 347.109 111.852 348.078 111.852 349.234V352ZM124.649 354.273H128.61C128.61 354.18 128.618 354.07 128.634 353.945C128.634 353.82 128.634 353.742 128.634 353.711C128.634 351.57 128.024 350.5 126.806 350.5C125.368 350.5 124.649 351.688 124.649 354.062V354.273ZM124.649 355.422C124.649 356.797 124.97 357.875 125.61 358.656C126.267 359.438 127.134 359.828 128.212 359.828C129.29 359.828 130.29 359.461 131.212 358.727L131.446 358.891L130.931 360.227C129.931 360.93 128.642 361.281 127.063 361.281C125.235 361.281 123.806 360.75 122.774 359.688C121.743 358.609 121.227 357.117 121.227 355.211C121.227 353.523 121.735 352.148 122.751 351.086C123.767 350.023 125.134 349.492 126.852 349.492C128.462 349.492 129.696 349.938 130.556 350.828C131.415 351.719 131.845 353 131.845 354.672C131.845 355 131.837 355.25 131.821 355.422H124.649ZM136.579 354.273H140.54C140.54 354.18 140.548 354.07 140.563 353.945C140.563 353.82 140.563 353.742 140.563 353.711C140.563 351.57 139.954 350.5 138.735 350.5C137.298 350.5 136.579 351.688 136.579 354.062V354.273ZM136.579 355.422C136.579 356.797 136.899 357.875 137.54 358.656C138.196 359.438 139.063 359.828 140.142 359.828C141.22 359.828 142.22 359.461 143.142 358.727L143.376 358.891L142.86 360.227C141.86 360.93 140.571 361.281 138.993 361.281C137.165 361.281 135.735 360.75 134.704 359.688C133.673 358.609 133.157 357.117 133.157 355.211C133.157 353.523 133.665 352.148 134.681 351.086C135.696 350.023 137.063 349.492 138.782 349.492C140.392 349.492 141.626 349.938 142.485 350.828C143.345 351.719 143.774 353 143.774 354.672C143.774 355 143.767 355.25 143.751 355.422H136.579ZM159.243 344.289H161.423L159.665 349.281H162.524L164.306 344.289H166.485L164.727 349.281H168.056L167.376 351.25H164.024L162.993 354.133H166.532L165.829 356.102H162.313L160.532 361.07H158.352L160.134 356.102H157.251L155.446 361.07H153.267L155.048 356.102H151.626L152.329 354.133H155.727L156.759 351.25H153.149L153.852 349.281H157.462L159.243 344.289ZM158.938 351.25L157.907 354.156H160.837L161.868 351.25H158.938ZM171.876 353.992L171.267 353.617C171.392 352.992 171.454 352.133 171.454 351.039C171.454 348.93 171.376 347.172 171.22 345.766C171.767 345.797 172.571 345.812 173.634 345.812H175.227C177.181 345.812 178.556 345.797 179.352 345.766C179.337 346.031 179.329 346.469 179.329 347.078C179.329 347.734 179.337 348.25 179.352 348.625C178.102 348.547 176.985 348.508 176.001 348.508C175.032 348.508 173.946 348.547 172.743 348.625V348.602C172.727 349.023 172.673 350.305 172.579 352.445C173.423 352.023 174.306 351.812 175.227 351.812C176.696 351.812 177.868 352.203 178.743 352.984C179.634 353.766 180.079 354.797 180.079 356.078C180.079 357.688 179.524 358.969 178.415 359.922C177.306 360.875 175.782 361.352 173.845 361.352C172.079 361.352 170.673 360.953 169.626 360.156C170.079 359.328 170.524 358.438 170.962 357.484H171.243C171.54 359.375 172.415 360.32 173.868 360.32C175.602 360.32 176.47 359.047 176.47 356.5C176.47 354.203 175.649 353.055 174.009 353.055C173.227 353.055 172.517 353.367 171.876 353.992ZM182.657 361V359.758C185.079 357.82 186.829 356.102 187.907 354.602C189.063 352.992 189.642 351.375 189.642 349.75C189.642 347.562 188.86 346.469 187.298 346.469C186.485 346.469 185.813 346.781 185.282 347.406C184.767 348.016 184.477 348.867 184.415 349.961C183.915 349.242 183.306 348.688 182.587 348.297C183.602 346.344 185.329 345.367 187.767 345.367C189.532 345.367 190.892 345.75 191.845 346.516C192.813 347.266 193.298 348.32 193.298 349.68C193.298 351.148 192.657 352.492 191.376 353.711C191.048 354.023 190.282 354.664 189.079 355.633C187.985 356.523 187.102 357.312 186.431 358C187.431 358.031 188.196 358.047 188.727 358.047C190.181 358.047 191.767 357.984 193.485 357.859C193.423 358.516 193.392 359.023 193.392 359.383C193.392 359.711 193.423 360.25 193.485 361C191.423 360.922 189.595 360.883 188.001 360.883C186.392 360.883 184.61 360.922 182.657 361ZM195.524 361V359.758C197.946 357.82 199.696 356.102 200.774 354.602C201.931 352.992 202.509 351.375 202.509 349.75C202.509 347.562 201.727 346.469 200.165 346.469C199.352 346.469 198.681 346.781 198.149 347.406C197.634 348.016 197.345 348.867 197.282 349.961C196.782 349.242 196.173 348.688 195.454 348.297C196.47 346.344 198.196 345.367 200.634 345.367C202.399 345.367 203.759 345.75 204.712 346.516C205.681 347.266 206.165 348.32 206.165 349.68C206.165 351.148 205.524 352.492 204.243 353.711C203.915 354.023 203.149 354.664 201.946 355.633C200.852 356.523 199.97 357.312 199.298 358C200.298 358.031 201.063 358.047 201.595 358.047C203.048 358.047 204.634 357.984 206.352 357.859C206.29 358.516 206.259 359.023 206.259 359.383C206.259 359.711 206.29 360.25 206.352 361C204.29 360.922 202.462 360.883 200.868 360.883C199.259 360.883 197.477 360.922 195.524 361Z" fill="white"/>
</g>
<defs>
<filter id="filter0_ii_822374_1979" x="-1.5" y="-1.5" width="288" height="465" filterUnits="userSpaceOnUse" colorInterpolationFilters="sRGB">
<feFlood floodOpacity="0" result="BackgroundImageFix"/>
<feBlend mode="normal" in="SourceGraphic" in2="BackgroundImageFix" result="shape"/>
<feColorMatrix in="SourceAlpha" type="matrix" values="0 0 0 0 0 0 0 0 0 0 0 0 0 0 0 0 0 0 127 0" result="hardAlpha"/>
<feOffset dx="-2" dy="-2"/>
<feGaussianBlur stdDeviation="10"/>
<feComposite in2="hardAlpha" operator="arithmetic" k2="-1" k3="1"/>
<feColorMatrix type="matrix" values="0 0 0 0 0 0 0 0 0 0 0 0 0 0 0 0 0 0 0.25 0"/>
<feBlend mode="normal" in2="shape" result="effect1_innerShadow_822374_1979"/>
<feColorMatrix in="SourceAlpha" type="matrix" values="0 0 0 0 0 0 0 0 0 0 0 0 0 0 0 0 0 0 127 0" result="hardAlpha"/>
<feOffset dx="2" dy="2"/>
<feGaussianBlur stdDeviation="10"/>
<feComposite in2="hardAlpha" operator="arithmetic" k2="-1" k3="1"/>
<feColorMatrix type="matrix" values="0 0 0 0 0 0 0 0 0 0 0 0 0 0 0 0 0 0 0.25 0"/>
<feBlend mode="normal" in2="effect1_innerShadow_822374_1979" result="effect2_innerShadow_822374_1979"/>
</filter>
<linearGradient id="paint0_linear_822374_1979" x1="299.755" y1="-42.0408" x2="299.755" y2="468.479" gradientUnits="userSpaceOnUse">
<stop offset="0.142606" stop-color="#242E4E"/>
<stop offset="0.499178" stop-color="#121727"/>
<stop offset="0.926392" stop-color="#202946"/>
</linearGradient>
<linearGradient id="paint1_linear_822374_1979" x1="142.5" y1="459.967" x2="142.5" y2="2" gradientUnits="userSpaceOnUse">
<stop stop-color="#E9B743"/>
<stop offset="0.485" stop-color="#68341B"/>
<stop offset="0.98" stop-color="#E9B743"/>
</linearGradient>
<linearGradient id="paint2_linear_822374_1979" x1="142.606" y1="329.508" x2="142.606" y2="3" gradientUnits="userSpaceOnUse">
<stop stop-color="#E9B743"/>
<stop offset="0.485" stop-color="#68341B"/>
<stop offset="0.98" stop-color="#E9B743"/>
</linearGradient>
<linearGradient id="paint3_linear_822374_1979" x1="271.201" y1="213.998" x2="215.579" y2="326.17" gradientUnits="userSpaceOnUse">
<stop stop-color="#936029"/>
<stop offset="0.33" stop-color="#E9B743"/>
<stop offset="0.7" stop-color="#68341B"/>
<stop offset="1" stop-color="#E9B743"/>
</linearGradient>
<linearGradient id="paint4_linear_822374_1979" x1="10.8092" y1="214.587" x2="67.1569" y2="327.621" gradientUnits="userSpaceOnUse">
<stop stop-color="#936029"/>
<stop offset="0.33" stop-color="#E9B743"/>
<stop offset="0.7" stop-color="#68341B"/>
<stop offset="1" stop-color="#E9B743"/>
</linearGradient>
<linearGradient id="paint5_linear_822374_1979" x1="246.66" y1="113.739" x2="246.66" y2="3.00293" gradientUnits="userSpaceOnUse">
<stop stop-color="#936029"/>
<stop offset="0.33" stop-color="#E9B743"/>
<stop offset="0.7" stop-color="#68341B"/>
<stop offset="1" stop-color="#E9B743"/>
</linearGradient>
<linearGradient id="paint6_linear_822374_1979" x1="40.1349" y1="106.479" x2="40.1349" y2="3.00293" gradientUnits="userSpaceOnUse">
<stop stop-color="#936029"/>
<stop offset="0.33" stop-color="#E9B743"/>
<stop offset="0.7" stop-color="#68341B"/>
<stop offset="1" stop-color="#E9B743"/>
</linearGradient>
</defs>
</svg>
